<?xml version="1.0" encoding="UTF-8"?>
<!DOCTYPE svg PUBLIC "-//W3C//DTD SVG 1.1//EN" "http://www.w3.org/Graphics/SVG/1.1/DTD/svg11.dtd">
<!-- Creator: CorelDRAW X7 -->
<svg xmlns="http://www.w3.org/2000/svg" xml:space="preserve" width="4.05898in" height="6.31496in" version="1.1" style="shape-rendering:geometricPrecision; text-rendering:geometricPrecision; image-rendering:optimizeQuality; fill-rule:evenodd; clip-rule:evenodd"
viewBox="0 0 2811 4373"
 xmlns:xlink="http://www.w3.org/1999/xlink">
 <defs>
  <style type="text/css">
   <![CDATA[
    .fil0 {fill:#231F20}
   ]]>
  </style>
 </defs>
 <g id="Layer_x0020_1">
  <metadata id="CorelCorpID_0Corel-Layer"/>
  <g id="_860834704">
   <path class="fil0" d="M1405 4373c-1,0 -2,0 -3,0 -158,-5 -313,-35 -461,-91 -362,-135 -650,-403 -810,-754 -160,-352 -174,-744 -39,-1106 2,-4 3,-7 5,-11l1224 -2360c17,-31 49,-51 84,-51l0 0c36,0 68,20 84,51l855 1648c24,46 6,103 -40,127 -47,24 -104,6 -128,-40l-771 -1486 -1138 2193c-115,313 -102,653 36,956 140,306 389,539 704,656 128,48 262,74 398,79 137,-5 271,-31 399,-79 314,-117 564,-350 703,-656 139,-303 152,-643 36,-956l-217 -418c-24,-46 -6,-103 41,-127 46,-25 103,-6 127,40l220 423c2,4 3,7 5,11 135,362 121,754 -39,1106 -161,351 -448,619 -810,754 -148,55 -304,86 -462,91 -1,0 -2,0 -3,0z"/>
   <g>
   </g>
   <g>
   </g>
   <g>
   </g>
   <g>
   </g>
   <g>
   </g>
   <g>
   </g>
   <g>
   </g>
   <g>
   </g>
   <g>
   </g>
   <g>
   </g>
   <g>
   </g>
   <g>
   </g>
   <g>
   </g>
   <g>
   </g>
   <g>
   </g>
  </g>
 </g>
</svg>
