<?xml version="1.0" encoding="UTF-8"?>
<!DOCTYPE svg PUBLIC "-//W3C//DTD SVG 1.1//EN" "http://www.w3.org/Graphics/SVG/1.1/DTD/svg11.dtd">
<!-- Creator: CorelDRAW X7 -->
<svg xmlns="http://www.w3.org/2000/svg" xml:space="preserve" width="5.84791in" height="6.3705in" version="1.1" style="shape-rendering:geometricPrecision; text-rendering:geometricPrecision; image-rendering:optimizeQuality; fill-rule:evenodd; clip-rule:evenodd"
viewBox="0 0 6485 7065"
 xmlns:xlink="http://www.w3.org/1999/xlink"
 enable-background="new 0 0 512.002 512.002">
 <defs>
  <style type="text/css">
   <![CDATA[
    .fil0 {fill:black}
   ]]>
  </style>
 </defs>
 <g id="Layer_x0020_1">
  <metadata id="CorelCorpID_0Corel-Layer"/>
  <g id="_942312704">
   <g>
    <path class="fil0" d="M2208 6237c76,0 138,-62 138,-138 0,-76 -62,-138 -138,-138 -609,0 -1104,-495 -1104,-1104 0,-307 121,-669 325,-968 43,-63 27,-149 -36,-192 -63,-43 -149,-26 -192,37 -234,343 -373,763 -373,1123 0,761 619,1380 1380,1380l0 0z"/>
    <circle class="fil0" cx="731" cy="6306" r="138"/>
    <path class="fil0" d="M2208 0c-61,0 -112,39 -131,94 -487,1299 -1013,2367 -1561,3174 -328,483 -516,1062 -516,1589 0,351 84,700 244,1010 35,68 118,94 186,59 68,-35 94,-118 59,-186 -141,-274 -213,-571 -213,-883 0,-473 171,-996 468,-1434 513,-754 1005,-1729 1464,-2900 348,888 719,1670 1104,2329 117,201 238,393 359,571 298,438 469,961 469,1434 0,1084 -887,1932 -1932,1932 -320,0 -636,-80 -916,-230 -67,-37 -151,-12 -187,56 -36,67 -11,150 56,186 320,173 682,264 1047,264 883,0 1664,-522 2014,-1304 153,41 310,62 470,62 989,0 1793,-805 1793,-1794 0,-455 -175,-978 -468,-1398 -430,-614 -853,-1513 -1193,-2531 0,-2 -1,-3 -1,-4 -18,-56 -69,-95 -128,-96 -61,-2 -115,37 -134,94 -230,689 -607,1655 -1120,2427 -382,-683 -761,-1517 -1102,-2427 -19,-55 -70,-94 -131,-94l0 0zm2483 558c252,693 620,1546 1100,2232 262,375 418,838 418,1239 0,837 -681,1518 -1517,1518 -127,0 -251,-15 -372,-46 63,-208 96,-424 96,-644 0,-527 -189,-1106 -516,-1589 -103,-150 -205,-312 -306,-481 478,-685 846,-1536 1097,-2229l0 0z"/>
   </g>
  </g>
 </g>
</svg>
