<?xml version="1.0" encoding="UTF-8"?>
<!DOCTYPE svg PUBLIC "-//W3C//DTD SVG 1.1//EN" "http://www.w3.org/Graphics/SVG/1.1/DTD/svg11.dtd">
<!-- Creator: CorelDRAW X7 -->
<svg xmlns="http://www.w3.org/2000/svg" xml:space="preserve" width="6.73266in" height="8.12152in" version="1.1" style="shape-rendering:geometricPrecision; text-rendering:geometricPrecision; image-rendering:optimizeQuality; fill-rule:evenodd; clip-rule:evenodd"
viewBox="0 0 7214 8702"
 xmlns:xlink="http://www.w3.org/1999/xlink">
 <defs>
  <style type="text/css">
   <![CDATA[
    .fil0 {fill:#231F20}
   ]]>
  </style>
 </defs>
 <g id="Layer_x0020_1">
  <metadata id="CorelCorpID_0Corel-Layer"/>
  <g id="_950181728">
   <g>
    <path class="fil0" d="M2175 6766c-2,0 -3,0 -5,0 -245,-7 -485,-55 -714,-140 -560,-209 -1005,-624 -1253,-1168 -248,-543 -269,-1151 -60,-1711 2,-5 4,-11 7,-16l1895 -3652c25,-49 75,-79 130,-79l0 0c54,0 104,30 129,79l1323 2550c37,71 9,160 -62,197 -72,37 -160,9 -197,-63l-1193 -2299 -1761 3394c-179,484 -159,1009 55,1479 216,473 602,833 1089,1015 198,74 405,115 617,121 211,-6 418,-47 616,-121 487,-182 873,-542 1089,-1015 214,-470 234,-995 55,-1479l-335 -647c-38,-72 -10,-160 62,-198 72,-37 160,-9 197,63l340 655c3,5 5,11 7,16 209,560 188,1168 -60,1711 -248,544 -693,959 -1253,1168 -229,85 -469,133 -714,140 -2,0 -3,0 -4,0z"/>
    <path class="fil0" d="M6068 6316c-2,0 -3,0 -5,0 -128,-4 -255,-29 -375,-74 -295,-110 -529,-328 -660,-614 -130,-286 -141,-606 -31,-901 2,-5 4,-11 7,-16l934 -1801c25,-48 75,-79 130,-79 55,0 105,31 130,79l395 761c37,72 9,160 -63,198 -71,37 -160,9 -197,-63l-265 -511 -800 1543c-80,219 -70,456 27,668 98,215 274,379 495,462 89,33 183,52 278,55 95,-3 189,-22 278,-55 454,-170 687,-676 522,-1131l-329 -634c-37,-71 -9,-160 63,-197 71,-37 160,-9 197,63l333 642c3,5 5,11 7,16 227,608 -83,1288 -691,1515 -120,45 -247,70 -376,74 -1,0 -3,0 -4,0z"/>
    <path class="fil0" d="M4520 8702c-2,0 -3,0 -5,0 -91,-3 -181,-21 -266,-53 -430,-160 -650,-641 -489,-1072 2,-5 4,-11 7,-16l623 -1200c25,-48 75,-79 130,-79l0 0c54,0 104,31 129,79l623 1200c3,5 5,11 7,16 161,431 -59,912 -489,1072 -85,32 -175,50 -266,53 -1,0 -3,0 -4,0zm-489 -1014c-99,277 44,584 320,687 54,21 111,32 169,34 57,-2 114,-13 168,-34 276,-103 419,-410 320,-687l-488 -942 -489 942z"/>
   </g>
   <g>
   </g>
   <g>
   </g>
   <g>
   </g>
   <g>
   </g>
   <g>
   </g>
   <g>
   </g>
   <g>
   </g>
   <g>
   </g>
   <g>
   </g>
   <g>
   </g>
   <g>
   </g>
   <g>
   </g>
   <g>
   </g>
   <g>
   </g>
   <g>
   </g>
  </g>
 </g>
</svg>
