<?xml version="1.0" encoding="UTF-8"?>
<!DOCTYPE svg PUBLIC "-//W3C//DTD SVG 1.1//EN" "http://www.w3.org/Graphics/SVG/1.1/DTD/svg11.dtd">
<!-- Creator: CorelDRAW X7 -->
<svg xmlns="http://www.w3.org/2000/svg" xml:space="preserve" width="5.16094in" height="5.16094in" version="1.1" style="shape-rendering:geometricPrecision; text-rendering:geometricPrecision; image-rendering:optimizeQuality; fill-rule:evenodd; clip-rule:evenodd"
viewBox="0 0 1085 1085"
 xmlns:xlink="http://www.w3.org/1999/xlink">
 <defs>
  <style type="text/css">
   <![CDATA[
    .str0 {stroke:#FEFEFE;stroke-width:20.6872}
    .fil0 {fill:none}
    .fil1 {fill:#FEFEFE}
   ]]>
  </style>
 </defs>
 <g id="Layer_x0020_1">
  <metadata id="CorelCorpID_0Corel-Layer"/>
  <g id="_898857952">
   <circle class="fil0 str0" cx="542" cy="542" r="532"/>
   <g>
    <path class="fil1" d="M634 545l0 25c0,3 0,3 0,5 0,1 0,2 0,4l0 29c0,2 0,1 0,4l0 29c0,2 0,1 0,4l0 39c0,25 2,21 -6,21 -20,-1 -47,0 -68,0l-109 0 0 -170c0,-2 -1,-4 2,-4l179 0c3,0 2,10 2,14zm-223 -115c0,6 0,12 0,18 -1,10 0,8 0,16 0,6 0,12 0,18 -1,9 0,7 0,15 0,6 0,13 0,19 -1,9 0,6 0,14 0,6 0,13 0,19 -1,9 0,7 0,15 0,6 0,12 0,18 -1,10 0,7 0,16 0,6 0,12 0,18 -1,9 0,6 0,14 0,6 0,13 0,19l0 67c-1,9 0,6 0,15 0,6 0,12 0,18 -1,10 0,7 0,16 0,6 0,12 0,18l0 66c-1,10 0,8 0,16 0,11 -1,33 1,41 0,4 3,7 5,9 3,3 3,1 5,2 2,1 1,2 5,2l230 0c4,0 4,-1 6,-2 1,0 1,0 1,-1 1,0 1,0 2,0 0,0 1,-1 1,-1 3,-2 1,-1 3,-3 3,-3 3,-5 3,-6 0,-3 0,0 1,-4 1,-12 -1,-27 0,-39 1,-9 0,-6 0,-14 0,-6 -1,-13 0,-19 1,-9 0,-6 0,-14 0,-6 -1,-13 0,-19 1,-9 0,-6 0,-15 0,-6 -1,-12 0,-19 1,-9 0,-6 0,-14 0,-7 -1,-13 0,-19l0 -33c1,-10 0,-6 0,-15 0,-6 -1,-13 0,-19 1,-10 0,-6 0,-15 0,-6 -1,-12 0,-18 1,-10 0,-6 0,-15 0,-6 -1,-12 0,-19 1,-9 0,-6 0,-14 0,-6 -1,-13 0,-19 1,-10 0,-6 0,-15 0,-6 -1,-12 0,-19l0 -76c-1,-8 1,-26 0,-32 -1,-4 0,-9 0,-14 0,-4 0,-9 -1,-13 -1,-3 -3,-6 -4,-9 -1,-3 -3,-4 -3,-6 0,-1 0,0 0,-2 -2,-4 -3,-7 -5,-10l-1 -4c-1,-1 0,0 -1,-1l-2 -5c-1,-3 -2,-2 -3,-4 -1,-4 -1,-6 -4,-10 -1,-3 -2,-5 -3,-7l-12 -28c-1,-1 -1,-2 -2,-4l-7 -15c0,-1 0,-2 -1,-2 -3,-7 -1,-17 -1,-24 -1,0 -1,-1 -3,-1 -3,0 1,1 -2,1 -6,0 -11,-1 -17,-1 -3,0 -5,0 -7,1l-18 0c-3,-1 -4,-1 -8,-1 -8,0 -17,1 -25,1 -10,-1 -5,-1 -16,0l-18 0c-3,-1 -4,-1 -8,-1 -10,0 -20,1 -30,0 -16,-1 -12,1 -12,18 0,8 -2,10 -6,18l-10 22c-2,5 -5,10 -6,15 -2,5 -6,11 -7,16 -1,4 -1,2 -3,5 -2,4 -2,6 -4,10 -3,5 -11,23 -12,28 0,3 -1,3 -1,6 0,7 0,22 0,30z"/>
    <path class="fil1" d="M450 180c0,8 -1,58 0,63 1,2 2,3 4,5 3,3 6,6 12,6l153 0c5,0 7,-2 11,-5 2,-2 5,-6 5,-10l0 -56c0,-2 -1,0 -1,-3 0,-3 1,-1 0,-3 0,0 -1,-2 -1,-2 -8,-12 -14,-9 -27,-9 -9,0 -56,-1 -65,0 -9,1 -24,0 -35,0l-34 0c-11,0 -14,1 -20,7 -1,2 -2,5 -2,7z"/>
   </g>
  </g>
 </g>
</svg>
