<?xml version="1.0" encoding="UTF-8"?>
<!DOCTYPE svg PUBLIC "-//W3C//DTD SVG 1.1//EN" "http://www.w3.org/Graphics/SVG/1.1/DTD/svg11.dtd">
<!-- Creator: CorelDRAW X7 -->
<svg xmlns="http://www.w3.org/2000/svg" xml:space="preserve" width="5.16094in" height="5.16094in" version="1.1" style="shape-rendering:geometricPrecision; text-rendering:geometricPrecision; image-rendering:optimizeQuality; fill-rule:evenodd; clip-rule:evenodd"
viewBox="0 0 606 606"
 xmlns:xlink="http://www.w3.org/1999/xlink">
 <defs>
  <style type="text/css">
   <![CDATA[
    .str0 {stroke:#FEFEFE;stroke-width:11.5631}
    .fil0 {fill:#FEFEFE}
    .fil1 {fill:#010000}
   ]]>
  </style>
 </defs>
 <g id="Layer_x0020_1">
  <metadata id="CorelCorpID_0Corel-Layer"/>
  <g id="_800600768">
   <circle class="fil0 str0" cx="303" cy="303" r="297"/>
   <g>
    <path class="fil1" d="M354 304l0 15c0,1 1,1 1,2 0,1 -1,1 -1,3l0 16c1,1 0,1 0,2l0 16c1,1 0,1 0,2l0 22c0,14 1,12 -3,12 -11,0 -26,0 -38,0l-61 0 0 -95c0,-1 0,-2 1,-2l100 0c2,0 1,6 1,7zm-124 -64c0,4 0,7 0,11 -1,5 0,4 0,8 0,4 0,7 0,10 -1,6 0,4 0,9 0,3 0,7 0,10 -1,5 0,4 0,8 0,4 0,7 0,11 -1,5 0,4 0,9 0,3 0,6 0,9 -1,6 0,4 0,9 0,3 0,7 0,10 -1,5 0,4 0,8 0,4 0,7 0,11l0 37c-1,6 0,4 0,8 0,4 0,7 0,11 -1,5 0,4 0,9 0,3 0,6 0,10l0 37c-1,5 0,4 0,9 0,6 -1,18 0,23 0,2 2,3 3,5 2,1 2,0 3,1 1,0 1,1 3,1l128 0c2,0 2,-1 4,-1 0,-1 0,-1 0,-1 1,0 1,0 1,0 0,0 1,0 1,-1 1,0 1,0 2,-1 1,-2 1,-3 1,-3 0,-2 0,-1 1,-3 0,-7 -1,-15 0,-21 0,-6 0,-4 0,-9 0,-3 -1,-7 0,-10 0,-5 0,-3 0,-8 0,-4 -1,-7 0,-11 0,-5 0,-3 0,-8 0,-3 -1,-7 0,-10 0,-6 0,-4 0,-9 0,-3 -1,-7 0,-10l0 -19c0,-5 0,-3 0,-8 0,-3 -1,-7 0,-10 0,-6 0,-4 0,-9 0,-3 -1,-7 0,-10 0,-5 0,-3 0,-8 0,-4 -1,-7 0,-11 0,-5 0,-3 0,-8 0,-3 -1,-7 0,-10 0,-6 0,-4 0,-9 0,-3 -1,-7 0,-10l0 -43c-1,-4 0,-14 0,-18 -1,-2 0,-5 0,-7 0,-3 0,-5 -1,-8 0,-1 -1,-3 -2,-5 0,-1 -1,-2 -2,-3 0,-1 1,0 0,-1 -1,-2 -1,-4 -2,-6l-1 -2c-1,0 0,0 -1,0l-1 -3c0,-2 -1,-2 -1,-3 -1,-2 -1,-3 -2,-6 -1,-1 -2,-2 -2,-3l-7 -16c0,-1 -1,-1 -1,-2l-4 -9c0,0 0,0 0,-1 -2,-3 -1,-9 -1,-13 -1,0 -1,0 -2,0 -2,-1 1,0 -1,0 -4,0 -6,-1 -9,-1 -2,0 -3,1 -5,1l-9 0c-2,0 -3,-1 -5,-1 -4,0 -9,1 -14,1 -5,0 -3,-1 -9,0l-10 0c-2,0 -2,-1 -4,-1 -6,0 -12,1 -17,0 -9,0 -7,1 -7,11 0,4 -1,5 -3,9l-6 13c-1,3 -2,5 -3,8 -1,3 -4,6 -4,9 -1,3 -1,1 -2,3 -1,2 -1,4 -2,6 -2,2 -6,13 -7,15 0,2 0,2 0,4 -1,4 0,12 0,16z"/>
    <path class="fil1" d="M251 100c0,5 0,33 1,36 0,1 1,2 2,3 1,2 3,3 6,3l86 0c3,0 4,-1 6,-3 1,-1 3,-3 3,-5l0 -31c0,-2 -1,-1 -1,-3 0,-1 1,0 0,-1 0,0 0,-1 0,-1 -5,-7 -8,-5 -15,-5 -5,0 -32,-1 -37,0 -5,0 -13,0 -19,0l-19 0c-6,0 -8,0 -11,4 -1,1 -2,2 -2,3z"/>
   </g>
  </g>
 </g>
</svg>
