<?xml version="1.0" encoding="UTF-8"?>
<!DOCTYPE svg PUBLIC "-//W3C//DTD SVG 1.1//EN" "http://www.w3.org/Graphics/SVG/1.1/DTD/svg11.dtd">
<!-- Creator: CorelDRAW X7 -->
<svg xmlns="http://www.w3.org/2000/svg" xml:space="preserve" width="5.16094in" height="5.16094in" version="1.1" style="shape-rendering:geometricPrecision; text-rendering:geometricPrecision; image-rendering:optimizeQuality; fill-rule:evenodd; clip-rule:evenodd"
viewBox="0 0 6623 6623"
 xmlns:xlink="http://www.w3.org/1999/xlink">
 <defs>
  <style type="text/css">
   <![CDATA[
    .str0 {stroke:#FEFEFE;stroke-width:126.302}
    .fil0 {fill:#FEFEFE}
    .fil1 {fill:#010000}
   ]]>
  </style>
 </defs>
 <g id="Layer_x0020_1">
  <metadata id="CorelCorpID_0Corel-Layer"/>
  <g id="_907509312">
   <circle class="fil0 str0" cx="3311" cy="3311" r="3248"/>
   <g>
    <path class="fil1" d="M3239 5239c485,0 971,7 1275,-318 45,-48 22,-33 79,-72 213,-148 549,-245 854,-702 139,-208 270,-422 295,-729 -971,651 -3825,665 -4817,0 79,951 1222,1429 1305,1503 254,226 494,318 1009,318z"/>
    <path class="fil1" d="M3466 3684c-567,0 -997,-4 -1546,-123 -853,-184 -752,-315 -957,-370 0,-177 -23,-163 87,-254 656,-544 3295,-550 4298,-149 232,93 315,151 356,327 -321,480 -1658,569 -2238,569zm-189 76c364,0 2433,-102 2503,-645 40,-310 -741,-502 -970,-547 -550,-109 -979,-136 -1571,-136 -636,0 -2378,169 -2343,678 33,471 1735,650 2381,650z"/>
    <path class="fil1" d="M3504 2925c164,14 277,69 455,76 1007,42 621,460 1290,304 -7,-6 -20,-22 -24,-14 -4,7 -18,-12 -24,-14 -188,-84 -203,-31 -385,-146 -466,-295 -381,-218 -971,-281 -237,-25 -292,-82 -520,-127 -290,-57 -747,96 -972,227 -200,115 -151,232 -402,243 -245,12 -340,-56 -533,112l567 32c269,-6 446,-499 1216,-491 68,0 112,1 175,17l128 62z"/>
    <path class="fil1" d="M1076 3115l152 114c152,-36 227,-119 350,-143 404,-80 202,142 593,-166 39,-31 118,-77 164,-102 141,-76 274,-90 373,-158 -534,0 -1430,153 -1632,455z"/>
    <path class="fil1" d="M5590 3115c-239,-358 -1442,-493 -2086,-493 51,44 -46,3 94,58 276,108 612,-24 1045,207 196,104 209,166 458,225 342,80 171,216 489,3z"/>
    <path class="fil1" d="M2480 3305c139,65 17,-70 303,-76 -60,-87 24,-76 -265,-76 -69,130 -71,82 -38,152z"/>
    <path class="fil1" d="M3770 3305c267,0 198,196 341,0 -120,-58 -173,-38 -341,-38l0 38z"/>
    <path class="fil1" d="M4794 3381l0 -76c-100,-24 -112,-35 -190,-76 36,132 35,139 190,152z"/>
    <polygon class="fil1" points="3504,2925 3390,2925 3390,3001 3542,3001 "/>
    <path class="fil1" d="M3201 3456c163,-86 69,11 113,-113 -86,23 -110,8 -113,113z"/>
   </g>
  </g>
 </g>
</svg>
