<?xml version="1.0" encoding="UTF-8"?>
<!DOCTYPE svg PUBLIC "-//W3C//DTD SVG 1.1//EN" "http://www.w3.org/Graphics/SVG/1.1/DTD/svg11.dtd">
<!-- Creator: CorelDRAW X7 -->
<svg xmlns="http://www.w3.org/2000/svg" xml:space="preserve" width="5.16094in" height="5.16094in" version="1.1" style="shape-rendering:geometricPrecision; text-rendering:geometricPrecision; image-rendering:optimizeQuality; fill-rule:evenodd; clip-rule:evenodd"
viewBox="0 0 1085 1085"
 xmlns:xlink="http://www.w3.org/1999/xlink">
 <defs>
  <style type="text/css">
   <![CDATA[
    .str0 {stroke:#FEFEFE;stroke-width:20.6872}
    .fil0 {fill:none}
    .fil1 {fill:#FEFEFE}
   ]]>
  </style>
 </defs>
 <g id="Layer_x0020_1">
  <metadata id="CorelCorpID_0Corel-Layer"/>
  <g id="_907511808">
   <circle class="fil0 str0" cx="542" cy="542" r="532"/>
   <g>
    <path class="fil1" d="M314 501c0,-27 15,-24 22,-43 9,-23 10,-96 113,-96 2,-82 123,-118 172,-42 15,22 15,22 15,42 108,0 106,83 114,99 1,0 7,9 8,11 12,14 13,5 13,29 0,44 -185,56 -243,56 -52,0 -214,-18 -214,-56zm221 -247l9 0c55,2 106,40 110,84 46,4 79,26 98,56 19,33 5,20 37,42 38,26 28,64 28,126 0,94 -87,123 -94,134 -14,22 11,20 -32,28 -96,18 -212,20 -305,-2 -23,-5 -14,-2 -21,-20 -13,-28 -97,-39 -97,-140 0,-66 -11,-101 30,-128 31,-20 18,-11 35,-40 17,-28 54,-55 98,-56 2,-23 23,-47 38,-59 20,-16 43,-24 66,-25z"/>
    <path class="fil1" d="M254 720c0,51 50,72 91,86 98,32 471,52 486,-72l0 -10c-2,-15 -12,-32 -32,-50 -13,6 -22,13 -32,19 -24,18 -24,10 -24,46 -26,5 -53,11 -82,16 -68,10 -164,10 -232,0l-87 -16c1,-35 8,-30 -23,-46 -14,-8 -21,-12 -37,-19 -7,10 -28,32 -28,46z"/>
    <path class="fil1" d="M626 441c0,30 55,21 31,-12l-5 -5c0,0 -2,-1 -3,-2 -11,3 -23,4 -23,19z"/>
    <path class="fil1" d="M542 380c0,16 28,37 38,-4l-14 -14c-12,2 -24,3 -24,18z"/>
    <path class="fil1" d="M556 464c0,53 33,31 33,14 0,-22 -19,-19 -33,-14z"/>
   </g>
  </g>
 </g>
</svg>
