<?xml version="1.0" encoding="UTF-8"?>
<!DOCTYPE svg PUBLIC "-//W3C//DTD SVG 1.1//EN" "http://www.w3.org/Graphics/SVG/1.1/DTD/svg11.dtd">
<!-- Creator: CorelDRAW X7 -->
<svg xmlns="http://www.w3.org/2000/svg" xml:space="preserve" width="5.16094in" height="5.16094in" version="1.1" style="shape-rendering:geometricPrecision; text-rendering:geometricPrecision; image-rendering:optimizeQuality; fill-rule:evenodd; clip-rule:evenodd"
viewBox="0 0 602 602"
 xmlns:xlink="http://www.w3.org/1999/xlink">
 <defs>
  <style type="text/css">
   <![CDATA[
    .str0 {stroke:#FEFEFE;stroke-width:11.4869}
    .fil0 {fill:#FEFEFE}
    .fil1 {fill:#010000}
   ]]>
  </style>
 </defs>
 <g id="Layer_x0020_1">
  <metadata id="CorelCorpID_0Corel-Layer"/>
  <g id="_907515552">
   <circle class="fil0 str0" cx="301" cy="301" r="295"/>
   <path class="fil1" d="M297 183c0,5 -11,3 -20,3 -28,0 -24,-3 -29,28 -1,4 -1,5 -5,7 1,3 -2,2 3,2 0,4 -15,48 -17,49 -1,2 -5,3 -6,4 0,7 -2,40 1,44l5 6c12,17 13,36 -1,52 0,1 -1,1 -1,2l-2 2c-1,1 -2,2 -2,4l0 116c0,2 2,8 8,8l141 0c4,0 8,-4 8,-9l0 -115c0,-2 -4,-6 -5,-7 0,-1 0,-1 -1,-2 -25,-30 6,-56 6,-60l0 -39c0,-6 -5,0 -9,-10l-9 -29c-2,-4 -3,-10 -5,-14 2,-4 1,0 3,-4 -11,-7 0,-35 -19,-35l-34 0 0 -93 -10 0 0 90z"/>
  </g>
 </g>
</svg>
