<?xml version="1.0" encoding="UTF-8"?>
<!DOCTYPE svg PUBLIC "-//W3C//DTD SVG 1.1//EN" "http://www.w3.org/Graphics/SVG/1.1/DTD/svg11.dtd">
<!-- Creator: CorelDRAW X7 -->
<svg xmlns="http://www.w3.org/2000/svg" xml:space="preserve" width="5.16094in" height="5.16094in" version="1.1" style="shape-rendering:geometricPrecision; text-rendering:geometricPrecision; image-rendering:optimizeQuality; fill-rule:evenodd; clip-rule:evenodd"
viewBox="0 0 1642 1642"
 xmlns:xlink="http://www.w3.org/1999/xlink">
 <defs>
  <style type="text/css">
   <![CDATA[
    .str0 {stroke:#FEFEFE;stroke-width:31.3122}
    .fil0 {fill:none}
    .fil1 {fill:#FEFEFE}
   ]]>
  </style>
 </defs>
 <g id="Layer_x0020_1">
  <metadata id="CorelCorpID_0Corel-Layer"/>
  <g id="_800586784">
   <circle class="fil0 str0" cx="821" cy="821" r="805"/>
   <g>
    <path class="fil1" d="M712 1132l0 23c-3,0 -10,-4 -14,-5 -5,-2 -4,0 -7,-2 -5,-4 -13,-6 -20,-7l-26 -10c-4,-2 -8,-4 -11,-4 -6,0 10,14 12,16 2,2 3,3 5,5l3 3c1,1 2,2 3,3l1 2c4,4 8,8 12,11 4,3 2,-1 3,3l2 0c0,4 5,8 8,9l0 3c-3,1 -4,1 -6,2 -4,2 -6,1 -9,2 -1,1 -1,1 -3,1l-26 8c-4,1 -4,-1 -6,2 0,1 -2,-1 0,2 2,2 6,1 7,2 1,0 1,1 2,1l45 16c1,1 1,1 3,2 5,2 11,5 17,6 4,1 3,-2 5,2 1,2 0,21 0,25 -2,-1 -1,-1 -3,-1 -2,-1 -3,-1 -4,-2l-44 -15c-3,-1 -3,-2 -6,-3l-15 -5c-3,-1 -2,-1 -4,-1 -1,-1 -1,-1 -3,-2 -1,0 -3,-1 -4,-1l-8 -3c-3,-2 -5,-2 -8,-3l-20 -7c-3,-1 0,-1 -5,-1 1,-4 1,-3 1,-6 0,-8 -1,-14 -1,-22 8,-4 29,-8 39,-11l14 -3c0,-6 -6,-9 -10,-12l-8 -8c-4,-4 -9,-10 -13,-13 -2,-2 -3,-3 -5,-5 -3,-2 -3,-4 -6,-5 -1,-3 -4,-5 -6,-7 -5,-5 -3,-3 -4,-11 -1,-5 0,-9 -1,-13 0,-5 -2,-11 3,-8l48 17c7,5 19,8 28,11 2,1 2,1 5,2 3,1 7,2 10,4l11 3c2,1 3,2 5,2 3,2 14,5 14,8zm-124 -83l1 -23 35 13c3,1 6,2 9,3l45 16c6,1 1,0 4,2l23 8c10,4 7,-3 7,28 -4,0 -1,0 -4,-1 -1,0 0,0 -1,0l-2 -1c-1,0 -2,-1 -3,-2 -1,0 -1,0 -2,0l-18 -6c-2,-1 -1,-1 -4,-2l-12 -4c-2,-1 -2,-1 -4,-2 -3,-1 -1,0 -4,-1l-7 -3c-3,-1 -6,-2 -8,-3l-6 -2c-1,0 -1,0 -2,-1l-29 -10c-2,-1 -2,-1 -4,-2l-6 -2c-3,0 -2,1 -5,-1 -1,-1 -3,-2 -3,-4zm101 -97c0,-11 -1,-11 4,-9 2,0 6,1 7,1 0,0 2,2 2,2 2,1 2,0 4,1 3,2 2,2 6,2l0 88 -24 -8c0,0 0,0 -1,0 -9,-2 0,-1 -9,-4l-8 -3c-9,-3 -9,-1 -12,-3 -4,-3 1,0 -7,-4 -6,-2 -15,-4 -16,-5l-39 -15c-8,-2 -3,-2 -8,-1l1 -8c1,-6 -2,-13 0,-18 1,-1 10,3 12,4 5,2 5,1 12,4 2,1 5,2 6,2 2,1 2,1 3,1l3 1c0,0 1,0 1,0l53 20c7,2 5,2 10,2l0 -23c1,-12 1,-3 0,-17 0,-3 0,-7 0,-10zm-101 -178c4,0 5,4 7,8l9 13c5,6 12,14 17,21l11 14c1,1 0,0 1,1l4 6c0,0 0,0 0,0 0,1 1,1 1,1 1,2 1,2 3,4 2,-1 4,-1 5,-2 2,0 0,0 2,0 2,-1 2,-1 3,-1l26 -11c2,-1 1,0 4,-1l9 -3c4,-2 3,-3 6,-3l1 0c5,-1 10,-4 15,-6l0 31 -26 10c-5,2 -9,3 -13,5l-10 3c-2,1 -1,1 -4,2 1,4 7,10 9,13 8,10 9,10 21,14l16 5c10,3 7,1 7,29 -4,0 -3,-2 -7,-3l-16 -6c-2,-1 -1,0 -3,0l-44 -17c-3,-1 1,1 -1,0 0,0 0,0 -1,0 -3,-1 -7,-3 -11,-5 -12,-3 -24,-9 -35,-13 -3,0 -3,0 -5,-1 -1,-6 -1,-15 0,-22 0,-3 -1,-2 1,-3 1,-1 16,6 19,7 4,1 1,0 5,0 3,5 9,4 14,6 4,2 8,2 10,4 2,1 2,1 4,1 0,-5 -8,-13 -11,-17l-13 -17c0,0 -1,-1 -1,-1l-10 -12c-3,-5 -18,-23 -18,-25 -2,-6 -1,-14 -1,-20 0,-4 0,-5 0,-9zm-58 -95c0,154 0,308 0,463 0,16 -2,69 3,83 2,5 1,5 3,10 1,4 2,7 4,11 1,2 1,3 2,4 1,3 2,3 3,5 4,5 8,11 13,15 8,8 21,15 32,20l10 4c2,2 6,3 10,5l14 6c0,0 0,0 1,0 0,0 0,0 0,0l14 6c2,1 0,0 2,0 0,0 2,1 2,2 7,3 14,5 21,7 2,1 1,0 2,1l19 7c4,2 6,2 10,4l8 2c3,1 5,3 8,4 2,0 4,0 5,1l44 15c2,1 9,5 9,-1l0 -577c0,-4 -9,-7 -13,-8l-4 -2c-1,0 -2,-1 -4,-1 -1,-1 -2,-2 -4,-2 -1,0 -1,0 -1,0 -1,-1 -1,0 -2,-1l-61 -25c-6,-1 -6,-2 -13,-5 -6,-2 -15,-7 -20,-8 -2,0 0,0 -2,0 -4,-2 -4,-3 -15,-7l-22 -9c-1,0 -1,0 -2,-1 -2,0 0,0 -2,0 -1,-1 -1,-1 -2,-1l-33 -13c0,0 0,0 0,0l-27 -11c-2,-1 0,0 -2,-1 0,0 0,0 0,0 0,0 -1,0 -1,0 -4,-2 -4,-2 -9,-2z"/>
    <path class="fil1" d="M1056 838l0 14c-1,14 -1,5 0,21l0 23c-1,13 -1,4 0,20l0 22c-1,14 -1,5 0,21l0 22c-1,14 -1,5 0,21l0 23c-1,13 -1,4 0,20l0 23c0,4 -1,5 -1,10 0,10 1,21 1,33 -1,13 -1,4 0,21l0 24c0,3 -7,4 -11,5l-37 12c-3,1 -4,1 -6,2 -3,1 -4,1 -7,2l-12 4c-2,1 0,1 -3,1l-77 24c-5,2 -2,2 -6,3 -2,0 0,-1 -5,1l-25 8c-3,1 -2,1 -7,1l0 -345c0,-3 3,-2 6,-3 1,-1 1,-1 3,-2l11 -2c2,-1 5,-2 7,-3 7,-2 19,-5 22,-6 5,-3 -3,-2 6,-2l40 -13c3,-1 0,1 4,0 2,-1 3,-1 6,-2 6,-2 9,-4 20,-6 2,-1 3,-1 5,-2 6,-2 14,-3 20,-6 2,-1 -1,0 2,-1 8,-1 5,-2 7,-2 4,-1 0,1 5,-1l25 -8c6,-1 6,-4 6,3 0,6 1,12 1,20zm-257 -62l0 580c8,0 10,-2 17,-4 9,-2 22,-6 31,-9l6 -3c5,-1 8,-2 12,-3l9 -3c5,-2 3,-2 7,-2l20 -7c5,-1 17,-4 21,-6l7 -3c0,0 0,0 1,0 9,-3 23,-6 33,-10l8 -3c3,-2 1,-1 3,-1l37 -12c0,0 1,0 1,0l11 -3c2,-1 3,-2 6,-2l28 -12c1,0 2,-1 3,-1l8 -5c7,-3 13,-9 18,-14 3,-3 5,-5 7,-9l5 -7c4,-8 9,-17 10,-27 0,-3 1,-3 1,-6 1,-3 1,-4 1,-8l2 -126c0,-2 0,-2 0,-3l0 -131c-1,-12 0,-49 0,-65l0 -180c0,-5 1,-10 -3,-10 -4,0 0,0 -3,1 -14,5 -35,10 -50,15 -2,1 -3,1 -5,1l-59 18c-2,1 -2,1 -5,1l-12 4c-1,0 -1,1 -3,1l-14 4c-3,1 -2,1 -5,2 -4,1 -2,0 -5,1l-14 5c-7,2 -14,3 -20,6 -3,1 -2,1 -5,1l-77 23c-6,2 -6,3 -9,3 -5,1 -10,3 -15,4 -2,1 -9,2 -9,5z"/>
    <path class="fil1" d="M887 505c19,0 20,-1 37,6 4,1 2,0 5,2 5,4 3,0 10,7 2,2 1,1 3,2 2,2 1,1 1,1l17 20c4,5 10,21 11,28 3,14 2,20 0,35 -1,6 -4,11 -6,16 0,3 -8,13 -10,15l-8 8c-1,1 0,0 -1,1 0,0 0,0 -1,0l-5 3c-16,9 -31,10 -49,6 -4,-1 -4,-1 -7,-2l-22 -13c-7,-5 -15,-16 -20,-23 -2,-5 -3,-8 -5,-13l-6 -13c0,-2 1,-2 1,-3 0,-2 -2,-8 -2,-12 1,-13 2,-20 5,-31 4,-11 15,-24 25,-31 5,-3 10,-6 16,-7 4,-1 6,-2 11,-2zm-88 239c4,0 3,0 6,-1l34 -10c2,0 2,-1 4,-1l24 -8c15,-4 30,-8 44,-13l10 -3c2,0 3,0 5,-1l9 -3c4,-1 11,-2 14,-5 4,-2 1,0 5,0 1,0 2,-1 4,-2 6,-1 12,-4 15,-5 3,0 2,0 5,-1l34 -10c2,-1 2,-1 4,-2l15 -4c3,0 2,0 4,-1 4,-3 1,-1 5,-2l15 -4c4,-1 1,-1 4,-2 6,-1 14,-3 20,-5 7,-2 14,-4 21,-7 4,-2 6,1 9,-4 -1,-3 -13,-25 -15,-29 -2,-2 -2,-4 -4,-7l-3 -5c0,-1 0,-1 0,-1 -3,-3 -5,-8 -6,-12 -3,-8 -9,-17 -13,-25 -1,-3 -2,-5 -3,-8l-11 -21c-1,-2 -1,-2 -2,-4 -1,-1 -1,-1 -2,-3l-1 -2c0,-1 0,-1 0,-1l-3 -5c0,-1 -1,-2 -2,-3l-4 -9c-3,-7 -7,-16 -11,-22 -1,-1 0,0 -2,-1l-4 -9c0,0 0,-1 0,-1l-3 -5c0,-2 0,-2 -1,-4l-6 -11c-3,-5 -5,-9 -7,-14l-15 -29c-1,-1 -1,-2 -2,-4l-5 -10c-4,-9 -3,-9 -3,-19l0 -66c0,-10 1,-12 -2,-20 -9,-21 -30,-14 -45,-10 -2,1 -2,1 -4,2 -3,2 0,1 -3,1l-33 10c-12,3 -23,6 -34,10l-17 5c-2,1 -2,0 -4,1 -2,1 -2,2 -3,2 -5,2 0,-1 -4,0l-63 20c-2,0 -2,0 -5,1l-17 5c-2,1 -1,1 -3,2 -3,1 -4,0 -8,1l-19 6c-13,5 -19,7 -28,16 -17,17 -13,40 -13,62 0,5 -1,55 0,59 1,4 1,2 2,4 1,2 2,5 3,7l11 22c2,3 2,5 4,8l20 40c0,0 0,0 0,1l20 39c1,2 1,4 3,7l11 22c1,5 5,9 7,13l4 8c0,0 0,0 0,1l1 2c1,1 1,3 2,4 3,9 11,23 16,33l12 25c2,4 7,11 7,15z"/>
    <path class="fil1" d="M534 649c0,2 9,5 13,6 3,2 5,2 8,3l33 13c6,3 11,6 18,8l22 9c6,2 20,6 25,9l23 10c1,0 1,0 2,1 13,5 25,9 37,14l37 15c6,2 9,5 16,5 0,-3 -2,-6 -4,-9 -1,-3 -2,-5 -3,-7l-11 -22c-3,-7 -7,-14 -10,-20l-15 -31c-1,-2 -2,-5 -4,-7 -1,-3 -2,-5 -3,-8 -2,-4 -4,-9 -7,-13 0,0 -1,0 -1,0 0,0 0,0 0,0 -2,-3 -1,-1 -2,-4l-2 -5c0,-1 0,-2 -1,-2 0,-3 -1,-3 -1,-4l-7 -12c0,-1 0,-1 0,-1l-40 -82c-1,-3 -3,-5 -5,-6l-4 3c-2,3 -5,5 -7,9l-3 4c0,0 0,0 0,0l-48 56c0,0 -1,1 -1,1l-18 22c-2,2 -1,0 -2,2l-21 24c-2,3 -14,16 -14,19z"/>
   </g>
  </g>
 </g>
</svg>
