<?xml version="1.0" encoding="UTF-8"?>
<!DOCTYPE svg PUBLIC "-//W3C//DTD SVG 1.1//EN" "http://www.w3.org/Graphics/SVG/1.1/DTD/svg11.dtd">
<!-- Creator: CorelDRAW X7 -->
<svg xmlns="http://www.w3.org/2000/svg" xml:space="preserve" width="5.16094in" height="5.16094in" version="1.1" style="shape-rendering:geometricPrecision; text-rendering:geometricPrecision; image-rendering:optimizeQuality; fill-rule:evenodd; clip-rule:evenodd"
viewBox="0 0 6502 6502"
 xmlns:xlink="http://www.w3.org/1999/xlink">
 <defs>
  <style type="text/css">
   <![CDATA[
    .str0 {stroke:#FEFEFE;stroke-width:124.008}
    .fil0 {fill:#FEFEFE}
    .fil1 {fill:#010000}
   ]]>
  </style>
 </defs>
 <g id="Layer_x0020_1">
  <metadata id="CorelCorpID_0Corel-Layer"/>
  <g id="_907521184">
   <circle class="fil0 str0" cx="3251" cy="3251" r="3189"/>
   <g>
    <path class="fil1" d="M2821 4481l0 93c-14,-1 -42,-14 -57,-20 -18,-7 -16,1 -27,-7 -22,-15 -51,-23 -78,-30l-105 -38c-17,-6 -30,-16 -42,-16 -24,0 37,54 45,63 8,9 14,11 23,21l10 11c4,4 6,7 10,11l8 8c14,15 30,33 47,46 13,9 7,-4 9,12l9 0c1,13 18,31 31,34l0 13c-10,2 -16,2 -24,7 -14,7 -22,5 -34,9 -5,1 -6,1 -12,3l-103 30c-15,5 -17,-1 -25,9 -1,3 -8,-4 2,7 8,10 21,7 25,8 6,2 4,4 10,7l178 63c5,2 3,3 12,6 21,10 43,19 66,24 16,4 12,-8 20,7 5,10 2,85 2,100 -10,-2 -5,-2 -13,-5 -6,-2 -11,-4 -16,-6l-175 -61c-10,-2 -12,-6 -22,-10l-61 -23c-11,-3 -9,-1 -14,-2 -6,-2 -4,-3 -13,-7 -5,-2 -11,-4 -17,-6l-31 -11c-13,-5 -18,-7 -31,-12l-81 -27c-10,-6 3,-5 -16,-6 0,-14 3,-10 3,-21 0,-34 -3,-56 -3,-90 30,-16 113,-28 152,-41l54 -14c0,-21 -22,-33 -36,-47l-32 -30c-18,-15 -38,-42 -52,-53 -8,-5 -14,-12 -22,-18 -10,-9 -9,-17 -24,-19 -2,-15 -15,-22 -24,-31 -20,-19 -10,-10 -15,-41 -2,-19 -1,-35 -1,-54 -1,-17 -11,-42 11,-31l187 70c28,18 78,29 112,42 8,3 9,5 19,9 14,4 28,8 42,13l41 15c8,4 12,4 20,8 13,5 58,18 58,28zm-490 -327l3 -89 138 50c11,4 24,6 36,10l178 66c21,5 2,-2 17,7l90 31c38,17 28,-11 28,113 -16,-1 -3,0 -16,-5 -5,-2 -1,-1 -5,-2l-7 -2c-4,-1 -8,-4 -14,-7 -5,-2 -4,-1 -7,-2l-73 -24c-8,-3 -4,-3 -13,-7l-48 -18c-9,-3 -8,-3 -16,-6 -12,-5 -5,-1 -14,-3l-32 -12c-11,-4 -20,-8 -31,-12l-22 -9c-4,-1 -5,-1 -9,-3l-113 -41c-9,-3 -8,-3 -16,-6l-23 -7c-13,-4 -11,1 -22,-7 -4,-3 -9,-9 -9,-15zm397 -385c0,-42 -3,-42 17,-36 7,2 23,5 27,7 1,0 8,5 10,6 8,4 6,2 13,5 15,6 9,8 26,9l0 348 -94 -32c-2,-1 -4,-2 -7,-2 -35,-8 -1,-3 -35,-15l-33 -11c-33,-14 -33,-6 -44,-14 -17,-12 3,1 -30,-13 -24,-11 -60,-18 -61,-19l-156 -60c-32,-10 -14,-10 -30,-7l3 -30c3,-25 -10,-52 0,-71 3,-4 39,12 44,14 23,9 24,5 50,17 7,3 18,7 25,10 6,2 5,1 12,2l11 5c1,0 2,1 2,1l213 78c25,9 18,8 37,8l0 -92c3,-47 5,-12 1,-68 -1,-12 -1,-28 -1,-40zm-401 -703c16,1 20,17 29,30l38 51c19,27 46,56 65,86l43 52c4,5 1,1 4,6l17 24c0,0 1,1 1,1 0,1 1,2 1,2 6,8 6,10 15,16 7,-2 13,-3 19,-6 6,-2 0,0 9,-3 5,-2 5,-2 10,-3l103 -44c8,-4 4,0 17,-3l36 -13c15,-5 12,-9 23,-11l4 0c20,-4 41,-17 60,-22l0 123 -104 38c-18,8 -34,12 -53,19l-40 15c-8,3 -3,3 -13,6 1,15 26,39 36,53 30,39 33,37 80,52l65 22c38,11 29,5 29,113 -16,0 -14,-5 -30,-10l-60 -23c-11,-3 -6,-1 -13,-3l-176 -65c-11,-3 6,2 -4,-1 0,0 -1,0 -2,0 -15,-4 -29,-13 -45,-18 -48,-14 -93,-37 -140,-51 -10,-3 -9,-1 -17,-5 -7,-26 -4,-61 -2,-87 1,-13 -5,-9 3,-13 7,-3 66,23 79,26 14,4 2,2 18,0 11,20 34,19 54,27 17,7 33,6 42,13 6,4 7,6 15,7 0,-20 -33,-52 -45,-69l-51 -66c-1,-2 -3,-4 -4,-5l-39 -48c-12,-19 -72,-92 -73,-99 -4,-23 0,-54 0,-77 0,-18 -4,-22 -4,-37zm-228 -377c0,611 0,1222 0,1832 0,65 -7,275 12,331 6,17 4,20 11,39 5,15 8,28 15,43 4,7 6,11 9,18 5,9 7,9 12,16 15,22 32,44 52,63 33,32 82,59 125,78l40 16c11,8 26,13 39,19l57 23c1,0 2,0 3,1 0,0 1,0 2,1l54 22c10,3 2,0 9,2 0,1 6,4 9,5 26,13 55,21 83,30 6,2 3,1 7,3l73 29c16,5 26,9 41,15l34 9c12,4 17,10 29,14 8,2 16,3 23,5l171 60c10,3 37,18 37,-3l0 -2288c0,-15 -38,-28 -52,-32l-16 -5c-5,-2 -8,-4 -15,-7 -4,-2 -9,-4 -15,-6 -6,-2 -4,-1 -6,-1 -3,-1 -2,0 -6,-3l-243 -98c-25,-7 -22,-10 -51,-21 -22,-8 -60,-26 -81,-31 -7,-2 0,1 -7,-2 -15,-6 -15,-10 -60,-25l-87 -36c-3,-1 -5,-2 -7,-3 -8,-3 -2,-1 -9,-4 -3,-1 -4,-1 -7,-2l-129 -50c0,0 -1,-1 -2,-1l-107 -44c-7,-3 -1,-1 -6,-3 -1,0 -2,0 -3,-1 0,0 -1,0 -2,0 -17,-6 -14,-10 -36,-8z"/>
    <path class="fil1" d="M4181 3319l0 55c-2,54 -3,20 0,83l0 90c-2,53 -3,17 0,80l0 89c-2,53 -3,17 0,81l0 89c-2,54 -3,20 0,83l0 90c-2,53 -3,16 0,80l0 89c0,16 -3,22 -3,40 0,39 4,85 3,130 -2,54 -3,20 0,83l0 99c0,12 -26,15 -42,20l-148 46c-10,3 -15,5 -23,8 -10,3 -15,4 -26,8l-49 16c-9,4 -2,2 -10,5l-306 95c-21,6 -10,7 -23,10 -9,2 -3,-2 -21,4l-99 31c-14,5 -9,7 -27,7l0 -1370c0,-12 10,-8 21,-12 6,-2 7,-4 14,-5l44 -11c7,-2 20,-6 28,-9 25,-10 74,-21 85,-26 22,-9 -9,-8 24,-8l159 -50c14,-4 0,3 17,-2 7,-2 10,-4 21,-6 25,-7 39,-15 80,-25 8,-2 12,-3 19,-6 25,-7 59,-14 81,-24 7,-3 -2,-1 9,-3 29,-7 20,-9 29,-11 15,-4 -1,4 18,-3l100 -30c21,-5 24,-17 22,12 -1,20 3,46 3,78zm-1015 -247l0 2297c30,0 38,-7 66,-14 36,-10 88,-25 122,-38l26 -8c17,-5 30,-10 47,-15l35 -11c18,-8 10,-6 27,-9l81 -25c19,-7 68,-18 82,-26l27 -10c1,0 2,0 3,0 38,-12 90,-25 132,-41l33 -13c10,-6 1,-2 11,-3l145 -45c0,-1 3,-2 4,-2l45 -14c9,-3 12,-4 23,-8l112 -45c2,0 8,-3 10,-5l32 -17c27,-15 51,-38 71,-58 13,-13 19,-20 29,-34l18 -28c16,-33 36,-69 41,-107 1,-12 3,-14 6,-25 3,-11 2,-16 3,-30l6 -500c0,-10 1,-7 1,-13l0 -516c-4,-51 -1,-196 -1,-258l0 -715c0,-19 6,-40 -12,-40 -14,0 1,-1 -9,3 -59,23 -139,40 -201,61 -8,3 -11,2 -20,5l-232 70c-9,3 -10,4 -19,6l-47 15c-5,1 -7,2 -12,3l-57 17c-11,3 -9,5 -21,7 -13,3 -7,1 -19,5l-56 18c-26,8 -55,13 -79,23 -10,4 -8,4 -18,7l-306 92c-26,6 -24,10 -35,11 -21,1 -39,11 -59,15 -10,2 -35,6 -35,18z"/>
    <path class="fil1" d="M3515 1999c73,0 76,-3 146,23 16,7 5,3 16,11 22,16 16,-3 42,26 8,9 5,4 12,10 7,4 2,1 6,4l65 76c14,22 38,86 43,112 11,57 10,78 -1,138 -4,24 -14,43 -20,66 -4,10 -33,48 -43,59l-30 29c-5,4 0,0 -5,4 0,0 -1,1 -2,1l-19 11c-64,39 -125,40 -198,25 -13,-3 -15,-4 -25,-9l-89 -49c-27,-19 -60,-66 -77,-94 -10,-17 -14,-29 -22,-48l-21 -53c0,-10 1,-7 1,-12 0,-7 -7,-33 -6,-46 1,-52 6,-79 20,-124 14,-45 58,-96 97,-122 19,-12 41,-24 63,-29 19,-5 23,-9 47,-9zm-349 946c15,0 12,1 22,-3l134 -38c7,-2 10,-4 18,-7l95 -28c58,-18 117,-33 173,-52l38 -12c8,-2 12,-2 20,-5l37 -12c17,-5 42,-9 56,-18 16,-11 3,-3 18,-3 5,0 10,-4 19,-6 22,-5 44,-16 58,-19 13,-2 9,-1 20,-5l133 -40c9,-3 9,-5 17,-6l59 -16c11,-4 9,-3 18,-7 16,-9 3,-4 18,-5l59 -16c15,-6 4,-7 18,-9 23,-3 55,-14 79,-21 27,-8 54,-14 79,-25 20,-9 24,2 37,-17 -4,-14 -50,-100 -58,-114 -7,-11 -9,-18 -14,-30l-13 -21c0,0 -1,-1 -1,-1 -11,-13 -18,-33 -24,-48 -12,-32 -34,-70 -50,-101 -6,-11 -9,-17 -15,-28l-43 -86c-3,-7 -5,-9 -8,-15 -3,-6 -3,-6 -7,-14l-4 -8c0,-1 -1,-1 -1,-2l-9 -19c-2,-5 -5,-9 -8,-14l-17 -35c-14,-26 -29,-62 -45,-85 -5,-6 0,0 -5,-7l-18 -35c0,0 0,-1 -1,-2l-9 -21c-3,-9 -2,-8 -6,-16l-23 -42c-10,-20 -19,-37 -29,-57l-58 -115c-3,-5 -4,-8 -7,-14l-22 -43c-17,-32 -11,-36 -11,-75l0 -259c0,-39 3,-50 -9,-78 -35,-86 -117,-57 -177,-40 -10,3 -7,1 -15,6 -13,7 1,4 -14,6l-131 37c-44,14 -90,23 -133,40l-66 21c-8,2 -11,1 -17,4 -10,4 -7,6 -13,8 -17,5 2,-3 -16,1l-250 76c-8,2 -8,3 -17,5l-67 19c-9,3 -7,4 -14,8 -13,6 -16,1 -29,7l-79 23c-49,18 -74,25 -110,62 -67,69 -52,159 -52,245 0,21 -4,218 2,236 4,12 4,6 8,13 4,7 8,21 13,31l43 85c6,12 8,20 14,30l80 160c0,1 1,2 1,2l76 156c6,10 7,18 14,29l44 85c5,21 20,36 26,54l16 31c0,1 0,2 1,2l6 10c1,4 4,11 5,16 14,36 45,90 64,130l49 97c6,19 27,48 28,60z"/>
    <path class="fil1" d="M2115 2569c0,11 37,21 53,27 12,5 17,6 29,11l130 52c24,11 47,21 73,29l87 36c25,10 78,26 99,37l92 37c3,2 5,3 8,4 49,21 98,36 146,58l145 58c23,8 38,21 63,21 0,-12 -7,-24 -13,-36 -6,-10 -8,-19 -14,-30l-44 -85c-10,-27 -26,-53 -38,-79l-61 -122c-4,-9 -8,-19 -13,-29 -5,-11 -8,-19 -14,-30 -8,-16 -17,-37 -28,-51 -1,-1 -1,-1 -2,-2 0,0 -1,-1 -1,-2 -7,-9 -3,-3 -6,-12l-10 -21c-1,-3 -2,-8 -2,-10 -3,-8 -4,-8 -7,-15l-26 -49c0,0 0,-1 -1,-1l-160 -325c-3,-10 -9,-21 -17,-26l-15 13c-11,11 -21,22 -29,35l-12 16c0,1 0,1 -1,2l-187 220c-1,0 -5,4 -5,4l-74 87c-5,7 -1,3 -5,10l-83 96c-8,10 -57,60 -57,72z"/>
   </g>
  </g>
 </g>
</svg>
