<?xml version="1.0" encoding="UTF-8"?>
<!DOCTYPE svg PUBLIC "-//W3C//DTD SVG 1.1//EN" "http://www.w3.org/Graphics/SVG/1.1/DTD/svg11.dtd">
<!-- Creator: CorelDRAW X7 -->
<svg xmlns="http://www.w3.org/2000/svg" xml:space="preserve" width="5.16094in" height="5.16094in" version="1.1" style="shape-rendering:geometricPrecision; text-rendering:geometricPrecision; image-rendering:optimizeQuality; fill-rule:evenodd; clip-rule:evenodd"
viewBox="0 0 1085 1085"
 xmlns:xlink="http://www.w3.org/1999/xlink">
 <defs>
  <style type="text/css">
   <![CDATA[
    .str0 {stroke:#FEFEFE;stroke-width:20.6872}
    .fil0 {fill:none}
    .fil1 {fill:#FEFEFE}
   ]]>
  </style>
 </defs>
 <g id="Layer_x0020_1">
  <metadata id="CorelCorpID_0Corel-Layer"/>
  <g id="_907519232">
   <circle class="fil0 str0" cx="542" cy="542" r="532"/>
   <path class="fil1" d="M534 330c0,8 -18,5 -35,5 -51,0 -44,-5 -53,50 -2,8 -1,9 -8,13 2,6 -4,3 5,4 0,6 -27,85 -30,88 -3,4 -9,6 -12,7 0,12 -2,72 2,79l9 11c23,30 24,65 -1,94 -1,1 -2,2 -3,3l-3 3c-2,3 -4,4 -4,8l0 210c0,2 5,13 15,13l253 0c9,0 15,-7 15,-15l0 -208c0,-4 -6,-11 -8,-13 -1,-1 -1,-2 -3,-3 -45,-54 11,-102 11,-107l0 -72c0,-10 -9,1 -15,-18l-17 -51c-3,-8 -6,-19 -9,-26 4,-6 2,0 5,-7 -19,-12 1,-63 -34,-63l-61 0 0 -168 -19 0 0 163z"/>
  </g>
 </g>
</svg>
