<?xml version="1.0" encoding="UTF-8"?>
<!DOCTYPE svg PUBLIC "-//W3C//DTD SVG 1.1//EN" "http://www.w3.org/Graphics/SVG/1.1/DTD/svg11.dtd">
<!-- Creator: CorelDRAW X7 -->
<svg xmlns="http://www.w3.org/2000/svg" xml:space="preserve" width="5.16094in" height="5.16094in" version="1.1" style="shape-rendering:geometricPrecision; text-rendering:geometricPrecision; image-rendering:optimizeQuality; fill-rule:evenodd; clip-rule:evenodd"
viewBox="0 0 1594 1594"
 xmlns:xlink="http://www.w3.org/1999/xlink">
 <defs>
  <style type="text/css">
   <![CDATA[
    .str0 {stroke:#FEFEFE;stroke-width:30.3948}
    .fil0 {fill:none}
    .fil1 {fill:#FEFEFE}
   ]]>
  </style>
 </defs>
 <g id="Layer_x0020_1">
  <metadata id="CorelCorpID_0Corel-Layer"/>
  <g id="_907522304">
   <circle class="fil0 str0" cx="797" cy="797" r="782"/>
   <g>
    <path class="fil1" d="M580 1022c0,10 0,6 -2,13 -1,2 -1,4 -1,6 -6,16 -17,29 -32,37 -14,7 -30,8 -45,4 -4,-1 -6,-1 -9,-3 -1,0 -3,-1 -4,-1 -10,-5 -16,-10 -22,-19l-5 -8c-3,-5 -6,-11 -7,-16 -1,-10 0,-10 -1,-17 0,-3 0,-3 0,-6 0,-2 4,-14 5,-17 6,-11 4,-10 16,-21 7,-8 18,-14 31,-17 12,-2 28,0 39,6 11,5 19,11 26,21 3,5 6,11 8,17 2,6 3,12 3,21zm339 -158c9,0 20,3 28,6 14,7 24,17 31,29 4,6 6,12 8,19 3,8 2,18 1,27 -1,8 -2,12 -6,20 -6,12 -15,23 -26,30l-9 5c-2,0 -4,1 -6,2 -11,5 -35,5 -46,0l-18 -9c-2,-2 -3,-2 -5,-4 -2,-2 -3,-2 -5,-4 -7,-8 -13,-17 -17,-28 0,-1 0,-2 -1,-4 -1,-5 -3,-13 -2,-19 0,-10 2,-20 6,-29 1,-2 2,-4 3,-6 7,-10 10,-15 22,-23l12 -6c7,-4 19,-6 30,-6zm-235 62c-14,0 -28,0 -40,-7 -1,0 -1,0 -2,-1l-8 -4c-2,-2 -4,-3 -6,-4 -11,-10 -19,-19 -24,-33 0,0 -1,0 -1,-1 -4,-12 -2,-5 -4,-16 -2,-6 -1,-9 -1,-18 0,-12 6,-27 13,-37 14,-22 40,-35 66,-35 10,0 22,2 31,7 11,5 14,8 23,15 5,4 13,15 16,22l3 6c4,12 6,29 3,41 0,3 -1,6 -1,8 -4,12 -10,22 -18,31 -6,8 -17,16 -27,20l-8 3c-2,1 -4,1 -7,2 -3,0 -5,1 -8,1zm350 -163c0,-1 1,-3 2,-7l4 -11c0,-1 1,-2 1,-3 10,-21 30,-40 53,-46 8,-3 2,-2 11,-2 3,-1 4,-2 8,-2l11 0c4,0 6,1 9,2 5,0 7,1 12,2 1,1 2,1 4,2 7,3 18,8 25,14l5 6c6,5 13,16 17,23 11,24 10,46 1,69 -2,8 -11,20 -17,26 -16,16 -24,19 -41,24 -8,3 -21,3 -29,2 -1,0 -4,-1 -5,-1 -15,-2 -29,-8 -40,-18 -7,-6 -10,-8 -16,-16l-8 -14c-3,-6 -3,-9 -5,-16 0,-1 -1,-3 -2,-4l-1 -18c0,-3 1,-4 1,-6 1,-7 0,-3 0,-6zm10 -128c-3,0 0,-1 -3,0l-31 6c-2,0 -2,1 -4,1 -1,1 -3,0 -4,0 -2,1 -3,1 -5,2l-56 10c-7,1 -12,2 -18,3 -3,1 -4,2 -9,2 -2,0 -2,0 -4,1 -4,1 -1,0 -8,1 -2,1 -3,1 -5,1 -6,1 -12,3 -18,4 -5,0 -5,0 -9,2l-54 9c-4,1 -9,2 -13,3l-14 2c-3,1 -6,2 -9,3 -1,0 -2,0 -4,0l-46 9c-2,0 -2,0 -5,1 -4,0 -5,1 -9,1 -5,2 -12,2 -18,4l-54 10c-3,1 -4,1 -5,1 -2,0 -3,1 -4,1l-54 10c-3,1 -7,1 -9,2l-55 10c-3,0 -6,1 -9,2l-73 13c-3,1 -6,1 -9,2 -9,2 -19,3 -28,5 -5,1 -12,3 -18,4l-18 4c-2,0 -3,0 -5,0 -2,0 -1,1 -4,1l-28 5 0 60c10,-1 8,-2 20,0 15,2 26,6 39,16l4 3c0,0 0,1 0,1 0,0 1,0 1,0l12 15c2,2 3,4 4,6 3,6 5,14 7,21 4,11 1,36 -5,47 -4,9 -9,17 -16,24 -4,4 -9,7 -14,11 -13,8 -29,12 -45,12 -3,0 -4,-1 -7,-1l0 201c5,0 12,-1 17,-3 8,-2 34,-6 44,-8 2,-1 4,-2 6,-2 5,-1 4,-1 8,-2 3,-1 26,-4 36,-7 3,-1 5,0 8,-1 1,-1 1,-1 3,-1l11 -2c9,-1 21,-5 29,-6 4,0 4,-1 7,-2 6,-1 16,-2 23,-4 3,0 4,0 7,-1l33 -7c1,0 2,0 4,0 2,-1 4,-1 7,-2 7,-1 14,-3 21,-4 13,-2 25,-6 37,-7 3,-1 4,-2 7,-2 4,-1 27,-4 29,-6 2,-3 0,-18 2,-24 2,-8 1,-8 6,-19 2,-4 4,-7 7,-11l8 -9c3,-3 6,-6 10,-8 7,-5 15,-10 23,-12 3,-1 4,-2 7,-2 2,0 0,1 3,0 6,-1 13,0 19,0l12 1 16 7c9,4 16,10 22,17 2,1 2,2 3,4 4,4 7,9 10,14 1,3 3,7 4,11 5,0 8,-1 13,-1 3,0 3,-1 6,-2l18 -3c4,-1 8,-2 12,-3l24 -4c2,-1 4,-1 6,-1l18 -5c3,0 -1,1 2,1l27 -5c2,-1 4,-2 6,-2 2,-1 3,0 6,-1 2,0 4,-2 5,-2 3,0 2,1 6,0l12 -3c3,0 4,-1 6,-1 2,-1 5,-1 7,-1 2,-1 3,-1 5,-2 3,0 4,0 7,-1 2,0 1,0 2,-1 3,0 2,1 7,0 1,-1 2,-1 4,-1 2,0 5,-1 8,-2 3,0 5,-1 8,-2l12 -2c2,-1 3,0 5,-1l8 -1c6,-2 11,-2 17,-4l132 -26c5,-1 11,-2 17,-3 3,-1 4,-2 8,-2 8,-1 17,-3 25,-5 3,0 6,-1 8,-2 3,0 8,0 8,-2l0 -406 -85 16c-7,2 -19,3 -28,5l-56 11c-2,0 -4,1 -6,1l-22 4c-3,0 -3,1 -7,1 -5,1 -9,2 -14,3l-7 2z"/>
    <path class="fil1" d="M366 732c3,2 6,0 8,-1 2,0 5,0 7,-1 8,-2 16,-2 24,-5 2,0 2,0 4,0l21 -4c2,0 1,0 3,-1 2,0 2,0 4,0 6,-1 13,-4 19,-4 3,0 4,-1 7,-1l63 -12c3,0 4,-1 7,-2l47 -8c4,-2 10,-2 14,-3l21 -4c2,0 4,-1 6,-1 4,-1 4,0 8,-2l27 -5c3,0 5,0 7,-1 3,0 5,-1 7,-2 3,0 4,0 7,-1l40 -7c9,-3 18,-3 27,-5l28 -5c3,-1 4,-1 7,-2 3,0 4,-1 7,-1 15,-2 33,-6 48,-9 6,-1 9,-2 15,-3l125 -23c3,-1 4,-1 6,-2 3,0 5,-1 7,-1l35 -6c2,-1 5,-2 7,-2l69 -13c2,0 5,-1 7,-1 2,-1 5,-1 7,-1 3,-1 3,-2 7,-2 2,0 5,-1 7,-1 6,-2 20,-3 27,-6 3,0 4,0 7,-1 3,0 5,-1 7,-1l67 -13c4,-1 14,-2 17,-3 -1,-4 -9,-10 -12,-12 -11,-9 -23,-18 -34,-25 -14,-9 -28,-18 -43,-26l-16 -8c-17,-9 -35,-16 -52,-24 -8,-3 -17,-5 -25,-9l-31 -10c-3,-1 -5,-2 -7,-2l-18 -5c-3,-1 -4,-2 -7,-2 -7,-2 -13,-4 -21,-5l-13 -4c-6,-2 -15,-2 -21,-4l-21 -5c-3,0 -5,0 -7,-1 -8,-2 -20,-3 -29,-4 -4,-1 -9,-3 -14,-3l-46 -5c-10,0 -21,-3 -31,-3 -8,0 -13,-1 -21,-1 -21,0 -14,-2 -29,9l-19 15c-2,2 -3,3 -6,5 -2,2 -4,3 -6,5l-38 31c-2,1 -4,3 -6,5l-50 40c-8,7 -17,14 -25,21 -2,1 -4,3 -6,5l-106 86c-5,4 -9,7 -13,10l-4 4c-1,0 -1,0 -2,1 -1,1 -2,2 -3,3 -1,1 -2,1 -3,2 -19,16 -38,31 -56,46l-32 26c-3,2 -11,7 -12,10z"/>
    <path class="fil1" d="M1062 779c0,7 2,12 4,17 1,2 1,3 2,5 4,11 15,22 25,27l8 3c17,5 29,4 45,-4 14,-7 25,-22 28,-37 1,-6 1,-7 1,-14l-2 -12c-3,-11 -6,-18 -14,-26 -3,-3 -4,-4 -7,-6 -2,-1 -3,-2 -4,-3 -5,-3 -19,-8 -26,-8 -22,0 -39,9 -49,24 -2,3 -6,8 -7,12 -2,7 -4,14 -4,22z"/>
    <path class="fil1" d="M627 848c0,8 1,10 4,18 2,7 1,3 4,9 3,5 6,7 11,12 8,6 15,9 26,9 8,0 10,2 16,0 11,-3 16,-7 23,-14 7,-6 11,-13 13,-23 2,-8 1,-6 1,-15 0,-19 -15,-35 -31,-42 -8,-3 -13,-3 -22,-3 -4,0 -13,3 -18,5 -15,8 -27,25 -27,44z"/>
    <path class="fil1" d="M875 935c0,9 1,13 5,20l5 7c3,5 9,9 15,11 20,10 47,0 55,-22 3,-6 4,-10 4,-17 1,-9 -5,-22 -12,-29 -7,-7 -12,-9 -21,-11 -10,-3 -17,-2 -26,2 -5,2 -9,5 -13,9 -3,3 -6,8 -8,12 -3,7 -4,9 -4,18z"/>
    <path class="fil1" d="M325 859l0 97c13,1 22,1 33,-5 2,-1 3,-1 4,-2 1,-1 0,0 1,-1 1,-1 2,-1 2,-1 7,-5 13,-13 16,-20 12,-27 -5,-61 -32,-67 -15,-3 -12,-1 -24,-1z"/>
    <path class="fil1" d="M481 1024c0,6 4,14 7,18 10,11 15,13 30,13 5,0 7,0 13,-3 3,-1 7,-4 10,-7 4,-3 8,-11 9,-16 0,-5 1,-7 1,-7 0,-3 -1,-11 -3,-15 -1,-4 -4,-8 -7,-11l-1 -1c-8,-7 -14,-9 -26,-9 -8,0 -19,5 -24,11 -6,7 -9,14 -9,27z"/>
    <path class="fil1" d="M691 1109c0,6 3,4 10,3 4,-1 8,-2 12,-3 10,-2 27,-4 36,-7l31 -6c3,0 3,0 6,-2 -2,-6 -10,-17 -16,-21 -6,-5 -19,-11 -26,-11 -16,0 -27,3 -39,15 -4,4 -7,8 -9,13 -5,10 -3,10 -4,15 -1,2 -1,2 -1,4z"/>
   </g>
  </g>
 </g>
</svg>
