<?xml version="1.0" encoding="UTF-8"?>
<!DOCTYPE svg PUBLIC "-//W3C//DTD SVG 1.1//EN" "http://www.w3.org/Graphics/SVG/1.1/DTD/svg11.dtd">
<!-- Creator: CorelDRAW X7 -->
<svg xmlns="http://www.w3.org/2000/svg" xml:space="preserve" width="5.16094in" height="5.16094in" version="1.1" style="shape-rendering:geometricPrecision; text-rendering:geometricPrecision; image-rendering:optimizeQuality; fill-rule:evenodd; clip-rule:evenodd"
viewBox="0 0 7406 7406"
 xmlns:xlink="http://www.w3.org/1999/xlink">
 <defs>
  <style type="text/css">
   <![CDATA[
    .str0 {stroke:#FEFEFE;stroke-width:141.245}
    .fil0 {fill:#FEFEFE}
    .fil1 {fill:#010000}
   ]]>
  </style>
 </defs>
 <g id="Layer_x0020_1">
  <metadata id="CorelCorpID_0Corel-Layer"/>
  <g id="_907520416">
   <circle class="fil0 str0" cx="3703" cy="3703" r="3632"/>
   <g>
    <path class="fil1" d="M2694 4747c0,50 3,30 -8,64 -2,9 -3,15 -6,24 -25,76 -78,138 -149,173 -64,32 -138,39 -207,22 -20,-5 -26,-6 -42,-14 -6,-2 -13,-5 -19,-8 -44,-23 -73,-47 -104,-88l-22 -35c-13,-23 -26,-50 -30,-77 -8,-47 -3,-45 -5,-80 -1,-13 -3,-12 -3,-24 1,-9 19,-68 27,-82 28,-50 16,-43 70,-97 34,-35 87,-64 144,-76 58,-12 133,-1 184,24 51,26 87,54 119,102 15,23 28,47 37,74 10,31 14,59 14,98zm1576 -734c41,0 91,14 129,32 65,29 112,75 147,134 17,28 26,54 36,85 13,41 11,87 5,128 -6,35 -9,57 -27,94 -28,56 -70,104 -123,137l-40 22c-10,4 -19,7 -29,11 -51,22 -163,23 -213,1l-84 -42c-11,-8 -13,-11 -22,-18 -11,-9 -14,-12 -23,-21 -36,-36 -62,-80 -79,-129 -2,-6 -3,-10 -4,-17 -7,-25 -16,-62 -14,-91 4,-45 13,-93 32,-133 3,-8 8,-18 14,-27 33,-46 44,-70 102,-108l53 -30c35,-16 89,-28 140,-28zm-1093 291c-63,0 -128,-3 -185,-32 -5,-3 -3,-2 -8,-4l-38 -21c-10,-7 -19,-12 -27,-19 -51,-45 -90,-86 -114,-153 0,-1 -1,-1 -1,-2 -21,-57 -10,-25 -21,-78 -7,-28 -2,-40 -3,-81 0,-58 27,-125 59,-173 67,-103 185,-164 307,-164 46,0 102,12 144,32 53,25 66,37 105,71 24,20 60,72 74,103l14 29c21,57 30,132 18,191 -3,12 -5,26 -8,35 -17,54 -43,104 -80,146 -32,37 -83,73 -129,91l-34 13c-13,5 -21,5 -35,8 -14,4 -21,8 -38,8zm1628 -758c0,-3 7,-16 10,-34l17 -48c3,-7 3,-9 6,-15 48,-99 139,-186 247,-216 38,-10 10,-6 48,-10 15,-1 22,-6 41,-6l49 0c19,0 27,5 41,6 25,3 34,7 55,13 8,2 11,3 19,6 34,13 83,37 117,69l26 24c26,23 60,76 76,109 52,110 47,213 7,321 -13,37 -51,94 -80,122 -74,74 -111,84 -193,110 -34,11 -94,15 -135,9 -3,0 -15,-3 -20,-4 -70,-11 -135,-37 -189,-84 -31,-28 -46,-39 -72,-77l-36 -63c-14,-29 -16,-43 -26,-73 -1,-5 -5,-16 -6,-18l-5 -86c0,-12 1,-19 3,-28 6,-33 0,-13 0,-27zm47 -595c-13,0 1,-4 -16,-1l-143 28c-8,2 -10,4 -16,6 -9,2 -14,0 -23,1 -8,1 -13,4 -20,5l-263 49c-29,7 -55,7 -82,15 -15,4 -21,7 -41,9 -9,1 -11,1 -20,4 -16,5 -6,0 -37,6 -6,2 -15,3 -22,4 -27,4 -55,14 -82,16 -24,3 -25,3 -43,10l-252 45c-17,1 -42,9 -59,12l-67 11c-13,2 -25,7 -39,10 -9,3 -13,2 -22,3l-211 40c-11,1 -13,2 -24,4 -17,4 -26,4 -41,8 -25,7 -59,9 -84,15l-254 50c-10,1 -15,1 -22,3 -10,2 -13,4 -19,5l-252 46c-14,3 -30,4 -42,7l-253 48c-15,2 -28,7 -42,10l-340 63c-15,4 -27,4 -42,7 -43,11 -88,16 -128,24 -27,6 -56,14 -83,16l-84 18c-9,1 -14,0 -23,2 -10,2 -9,3 -20,5l-130 25 0 278c46,-4 38,-11 92,-2 71,12 122,28 182,75l18 16c1,0 1,1 2,1 0,1 1,1 1,2l60 71c6,10 11,16 16,26 16,30 24,64 34,96 19,55 1,170 -23,221 -21,42 -44,77 -76,110 -20,20 -41,35 -64,50 -63,40 -134,56 -208,56 -17,0 -18,-3 -34,-3l0 935c22,0 54,-7 76,-14 38,-11 158,-28 205,-39 11,-3 18,-8 32,-9 23,-2 15,-2 33,-7 16,-5 123,-19 168,-33 14,-4 26,-2 37,-6 7,-2 7,-4 14,-5l54 -8c39,-7 97,-23 133,-28 18,-2 19,-5 33,-8 27,-6 72,-10 105,-18 14,-4 20,-3 34,-6l151 -32c8,-1 12,-1 20,-2 11,-2 20,-6 32,-8 36,-4 65,-14 101,-20 57,-9 115,-26 171,-33 12,-2 19,-7 32,-9 19,-2 127,-19 133,-27 10,-13 0,-83 8,-110 13,-39 7,-39 32,-89 9,-18 18,-34 30,-51l39 -44c14,-14 26,-26 43,-37 35,-23 71,-45 110,-54 13,-3 19,-8 31,-8 8,-1 2,1 15,-2 26,-5 61,-2 88,-2l56 9 76 29c39,19 71,48 101,79 8,7 9,10 16,18 16,20 32,42 43,65 7,16 16,34 21,54 24,0 34,-4 58,-6 16,-2 16,-4 28,-7l83 -16c18,-5 37,-8 55,-13l114 -20c10,-3 17,-3 28,-5l83 -20c15,0 -4,3 11,1l124 -24c10,-2 18,-5 26,-8 13,-4 15,-1 30,-4 8,-1 20,-8 25,-8 11,0 9,2 26,-3l57 -10c11,-2 17,-5 28,-7 10,-3 21,-2 29,-4 12,-3 16,-6 26,-9 12,-2 19,0 31,-3 8,-3 7,-3 11,-5 12,-4 7,2 30,-4 7,-2 10,-1 18,-3 14,-2 25,-6 39,-8 16,-2 23,-5 38,-8l55 -13c9,-1 14,0 23,-2l39 -8c25,-7 52,-9 78,-14l614 -123c25,-6 51,-10 78,-15 15,-3 19,-8 38,-9 38,-3 77,-16 117,-22 12,-2 28,-7 38,-8 14,-2 33,-1 33,-13l0 -1883 -391 72c-33,9 -92,15 -131,25l-260 49c-9,2 -21,5 -30,7l-101 17c-14,2 -15,5 -31,6 -25,3 -42,9 -67,14l-32 8z"/>
    <path class="fil1" d="M1703 3403c10,9 26,-1 36,-4 9,-2 23,-2 32,-5 38,-10 74,-12 111,-23 9,-2 8,-1 19,-2l97 -17c10,-3 6,-3 15,-4 7,-1 10,-1 17,-2 30,-6 63,-17 91,-18 13,0 18,-4 32,-7l291 -53c14,-3 19,-7 31,-9l220 -41c17,-5 47,-8 66,-10l97 -18c10,-3 17,-7 29,-9 17,-3 19,1 34,-5l129 -24c11,-2 20,-2 32,-5 13,-2 22,-8 30,-9 14,-3 21,-1 34,-4l187 -36c41,-12 84,-11 126,-23l128 -24c12,-2 20,-3 34,-6 13,-2 19,-5 30,-7 72,-10 154,-29 227,-42 25,-5 41,-7 65,-12l582 -109c14,-3 19,-5 30,-7 14,-2 21,-4 31,-6l163 -29c11,-2 22,-5 32,-9l321 -59c12,-2 22,-3 32,-6 11,-4 24,-3 35,-5 13,-4 14,-5 29,-8 11,-2 23,-3 34,-6 29,-10 94,-14 128,-24 13,-4 18,-2 33,-5 12,-2 19,-5 31,-8l308 -58c21,-3 69,-9 83,-16 -4,-19 -43,-44 -58,-56 -52,-41 -105,-81 -159,-117 -64,-41 -129,-81 -196,-117l-75 -39c-80,-41 -162,-73 -244,-109 -37,-17 -78,-27 -115,-43l-146 -49c-10,-3 -20,-6 -31,-10l-86 -23c-11,-3 -17,-7 -30,-10 -32,-7 -62,-18 -95,-22l-61 -17c-31,-8 -72,-12 -98,-19l-97 -21c-15,-2 -24,0 -36,-4 -35,-13 -94,-19 -132,-23 -21,-2 -43,-10 -66,-11l-213 -25c-49,0 -97,-13 -146,-13 -35,0 -62,-6 -99,-6 -97,0 -64,-10 -133,41l-87 71c-11,8 -17,15 -29,23 -10,8 -19,15 -29,24l-174 142c-10,8 -19,15 -29,23l-232 189c-36,33 -78,64 -116,95 -10,8 -20,15 -30,23l-492 402c-21,16 -40,30 -59,47l-20 17c-4,3 -4,3 -9,7 -5,4 -9,6 -14,10 -6,5 -8,9 -14,14 -87,71 -176,139 -262,212l-145 118c-13,11 -51,36 -55,50z"/>
    <path class="fil1" d="M4935 3620c0,33 9,55 18,79 3,11 4,15 9,25 20,50 70,98 119,122l35 15c81,23 133,19 211,-20 62,-31 112,-102 126,-171 6,-28 9,-31 9,-66l-10 -52c-14,-52 -29,-85 -67,-122 -12,-12 -18,-18 -33,-29 -6,-4 -12,-8 -18,-12 -21,-14 -87,-39 -120,-39 -104,0 -181,43 -229,112 -9,13 -24,37 -29,54 -10,33 -21,67 -21,104z"/>
    <path class="fil1" d="M2914 3942c0,37 3,46 17,82 12,32 4,15 20,41 15,24 26,36 50,55 39,30 72,45 123,45 37,0 45,6 75,-3 49,-14 73,-29 105,-61 32,-31 50,-63 60,-108 9,-38 4,-30 5,-73 0,-86 -69,-161 -143,-191 -38,-16 -61,-16 -102,-16 -22,0 -62,14 -84,24 -72,35 -126,114 -126,205z"/>
    <path class="fil1" d="M4065 4344c0,42 6,60 26,96l19 30c18,21 46,42 71,53 94,44 218,0 259,-102 12,-30 15,-47 18,-80 4,-43 -26,-102 -59,-135 -31,-31 -56,-43 -96,-52 -45,-11 -77,-9 -120,10 -22,10 -44,24 -60,40 -15,16 -31,37 -40,59 -12,29 -18,41 -18,81z"/>
    <path class="fil1" d="M1511 3991l0 449c58,5 100,9 155,-21 6,-3 10,-5 16,-9 3,-3 2,-2 7,-5 3,-3 6,-4 9,-6 31,-21 58,-58 73,-92 57,-126 -22,-281 -148,-310 -70,-16 -55,-6 -112,-6z"/>
    <path class="fil1" d="M2235 4759c0,27 18,63 34,82 43,51 71,60 137,61 24,0 33,1 60,-11 17,-9 34,-21 47,-34 17,-17 39,-52 41,-76 2,-24 7,-31 7,-34 0,-11 -6,-50 -12,-65 -9,-20 -21,-38 -35,-52l-5 -5c-35,-32 -66,-45 -119,-45 -37,0 -88,23 -113,53 -29,34 -42,66 -42,126z"/>
    <path class="fil1" d="M3211 5156c0,25 14,18 45,11 20,-5 37,-7 56,-12 50,-12 128,-22 171,-34l143 -27c15,-2 14,-3 24,-9 -6,-30 -45,-80 -71,-100 -28,-21 -87,-49 -121,-49 -74,0 -126,13 -180,67 -19,19 -34,38 -46,63 -20,46 -12,46 -16,67 -3,11 -5,9 -5,23z"/>
   </g>
  </g>
 </g>
</svg>
