<?xml version="1.0" encoding="UTF-8"?>
<!DOCTYPE svg PUBLIC "-//W3C//DTD SVG 1.1//EN" "http://www.w3.org/Graphics/SVG/1.1/DTD/svg11.dtd">
<!-- Creator: CorelDRAW X7 -->
<svg xmlns="http://www.w3.org/2000/svg" xml:space="preserve" width="5.16094in" height="5.16094in" version="1.1" style="shape-rendering:geometricPrecision; text-rendering:geometricPrecision; image-rendering:optimizeQuality; fill-rule:evenodd; clip-rule:evenodd"
viewBox="0 0 1085 1085"
 xmlns:xlink="http://www.w3.org/1999/xlink">
 <defs>
  <style type="text/css">
   <![CDATA[
    .str0 {stroke:#FEFEFE;stroke-width:20.6872}
    .fil0 {fill:none}
    .fil1 {fill:#FEFEFE}
   ]]>
  </style>
 </defs>
 <g id="Layer_x0020_1">
  <metadata id="CorelCorpID_0Corel-Layer"/>
  <g id="_908392144">
   <circle class="fil0 str0" cx="542" cy="542" r="532"/>
   <g>
    <path class="fil1" d="M532 849c0,-4 6,-16 17,-8 7,6 2,18 -7,18 -6,0 -10,-6 -10,-10zm140 57l-42 0 -206 0c-20,0 -11,-1 -18,-2 -6,-1 -14,-4 -20,-7 -1,-1 -1,-1 -3,-2 -19,-8 -36,-28 -45,-47l-5 -11c-1,-3 -2,-8 -3,-12l-4 -33c0,-2 0,-3 0,-6l0 -32c0,-2 0,-1 0,-4 -1,-2 -1,-5 0,-7 0,-11 0,-24 0,-34l0 -19c-1,-14 0,-7 0,-16 0,-1 0,-2 0,-5l0 -21c0,-3 0,-4 -1,-8l1 -16c0,-6 0,-12 1,-18l2 -23c1,-2 2,-5 2,-7 1,-3 0,-4 1,-7l7 -24c1,-1 1,-2 1,-3l11 -25c3,-6 2,-5 6,-11 5,-9 11,-21 14,-30l2 -7c1,-2 1,-4 2,-7 1,-3 1,-4 -3,-4 -2,0 -6,1 -9,0 -1,0 -4,-2 -5,-3 -4,-4 -3,-7 -3,-13 0,-3 5,-8 8,-8 11,-3 14,5 14,-8 0,-4 -10,-1 -14,-2 -9,-3 -12,-15 -4,-22 2,-2 4,-2 6,-3 0,-12 -1,-14 5,-20l10 -9c3,-3 3,-5 0,-7l-5 -4c-3,-3 -10,-9 -10,-14l0 -35c0,-6 6,-13 11,-13l126 0 0 -118 81 0c0,14 -1,65 0,75 1,11 0,12 0,22 0,22 -3,21 7,21 16,0 118,0 121,0 4,1 8,7 8,10l0 39c0,6 -13,15 -16,20 1,4 7,8 12,13 7,8 5,12 4,20 4,2 4,-1 8,3 2,2 4,4 4,7 0,12 -6,15 -16,15 -8,0 -7,1 -7,7 0,4 12,2 16,4 9,4 9,16 0,22 -3,2 -9,1 -14,2l4 17c2,8 9,20 13,28 1,1 1,2 2,4 5,9 16,32 18,43l5 16c5,12 7,45 7,59l0 161c0,7 0,13 0,20 0,4 -5,22 -6,26l-3 7c-1,3 -2,5 -3,7 -1,3 -2,5 -3,7 -4,6 -8,13 -13,19 -12,12 -11,11 -25,20l-11 5c-1,1 -2,2 -4,2 -4,2 -12,3 -15,5l-4 1zm-254 -68c0,-9 13,-15 18,-8 7,10 1,18 -9,18 -3,0 -9,-6 -9,-10zm285 -19c-3,0 -6,0 -9,-3 -10,-10 7,-24 15,-13 4,5 3,10 -1,14 -1,0 0,0 -1,1 -2,1 -2,1 -4,1zm-239 -21c0,-2 1,-5 3,-7 3,-3 11,-4 14,0 8,7 0,17 -6,17 -5,1 -11,-5 -11,-10zm159 -34c0,-13 20,-15 20,1 0,6 -11,13 -17,6 -1,-2 -3,-4 -3,-7zm-196 -33c11,0 17,12 8,18 0,0 -1,0 -2,1 -4,2 -7,3 -11,-3 -2,-1 -3,-4 -3,-6 0,-2 1,-5 2,-6 2,-2 0,-1 3,-2 1,-1 2,-2 3,-2zm25 -34c0,-5 1,-8 1,-11 1,-9 2,-12 5,-19 1,-2 3,-5 4,-7l17 -18c7,-5 20,-21 30,-29l2 -2c2,-2 2,-2 4,-3l7 -4c13,-5 25,-6 38,-1 5,2 10,5 14,8 6,5 32,32 33,33 7,6 13,12 18,20l4 7c5,13 4,20 1,33 -2,8 -3,10 -9,18l-22 23c-5,4 -2,0 -8,7l-14 15c-4,4 -9,6 -14,8 -7,4 -20,6 -27,5 -6,-1 -12,-4 -17,-6 -6,-2 -14,-10 -18,-15 -2,-2 -3,-3 -5,-5 -2,-3 -4,-4 -6,-6 -5,-4 -30,-28 -32,-35 -1,-6 -1,-3 -3,-7 0,-1 -3,-8 -3,-9zm-24 -34c14,0 15,20 -1,20 -2,0 -9,-5 -8,-10 0,-2 2,-5 3,-6 0,-1 5,-4 6,-4zm275 0c0,-10 9,-15 17,-9 4,4 5,11 -1,15 -10,8 -16,-3 -16,-6zm-330 3c-3,0 -6,-1 -8,-3 -10,-9 5,-24 14,-14 5,4 5,9 1,14 -2,1 -5,3 -7,3zm241 -66c8,0 13,4 13,12 0,1 -7,15 -18,6 -9,-9 3,-18 5,-18zm-196 0c0,-3 5,-14 15,-10 5,3 9,11 3,17 -2,1 -5,3 -7,3 -5,-1 -11,-6 -11,-10zm277 -18c0,6 -7,15 -17,8 -1,-1 -2,-3 -3,-5 -3,-6 5,-16 13,-13 3,2 7,6 7,10zm-292 -124l99 0 0 60 -121 0c-4,0 -2,-1 -1,-3l16 -36c1,-2 1,-3 2,-4l3 -13c0,-3 0,-4 2,-4zm303 60l-123 0 0 -60 101 0 1 8c1,4 1,4 2,9 1,4 5,14 7,18 1,2 1,2 2,4l9 17c1,3 1,1 1,4zm-23 -84l-89 0c-9,0 -13,2 -10,-10l97 0c3,0 3,1 3,5l-1 5zm-281 -10l89 0c12,0 11,-2 11,10l-100 0 -1 -8c0,-2 1,1 1,-2zm-12 -27c0,-4 7,-9 12,-15l2 -2c2,-1 2,-2 4,-2l50 0c13,1 4,1 17,0l143 0c3,1 4,1 8,1l51 -1c4,0 18,15 18,19l0 3 -303 0c-1,0 -2,-1 -2,-3zm263 -75l17 0c6,0 -1,17 4,17l9 0c6,0 -1,-17 4,-17l8 0c0,20 2,14 -8,24 -3,3 -6,8 -10,8l-270 0c-2,0 -17,-15 -17,-17 0,-18 -2,-15 9,-15 0,7 0,11 1,17l12 0c0,-4 1,-5 1,-9 -1,-10 -4,-8 21,-8 0,19 -1,17 10,17 6,0 -1,-17 6,-17l18 0c0,7 -1,11 0,17 14,0 13,1 13,-9 0,-12 0,-7 7,-8l14 0c0,17 -2,17 9,17 2,0 2,-2 4,-3 0,-18 -5,-14 21,-14 0,20 -3,17 11,17 6,0 -2,-17 4,-17 22,0 19,-2 19,8 0,4 -1,8 2,8 0,1 8,1 9,1 4,-1 2,-5 2,-15 0,-4 8,-2 19,-2 6,0 -2,17 4,17l9 0c6,0 -2,-17 4,-17l17 0c6,0 -2,17 4,17 15,0 10,0 11,-9 1,-3 1,-1 0,-5 0,-2 0,-3 2,-3zm-95 -115l0 90 -32 0 0 -94c38,0 32,-2 32,4z"/>
    <path class="fil1" d="M515 702c0,-4 4,-16 6,-20 6,-11 4,-11 13,-24 2,-2 3,-5 4,-7 3,-4 3,-5 6,-5 0,2 0,2 1,4l6 9c1,0 1,1 1,1 1,1 1,1 1,2l15 31c2,8 3,8 -1,16 -1,4 -8,10 -10,12l-7 5c-3,-5 3,-37 -4,-37 -13,0 -10,-1 -10,28 0,2 0,4 0,5 0,5 0,5 -8,-1l-7 -6c0,0 -1,-1 -1,-2 -1,-1 -1,-1 -2,-3 -1,-1 -3,-7 -3,-8zm-13 -4c0,6 -1,9 2,15 1,1 1,2 2,3 2,4 9,12 13,15l13 8c4,2 4,3 4,8 0,4 0,8 0,11 -11,0 -21,-15 -27,-21 -2,-1 -2,-2 -4,-3 -5,-5 -25,-25 -28,-30 -6,-8 -6,-21 0,-29 8,-10 17,-17 25,-26 5,-5 18,-19 26,-24 5,-4 13,-6 20,-4 6,2 6,1 12,5 1,1 3,3 4,5 6,6 12,11 18,17l8 10c2,1 3,2 5,3 9,9 13,11 15,20 3,10 3,9 0,19 -3,9 -23,26 -31,34 -5,5 -14,16 -20,20 -12,9 -10,3 -10,-9 0,-5 3,-5 10,-9 4,-2 7,-5 11,-8 5,-4 8,-10 11,-16 3,-5 2,-8 2,-15 0,-8 -8,-24 -12,-31 -5,-10 -10,-18 -16,-27 -1,-2 -1,-2 -3,-4 -4,-6 -5,-9 -11,-11 -3,2 -9,12 -12,16 -5,7 -17,27 -21,36l-3 10c-1,4 -3,7 -3,12zm-43 -6c0,5 1,13 4,17 1,1 1,0 2,2 7,10 25,25 31,33 6,7 6,5 10,10 2,1 3,3 5,5 14,14 19,14 36,14 9,0 14,-5 17,-7 2,-1 2,0 3,-1 3,-2 6,-6 8,-8l27 -26c8,-8 24,-24 24,-35 0,-17 -1,-22 -13,-36l-6 -6c0,0 -1,-1 -1,-1 0,0 0,0 0,0l-11 -11c0,0 -1,-1 -1,-2l-20 -19c-5,-4 -11,-10 -17,-12 -8,-3 -15,-2 -25,-2l-13 7c-5,4 -19,18 -25,24 -2,2 -3,3 -5,5l-10 10c-3,3 -6,6 -9,10 -3,3 -6,7 -8,12 -1,3 -2,3 -2,7 -1,4 -1,6 -1,10z"/>
   </g>
  </g>
 </g>
</svg>
