<?xml version="1.0" encoding="UTF-8"?>
<!DOCTYPE svg PUBLIC "-//W3C//DTD SVG 1.1//EN" "http://www.w3.org/Graphics/SVG/1.1/DTD/svg11.dtd">
<!-- Creator: CorelDRAW X7 -->
<svg xmlns="http://www.w3.org/2000/svg" xml:space="preserve" width="5.16094in" height="5.16094in" version="1.1" style="shape-rendering:geometricPrecision; text-rendering:geometricPrecision; image-rendering:optimizeQuality; fill-rule:evenodd; clip-rule:evenodd"
viewBox="0 0 606 606"
 xmlns:xlink="http://www.w3.org/1999/xlink">
 <defs>
  <style type="text/css">
   <![CDATA[
    .str0 {stroke:#FEFEFE;stroke-width:11.5662}
    .fil0 {fill:#FEFEFE}
    .fil1 {fill:#010000}
   ]]>
  </style>
 </defs>
 <g id="Layer_x0020_1">
  <metadata id="CorelCorpID_0Corel-Layer"/>
  <g id="_800452256">
   <circle class="fil0 str0" cx="303" cy="303" r="297"/>
   <g>
    <path class="fil1" d="M298 475c0,-3 3,-9 9,-5 4,3 1,10 -4,10 -3,0 -5,-3 -5,-5zm78 31l-24 0 -115 0c-11,0 -6,0 -10,-1 -4,0 -8,-2 -11,-4 -1,0 -1,0 -2,0 -10,-5 -20,-16 -25,-27l-3 -6c-1,-2 -1,-5 -2,-7l-2 -18c0,-1 0,-2 0,-4l0 -17c0,-1 0,-1 0,-2 0,-2 0,-3 0,-5 0,-6 0,-13 0,-19l0 -10c0,-8 0,-4 0,-9 0,-1 0,-1 0,-3l0 -12c0,-1 0,-2 0,-4l0 -9c1,-3 0,-7 1,-10l1 -13c0,-1 1,-3 1,-4 0,-2 0,-2 1,-4l4 -13c0,-1 0,-1 0,-2l6 -14c2,-3 1,-3 4,-6 2,-5 6,-12 7,-17l2 -4c0,-1 0,-2 1,-3 0,-2 0,-3 -2,-3 -1,0 -3,0 -5,0 -1,0 -2,-1 -3,-2 -2,-2 -2,-4 -2,-7 0,-2 3,-4 5,-4 6,-2 8,3 8,-5 0,-2 -6,0 -8,-1 -5,-1 -7,-8 -2,-12 1,-1 2,-1 3,-2 0,-6 0,-8 3,-11l5 -5c2,-2 2,-3 0,-4l-2 -2c-2,-2 -6,-5 -6,-8l0 -20c0,-3 3,-7 6,-7l71 0 0 -66 45 0c0,8 -1,36 0,42 0,6 0,7 0,12 0,12 -2,12 4,12 9,0 66,0 68,0 2,1 4,4 4,6l0 21c0,4 -7,9 -9,12 0,2 4,4 7,7 3,4 2,6 2,11 2,1 2,0 4,2 1,1 3,2 3,4 0,6 -3,8 -9,8 -5,0 -4,0 -4,4 0,2 7,1 9,2 5,2 5,9 0,12 -2,2 -5,1 -8,2l2 9c2,5 5,11 7,16 1,1 1,1 2,2 3,5 8,18 10,24l2 9c3,7 5,25 5,33l0 90c0,4 -1,7 -1,11 0,2 -2,12 -3,15l-2 4c0,1 -1,2 -1,4 -1,1 -1,2 -2,3 -2,4 -4,8 -7,11 -7,7 -7,6 -15,11l-6 3c0,1 -1,1 -1,1 -3,1 -7,2 -9,3l-2 0zm-142 -37c0,-5 7,-9 10,-5 4,6 0,10 -5,10 -2,0 -5,-3 -5,-5zm159 -11c-2,0 -3,0 -5,-2 -6,-5 4,-13 9,-7 2,3 1,6 -1,8 -1,0 0,0 -1,0 -1,1 -1,1 -2,1zm-134 -12c0,-1 1,-3 2,-4 2,-1 6,-2 8,0 4,4 0,10 -4,10 -2,0 -6,-3 -6,-6zm89 -19c0,-7 12,-8 12,1 0,3 -6,7 -10,3 -1,-1 -2,-2 -2,-4zm-109 -18c6,0 9,6 4,10 0,0 0,0 -1,0 -2,1 -4,2 -6,-1 -1,-1 -2,-3 -2,-4 0,-1 1,-2 2,-3 0,-1 0,-1 1,-1 0,-1 1,-1 2,-1zm14 -19c0,-3 0,-5 0,-7 1,-5 1,-6 3,-10 1,-1 1,-3 2,-4l10 -10c4,-3 11,-12 16,-16l2 -2c1,0 1,0 2,-1l4 -2c7,-3 14,-3 21,-1 3,1 6,3 8,5 3,2 18,18 18,18 4,3 8,7 11,11l2 4c2,7 2,12 0,19 -1,4 -1,5 -5,10l-12 12c-3,3 -1,1 -5,5l-8 8c-2,2 -4,3 -7,4 -4,2 -11,3 -15,3 -4,0 -7,-2 -10,-3 -3,-2 -7,-6 -10,-8 -1,-2 -2,-2 -3,-4 -1,-1 -2,-2 -3,-3 -3,-2 -17,-15 -18,-19 -1,-4 -1,-2 -1,-4 -1,-1 -2,-5 -2,-5zm-14 -19c8,0 9,11 0,11 -2,0 -5,-3 -5,-6 0,-1 1,-3 2,-3 0,-1 2,-2 3,-2zm154 0c0,-6 5,-9 9,-5 3,2 3,6 0,8 -6,5 -9,-2 -9,-3zm-185 2c-1,0 -3,-1 -4,-2 -5,-5 3,-14 8,-8 3,2 2,5 0,7 0,1 -2,3 -4,3zm135 -37c5,0 7,2 7,6 0,0 -4,9 -9,3 -5,-4 1,-9 2,-9zm-109 -1c0,-1 2,-8 8,-5 3,2 5,6 2,9 -1,1 -3,2 -4,2 -3,0 -6,-4 -6,-6zm154 -10c0,4 -3,9 -9,5 -1,-1 -1,-2 -2,-3 -1,-4 3,-9 8,-7 1,1 3,3 3,5zm-163 -69l56 0 0 34 -68 0c-2,0 -1,-1 0,-2l9 -20c0,-1 0,-2 1,-3l1 -7c0,-1 0,-2 1,-2zm170 34l-69 0 0 -34 56 0 1 4c1,3 1,3 1,5 1,3 3,8 4,11 1,1 1,1 1,2l5 10c1,1 1,0 1,2zm-13 -48l-50 0c-5,0 -7,2 -6,-5l55 0c2,0 1,1 1,3l0 2zm-157 -5l49 0c7,0 7,-1 7,5l-56 0 -1 -4c0,-1 1,1 1,-1zm-7 -15c0,-2 4,-5 7,-8l1 -2c1,0 1,0 2,0l28 0c7,0 2,0 10,0l79 0c2,0 3,0 5,0l28 0c3,0 10,8 10,10l0 1 -169 0c-1,0 -1,0 -1,-1zm147 -42l10 0c3,0 -1,9 2,9l5 0c3,0 -1,-9 2,-9l4 0c0,11 1,8 -4,14 -1,1 -3,4 -6,4l-151 0c-1,0 -9,-8 -9,-10 0,-10 -1,-8 5,-8 0,4 0,6 1,9l6 0c0,-1 1,-2 1,-5 0,-5 -2,-4 11,-4 0,11 0,9 7,9 3,0 -2,-9 2,-9l10 0c0,4 0,6 1,9 8,0 7,1 7,-5 0,-6 0,-3 4,-4l8 0c0,10 -1,9 5,9 1,0 1,0 2,-1 0,-10 -3,-8 12,-8 0,11 -2,9 6,9 3,0 -1,-9 2,-9 12,0 11,-1 11,4 0,2 -1,5 1,5 0,0 5,1 5,1 2,-1 1,-3 1,-9 0,-2 5,-1 11,-1 3,0 -1,9 2,9l5 0c3,0 -1,-9 2,-9l10 0c3,0 -1,9 2,9 8,0 6,1 6,-4 0,-2 0,-1 0,-3 0,-1 0,-2 1,-2zm-53 -64l0 50 -18 0 0 -53c21,0 18,-1 18,3z"/>
    <path class="fil1" d="M288 392c0,-2 2,-9 3,-11 4,-6 3,-6 8,-13 0,-1 1,-3 2,-4 1,-2 1,-3 3,-3 0,1 0,1 1,2l3 5c0,0 1,1 1,1 0,1 0,0 0,1l9 17c1,5 1,5 -1,10 -1,1 -4,5 -6,6l-4 3c-1,-3 2,-21 -2,-21 -7,0 -5,0 -5,16 0,1 0,2 0,3 -1,3 0,2 -5,-1l-3 -3c-1,0 -1,-1 -1,-1 -1,-1 -1,-1 -2,-2 0,-1 -1,-4 -1,-5zm-7 -2c0,4 -1,5 1,9 0,0 0,1 1,1 1,3 5,7 7,9l8 4c2,1 2,2 2,5 0,2 0,4 0,6 -7,0 -12,-9 -15,-12 -1,-1 -2,-1 -3,-2 -3,-3 -14,-13 -15,-16 -4,-5 -3,-12 0,-17 4,-5 9,-9 14,-14 2,-3 10,-11 14,-14 3,-2 7,-3 11,-2 4,1 4,1 7,3 1,1 2,2 3,3 3,3 6,6 9,10l5 5c1,1 2,1 3,2 5,5 7,6 8,11 1,5 2,5 0,10 -1,5 -13,15 -17,19 -3,3 -8,9 -11,12 -7,5 -6,1 -6,-6 0,-2 2,-2 5,-4 3,-2 4,-3 6,-5 4,-2 5,-6 7,-9 1,-3 1,-4 1,-8 0,-5 -4,-14 -7,-18 -2,-5 -5,-10 -9,-15 0,-1 0,-1 -1,-2 -3,-3 -3,-5 -7,-6 -1,1 -5,6 -6,9 -3,4 -9,15 -12,20l-2 6c0,2 -1,3 -1,6zm-24 -3c0,3 0,7 2,9 0,1 0,1 1,2 4,5 14,13 17,18 4,4 3,3 6,5 1,1 2,2 3,3 8,8 10,8 20,8 5,0 8,-3 9,-4 1,0 1,0 2,0 1,-1 3,-3 4,-4l16 -15c4,-5 13,-14 13,-20 0,-10 0,-12 -7,-20l-4 -4c0,0 0,0 0,0 0,0 0,0 0,0l-6 -6c-1,0 -1,-1 -1,-1l-11 -11c-3,-2 -6,-6 -10,-7 -4,-1 -8,-1 -13,-1l-8 4c-3,3 -10,10 -14,14 -1,1 -1,1 -3,2l-5 6c-2,2 -4,3 -5,5 -2,2 -4,5 -5,7 0,2 -1,2 -1,4 0,2 0,3 0,6z"/>
   </g>
  </g>
 </g>
</svg>
