<?xml version="1.0" encoding="UTF-8"?>
<!DOCTYPE svg PUBLIC "-//W3C//DTD SVG 1.1//EN" "http://www.w3.org/Graphics/SVG/1.1/DTD/svg11.dtd">
<!-- Creator: CorelDRAW X7 -->
<svg xmlns="http://www.w3.org/2000/svg" xml:space="preserve" width="5.16094in" height="5.16094in" version="1.1" style="shape-rendering:geometricPrecision; text-rendering:geometricPrecision; image-rendering:optimizeQuality; fill-rule:evenodd; clip-rule:evenodd"
viewBox="0 0 742 742"
 xmlns:xlink="http://www.w3.org/1999/xlink">
 <defs>
  <style type="text/css">
   <![CDATA[
    .str0 {stroke:#FEFEFE;stroke-width:14.1475}
    .fil0 {fill:#FEFEFE}
    .fil1 {fill:#010000}
   ]]>
  </style>
 </defs>
 <g id="Layer_x0020_1">
  <metadata id="CorelCorpID_0Corel-Layer"/>
  <g id="_199252832">
   <circle class="fil0 str0" cx="371" cy="371" r="364"/>
   <g>
    <path class="fil1" d="M116 461l0 0zm530 -157l0 3c0,4 -2,8 -5,12 -6,7 -1,7 -1,19 0,8 -7,18 -15,18 -4,0 -7,0 -9,-2 -8,-7 -5,-8 -10,-12 -8,-6 -38,-6 -50,-6 0,6 -7,11 -14,13 2,3 7,3 13,15 6,9 10,26 2,36 -2,2 -3,3 -5,4 -8,8 -8,9 -12,19 -1,2 -1,2 -2,3 -11,20 -35,50 -52,64l-11 8c-3,2 -6,4 -10,7 -15,8 -34,12 -54,13l-12 0c-25,-1 -50,-6 -69,-10 -15,-3 -30,-7 -44,-12 -7,-3 -10,-4 -16,-4 -19,3 -35,5 -56,5 -31,0 -61,-7 -81,-19 -13,-8 -5,-3 -15,-7 -5,-2 -11,-5 -14,-9 -8,-10 -8,-18 -8,-31l1 -12c3,-16 14,-47 22,-63l20 -37c2,-3 3,-6 5,-8l5 -8c2,-3 3,-5 5,-7 6,-8 10,-12 15,-18 3,-4 14,-13 17,-15 10,-8 20,-15 31,-21 16,-7 33,-12 50,-15 10,-1 26,-3 35,-3l16 1c23,2 58,7 80,15 13,4 11,4 19,2 23,-8 50,1 72,8 8,3 15,5 24,8 7,2 17,4 26,4 14,0 29,0 41,-3 10,-2 8,-10 14,-14 6,-4 15,-1 20,2 7,5 6,12 2,19 -7,13 -1,8 -1,27 0,9 -11,12 -20,7 -2,-1 -4,-3 -7,-4 -14,-8 -27,-4 -46,-4l0 2c2,0 3,0 4,1 2,0 3,0 5,0 11,2 17,1 21,10 3,0 7,1 11,1 9,1 25,2 30,-5 7,-9 9,-11 18,-11 7,0 14,6 15,14zm-16 21c0,5 1,10 1,13 0,2 -1,4 -2,5 -4,6 -11,2 -14,-1 -6,-8 -8,-11 -17,-12 -12,-2 -21,-2 -34,-2 -2,0 -3,2 -3,-1 0,-12 12,-3 9,-16l20 2c7,1 14,1 20,0 12,-3 10,-14 21,-12 5,1 7,5 3,11 -2,3 -4,9 -4,13zm-131 -39l-2 0 2 0zm107 -12c0,5 3,7 3,12 1,3 -1,9 -5,9 -11,0 -7,-11 -37,-11 -9,0 -20,1 -28,2 0,-7 11,-8 13,-13 1,-4 -5,-4 5,-4 4,0 9,-1 13,-1 4,0 7,-1 11,-1 4,-1 8,-1 10,-3 6,-5 2,-13 14,-13 3,0 7,2 7,6 0,2 -2,6 -3,8 -1,2 -3,6 -3,9zm-189 -25l17 -2c3,0 6,0 9,0 3,0 6,1 9,1 26,5 53,18 75,21 4,1 17,1 18,1 -1,5 -6,5 -9,8 -2,1 -5,10 -6,10 -3,0 -23,-8 -28,-9 -25,-9 -41,-14 -67,-18 -4,0 -5,0 -7,-3 -2,-3 -6,-7 -11,-8l0 -1zm104 58c-2,-4 -7,-8 -11,-11 -2,-2 -3,-3 -5,-5l-6 -5c2,1 29,10 33,11 6,2 12,4 18,5 5,1 10,1 13,3 2,2 2,2 2,5 -6,2 -13,1 -13,16 0,14 -5,12 -16,14 -21,6 -38,10 -52,24l-16 14c-14,12 -20,16 -39,22l-11 3c0,1 0,1 0,1 2,0 3,0 4,0 10,0 22,-2 31,-6 11,-4 19,-11 28,-19 17,-13 27,-27 53,-27 2,5 9,11 13,17 3,6 4,16 1,25 -1,6 -11,8 -14,14 -8,16 -17,31 -28,45l-21 23c-2,1 -3,2 -4,3l-12 10c-3,2 -6,4 -9,6 -1,1 -2,1 -4,2 -5,3 -10,6 -15,7 -5,2 -8,2 -13,3 -31,4 -72,-5 -103,-11 -8,-2 -16,-4 -24,-6 -4,-1 -7,-2 -11,-3 -3,-1 -9,-4 -12,-4l3 -6c0,-2 1,-4 1,-6 -2,1 -3,3 -5,4 -7,4 -14,5 -21,7 -6,1 -11,2 -16,3 -16,3 -37,3 -53,0 -18,-2 -40,-12 -54,-21 -8,-5 -15,-12 -11,-25 4,-14 12,-25 21,-36 7,-9 14,-17 22,-25l3 -3c3,-3 7,-8 11,-11l27 -25c1,-1 2,-1 3,-2 2,-3 24,-20 20,-6 -1,5 -3,9 -5,14 -6,15 -12,23 -21,36 -3,4 -5,7 -8,11 -7,9 -20,24 -23,34l42 -2c8,-1 35,0 42,1 12,2 25,3 36,8 5,2 9,5 13,8 3,4 8,9 8,15l0 0c0,-25 -26,-33 -46,-37 -11,-2 -25,-4 -38,-4 -3,0 -5,0 -9,0l-21 0c-4,0 -6,0 -10,0 0,-2 1,-2 3,-3 4,-5 8,-10 12,-15 1,-1 1,-2 2,-4 8,-10 10,-15 16,-25 2,-3 3,-5 5,-9 4,-10 7,-19 9,-30 1,-4 1,-7 1,-12 0,-7 -3,-4 -7,-3 -19,6 -33,21 -47,33l-7 7c-7,5 -18,17 -24,23l-10 11c-9,12 -15,18 -22,31 -6,10 -11,25 -7,37 1,2 2,3 3,5 -5,-3 -8,-12 -9,-17 -6,-27 11,-66 23,-90 2,-3 3,-6 5,-9 8,-13 14,-26 24,-39 7,-10 18,-23 27,-30l11 -9c5,-5 16,-12 23,-15 19,-11 36,-17 60,-17l0 0c-7,0 -30,10 -37,14 -11,6 -21,13 -31,20l-31 31c2,0 14,-11 16,-13 30,-23 62,-43 101,-48 18,-3 38,-2 55,0 20,3 38,6 55,15 2,1 4,3 5,4 -25,0 -53,9 -74,22 -5,3 -12,7 -16,11 -13,12 -22,22 -29,40 -2,5 -4,16 -4,23l2 -4c0,-1 0,-2 1,-4 5,-12 12,-25 21,-34 1,-2 1,-2 2,-3l9 -8c9,-10 29,-20 42,-24 30,-9 68,-10 97,-2 3,1 6,1 9,3l21 11 27 18z"/>
    <path class="fil1" d="M467 322c-7,5 -17,22 -23,27 -2,1 -3,2 -5,4 -10,8 -26,18 -41,18 1,1 3,1 5,1 7,1 15,0 21,-2 21,-7 28,-28 40,-44 1,-1 3,-3 3,-4z"/>
    <path class="fil1" d="M231 375l0 1c3,0 8,1 15,1 12,0 30,-6 36,-15 -1,0 -3,1 -5,2 -2,1 -4,2 -6,3 -13,5 -25,8 -40,8z"/>
    <polygon class="fil1" points="521,307 521,307 522,307 "/>
    <polygon class="fil1" points="467,322 468,322 467,321 "/>
   </g>
  </g>
 </g>
</svg>
