<?xml version="1.0" encoding="UTF-8"?>
<!DOCTYPE svg PUBLIC "-//W3C//DTD SVG 1.1//EN" "http://www.w3.org/Graphics/SVG/1.1/DTD/svg11.dtd">
<!-- Creator: CorelDRAW X7 -->
<svg xmlns="http://www.w3.org/2000/svg" xml:space="preserve" width="5.16094in" height="5.16094in" version="1.1" style="shape-rendering:geometricPrecision; text-rendering:geometricPrecision; image-rendering:optimizeQuality; fill-rule:evenodd; clip-rule:evenodd"
viewBox="0 0 479 479"
 xmlns:xlink="http://www.w3.org/1999/xlink">
 <defs>
  <style type="text/css">
   <![CDATA[
    .str0 {stroke:#FEFEFE;stroke-width:9.13957}
    .fil0 {fill:none}
    .fil1 {fill:#FEFEFE}
   ]]>
  </style>
 </defs>
 <g id="Layer_x0020_1">
  <metadata id="CorelCorpID_0Corel-Layer"/>
  <g id="_199244064">
   <circle class="fil0 str0" cx="240" cy="240" r="235"/>
   <g>
    <path class="fil1" d="M75 298l0 0zm342 -102l0 2c0,3 -1,5 -3,8 -4,5 -1,5 -1,12 0,6 -4,12 -9,12 -3,0 -5,0 -6,-1 -5,-5 -4,-6 -7,-8 -5,-4 -24,-4 -32,-4 0,4 -5,7 -9,8 2,2 4,3 9,10 3,6 6,17 1,24 -1,1 -2,1 -3,2 -5,5 -5,6 -8,12 -1,1 -1,1 -1,2 -8,13 -23,33 -34,41l-7 6c-2,1 -4,3 -7,4 -9,6 -22,8 -35,8l-7 0c-16,0 -32,-3 -45,-6 -9,-2 -19,-5 -28,-8 -5,-1 -7,-2 -10,-2 -13,2 -23,3 -37,3 -20,0 -39,-5 -52,-13 -8,-5 -3,-1 -10,-4 -3,-1 -7,-3 -9,-5 -5,-7 -5,-12 -5,-21l1 -7c2,-11 9,-31 14,-41l13 -24c1,-2 2,-4 3,-5l3 -5c2,-2 2,-3 4,-5 3,-5 6,-7 9,-12 2,-2 9,-8 11,-9 6,-5 13,-10 20,-13 10,-5 22,-8 33,-10 6,-1 16,-2 22,-2l10 0c16,2 38,5 52,10 9,3 7,3 12,1 15,-5 33,1 47,5 5,2 10,4 15,5 5,2 11,3 17,3 9,0 19,0 27,-2 6,-1 5,-6 9,-9 3,-2 9,-1 12,1 5,4 4,8 2,13 -4,8 -1,5 -1,17 0,6 -7,8 -13,5 -1,-1 -2,-2 -4,-3 -9,-5 -18,-2 -30,-2l0 1c1,0 2,0 3,0 1,1 2,1 3,1 7,1 11,1 13,6 3,0 5,0 8,1 5,1 16,1 19,-3 5,-6 6,-7 12,-7 4,0 9,3 9,8zm-10 14c0,3 1,6 1,8 0,1 -1,3 -1,4 -3,4 -8,1 -10,-1 -4,-5 -5,-7 -11,-8 -8,-1 -14,-1 -22,-1 -1,0 -2,1 -2,-1 0,-7 8,-2 6,-10l13 1c4,1 9,1 13,0 8,-2 7,-9 13,-8 4,1 5,4 3,7 -1,2 -3,6 -3,9zm-85 -25l-1 0 1 0zm70 -8c0,3 1,5 2,8 0,2 -1,5 -4,5 -7,0 -4,-7 -23,-7 -7,0 -13,1 -19,2 1,-5 7,-5 8,-8 1,-3 -3,-3 4,-3 2,0 6,-1 8,-1 3,0 5,0 7,-1 3,0 5,0 7,-2 4,-3 1,-8 9,-8 2,0 4,1 4,4 0,1 -1,4 -2,5 0,2 -1,4 -1,6zm-123 -16l12 -2c1,0 3,1 5,1 2,0 4,0 6,1 17,2 34,11 49,13 2,0 10,0 11,1 0,3 -4,2 -6,4 -1,1 -3,7 -4,7 -2,0 -15,-5 -18,-6 -16,-6 -26,-9 -43,-11 -3,-1 -3,0 -4,-2 -2,-2 -5,-5 -8,-5l0 -1zm68 37c-2,-2 -5,-5 -7,-7 -2,-1 -3,-2 -4,-3l-4 -3c2,0 19,6 22,7 4,1 8,2 12,3 2,1 6,1 8,2 1,1 1,1 1,3 -4,2 -8,1 -8,11 0,8 -4,7 -11,9 -13,3 -24,6 -33,15l-10 9c-10,8 -14,10 -26,14l-7 3c0,0 0,0 0,0 1,0 2,0 3,0 6,0 14,-1 20,-4 7,-3 12,-7 18,-12 11,-9 17,-17 34,-17 1,3 6,6 8,10 2,4 3,11 1,16 -1,5 -7,6 -9,10 -5,10 -11,20 -18,28l-14 15c-1,1 -1,2 -2,2l-8 7c-2,1 -4,2 -6,4 -1,0 -1,1 -3,1 -3,2 -6,4 -9,5 -3,1 -5,1 -8,1 -21,3 -47,-3 -67,-7 -5,-1 -11,-2 -15,-4 -3,0 -5,-1 -8,-2 -2,0 -6,-2 -7,-2l1 -4c1,-1 1,-2 1,-4 -1,1 -2,2 -3,3 -5,2 -9,3 -14,4 -3,1 -7,2 -10,2 -10,2 -24,2 -34,1 -12,-2 -26,-8 -35,-14 -5,-4 -10,-8 -7,-16 2,-9 8,-17 13,-24 5,-5 9,-11 15,-16l1 -2c2,-2 5,-5 8,-7l17 -16c1,0 1,-1 2,-1 2,-2 15,-14 13,-4 -1,3 -2,6 -3,9 -4,10 -8,15 -14,23 -2,3 -3,5 -5,7 -4,6 -13,16 -15,22l27 -1c5,-1 23,0 27,0 8,2 17,2 23,6 4,1 7,3 9,5 2,2 5,6 5,10l0 0c0,-16 -17,-22 -30,-24 -7,-2 -15,-3 -24,-3 -2,0 -3,0 -6,0l-14 0c-2,0 -3,0 -6,0 0,-1 1,-1 2,-2 3,-3 5,-6 7,-10 1,0 2,-1 2,-2 5,-6 7,-10 11,-16 1,-2 1,-4 2,-6 3,-6 5,-12 7,-19 0,-3 0,-5 0,-8 0,-4 -2,-3 -5,-2 -12,4 -21,13 -30,21l-5 4c-4,4 -11,11 -15,16l-6 7c-6,7 -10,12 -14,20 -4,6 -8,16 -5,24 1,1 1,2 2,3 -3,-2 -5,-8 -6,-11 -4,-17 7,-43 15,-58 1,-2 2,-4 3,-6 5,-8 9,-17 16,-26 4,-6 11,-14 17,-19l7 -6c4,-3 11,-7 15,-9 12,-7 23,-11 39,-11l0 0c-5,0 -19,6 -24,9 -7,3 -14,8 -20,13l-20 20c1,0 9,-7 10,-9 19,-15 40,-27 65,-31 12,-2 25,-1 36,0 13,2 25,4 35,10 2,1 3,2 4,3 -17,0 -34,6 -48,14 -3,2 -8,5 -10,7 -9,8 -15,14 -19,26 -1,3 -3,10 -3,15l1 -3c1,-1 1,-1 1,-2 3,-8 8,-17 14,-23 0,-1 0,-1 1,-2l6 -5c6,-6 19,-13 27,-15 20,-6 44,-7 63,-1 2,0 4,1 5,1l14 8 18 11z"/>
    <path class="fil1" d="M302 208c-5,3 -11,14 -15,18 -2,0 -2,1 -3,2 -7,5 -17,11 -27,11 1,1 2,1 4,1 4,1 9,0 13,-1 13,-4 18,-18 26,-28 0,-1 2,-2 2,-3z"/>
    <path class="fil1" d="M149 242l0 1c2,0 5,0 10,0 7,0 19,-3 23,-9 -1,0 -2,1 -3,1 -1,1 -3,1 -4,2 -8,3 -16,5 -26,5z"/>
    <polygon class="fil1" points="337,198 337,199 337,198 "/>
    <polygon class="fil1" points="302,208 302,208 302,207 "/>
   </g>
  </g>
 </g>
</svg>
