<?xml version="1.0" encoding="UTF-8"?>
<!DOCTYPE svg PUBLIC "-//W3C//DTD SVG 1.1//EN" "http://www.w3.org/Graphics/SVG/1.1/DTD/svg11.dtd">
<!-- Creator: CorelDRAW X7 -->
<svg xmlns="http://www.w3.org/2000/svg" xml:space="preserve" width="5.16094in" height="5.16094in" version="1.1" style="shape-rendering:geometricPrecision; text-rendering:geometricPrecision; image-rendering:optimizeQuality; fill-rule:evenodd; clip-rule:evenodd"
viewBox="0 0 479 479"
 xmlns:xlink="http://www.w3.org/1999/xlink">
 <defs>
  <style type="text/css">
   <![CDATA[
    .str0 {stroke:#FEFEFE;stroke-width:9.13957}
    .fil0 {fill:none}
    .fil1 {fill:#FEFEFE}
   ]]>
  </style>
 </defs>
 <g id="Layer_x0020_1">
  <metadata id="CorelCorpID_0Corel-Layer"/>
  <g id="_199246240">
   <circle class="fil0 str0" cx="240" cy="240" r="235"/>
   <g>
    <path class="fil1" d="M164 297c1,-1 3,-3 4,-4l11 -10c5,-4 10,-8 16,-11 7,-4 9,-6 16,-8 11,-5 29,-8 41,-8 17,0 26,0 42,5l9 4c-4,0 -22,0 -25,0l-8 1c-5,0 -10,1 -15,1 -5,1 -9,2 -14,3 -11,3 -24,10 -34,17 -4,2 -13,9 -16,12 -1,1 -2,1 -2,2 -3,3 -11,10 -13,13l-6 6c-7,9 -14,17 -20,26 -3,4 -5,7 -7,10 -2,4 -5,7 -5,12 0,6 4,12 10,12 5,0 7,0 10,-4 2,-1 2,-1 3,-3l17 -32c1,-3 2,-5 4,-7 0,-2 1,-2 2,-4 0,-1 1,-2 2,-3 2,1 5,2 8,3 3,1 5,2 8,3 6,2 12,4 19,5 46,8 75,5 112,-23l15 -12c0,-1 1,-1 1,-2 1,-1 2,-2 3,-3 2,-2 4,-4 6,-6 2,-2 4,-4 6,-6 4,-5 7,-8 11,-14 1,-1 4,-6 5,-7 -1,-1 -5,-4 -6,-5 -2,-2 -4,-3 -6,-5l-14 -9c-2,-1 -4,-2 -6,-4 -10,-5 -20,-10 -30,-15 -38,-14 -88,-22 -122,5l-6 6c-1,1 -1,1 -2,2 -10,11 -17,25 -21,39 -1,4 -3,13 -3,18z"/>
    <path class="fil1" d="M99 194c0,15 3,25 10,38 3,5 10,14 14,17 1,1 1,1 2,2 3,3 9,7 13,9l9 5 -6 -21c-8,-27 -9,-46 -2,-73 0,-2 2,-9 3,-10 0,30 4,62 15,89 1,2 2,3 2,5 2,0 4,-3 6,-5l5 -7c4,-5 4,-7 7,-11 1,-2 1,-3 2,-4 10,-22 12,-46 4,-69 -1,-3 -5,-14 -7,-17 -3,-5 -5,-9 -9,-15l-20 -27c-3,1 -5,5 -7,6 -9,9 -25,33 -30,45 -6,14 -11,27 -11,43z"/>
   </g>
  </g>
 </g>
</svg>
