<?xml version="1.0" encoding="UTF-8"?>
<!DOCTYPE svg PUBLIC "-//W3C//DTD SVG 1.1//EN" "http://www.w3.org/Graphics/SVG/1.1/DTD/svg11.dtd">
<!-- Creator: CorelDRAW X7 -->
<svg xmlns="http://www.w3.org/2000/svg" xml:space="preserve" width="5.16094in" height="5.16094in" version="1.1" style="shape-rendering:geometricPrecision; text-rendering:geometricPrecision; image-rendering:optimizeQuality; fill-rule:evenodd; clip-rule:evenodd"
viewBox="0 0 750 750"
 xmlns:xlink="http://www.w3.org/1999/xlink">
 <defs>
  <style type="text/css">
   <![CDATA[
    .str0 {stroke:#FEFEFE;stroke-width:14.3052}
    .fil0 {fill:#FEFEFE}
    .fil1 {fill:#010000}
   ]]>
  </style>
 </defs>
 <g id="Layer_x0020_1">
  <metadata id="CorelCorpID_0Corel-Layer"/>
  <g id="_199244672">
   <circle class="fil0 str0" cx="375" cy="375" r="368"/>
   <g>
    <path class="fil1" d="M256 464c3,-1 5,-4 7,-6l17 -14c8,-7 16,-13 25,-19 11,-6 15,-8 26,-12 17,-7 45,-13 64,-13 26,0 40,1 65,9l14 6c-5,0 -35,0 -39,0l-12 1c-8,0 -16,1 -24,2 -7,2 -14,3 -21,5 -18,4 -38,15 -53,26 -7,4 -21,14 -26,19 -2,2 -2,2 -4,3 -4,4 -16,16 -20,20l-9 10c-11,14 -22,27 -32,41 -3,5 -7,10 -10,16 -3,5 -8,10 -8,18 0,9 7,18 16,18 7,0 10,0 16,-5 2,-3 2,-3 3,-5l27 -51c2,-4 4,-7 6,-11 1,-2 2,-3 3,-5 2,-2 3,-3 4,-5 3,2 8,3 12,5 5,2 9,3 14,4 9,3 19,6 28,8 73,12 118,8 176,-36l23 -19c1,-1 2,-1 3,-2 1,-2 3,-3 4,-5 4,-3 7,-6 10,-10 2,-3 6,-6 9,-10 6,-7 10,-12 17,-21 1,-2 7,-9 7,-11 -1,-2 -7,-6 -9,-8 -3,-3 -6,-5 -10,-8l-20 -14c-4,-2 -7,-4 -11,-6 -15,-9 -31,-17 -47,-23 -58,-23 -138,-35 -190,8l-9 8c-2,2 -2,3 -4,4 -15,17 -26,39 -32,60 -2,7 -6,21 -6,28z"/>
    <path class="fil1" d="M156 303c0,25 3,40 14,60 5,8 16,22 23,27 1,1 2,2 3,3 5,5 14,11 20,14l14 8 -10 -33c-12,-42 -13,-72 -3,-115 1,-2 3,-13 5,-15 0,47 7,97 24,140 1,2 2,5 3,8 3,-1 6,-6 9,-9l8 -11c6,-8 7,-11 11,-17 1,-2 2,-4 3,-6 15,-35 20,-72 7,-108 -2,-6 -9,-22 -12,-26 -4,-8 -7,-14 -13,-24l-33 -43c-4,3 -7,8 -10,10 -14,14 -38,51 -47,71 -9,21 -16,41 -16,66z"/>
   </g>
  </g>
 </g>
</svg>
