<?xml version="1.0" encoding="UTF-8"?>
<!DOCTYPE svg PUBLIC "-//W3C//DTD SVG 1.1//EN" "http://www.w3.org/Graphics/SVG/1.1/DTD/svg11.dtd">
<!-- Creator: CorelDRAW X7 -->
<svg xmlns="http://www.w3.org/2000/svg" xml:space="preserve" width="11in" height="11in" version="1.1" style="shape-rendering:geometricPrecision; text-rendering:geometricPrecision; image-rendering:optimizeQuality; fill-rule:evenodd; clip-rule:evenodd"
viewBox="0 0 11000 11000"
 xmlns:xlink="http://www.w3.org/1999/xlink"
 enable-background="new 0 0 512 512">
 <defs>
  <style type="text/css">
   <![CDATA[
    .str0 {stroke:#373435;stroke-width:6.94488}
    .fil13 {fill:#373435}
    .fil4 {fill:black}
    .fil12 {fill:black}
    .fil11 {fill:#231F20}
    .fil10 {fill:#5ABCE2}
    .fil9 {fill:#68CCEA}
    .fil3 {fill:#90C539}
    .fil1 {fill:#90C539}
    .fil6 {fill:#B4E66E}
    .fil8 {fill:#ECAF4A}
    .fil5 {fill:whitesmoke}
    .fil2 {fill:#F68100}
    .fil0 {fill:#F68100}
    .fil7 {fill:#FFDC64}
    .fil14 {fill:white}
   ]]>
  </style>
 </defs>
 <g id="Layer_x0020_1">
  <metadata id="CorelCorpID_0Corel-Layer"/>
  <ellipse class="fil0" transform="matrix(0.984139 -0.184383 0.10153 1.20075 -129705 -8010.58)" rx="2596" ry="1333"/>
  <ellipse class="fil1 str0" cx="-127631" cy="-9351" rx="221" ry="165"/>
  <ellipse class="fil1 str0" cx="-127367" cy="-10093" rx="221" ry="165"/>
  <ellipse class="fil1 str0" cx="-126043" cy="-9122" rx="221" ry="165"/>
  <ellipse class="fil1 str0" cx="-126743" cy="-9537" rx="221" ry="165"/>
  <ellipse class="fil1 str0" cx="-126645" cy="-10427" rx="221" ry="165"/>
  <ellipse class="fil1 str0" cx="-125924" cy="-9819" rx="221" ry="165"/>
  <ellipse class="fil1 str0" cx="-125204" cy="-9348" rx="221" ry="165"/>
  <ellipse class="fil1 str0" cx="-124399" cy="-9190" rx="221" ry="165"/>
  <ellipse class="fil1 str0" cx="-124214" cy="-9908" rx="221" ry="165"/>
  <ellipse class="fil1 str0" cx="-124918" cy="-10368" rx="221" ry="165"/>
  <ellipse class="fil1 str0" cx="-125768" cy="-10565" rx="221" ry="165"/>
  <path class="fil0 str0" d="M-37145 -17933l-1059 -1450c0,0 911,-740 2192,-759 1281,-18 2317,784 2317,784l-1000 1391c0,0 -909,-391 -1409,-241 -500,150 -1041,275 -1041,275z"/>
  <rect class="fil0" x="-47792" y="-15088" width="4879" height="1419"/>
  <circle class="fil1" cx="-45379" cy="-14341" r="237"/>
  <rect class="fil1" x="-47792" y="-22354" width="4879" height="913"/>
  <rect class="fil1" x="-106936" y="-21364" width="1817" height="2558"/>
  <rect class="fil0" x="-106778" y="-18689" width="1517" height="2733"/>
  <circle class="fil0 str0" cx="-106024" cy="-22439" r="429"/>
  <rect class="fil1" x="-123715" y="-22047" width="548" height="698"/>
  <rect class="fil0" x="-123718" y="-23353" width="900" height="1146"/>
  <ellipse class="fil2 str0" cx="-125679" cy="-19644" rx="417" ry="425"/>
  <rect class="fil3" x="-131007" y="-23763" width="1220" height="8283" rx="310" ry="316"/>
  <g id="_959133328">
   <g>
    <g>
     <g>
      <path class="fil4" d="M-126255 -19630c0,321 261,582 581,582 321,0 582,-261 582,-582 0,-321 -261,-582 -582,-582 -320,0 -581,261 -581,582zm581 -313c173,0 313,140 313,313 0,173 -140,313 -313,313 -172,0 -313,-140 -313,-313 0,-173 141,-313 313,-313z"/>
      <path class="fil4" d="M-122900 -23522l-779 0c-59,-206 -249,-358 -474,-358l-6442 0c-271,0 -492,221 -492,492l0 7516c0,271 221,492 492,492l6442 0c272,0 492,-221 492,-492l0 -2148c0,-74 -60,-134 -134,-134 -74,0 -134,60 -134,134l0 2148c0,123 -100,224 -224,224l-6442 0c-123,0 -224,-101 -224,-224l0 -7516c0,-123 101,-224 224,-224l6442 0c124,0 224,101 224,224l0 2550 -1834 0c-666,0 -1208,542 -1208,1208 0,666 542,1208 1208,1208l2326 0c271,0 492,-221 492,-492l0 -1432c0,-271 -221,-492 -492,-492l-224 0 0 -268 403 0c173,0 313,-141 313,-314l0 -581 45 0c173,0 313,-141 313,-313l0 -895c0,-173 -140,-313 -313,-313zm-537 2952c123,0 224,101 224,224l0 1432c0,123 -101,223 -224,223l-2326 0c-518,0 -940,-421 -940,-939 0,-518 422,-939 940,-939l2326 0 0 -1zm224 -850c0,25 -20,45 -45,45l-403 0 0 -626 448 0 0 581 0 0zm358 -894c0,24 -20,44 -45,44l-761 0 0 -984 761 0c25,0 45,20 45,45l0 895z"/>
      <path class="fil4" d="M-130013 -23209l0 7158c0,74 60,134 134,134 74,0 134,-60 134,-134l0 -7158c0,-74 -60,-134 -134,-134 -74,0 -134,60 -134,134z"/>
     </g>
    </g>
   </g>
   <g>
   </g>
   <g>
   </g>
   <g>
   </g>
   <g>
   </g>
   <g>
   </g>
   <g>
   </g>
   <g>
   </g>
   <g>
   </g>
   <g>
   </g>
   <g>
   </g>
   <g>
   </g>
   <g>
   </g>
   <g>
   </g>
   <g>
   </g>
   <g>
   </g>
  </g>
  <path class="fil0" d="M-111023 -20989l0 5295c-1,171 -140,311 -312,311l-8409 0c-171,0 -311,-140 -311,-311l0 -5295 65 -50 39 50 8823 0 39 -50 66 50z"/>
  <path class="fil0" d="M-111089 -21039l-39 50 -4256 3270 -311 0 -4256 -3270 -39 -50 1492 -1160 2052 -1593 718 -557c111,-87 267,-87 377,0l718 557 2052 1593 1492 1160z"/>
  <path class="fil5" d="M-112581 -23480l0 3608 -467 359 -2336 1794 -311 0 -2803 -2153 0 -3608c1,-172 140,-311 312,-312l5294 0c172,1 311,140 311,312z"/>
  <path class="fil0" d="M-111084 -15511c-58,81 -152,128 -251,128l-467 0c172,0 311,-140 311,-311l0 -133 407 316z"/>
  <path class="fil0" d="M-111491 -15827l0 133c0,171 -139,311 -311,311l-7942 0c-10,0 -21,0 -31,-1 -7,-1 -15,-2 -22,-4 -79,-13 -150,-58 -197,-123l3567 -2770 699 -543c111,-87 267,-87 377,0l699 543 3161 2454z"/>
  <g id="_959124240">
   <path class="fil4" d="M-110829 -21030c-2,-9 -5,-18 -9,-27 -5,-8 -10,-16 -16,-23 -6,-9 -13,-17 -20,-25 -3,-2 -4,-5 -7,-7l-1497 -1163 0 -1205c0,-258 -209,-467 -467,-467l-1688 0 -676 -525c-167,-130 -401,-130 -568,0l-675 525 -1688 0c-258,0 -467,209 -467,467l0 1205 -1497 1163c-3,2 -4,5 -6,8 -8,7 -15,15 -21,24 -6,7 -11,15 -16,23 -3,9 -6,18 -9,27 -3,10 -5,21 -6,31 0,4 -2,6 -2,10l0 5295c0,99 32,195 92,275 1,1 1,3 2,4 1,1 3,3 5,4 87,115 223,183 368,184l8409 0c145,-1 282,-69 369,-185 1,-1 3,-2 4,-3 1,-2 2,-3 3,-4 59,-80 91,-176 91,-275l0 -5295c0,-3 -2,-6 -2,-9 -1,-11 -3,-21 -6,-32zm-4757 -3196c54,-44 131,-44 186,0l359 279 -903 0 358 -279zm-2865 3704c86,0 155,-69 155,-155l0 -2803c0,-86 70,-156 156,-156l5295 0c86,0 155,70 155,156l0 2803c0,86 70,155 156,155 86,0 156,-69 156,-155l0 -1204 1095 852 -2597 2016c-44,34 -67,89 -60,145 7,56 44,103 96,124 52,21 111,12 155,-23l2556 -1985 0 4971 -4076 -3166c-167,-130 -401,-130 -568,0l-4076 3166 0 -4971 2552 1982c68,53 166,40 219,-28 52,-68 40,-166 -28,-218l-2593 -2013 1096 -852 0 1204c0,86 70,155 156,155zm7124 4983l-8331 0 4072 -3162c54,-44 131,-44 186,0l4073 3162z"/>
   <path class="fil4" d="M-115493 -19587c86,0 156,-70 156,-156 0,-86 -70,-156 -156,-156 -860,0 -1557,-697 -1557,-1557 0,-860 697,-1557 1557,-1557 860,0 1558,697 1558,1557l0 623c0,172 -140,311 -312,311 -172,0 -311,-139 -311,-311l0 -623c0,-86 -70,-156 -156,-156 -86,0 -156,70 -156,156 0,344 -279,623 -623,623 -344,0 -623,-279 -623,-623 0,-344 279,-623 623,-623 86,0 156,-70 156,-156 0,-86 -70,-155 -156,-155 -418,-1 -786,276 -900,678 -115,402 52,832 407,1051 356,220 815,176 1123,-106 34,329 320,574 651,556 330,-17 589,-291 588,-622l0 -623c0,-1032 -837,-1869 -1869,-1869 -1032,0 -1868,837 -1868,1869 0,1032 836,1869 1868,1869z"/>
  </g>
  <g id="_959099376">
  </g>
  <g id="_959079696">
  </g>
  <g id="_959132176">
  </g>
  <g id="_959086672">
  </g>
  <g id="_959129584">
  </g>
  <g id="_959128688">
  </g>
  <g id="_959078448">
  </g>
  <g id="_959123984">
  </g>
  <g id="_959083440">
  </g>
  <g id="_959077456">
  </g>
  <g id="_959134192">
  </g>
  <g id="_959096656">
  </g>
  <g id="_959081040">
  </g>
  <g id="_959100080">
  </g>
  <g id="_959136624">
  </g>
  <g id="_959120848">
   <g>
    <path class="fil4" d="M-102801 -16034l-806 0 0 -573 359 0c149,0 269,-120 269,-269 0,-148 -120,-268 -269,-268l-359 0 0 -537 718 0c148,0 268,-121 268,-269 0,-148 -120,-269 -268,-269l-718 0 0 -537 359 0c149,0 269,-120 269,-268 0,-149 -120,-269 -269,-269l-359 0 0 -537 718 0c148,0 268,-120 268,-268 0,-149 -120,-269 -268,-269l-718 0 0 -537 359 0c149,0 269,-120 269,-269 0,-148 -120,-268 -269,-268l-359 0 0 -537 718 0c148,0 268,-121 268,-269 0,-148 -120,-268 -268,-268l-718 0 0 -538 359 0c149,0 269,-120 269,-268 0,-148 -120,-269 -269,-269l-359 0 0 -268c0,-149 -120,-269 -268,-269 -148,0 -269,120 -269,269l0 7824 -969 0 147 -2364 18 0c148,0 268,-120 268,-268l0 -1791c0,-596 -391,-1103 -929,-1277 235,-141 393,-398 393,-692 0,-444 -361,-806 -806,-806 -444,0 -805,362 -805,806 0,294 157,551 393,692 -539,174 -931,681 -931,1277l0 1791c0,148 121,268 269,268l16 0 148 2364 -1240 0c-148,0 -269,120 -269,268l0 537c0,149 121,269 269,269 148,0 269,-120 269,-269l0 -268 4834 0 0 268c0,149 120,269 268,269 148,0 269,-120 269,-269l0 -537c0,-148 -121,-268 -269,-268l0 0zm-3221 -6660c148,0 269,120 269,268 0,148 -121,269 -269,269 -148,0 -268,-121 -268,-269 0,-148 120,-268 268,-268zm-805 2237c0,-444 361,-805 805,-805 444,0 805,361 805,805l0 1522 -1610 0 0 -1522zm285 2059l1038 0 -147 2364 -743 0 -148 -2364z"/>
   </g>
  </g>
  <path class="fil0" d="M-92362 -23075c-9,-9 -17,-18 -26,-25 -952,-924 -2470,-913 -3409,25 -33,34 -66,67 -97,104l3107 3107 321 321c35,-31 70,-63 104,-97 948,-949 948,-2486 0,-3435zm-559 2067l-1508 -1508c-34,-33 -59,-75 -71,-121 -24,-77 -13,-161 29,-230 42,-70 111,-118 190,-133 478,-94 972,39 1338,360 27,22 52,46 77,71 369,370 530,900 429,1413 -20,104 -96,189 -197,220 -102,31 -212,4 -287,-72z"/>
  <path class="fil0" d="M-95797 -19640c-207,-208 -375,-450 -495,-717l-3684 3685c-40,39 -68,90 -78,146l-127 630 0 1c-15,77 1,157 47,221 45,64 115,106 193,116l770 110c85,13 171,-14 234,-72 63,-58 97,-141 93,-226l-17 -295c-3,-81 27,-160 85,-217 57,-57 136,-88 217,-84l325 19c81,3 160,-27 217,-85 57,-57 88,-136 84,-217l-18 -325c-4,-81 26,-160 83,-217 58,-57 136,-88 217,-83l325 17c82,4 161,-26 218,-84 57,-57 88,-136 84,-217l-19 -326c-4,-81 27,-159 85,-216 57,-58 136,-88 217,-84l641 34 1020 -1018c-142,-65 -278,-143 -405,-234 -111,-79 -215,-166 -312,-262z"/>
  <path class="fil1" d="M-92466 -19543c-961,855 -2421,812 -3331,-97 -909,-909 -952,-2370 -97,-3331l3428 3428z"/>
  <path class="fil4" d="M-94411 -22438l1509 1510c114,113 280,154 434,107 153,-47 268,-175 298,-332 111,-562 -66,-1141 -470,-1546 -405,-405 -985,-581 -1546,-471 -158,31 -286,146 -333,299 -47,153 -5,320 108,433l0 0zm173 -346c15,-50 57,-87 108,-97 466,-92 946,55 1281,390 336,336 482,816 390,1281 -9,52 -47,93 -97,108 -48,16 -102,2 -138,-34l-1509 -1510c-37,-35 -50,-89 -35,-138z"/>
  <path class="fil4" d="M-100076 -16580l-126 628c-24,117 1,238 70,336 69,97 175,162 293,178l770 110c21,3 41,5 62,5 119,0 232,-49 314,-135 82,-87 125,-203 118,-321l-16 -294c-2,-40 13,-78 41,-106 27,-29 66,-44 105,-41l326 18c123,5 241,-41 329,-127 86,-87 132,-207 126,-329l-18 -324c-2,-40 13,-78 41,-106 27,-29 66,-44 105,-41l326 18c123,5 241,-41 329,-127 86,-87 132,-207 126,-329l-18 -324c-2,-40 13,-78 41,-106 28,-28 66,-43 105,-41l643 34c41,3 82,-13 112,-43l948 -949c896,363 1919,193 2649,-439 14,-7 27,-15 39,-26 6,-7 11,-15 15,-23 29,-26 58,-51 86,-78 1004,-1006 1003,-2635 -2,-3640 -1005,-1006 -2635,-1006 -3641,-2 -27,27 -51,57 -77,85 -8,5 -16,10 -24,16 -10,11 -19,24 -25,39 -633,730 -803,1753 -440,2648l-3614 3614c-61,61 -102,138 -118,222zm7732 -6416c889,890 890,2331 3,3223l-3225 -3226c891,-886 2332,-885 3222,3zm-3416 220l3197 3197c-907,703 -2196,621 -3007,-190 -812,-812 -893,-2100 -190,-3007zm-4154 6883l127 -631c5,-27 18,-51 37,-69l3541 -3542c234,423 582,771 1004,1004l-829 830 -578 -31c-123,-6 -242,40 -329,127 -86,87 -132,206 -126,329l18 324c2,40 -12,78 -41,106 -27,28 -65,42 -104,41l-327 -18c-123,-6 -242,40 -329,127 -86,87 -132,206 -126,329l18 324c2,39 -12,78 -40,106 -28,28 -66,43 -105,41l-327 -18c-122,-6 -242,40 -328,127 -87,87 -133,206 -127,329l16 294c3,42 -14,82 -44,110 -31,28 -73,41 -114,35l-771 -110c-38,-5 -72,-26 -94,-58 -22,-31 -30,-69 -22,-106z"/>
  <path class="fil4" d="M-96381 -19216c40,0 77,-15 105,-43l101 -101c57,-57 57,-151 0,-208 -58,-57 -151,-57 -209,0l-101 101c-42,42 -54,105 -31,160 22,55 76,91 135,91l0 0z"/>
  <path class="fil4" d="M-99310 -16287c39,0 77,-15 104,-43l2526 -2525c37,-37 51,-91 38,-142 -14,-51 -54,-90 -104,-104 -51,-14 -105,1 -143,38l-2525 2525c-42,42 -54,105 -31,160 22,55 76,91 135,91z"/>
  <g id="_959095120">
  </g>
  <g id="_959128912">
  </g>
  <g id="_959132080">
  </g>
  <g id="_959081360">
  </g>
  <g id="_959098672">
  </g>
  <g id="_959088624">
  </g>
  <g id="_959133040">
  </g>
  <g id="_959084464">
  </g>
  <g id="_959075184">
  </g>
  <g id="_959102160">
  </g>
  <g id="_959086000">
  </g>
  <g id="_959103280">
  </g>
  <g id="_959101232">
  </g>
  <g id="_959125552">
  </g>
  <g id="_959129712">
  </g>
  <circle class="fil6" cx="-66498" cy="-20515" r="446"/>
  <circle class="fil1" cx="-66498" cy="-18881" r="446"/>
  <circle class="fil7" cx="-66498" cy="-17248" r="446"/>
  <path class="fil0" d="M-61188 -16652c-223,-22 -410,152 -410,369l0 -127c0,-194 -140,-371 -333,-390 -222,-23 -409,151 -409,369l0 -127c0,-195 -140,-372 -333,-391 -223,-22 -410,152 -410,369l0 -2227c0,-218 -187,-392 -409,-370 -194,20 -333,197 -333,391l0 1835 -450 450c-182,182 -257,445 -198,695l310 1321c111,469 530,801 1012,801l1256 0c574,0 1040,-465 1040,-1039l0 -1538c0,-195 -140,-372 -333,-391z"/>
  <path class="fil4" d="M-66053 -20654c-77,0 -139,62 -139,139 0,169 -138,306 -306,306 -169,0 -307,-137 -307,-306 0,-169 138,-306 307,-306 76,0 139,-63 139,-140 0,-76 -63,-139 -139,-139 -323,0 -585,263 -585,585 0,322 262,585 585,585 322,0 584,-263 584,-585 0,-77 -62,-139 -139,-139z"/>
  <path class="fil4" d="M-66053 -19021c-77,0 -139,63 -139,140 0,168 -138,306 -306,306 -169,0 -307,-138 -307,-306 0,-169 138,-307 307,-307 76,0 139,-62 139,-139 0,-77 -63,-139 -139,-139 -323,0 -585,262 -585,584 0,323 262,585 585,585 322,0 584,-262 584,-585 0,-76 -62,-139 -139,-139z"/>
  <path class="fil4" d="M-64419 -18724l-1040 0c-77,0 -139,63 -139,140 0,76 62,139 139,139l1040 0c76,0 139,-63 139,-139 0,-77 -62,-140 -139,-140z"/>
  <path class="fil4" d="M-64419 -19318l-1040 0c-77,0 -139,63 -139,140 0,76 62,139 139,139l1040 0c76,0 139,-63 139,-139 0,-77 -62,-140 -139,-140z"/>
  <path class="fil4" d="M-64577 -16951c0,-77 -62,-139 -139,-139l-743 0c-77,0 -139,62 -139,139 0,77 62,139 139,139l743 0c76,0 139,-62 139,-139z"/>
  <path class="fil4" d="M-64419 -17684l-1040 0c-77,0 -139,62 -139,139 0,77 62,139 139,139l1040 0c76,0 139,-62 139,-139 0,-77 -62,-139 -139,-139z"/>
  <path class="fil4" d="M-62944 -20218c0,-77 -62,-139 -139,-139l-2376 0c-77,0 -139,62 -139,139 0,77 62,139 139,139l2376 0c77,0 139,-62 139,-139z"/>
  <path class="fil4" d="M-65459 -20673l1782 0c77,0 139,-62 139,-139 0,-77 -62,-139 -139,-139l-1782 0c-77,0 -139,62 -139,139 0,77 62,139 139,139z"/>
  <path class="fil4" d="M-66498 -17554c76,0 139,-63 139,-139 0,-77 -63,-140 -139,-140 -323,0 -585,263 -585,585 0,322 262,585 585,585 322,0 584,-263 584,-585 0,-77 -62,-139 -139,-139 -77,0 -139,62 -139,139 0,169 -138,306 -306,306 -169,0 -307,-137 -307,-306 0,-169 138,-306 307,-306z"/>
  <path class="fil4" d="M-65013 -15605l-2525 0c-87,0 -158,-71 -158,-158l0 -6237c0,-87 71,-158 158,-158l5049 0c87,0 158,71 158,158l0 4604c0,76 62,139 139,139 77,0 139,-63 139,-139l0 -4604c0,-241 -195,-436 -436,-436l-5049 0c-241,0 -436,195 -436,436l0 6237c0,241 195,436 436,436l2525 0c76,0 139,-62 139,-139 0,-77 -63,-139 -139,-139z"/>
  <path class="fil4" d="M-61174 -16791c-130,-12 -259,24 -361,102 -82,-137 -221,-234 -382,-250 -129,-13 -259,24 -361,101 -82,-136 -221,-233 -381,-250 -99,-9 -198,10 -285,54l0 -1773c0,-144 -61,-282 -168,-379 -106,-96 -250,-144 -394,-129 -257,26 -459,258 -459,529l0 1777 -409 410c-217,217 -305,526 -235,825l311 1321c126,535 598,908 1147,908l1256 0c650,0 1179,-528 1179,-1178l0 -1538c0,-271 -201,-504 -458,-530zm179 2068c0,496 -403,900 -900,900l-1256 0c-419,0 -780,-285 -876,-694l-311 -1321c-48,-205 12,-416 161,-564l212 -213 0 481c0,77 63,139 140,139 77,0 139,-62 139,-139l0 -2652c0,-130 91,-240 207,-252 67,-7 131,14 181,59 48,44 76,106 76,172l0 2450c0,77 62,139 139,139 77,0 139,-62 139,-139l0 -223c0,-65 28,-128 77,-172 49,-44 113,-65 180,-58 116,11 207,122 207,252l0 350c0,76 63,139 140,139 77,0 139,-63 139,-139l0 -223c0,-66 28,-128 76,-172 50,-45 114,-66 180,-59 117,12 208,122 208,252l0 350c0,77 62,139 139,139 77,0 139,-62 139,-139l0 -223c0,-65 28,-128 77,-172 49,-44 113,-65 180,-59 116,12 208,123 208,252l0 1539 -1 0z"/>
  <g id="_959088240">
  </g>
  <g id="_959127536">
  </g>
  <g id="_959089264">
  </g>
  <g id="_959103024">
  </g>
  <g id="_959104816">
  </g>
  <g id="_959104304">
  </g>
  <g id="_959102064">
  </g>
  <g id="_959079088">
  </g>
  <g id="_959080720">
  </g>
  <g id="_959075600">
  </g>
  <g id="_959120976">
  </g>
  <g id="_959084240">
  </g>
  <g id="_959099440">
  </g>
  <g id="_959103152">
  </g>
  <g id="_959090064">
  </g>
  <g id="_959090576">
   <g>
    <path class="fil1" d="M-74767 -19364c-207,-25 -407,-116 -566,-275 -375,-375 -375,-984 0,-1359 175,-175 402,-269 632,-280 192,-263 457,-469 766,-588 -631,-293 -1404,-179 -1925,341 -585,585 -656,1488 -215,2151l-2995 2995c-132,132 -132,345 0,477 132,132 345,132 477,0l397 -397 302 303c132,132 346,132 478,0 131,-132 131,-345 0,-477l-303 -303 362 -363 303 303c132,132 346,132 477,0 132,-131 132,-345 0,-477l-303 -303 1282 -1281c465,309 1048,366 1556,171 -299,-139 -550,-362 -725,-638z"/>
    <path class="fil0" d="M-73323 -21979c-942,0 -1706,764 -1706,1706 0,773 514,1426 1219,1635l0 3390 488 523 529 -523 0 -463 -450 -349 450 -349 -450 -349 450 -350 -450 -349 450 -349 0 -845c683,-223 1176,-865 1176,-1622 0,-942 -764,-1706 -1706,-1706l0 0zm10 1703c-264,0 -478,-215 -478,-479 0,-264 214,-479 478,-479 265,0 479,215 479,479 0,264 -214,479 -479,479z"/>
   </g>
   <g>
    <path class="fil4" d="M-73955 -18551l0 1523c0,77 63,140 140,140 78,0 140,-63 140,-140l0 -1625c0,-62 -40,-116 -100,-134 -317,-94 -603,-292 -804,-558 -207,-274 -317,-601 -317,-946 0,-866 704,-1570 1569,-1570 162,0 320,25 470,72 -42,161 -108,314 -196,454 -80,-38 -169,-59 -264,-59 -341,0 -619,278 -619,620 0,341 278,619 619,619 342,0 620,-278 620,-619 0,-146 -50,-280 -135,-386 104,-160 183,-335 236,-520 183,96 348,229 483,394 49,60 137,68 197,19 60,-49 69,-137 20,-197 -178,-216 -397,-385 -642,-501 10,-80 15,-161 15,-243 0,-1064 -865,-1930 -1930,-1930 -1064,0 -1930,866 -1930,1930 0,290 66,577 190,836 -391,580 -425,1345 -69,1961l-1286 1285c-55,55 -55,144 0,199 55,54 144,54 198,0l1365 -1365c47,-47 54,-121 17,-176 -412,-620 -329,-1451 198,-1978 388,-389 949,-540 1471,-418 -185,115 -348,261 -482,431 -249,28 -481,138 -659,316 -430,430 -430,1130 0,1560 161,161 361,266 584,305 17,26 35,51 54,76 112,149 247,279 398,387 -389,64 -792,-19 -1125,-240 -55,-37 -129,-30 -177,17l-1284 1284c-54,55 -54,144 0,198l304 304c77,74 77,206 0,280 -74,77 -206,77 -280,0l-304 -304c-54,-54 -143,-54 -198,0l-363 364c-55,52 -55,146 0,198l303 303c77,78 77,203 0,280 -77,77 -202,77 -280,0l-303 -303c-55,-55 -143,-55 -198,0l-398 397c-77,77 -202,77 -280,0 -77,-77 -77,-202 0,-280l1241 -1240c55,-55 55,-144 0,-198 -55,-55 -143,-55 -198,0l-1241 1240c-186,187 -186,490 0,676 187,187 490,187 676,0l299 -298 204 204c187,187 490,187 676,0 187,-186 187,-489 0,-676l-204 -204 165 -166 205 205c178,185 498,185 676,0 185,-178 185,-498 0,-676l-205 -205 1107 -1106c463,268 1025,322 1534,145 32,14 64,27 97,39l0 0zm639 -2563c30,0 60,5 88,12 -121,134 -265,249 -427,339 -1,-4 -1,-8 -1,-11 0,-188 152,-340 340,-340l0 0zm339 340c0,187 -152,339 -340,339 -81,0 -156,-29 -214,-77 198,-107 373,-247 519,-411 22,45 35,95 35,149zm-2991 -871c-9,9 -17,18 -26,27 -71,-187 -109,-388 -109,-590 0,-910 740,-1650 1650,-1650 910,0 1650,740 1650,1650 0,47 -2,94 -6,141 -166,-48 -340,-74 -518,-74 -213,0 -417,36 -608,103 -690,-294 -1500,-140 -2033,393l0 0zm972 557c-58,122 -103,250 -134,385 -70,-32 -137,-68 -202,-109 27,-37 56,-73 90,-106 72,-72 155,-129 246,-170zm-246 1333c-217,-217 -287,-526 -211,-802 90,54 184,101 281,140 -3,42 -4,84 -4,126 0,237 44,466 129,681 -71,-38 -137,-87 -195,-145l0 0z"/>
    <path class="fil4" d="M-71594 -20938c-27,-73 -107,-110 -180,-83 -72,28 -109,108 -82,181 65,175 99,360 99,549 0,681 -435,1281 -1083,1492 -57,19 -96,72 -96,133l0 778 -397 308c-72,52 -72,169 0,221l308 239 -308 240c-72,52 -72,168 0,221l308 239 -308 239c-72,53 -72,169 0,222l397 308 0 336 -386 382 -353 -379 0 -1155c0,-78 -62,-141 -140,-141 -77,0 -140,63 -140,141l0 1210c0,36 14,70 38,96l489 525c51,57 147,59 201,4l530 -525c26,-26 41,-62 41,-100l0 -463c0,-43 -20,-84 -54,-111l-309 -239 309 -239c71,-53 71,-169 0,-221l-309 -240 309 -239c71,-52 71,-169 0,-221l-309 -239 309 -240c34,-26 54,-67 54,-110l0 -748c709,-275 1179,-956 1179,-1724 0,-223 -39,-441 -117,-647l0 0z"/>
   </g>
  </g>
  <g id="_959127152">
   <path class="fil0" d="M-88061 -20007l586 4147c23,158 157,275 316,275l2878 0c158,0 293,-117 315,-275l587 -4147c13,-91 -15,-183 -75,-253 -61,-70 -148,-110 -241,-110l-4051 0c-92,0 -180,40 -240,110 -61,69 -88,162 -75,253zm0 0z"/>
   <path class="fil5" d="M-85720 -24198c-80,0 -160,4 -240,13 -1134,121 -1995,1077 -1996,2218 -1,1141 859,2099 1993,2222 80,8 161,13 243,13 267,-1 533,-50 783,-144l14 -3c15,-5 29,-13 43,-18 21,-9 40,-17 61,-25 43,-21 86,-41 127,-62 18,-10 34,-18 52,-27 55,-31 111,-64 165,-101l20 -14c46,-32 92,-66 137,-102 16,-13 30,-26 46,-40 35,-30 70,-61 104,-93l43 -43c38,-40 76,-81 111,-123 7,-8 13,-14 20,-22 41,-49 79,-102 116,-155 9,-16 19,-30 29,-46 27,-40 51,-81 75,-123 11,-18 21,-36 30,-55 24,-44 45,-88 65,-133 7,-16 15,-32 21,-48 26,-60 48,-122 67,-185 5,-13 8,-26 11,-40 16,-51 29,-102 40,-154 5,-21 10,-42 13,-64 9,-48 16,-96 22,-144 2,-20 5,-41 6,-62 7,-68 12,-137 12,-207 0,-592 -236,-1160 -654,-1579 -419,-419 -987,-654 -1579,-654l0 0zm-1595 2233c0,-881 714,-1595 1595,-1595 881,0 1595,714 1595,1595 0,49 -3,99 -8,148l-5 43c-5,35 -10,70 -16,104 -3,16 -5,30 -8,46l-29 110c-3,10 -4,19 -8,29 -14,45 -30,89 -49,132l-14 34c-14,32 -30,63 -47,94 -6,14 -14,27 -20,40 -18,30 -36,59 -55,87 -6,12 -13,23 -20,34 -26,38 -55,75 -83,110 -5,6 -10,11 -15,16 -25,30 -51,59 -79,88 -10,11 -21,20 -31,30 -24,24 -49,46 -73,67l-34 29c-32,25 -65,49 -99,73 -4,3 -8,6 -12,10 -39,25 -78,49 -120,71 -11,7 -24,13 -35,20 -30,15 -61,30 -92,44 -15,7 -29,11 -44,18 -9,5 -19,9 -30,12l-9 4c-490,184 -1039,116 -1469,-182 -430,-298 -687,-788 -686,-1311l0 0zm0 0z"/>
   <path class="fil1" d="M-84501 -20938c4,-5 9,-10 13,-16 30,-36 57,-73 83,-112 8,-10 15,-21 22,-32 18,-28 36,-57 53,-87 7,-13 15,-27 22,-40 16,-32 32,-63 46,-95 4,-11 10,-22 15,-34 18,-43 34,-87 47,-132 3,-9 6,-19 8,-28 11,-36 21,-73 29,-111 3,-16 6,-30 9,-45 6,-34 11,-69 16,-103 2,-15 4,-30 5,-45 4,-49 7,-98 7,-148 3,-700 -451,-1321 -1119,-1531 -668,-210 -1396,38 -1795,614 -400,575 -378,1344 53,1896 430,553 1170,761 1826,513l10 -2c11,-3 21,-8 31,-13 14,-5 28,-12 43,-18 32,-14 61,-28 91,-44 12,-6 24,-12 36,-19 41,-22 80,-46 119,-72 5,-3 9,-7 14,-10 33,-23 66,-48 98,-73 11,-9 22,-19 33,-28 25,-21 50,-44 73,-67 11,-10 22,-20 32,-31 28,-28 54,-57 80,-87l0 0zm0 0z"/>
   <path class="fil0" d="M-85401 -21965c0,176 -143,319 -319,319 -176,0 -319,-143 -319,-319 0,-176 143,-319 319,-319 176,0 319,143 319,319zm0 0z"/>
   <path class="fil4" d="M-84843 -20446c3,-2 5,-5 9,-7 256,-151 470,-365 622,-621 4,-4 7,-9 10,-14 2,-3 2,-6 4,-9 309,-537 309,-1199 0,-1737 -2,-3 -2,-6 -4,-8 -1,-3 -5,-6 -7,-9 -152,-258 -368,-474 -626,-626 -3,-2 -5,-6 -9,-8 -3,-1 -6,-1 -8,-3 -538,-309 -1200,-309 -1738,0 -2,2 -5,2 -8,3 -3,2 -5,6 -9,8 -258,152 -474,368 -626,626 -2,3 -5,5 -7,9 -2,3 -2,5 -3,8 -310,538 -310,1200 0,1737 1,3 1,6 3,9 3,5 7,10 11,14 151,256 365,470 622,621 3,2 5,5 8,7 4,2 8,4 12,5 536,307 1195,307 1731,0 4,-1 9,-3 13,-5zm-2031 -669l129 -74c49,-28 80,-81 80,-138 0,-58 -30,-111 -80,-139 -50,-29 -111,-28 -160,1l-130 75c-58,-132 -95,-272 -111,-415l150 0c88,0 159,-72 159,-160 0,-88 -71,-159 -159,-159l-150 0c16,-143 53,-283 111,-415l130 75c50,29 111,29 160,1 50,-29 80,-82 80,-139 0,-57 -31,-110 -80,-138l-129 -75c85,-115 188,-217 303,-303l74 129c29,50 81,81 139,81 57,0 110,-31 138,-80 29,-50 29,-111 0,-160l-74 -132c131,-58 271,-95 414,-111l0 150c0,88 72,159 160,159 88,0 159,-71 159,-159l0 -150c143,16 283,53 415,111l-75 130c-29,50 -29,111 -1,160 29,50 82,80 139,80 57,0 110,-31 138,-80l75 -129c115,86 217,188 303,303l-129 74c-50,29 -81,81 -81,139 0,57 31,110 80,138 50,29 111,29 161,0l129 -75c58,132 96,271 112,414l-149 0c-88,0 -160,72 -160,160 0,88 72,159 160,159l150 0c-16,144 -54,283 -112,415l-130 -75c-76,-43 -173,-17 -217,59 -44,76 -18,173 58,218l128 74c-85,115 -187,218 -303,303l-74 -129c-28,-49 -81,-80 -138,-80 -57,-1 -110,30 -139,80 -28,49 -28,110 1,160l75 130c-132,58 -272,95 -415,111l0 -148c0,-88 -71,-160 -159,-160 -89,0 -160,72 -160,160l0 150c-143,-16 -283,-54 -415,-112l75 -130c29,-49 29,-110 1,-160 -29,-49 -82,-80 -139,-80 -57,0 -110,31 -138,81l-74 128c-116,-85 -219,-187 -305,-303l0 0zm0 0z"/>
   <path class="fil4" d="M-83330 -22017c-26,-1301 -1089,-2343 -2390,-2343 -1302,0 -2364,1042 -2390,2343l-628 948c-141,222 -198,486 -161,747l682 4848c57,393 393,685 790,686l3415 0c397,-1 733,-293 790,-686l682 -4848c36,-262 -22,-527 -163,-750l-627 -945zm473 1650l-682 4848c-34,236 -236,411 -474,412l-3414 0c-238,-1 -440,-176 -474,-412l-682 -4848c-26,-184 14,-372 113,-529l404 -609c221,1121 1203,1930 2346,1932 88,0 159,-71 159,-159 0,-88 -71,-160 -159,-160 -1071,-1 -1965,-818 -2062,-1884 -97,-1067 635,-2031 1689,-2225 1053,-194 2080,447 2369,1478 289,1032 -255,2113 -1256,2495 -82,32 -123,124 -92,206 32,82 124,124 206,92 768,-298 1331,-968 1491,-1776l403 607c100,158 141,347 115,532l0 0zm0 0z"/>
   <path class="fil4" d="M-83305 -20528c-88,-12 -168,48 -181,135l-657 4648 -3155 0 -657 -4648c-7,-57 -44,-106 -98,-128 -53,-21 -114,-13 -159,23 -45,36 -68,93 -59,150l677 4785c11,79 78,137 158,137l3432 0c79,0 146,-58 158,-137l676 -4785c12,-87 -48,-168 -135,-180zm0 0z"/>
   <path class="fil4" d="M-86677 -16223c9,0 18,-1 26,-3 87,-14 146,-96 131,-183l-478 -2871c-17,-85 -98,-142 -183,-127 -86,14 -144,94 -132,180l479 2871c13,76 79,133 157,133l0 0zm0 0z"/>
   <path class="fil4" d="M-84790 -16226c9,2 18,3 27,3 78,0 144,-57 157,-133l478 -2871c11,-57 -10,-116 -54,-153 -44,-37 -105,-47 -159,-26 -54,20 -93,69 -101,126l-479 2871c-7,42 3,84 28,119 24,34 62,57 103,64l0 0zm0 0z"/>
   <path class="fil4" d="M-85720 -16223c88,0 159,-72 159,-160l0 -2552c0,-88 -71,-159 -159,-159 -88,0 -160,71 -160,159l0 2552c0,88 72,160 160,160zm0 0z"/>
   <path class="fil4" d="M-85720 -21487c232,1 432,-167 471,-396 40,-230 -92,-454 -312,-531l0 -349c0,-88 -71,-159 -159,-159 -88,0 -160,71 -160,159l0 349c-219,77 -351,301 -312,531 40,229 239,397 472,396zm0 -638c88,0 159,72 159,160 0,88 -71,159 -159,159 -88,0 -160,-71 -160,-159 0,-88 72,-160 160,-160zm0 0z"/>
  </g>
  <g id="_959120304">
   <path class="fil0" d="M-53871 -18519l-1466 0c-114,0 -207,93 -207,207l0 1080c0,114 93,207 207,207l1466 0c113,0 206,-93 206,-207l0 -1080c0,-114 -93,-207 -206,-207z"/>
   <g>
    <g>
     <circle class="fil1" cx="-54604" cy="-17874" r="245"/>
    </g>
   </g>
   <g>
    <ellipse class="fil1" cx="-54605" cy="-22039" rx="383" ry="401"/>
    <ellipse class="fil1" cx="-54605" cy="-14378" rx="383" ry="401"/>
    <ellipse class="fil1" transform="matrix(0.817494 -1.4159 1.4159 0.817494 -57922.1 -20123.9)" rx="234" ry="245"/>
    <ellipse class="fil1" transform="matrix(0.817494 -1.4159 1.4159 0.817494 -51287.7 -16293.3)" rx="234" ry="245"/>
    <ellipse class="fil1" transform="matrix(1.4159 -0.817494 0.817494 1.4159 -57922.1 -16293.6)" rx="245" ry="234"/>
    <ellipse class="fil1" transform="matrix(1.4159 -0.817494 0.817494 1.4159 -51287.7 -20124)" rx="245" ry="234"/>
   </g>
  </g>
  <g id="_959089328">
   <path class="fil4" d="M-54604 -17397c70,0 127,-57 127,-127l0 -111c144,-52 246,-190 246,-351 0,-206 -167,-373 -373,-373 -206,0 -374,167 -374,373 0,161 103,299 246,351l0 111c0,70 57,127 128,127l0 0zm0 -707c65,0 117,53 117,118 0,65 -52,118 -117,118 -65,0 -118,-53 -118,-118 0,-65 53,-118 118,-118z"/>
   <path class="fil4" d="M-51031 -19794c249,-144 346,-459 203,-707 -142,-245 -461,-323 -713,-178 -215,124 -311,369 -252,588l-598 345c-448,-693 -1211,-1163 -2086,-1205l0 -690c220,-59 383,-266 383,-511 0,-292 -229,-529 -510,-529 -282,0 -511,237 -511,529 0,245 163,452 383,511l0 690c-874,42 -1638,512 -2086,1205l-598 -345c59,-217 -35,-463 -251,-588 -253,-145 -572,-66 -713,178 -143,248 -47,563 202,707 215,124 476,84 635,-76l597 345c-186,361 -292,771 -292,1204 0,434 106,843 292,1204l-597 346c-279,-279 -771,-146 -883,237 -95,326 145,644 489,644 228,0 449,-150 518,-386 26,-92 27,-186 3,-274l598 -345c448,692 1212,1162 2086,1204l0 690c-220,59 -383,266 -383,512 0,291 229,528 511,528 281,0 510,-237 510,-528 0,-246 -163,-453 -383,-512l0 -690c875,-42 1638,-512 2086,-1204l598 345c-24,88 -23,182 4,274 129,443 735,526 961,135 143,-248 46,-562 -203,-706 -213,-123 -473,-85 -634,76l-598 -345c187,-362 292,-771 292,-1205 0,-433 -105,-843 -292,-1204l598 -345c158,159 418,200 634,76l0 0zm-383 -663c134,-78 296,-35 364,84 69,120 24,281 -109,357 -132,77 -294,35 -363,-84 -70,-120 -24,-281 108,-357zm-6272 357c-69,120 -231,161 -364,84 -133,-76 -178,-237 -109,-357 70,-122 234,-160 364,-84 133,76 178,237 109,357zm22 3752c-42,142 -194,230 -338,195 -140,-34 -219,-171 -179,-309 36,-121 152,-203 274,-203 172,0 290,155 243,317l0 0zm6142 -193c70,-122 233,-160 363,-85 133,77 178,238 109,357 -113,196 -427,150 -494,-79 -20,-67 -12,-135 22,-193zm-3337 -5611c0,-151 114,-273 255,-273 140,0 255,122 255,273 0,150 -115,272 -255,272 -141,0 -255,-122 -255,-272zm510 7663c0,150 -115,273 -255,273 -141,0 -255,-123 -255,-273 0,-151 114,-273 255,-273 140,0 255,122 255,273zm2122 -3832c0,1311 -1066,2378 -2377,2378 -1311,0 -2378,-1067 -2378,-2378 0,-1311 1067,-2378 2378,-2378 1311,0 2377,1067 2377,2378z"/>
   <path class="fil4" d="M-54306 -17009l435 0c184,0 335,-150 335,-335l0 -1080c0,-181 -144,-328 -322,-335l0 -237c0,-412 -335,-747 -746,-747 -412,0 -747,335 -747,747l0 237c-178,7 -321,154 -321,335l0 1080c0,185 150,335 334,335l436 0c70,0 127,-57 127,-128 0,-70 -57,-127 -127,-127l-436 0c-42,0 -79,-37 -79,-80l0 -1080c0,-43 37,-80 79,-80l1467 0c43,0 79,37 79,80l0 1080c0,43 -36,80 -79,80l-435 0c-71,0 -128,57 -128,127 0,71 57,128 128,128l0 0zm192 -1750l-981 0 0 -237c0,-271 220,-491 491,-491 270,0 490,220 490,491l0 237 0 0z"/>
   <path class="fil4" d="M-54604 -20417c-1156,0 -2097,940 -2097,2096 0,1156 941,2097 2097,2097 504,0 992,-182 1373,-512 376,-327 625,-777 699,-1268 11,-69 -37,-134 -107,-145 -69,-11 -135,37 -145,107 -135,891 -918,1562 -1820,1562 -1016,0 -1842,-826 -1842,-1841 0,-1015 826,-1841 1842,-1841 902,0 1685,672 1820,1562 10,70 76,118 145,107 70,-10 118,-75 107,-145 -155,-1021 -1037,-1779 -2072,-1779z"/>
  </g>
  <g id="_946670112">
   <g>
    <g>
     <path class="fil4" d="M-43389 -22624l-3964 0c-372,0 -676,303 -676,675l0 7874c0,373 304,676 676,676l3964 0c373,0 676,-303 676,-676l0 -7874c0,-372 -303,-675 -676,-675zm405 7333l-3828 0c-75,0 -136,60 -136,135 0,75 61,135 136,135l3828 0 0 946c0,224 -181,406 -405,406l-3964 0c-223,0 -405,-182 -405,-406l0 -946 405 0c75,0 135,-60 135,-135 0,-75 -60,-135 -135,-135l-405 0 0 -5982 4774 0 0 5982zm0 -6252l-4774 0 0 -406c0,-223 182,-405 405,-405l3964 0c223,0 405,182 405,405l0 406z"/>
    </g>
   </g>
   <g>
    <g>
     <path class="fil4" d="M-44830 -22084l-541 0c-75,0 -135,61 -135,135 0,75 60,136 135,136l541 0c74,0 135,-61 135,-136 0,-74 -61,-135 -135,-135z"/>
    </g>
   </g>
   <g>
    <g>
     <path class="fil4" d="M-45371 -14751c-224,0 -405,182 -405,406 0,223 181,405 405,405 224,0 405,-182 405,-405 0,-224 -181,-406 -405,-406zm0 541c-75,0 -135,-61 -135,-135 0,-75 60,-135 135,-135 75,0 135,60 135,135 0,74 -60,135 -135,135z"/>
    </g>
   </g>
   <g>
    <g>
     <circle class="fil4" cx="-45912" cy="-21949" r="135"/>
    </g>
   </g>
   <g>
   </g>
   <g>
   </g>
   <g>
   </g>
   <g>
   </g>
   <g>
   </g>
   <g>
   </g>
   <g>
   </g>
   <g>
   </g>
   <g>
   </g>
   <g>
   </g>
   <g>
   </g>
   <g>
   </g>
   <g>
   </g>
   <g>
   </g>
   <g>
   </g>
  </g>
  <g id="_946643680">
   <path class="fil4" d="M-33006 -21205l-5862 0c-344,0 -625,280 -625,625l0 5861c0,344 281,625 625,625l5862 0c344,0 625,-281 625,-625l0 -5861c0,-345 -281,-625 -625,-625zm208 6486c0,115 -94,208 -208,208l-5862 0c-114,0 -208,-93 -208,-208l0 -5861c0,-115 94,-209 208,-209l5862 0c114,0 208,94 208,209l0 5861zm0 0z"/>
   <path class="fil4" d="M-33534 -19544c-699,-523 -1530,-800 -2403,-800 -873,0 -1704,277 -2403,800 -44,34 -73,83 -81,138 -8,54 7,110 40,154l1099 1463c41,55 104,84 167,84 44,0 88,-14 125,-42 306,-230 670,-351 1053,-351 383,0 747,121 1053,351 92,69 222,50 292,-42l1099 -1463c34,-44 48,-100 40,-154 -8,-55 -37,-104 -81,-138zm-1272 1347c-281,-172 -595,-277 -923,-308l0 -635c0,-115 -93,-208 -208,-208 -115,0 -208,93 -208,208l0 635c-328,31 -642,136 -923,308l-851 -1134c588,-391 1269,-597 1982,-597 713,0 1394,206 1982,597l-851 1134zm0 0z"/>
  </g>
  <path class="fil1" d="M-23814 -20093c1,-746 -604,-1352 -1350,-1352 -496,-1 -952,270 -1188,706l-2 0c-15,8 -31,17 -46,27 -342,-664 -1157,-924 -1821,-581 -449,232 -731,695 -732,1200 -156,0 -312,27 -459,81 -702,254 -1066,1029 -812,1731 177,489 618,834 1136,886 45,4 89,6 135,6 227,1 449,-57 647,-166 3,-1 6,-2 9,-4 8,-4 15,-8 22,-13 237,-136 426,-341 543,-587 0,-1 1,-2 2,-2l0 0c-3,31 -6,64 -6,96 1,591 384,1113 947,1290 264,83 547,83 811,0 84,-26 164,-61 241,-102 434,-238 705,-693 706,-1188 0,-32 -3,-65 -6,-96 1,0 2,1 2,2l0 0c121,254 319,463 565,600 200,112 426,171 656,170 46,0 90,-2 135,-6 179,-18 352,-71 510,-157 656,-357 900,-1177 543,-1834 -236,-436 -692,-707 -1188,-707z"/>
  <path class="fil4" d="M-26383 -16577c-703,0 -1309,-491 -1456,-1178 -112,126 -244,233 -392,314 -265,145 -568,208 -869,180 -818,-81 -1414,-810 -1333,-1628 71,-711 638,-1271 1351,-1334 71,-818 792,-1423 1609,-1352 439,38 837,268 1090,629 470,-673 1397,-837 2070,-366 360,252 590,651 628,1089 819,72 1424,793 1352,1612 -62,712 -622,1279 -1333,1350 -302,29 -605,-33 -870,-180 -148,-81 -280,-188 -392,-314 -146,687 -753,1178 -1455,1178zm-1347 -1719c74,0 135,61 135,135 0,4 0,8 0,12 -3,27 -5,56 -5,84 0,673 544,1217 1217,1217 672,0 1217,-544 1217,-1217 0,-28 -3,-57 -5,-84 -3,-38 9,-75 35,-103 57,-54 147,-52 201,4 9,9 16,19 22,30l0 0c109,229 287,418 509,541 217,119 466,170 713,147 668,-68 1156,-665 1088,-1334 -63,-621 -587,-1094 -1211,-1094 -75,0 -135,-60 -135,-135 0,0 0,0 0,0 0,-672 -545,-1217 -1217,-1217 -467,0 -893,267 -1096,688 -39,67 -125,90 -192,51 -21,-13 -39,-30 -51,-51 -292,-605 -1019,-859 -1624,-567 -421,203 -688,629 -688,1096 0,75 -61,135 -135,135 0,0 0,0 -1,0 -672,0 -1216,545 -1216,1217 0,625 473,1148 1095,1211 39,4 80,6 121,6 470,-1 897,-270 1100,-694l0 0c22,-47 70,-77 123,-78z"/>
  <g id="_946662592">
   <path class="fil0" d="M-26721 -16756c-22,7 -45,12 -68,15l0 -34c22,7 45,14 68,19z"/>
   <path class="fil0" d="M-23814 -17389c-230,1 -456,-58 -656,-170l-20 35 -91 133 -657 954c-127,186 -380,233 -565,106 -43,-30 -80,-67 -108,-110 -45,-66 -68,-145 -67,-225l0 -109c-131,42 -268,63 -405,63 -91,0 -182,-10 -271,-29 -23,-3 -45,-8 -67,-15 -22,7 -45,12 -68,15l0 74c0,224 -181,406 -405,406 -134,1 -259,-65 -335,-176l-2 -4 -745 -1083 -21 -35c-173,97 -366,155 -565,168 -30,1 -61,2 -91,2 -46,0 -90,-2 -135,-6l0 6c0,0 1488,1488 1488,2434l0 541c0,448 363,811 811,812l811 0c448,-1 811,-364 812,-812l0 -541c0,-946 1487,-2434 1487,-2434l0 -6c-45,4 -89,6 -135,6z"/>
  </g>
  <path class="fil4" d="M-25978 -13467l-811 0c-522,-1 -946,-424 -947,-947l0 -541c0,-879 -1433,-2324 -1447,-2338 -26,-25 -40,-60 -40,-96 0,-39 16,-76 44,-103 28,-26 65,-40 104,-38 246,23 495,-28 712,-147 65,-36 146,-14 183,50l21 36 742 1078c84,123 252,154 375,70 74,-50 118,-134 118,-223l0 -109c0,-43 20,-83 55,-109 35,-25 80,-32 121,-20 237,75 492,75 730,0 41,-12 85,-5 120,20 35,26 56,66 56,109l0 109c-1,149 120,270 269,270 89,1 173,-43 223,-117l763 -1113c37,-64 118,-87 183,-51 218,119 466,170 713,147 37,-3 75,9 103,35 28,26 44,62 44,100l0 7c0,36 -14,70 -39,95 -15,15 -1448,1459 -1448,2339l0 541c-1,522 -424,945 -947,946zm-2805 -3796c420,459 1318,1532 1318,2308l0 541c0,373 303,676 676,676l811 0c373,0 676,-303 676,-676l0 -541c0,-776 898,-1849 1318,-2308 -152,-18 -300,-58 -439,-121l-704 1024c-169,246 -506,309 -752,140 -128,-89 -212,-228 -231,-383 -181,34 -366,34 -547,0 -36,297 -304,509 -601,474 -155,-19 -294,-103 -382,-231l-704 -1024c-139,63 -287,103 -439,121z"/>
  <path class="fil4" d="M-27600 -18606c-75,0 -136,-60 -136,-135 0,0 0,0 0,0 1,-323 -127,-632 -356,-860 -52,-53 -52,-139 1,-192 53,-52 138,-52 190,0 280,279 436,658 436,1052 0,75 -61,135 -135,135l0 0z"/>
  <path class="fil4" d="M-25166 -18606c-75,0 -136,-60 -136,-135 0,0 0,0 0,0 0,-394 157,-773 436,-1052 53,-52 139,-52 191,2 52,52 52,137 0,190 -228,228 -357,537 -356,860 0,75 -61,135 -135,135l0 0z"/>
  <g id="_946648448">
  </g>
  <g id="_946640672">
  </g>
  <g id="_946668288">
  </g>
  <g id="_946669344">
  </g>
  <g id="_946658208">
  </g>
  <g id="_946663392">
  </g>
  <g id="_946655872">
  </g>
  <g id="_946652928">
  </g>
  <g id="_946654528">
  </g>
  <g id="_946649856">
  </g>
  <g id="_946660288">
  </g>
  <g id="_946646848">
  </g>
  <g id="_946640992">
  </g>
  <g id="_946654784">
  </g>
  <g id="_946668480">
  </g>
  <g id="_942311424">
   <path class="fil8" d="M-14145 -17350c208,1 388,-143 434,-345 46,-202 -54,-409 -241,-498 62,-157 29,-335 -85,-459 -114,-125 -289,-172 -451,-124 -40,-187 -197,-327 -387,-347 93,-145 92,-332 -3,-476 -95,-144 -266,-218 -436,-189 -105,-194 -338,-279 -543,-199 -73,-154 -228,-252 -399,-252 -170,0 -325,98 -399,252 -205,-80 -437,5 -542,199 -169,-24 -337,51 -430,193 -94,143 -98,327 -9,472 -191,20 -347,160 -388,347 -39,-11 -80,-18 -121,-18 -146,-1 -283,70 -366,190 -83,121 -101,274 -48,411 -187,89 -287,296 -241,498 46,202 226,346 433,345l4222 0zm0 0z"/>
   <g>
    <path class="fil1" d="M-13478 -16905l-661 1982c-136,409 -518,684 -949,684l-2418 0c-444,0 -835,-293 -960,-720l-567 -1946 5555 0zm0 0z"/>
    <path class="fil1" d="M-15472 -18864l389 -1163c28,-82 88,-148 166,-184 79,-36 168,-37 248,-4 79,33 142,98 172,179 30,81 25,170 -14,247l-551 1096 -410 -171zm0 0z"/>
    <path class="fil1" d="M-19145 -17350l5778 0c123,0 222,100 222,222 0,123 -99,223 -222,223l-5778 0c-122,0 -222,-100 -222,-223 0,-122 100,-222 222,-222l0 0zm0 0z"/>
   </g>
   <path class="fil4" d="M-19589 -14350l222 0 0 222 -222 0 0 -222zm0 0z"/>
   <path class="fil4" d="M-13822 -14817c-11,32 -23,62 -34,92l205 85c14,-35 28,-70 40,-106l559 -1679 -211 -71 -559 1679zm0 0z"/>
   <path class="fil4" d="M-14033 -14887l635 -1907 31 0c184,0 334,-150 334,-334 0,-184 -150,-333 -334,-333l-336 0c91,-119 130,-269 108,-417 -23,-148 -105,-280 -227,-367 7,-34 11,-69 11,-105 0,-155 -64,-304 -179,-409 -114,-106 -268,-158 -423,-144 -55,-125 -153,-225 -277,-282l279 -554c71,-141 57,-310 -36,-437 -92,-128 -249,-193 -405,-169 -156,24 -285,133 -335,283l-53 157c-6,0 -11,-1 -17,0 -127,-170 -340,-252 -548,-211 -103,-146 -271,-233 -450,-233 -179,0 -347,87 -450,233 -208,-41 -421,41 -548,211l-3 0c-306,0 -555,248 -555,555 0,51 7,102 21,151 -138,53 -250,160 -309,296 -155,-14 -308,38 -423,144 -114,105 -179,254 -178,409 0,36 4,71 11,105 -122,86 -204,219 -227,367 -22,148 16,298 108,417l-337 0c-184,0 -333,149 -333,333 0,184 149,334 333,334l28 0 545 1866c68,232 209,434 402,578l-975 0 0 222 6223 0 0 -222 -1499 0c181,-135 316,-323 388,-537l0 0zm-944 -5105c23,-71 84,-124 158,-135 75,-12 149,19 193,80 44,61 50,142 15,208l-504 1003 -220 -91 358 -1065zm-3723 2198c0,-128 74,-245 190,-299 52,-25 76,-86 55,-140 -15,-37 -23,-77 -23,-117 0,-184 149,-333 333,-333 31,0 62,5 91,14 30,9 61,5 88,-11 26,-16 45,-42 51,-73 31,-140 148,-245 291,-260 38,-4 71,-27 88,-61 17,-34 15,-74 -4,-106 -32,-51 -49,-110 -49,-170 0,-184 149,-333 333,-333 10,0 20,1 30,3l17 2c44,5 87,-18 109,-57 79,-144 252,-207 405,-148 54,21 115,-4 140,-56 55,-116 171,-189 299,-189 128,0 245,73 299,189 25,52 86,77 140,56 153,-60 327,4 406,148 19,34 55,55 95,56l-224 666 -197 -82 -85 205 1025 427 86 -205 -198 -82 118 -236c99,42 172,129 194,233 7,31 25,57 52,73 26,16 58,20 88,12 29,-9 59,-15 90,-15 184,0 334,149 334,333 0,40 -8,80 -23,117 -20,54 4,115 56,140 140,67 216,222 181,374 -35,152 -170,259 -326,258l-4222 0c-184,0 -333,-149 -333,-333zm-556 666c0,-61 50,-111 111,-111l5778 0c62,0 111,50 111,111 0,62 -49,111 -111,111l-5778 0c-61,0 -111,-49 -111,-111l0 0zm1750 2778c-394,-1 -741,-262 -853,-640l-526 -1804 5253 0 -613 1836c-120,363 -460,608 -843,608l-2418 0zm0 0z"/>
   <path class="fil4" d="M-18033 -18350l0 222c184,0 333,150 333,334l222 0c0,-307 -249,-555 -555,-556zm0 0z"/>
   <path class="fil4" d="M-16818 -19296c36,181 -81,357 -261,393l43 218c301,-61 496,-353 436,-654l-218 43zm0 0z"/>
   <path class="fil4" d="M-14811 -18239l-222 0c0,307 248,555 555,556l0 -222c-184,0 -333,-150 -333,-334l0 0zm0 0z"/>
   <path class="fil4" d="M-16922 -18017l222 0 0 223 -222 0 0 -223zm0 0z"/>
   <path class="fil4" d="M-15811 -18128l222 0 0 223 -222 0 0 -223zm0 0z"/>
   <path class="fil4" d="M-16256 -19683l223 0 0 222 -223 0 0 -222zm0 0z"/>
  </g>
  <path class="fil0" d="M-2277 -18547l-3962 -1877c-242,-113 -510,-160 -777,-139 -2309,184 -3093,1808 -3093,2522l7832 0 0 -506z"/>
  <path class="fil0" d="M-2382 -16388c61,-13 105,-63 105,-124l0 -2035 -7327 0c-279,0 -505,227 -505,506l0 3537c0,279 226,505 505,505l2571 0c53,0 100,-33 118,-83 86,-246 320,-422 596,-422 275,0 509,176 595,422 18,50 65,83 118,83l3203 0c70,0 126,-56 126,-126l0 -1150c0,-62 -45,-111 -105,-124 -228,-48 -400,-251 -400,-495 0,-243 172,-446 400,-494zm-6085 1252c0,-209 -170,-379 -379,-379 -209,0 -379,170 -379,379 0,210 170,379 379,379 209,0 379,-169 379,-379zm4421 -378c0,-349 -282,-632 -631,-632 -349,0 -632,283 -632,632 0,348 283,631 632,631 349,0 631,-283 631,-631zm632 -1769c0,-140 -113,-253 -252,-253 -140,0 -253,113 -253,253 0,139 113,252 253,252 139,0 252,-113 252,-252zm-3285 1769c0,-140 -113,-253 -252,-253 -140,0 -253,113 -253,253 0,139 113,252 253,252 139,0 252,-113 252,-252zm1517 -2022c0,-209 -170,-379 -379,-379 -210,0 -379,170 -379,379 0,209 169,379 379,379 209,0 379,-170 379,-379zm-2274 505c0,-348 -283,-631 -632,-631 -349,0 -632,283 -632,631 0,349 283,632 632,632 349,0 632,-283 632,-632z"/>
  <path class="fil4" d="M-4082 -15757c-64,13 -105,76 -92,140 7,33 10,68 10,102 0,284 -230,514 -513,514 -283,0 -514,-230 -514,-514 0,-283 231,-513 514,-513 71,0 140,14 205,43 60,26 130,-2 156,-61 26,-60 -1,-130 -61,-156 -95,-41 -196,-62 -300,-62 -414,0 -750,336 -750,749 0,414 336,750 750,750 413,0 750,-336 750,-750 0,-50 -5,-100 -15,-149 -13,-64 -76,-106 -140,-93z"/>
  <path class="fil4" d="M-7493 -17273c-64,13 -105,76 -92,140 7,33 10,68 10,102 0,284 -230,514 -513,514 -283,0 -514,-230 -514,-514 0,-283 231,-513 514,-513 71,0 140,14 205,43 60,26 130,-2 156,-61 26,-60 -1,-130 -61,-156 -95,-41 -196,-62 -300,-62 -414,0 -750,336 -750,749 0,414 336,750 750,750 413,0 750,-336 750,-750 0,-50 -5,-100 -15,-149 -13,-64 -76,-106 -140,-93z"/>
  <path class="fil4" d="M-5064 -17536c0,-65 -53,-118 -118,-118 -66,0 -119,53 -119,118 0,144 -117,261 -260,261 -144,0 -261,-117 -261,-261 0,-144 117,-261 261,-261 65,0 118,-53 118,-118 0,-65 -53,-118 -118,-118 -275,0 -498,223 -498,497 0,274 223,497 498,497 274,0 497,-223 497,-497z"/>
  <path class="fil4" d="M-3666 -17654c-205,0 -371,166 -371,371 0,204 166,371 371,371 204,0 370,-167 370,-371 0,-205 -166,-371 -370,-371zm0 505c-75,0 -135,-60 -135,-134 0,-74 60,-135 135,-135 74,0 134,61 134,135 0,74 -60,134 -134,134z"/>
  <path class="fil4" d="M-8846 -15633c-274,0 -497,223 -497,497 0,275 223,498 497,498 274,0 497,-223 497,-498 0,-274 -223,-497 -497,-497zm0 758c-144,0 -261,-117 -261,-261 0,-143 117,-260 261,-260 144,0 261,117 261,260 0,144 -117,261 -261,261z"/>
  <path class="fil4" d="M-6951 -15885c-205,0 -371,166 -371,370 0,205 166,371 371,371 204,0 371,-166 371,-371 0,-204 -167,-370 -371,-370zm0 505c-74,0 -135,-60 -135,-135 0,-74 61,-134 135,-134 74,0 134,60 134,134 0,75 -60,135 -134,135z"/>
  <path class="fil4" d="M-2357 -16272c117,-25 198,-124 198,-240l0 -2035c0,-47 -27,-87 -67,-106l0 0 -3963 -1878c-258,-121 -547,-173 -836,-150 -1305,104 -2074,656 -2490,1100 -526,562 -713,1181 -713,1540l0 3537c0,344 280,624 624,624l2571 0c103,0 195,-66 229,-163 72,-205 267,-343 485,-343 217,0 412,138 484,343 34,97 126,163 229,163l3203 0c135,0 244,-110 244,-245l0 -1150c0,-117 -81,-215 -198,-240 -178,-37 -307,-197 -307,-379 0,-182 129,-341 307,-378zm-49 989c5,1 11,4 11,8l0 1150c0,5 -4,8 -8,8l-3202 0c-4,0 -6,-1 -7,-4 -105,-300 -390,-501 -707,-501 -318,0 -602,201 -708,501 -1,3 -3,4 -6,4l-2571 0c-214,0 -387,-173 -387,-387l0 -3537c0,-214 173,-387 387,-387l5559 0c65,0 118,-53 118,-119 0,-65 -53,-118 -118,-118l-5559 0c-94,0 -182,21 -262,58 124,-305 325,-600 524,-813 387,-413 1106,-927 2336,-1025 248,-20 496,25 716,128l3488 1652 -738 0c-65,0 -118,53 -118,118 0,66 53,119 118,119l1145 0 0 1916c0,4 -6,7 -11,8 -286,61 -494,317 -494,610 0,294 208,550 494,611z"/>
  <g id="_936792784">
  </g>
  <g id="_855327264">
  </g>
  <g id="_956607440">
  </g>
  <g id="_956641552">
  </g>
  <g id="_956646096">
  </g>
  <g id="_956628080">
  </g>
  <g id="_956599504">
  </g>
  <g id="_956623184">
  </g>
  <g id="_956619120">
  </g>
  <g id="_956638128">
  </g>
  <g id="_956655664">
  </g>
  <g id="_956597808">
  </g>
  <g id="_956605488">
  </g>
  <g id="_956606768">
  </g>
  <g id="_956607824">
  </g>
  <g id="_956627280">
   <g>
    <path class="fil4" d="M-126950 -10235c97,64 211,99 328,99 117,0 231,-35 328,-99 21,-15 36,-36 42,-61 7,-29 11,-58 11,-88 0,-210 -171,-381 -381,-381 -210,0 -381,171 -381,381 0,30 4,59 10,88 6,25 22,47 43,61zm328 -327c98,0 177,80 177,178 0,1 0,1 0,2 -54,28 -115,42 -177,42 -62,0 -123,-14 -178,-42 0,-1 0,-1 0,-2 0,-98 80,-178 178,-178z"/>
    <path class="fil4" d="M-126372 -9383c7,-28 10,-58 10,-87 0,-210 -171,-381 -381,-381 -210,0 -380,171 -380,381 0,29 3,59 10,87 6,25 21,47 43,61 97,65 210,99 327,99 118,0 231,-34 328,-99 22,-14 37,-36 43,-61zm-193 -86c-55,28 -115,43 -178,43 -62,0 -122,-15 -177,-43 0,0 0,-1 0,-1 0,-98 80,-178 177,-178 98,0 178,80 178,178 0,0 0,1 0,1z"/>
    <path class="fil4" d="M-125673 -8967c7,-29 11,-58 11,-88 0,-210 -171,-381 -381,-381 -210,0 -381,171 -381,381 0,30 4,59 10,88 6,25 22,47 43,61 97,64 211,99 328,99 117,0 231,-35 328,-99 21,-15 36,-36 42,-61zm-193 -86c-54,28 -115,42 -177,42 -62,0 -123,-14 -178,-42 0,-1 0,-1 0,-2 0,-98 80,-178 178,-178 98,0 178,80 178,178 -1,1 -1,1 -1,2z"/>
    <path class="fil4" d="M-125246 -10153c97,65 211,99 328,99 117,0 230,-34 328,-99 21,-14 36,-36 42,-61 7,-29 11,-58 11,-88 0,-210 -171,-381 -381,-381 -210,0 -381,171 -381,381 0,30 3,59 10,88 6,25 21,47 43,61zm328 -326c98,0 177,79 177,177 0,1 0,1 0,2 -54,28 -115,43 -177,43 -63,0 -123,-15 -178,-43 0,-1 0,-1 0,-2 0,-98 80,-177 178,-177z"/>
    <path class="fil4" d="M-125204 -9662c-210,0 -380,171 -380,381 0,29 3,59 10,87 6,25 21,47 42,61 98,65 211,99 328,99 118,0 231,-34 328,-99 22,-14 37,-36 43,-61 7,-28 10,-58 10,-87 0,-210 -171,-381 -381,-381zm178 382c-55,28 -115,43 -178,43 -62,0 -122,-15 -177,-43 0,0 0,-1 0,-1 0,-98 79,-178 177,-178 98,0 178,80 178,178 0,0 0,1 0,1z"/>
    <path class="fil4" d="M-124585 -9753c6,25 21,47 43,61 97,64 211,99 328,99 117,0 231,-35 328,-99 21,-15 36,-36 42,-61 7,-29 11,-58 11,-88 0,-210 -171,-381 -381,-381 -210,0 -381,171 -381,381 0,29 3,59 10,88zm371 -266c98,0 177,80 177,178 0,1 0,1 0,2 -54,28 -115,42 -177,42 -62,0 -123,-14 -178,-42 0,-1 0,-1 0,-2 0,-98 80,-178 178,-178z"/>
    <path class="fil4" d="M-124399 -9504c-210,0 -381,171 -381,381 0,29 3,59 10,88 6,25 21,46 43,61 97,64 210,99 328,99 117,0 230,-35 328,-100 21,-14 36,-36 42,-60 7,-29 10,-58 10,-88 0,-210 -170,-381 -380,-381zm177 382c-55,29 -115,43 -177,43 -63,0 -123,-14 -178,-42 0,-1 0,-2 0,-2 0,-98 80,-178 178,-178 97,0 177,80 177,178 0,0 0,1 0,1z"/>
    <path class="fil4" d="M-126295 -9668c6,25 21,47 43,61 97,65 211,99 328,99 117,0 230,-34 328,-99 21,-14 36,-36 42,-61 7,-29 11,-58 11,-88 0,-210 -171,-381 -381,-381 -210,0 -381,171 -381,381 0,30 3,59 10,88zm371 -265c98,0 177,79 177,177 0,1 0,1 0,2 -54,28 -115,43 -177,43 -63,0 -123,-15 -178,-43 0,-1 0,-1 0,-2 0,-98 80,-177 178,-177z"/>
    <path class="fil4" d="M-126096 -10350c97,65 211,99 328,99 117,0 230,-34 328,-99 21,-14 36,-36 42,-61 7,-28 10,-58 10,-87 0,-210 -170,-381 -380,-381 -210,0 -381,171 -381,381 0,29 3,59 10,87 6,25 21,47 43,61zm328 -326c98,0 177,80 177,178 0,0 0,1 0,1 -54,28 -115,43 -177,43 -63,0 -123,-15 -178,-43 0,0 0,-1 0,-1 0,-98 80,-178 178,-178z"/>
    <path class="fil4" d="M-126996 -9939c6,-29 10,-58 10,-88 0,-210 -171,-381 -381,-381 -210,0 -381,171 -381,381 0,30 4,59 10,88 6,25 22,47 43,61 97,65 211,99 328,99 117,0 231,-34 328,-99 21,-15 37,-36 43,-61zm-193 -86c-55,28 -116,43 -178,43 -62,0 -123,-15 -177,-43 0,-1 0,-1 0,-2 0,-98 79,-177 177,-177 98,0 178,79 178,177 0,1 0,1 0,2z"/>
    <path class="fil4" d="M-123753 -11220c-555,-313 -1289,-486 -2069,-486 -780,0 -1515,173 -2069,486 -573,324 -888,761 -888,1230 0,8 4,157 9,221 -146,-18 -298,-28 -455,-28 -272,0 -550,29 -827,88 -688,145 -1301,453 -1724,868 -436,427 -622,916 -525,1378 156,738 1015,1235 2138,1235l0 0c272,0 550,-30 827,-88 688,-146 1301,-454 1724,-869 110,-108 204,-219 282,-333 455,263 974,402 1508,402 785,0 1525,-296 2082,-834 558,-538 868,-1254 874,-2017 0,-8 0,-16 0,-23 0,-469 -315,-906 -887,-1230zm-3358 2564c-50,-166 -136,-318 -254,-454 13,-8 26,-15 38,-24 22,-14 37,-36 43,-61 7,-28 10,-58 10,-87 0,-210 -171,-381 -381,-381 -110,0 -213,49 -285,129 -138,-66 -291,-121 -454,-163 159,-751 1260,-1327 2572,-1327 701,0 1359,163 1852,459 477,285 740,660 740,1054 0,10 -1,20 -1,31 -384,583 -1405,1002 -2591,1002 -450,0 -894,-61 -1289,-178zm-366 -625c-13,7 -27,13 -41,19 -71,-61 -148,-118 -232,-169 28,-18 61,-29 95,-29 98,0 178,80 178,178 0,1 0,1 0,1zm-314 -1762c524,-296 1223,-460 1969,-460 745,0 1444,164 1969,460 506,286 784,660 784,1053 0,6 0,12 0,19 -1,40 -5,81 -12,121 -108,-338 -377,-646 -784,-890 -525,-314 -1220,-487 -1957,-487 -705,0 -1378,160 -1894,451 -439,247 -733,571 -847,927 -7,-40 -13,-153 -13,-159 9,-387 287,-753 785,-1035zm-1587 4528c-263,55 -527,83 -785,83l0 0c-1024,0 -1804,-431 -1939,-1073 -174,-826 764,-1725 2092,-2006 263,-55 527,-83 785,-83 1024,0 1804,431 1939,1073 174,826 -764,1726 -2092,2006zm5497 -1581c-519,501 -1209,776 -1941,776 -497,0 -980,-128 -1404,-372 128,-243 182,-494 159,-740 387,103 814,158 1245,158 773,0 1503,-170 2056,-479 236,-132 430,-284 576,-449 -131,414 -366,792 -691,1106z"/>
    <path class="fil4" d="M-127696 -8296c-416,301 -1137,580 -1931,747 -776,164 -1539,202 -2041,102 -55,-11 -108,25 -119,80 -11,55 25,109 80,120 200,40 434,59 692,59 428,0 921,-54 1430,-162 820,-173 1571,-465 2008,-781 45,-33 56,-97 23,-142 -33,-46 -97,-56 -142,-23z"/>
    <path class="fil4" d="M-131528 -7952c17,11 35,16 54,16 33,0 67,-17 86,-48 5,-7 123,-187 375,-156 56,7 107,-32 114,-88 7,-56 -33,-107 -88,-114 -386,-48 -566,239 -574,252 -29,47 -14,109 33,138z"/>
    <path class="fil4" d="M-130295 -9047c18,0 37,-5 54,-16 3,-1 270,-167 524,-121 55,10 108,-27 118,-82 10,-55 -27,-108 -82,-118 -333,-61 -655,141 -669,150 -47,30 -61,92 -31,140 19,30 52,47 86,47z"/>
    <path class="fil4" d="M-129453 -8882c11,0 22,-1 33,-5 54,-19 164,-43 229,-28 55,13 109,-21 122,-76 13,-55 -21,-109 -76,-122 -143,-33 -322,27 -342,34 -53,18 -81,76 -62,129 14,42 54,68 96,68z"/>
    <path class="fil4" d="M-128778 -8275c15,0 30,-3 44,-9 2,-1 196,-89 342,-37 53,19 111,-9 130,-62 19,-52 -9,-111 -61,-129 -227,-81 -487,39 -498,44 -51,24 -73,84 -49,135 18,37 54,58 92,58z"/>
   </g>
   <g>
   </g>
   <g>
   </g>
   <g>
   </g>
   <g>
   </g>
   <g>
   </g>
   <g>
   </g>
   <g>
   </g>
   <g>
   </g>
   <g>
   </g>
   <g>
   </g>
   <g>
   </g>
   <g>
   </g>
   <g>
   </g>
   <g>
   </g>
   <g>
   </g>
  </g>
  <g id="_956610928">
   <g>
    <path class="fil9" d="M-116483 -9036l317 611c377,1010 -136,2134 -1146,2511 -205,77 -415,116 -623,123 -207,-7 -417,-46 -623,-123 -1009,-377 -1522,-1501 -1145,-2511l1768 -3408 1235 2380 217 417zm0 0l0 0 0 0z"/>
   </g>
   <g id="_956602000">
    <g>
     <path class="fil10" d="M-113740 -8110l311 600c186,498 -67,1052 -565,1238 -101,38 -205,57 -307,60 -102,-3 -206,-22 -307,-60 -498,-186 -751,-740 -565,-1238l872 -1681 369 711 192 370zm0 0l0 0 0 0z"/>
    </g>
    <path class="fil10" d="M-115541 -4025c-68,25 -137,38 -205,40 -68,-2 -137,-15 -205,-40 -332,-124 -500,-493 -376,-825l581 -1120 581 1120c124,332 -45,701 -376,825z"/>
   </g>
   <g>
    <path class="fil11" d="M-117935 -5655c-1,0 -2,0 -4,0 -228,-7 -453,-51 -667,-131 -522,-195 -937,-582 -1169,-1089 -231,-508 -251,-1075 -56,-1597 2,-6 4,-11 7,-16l1768 -3408c24,-45 70,-74 121,-74l0 0c51,0 98,29 121,74l1235 2380c35,67 9,149 -58,184 -67,34 -149,8 -184,-59l-1114 -2146 -1643 3168c-167,452 -148,942 52,1380 201,441 562,778 1016,947 185,69 378,108 575,114 197,-6 391,-45 576,-114 454,-169 815,-506 1016,-947 200,-438 218,-928 52,-1380l-314 -604c-34,-67 -8,-150 59,-184 67,-35 149,-9 184,58l317 611c2,5 5,10 7,16 195,522 175,1089 -57,1597 -231,507 -646,894 -1169,1089 -214,80 -438,124 -667,131 -1,0 -2,0 -4,0z"/>
    <path class="fil11" d="M-114301 -6075c-1,0 -3,0 -4,0 -120,-4 -238,-27 -351,-69 -275,-103 -493,-306 -615,-573 -122,-267 -132,-566 -30,-841 2,-5 4,-10 7,-15l872 -1681c23,-45 70,-73 121,-73 51,0 98,28 121,73l369 711c35,67 9,149 -58,184 -67,35 -150,9 -184,-58l-248 -477 -747 1439c-74,205 -65,426 25,624 92,201 256,354 463,431 83,31 170,48 259,52 89,-4 176,-21 260,-52 424,-158 641,-630 487,-1055l-307 -592c-35,-67 -9,-149 58,-184 67,-35 150,-8 184,58l311 600c3,5 5,10 7,15 212,568 -77,1202 -645,1414 -113,42 -231,65 -351,69 -1,0 -3,0 -4,0z"/>
    <path class="fil11" d="M-115746 -3848c-1,0 -3,0 -4,0 -85,-3 -169,-19 -248,-49 -402,-150 -607,-599 -457,-1001 2,-5 4,-10 7,-15l581 -1120c23,-45 70,-73 121,-73l0 0c51,0 98,28 121,73l581 1120c3,5 5,10 7,15 150,402 -55,851 -457,1001 -79,30 -163,46 -248,49 -1,0 -3,0 -4,0zm-456 -947c-92,259 41,546 299,642 50,19 103,29 157,32 54,-3 106,-13 157,-32 258,-96 391,-383 299,-642l-456 -878 -456 878z"/>
   </g>
   <g>
   </g>
   <g>
   </g>
   <g>
   </g>
   <g>
   </g>
   <g>
   </g>
   <g>
   </g>
   <g>
   </g>
   <g>
   </g>
   <g>
   </g>
   <g>
   </g>
   <g>
   </g>
   <g>
   </g>
   <g>
   </g>
   <g>
   </g>
   <g>
   </g>
  </g>
  <g>
   <g>
    <path class="fil9" d="M-107800 -8319l317 611c377,1010 -136,2134 -1145,2511 -206,77 -416,116 -623,122 -208,-6 -418,-45 -623,-122 -1010,-377 -1523,-1501 -1146,-2511l1769 -3409 1234 2380 217 418zm0 0l0 0 0 0z"/>
   </g>
   <path class="fil11" d="M-109251 -4938c-2,0 -3,0 -5,0 -228,-7 -452,-51 -666,-131 -523,-195 -938,-582 -1169,-1090 -232,-507 -252,-1074 -57,-1597 2,-5 4,-10 7,-15l1768 -3408c24,-46 71,-74 122,-74l0 0c51,0 97,28 121,74l1235 2379c34,67 8,150 -59,184 -67,35 -149,9 -184,-58l-1113 -2146 -1644 3167c-166,452 -148,942 52,1381 201,441 562,777 1016,947 185,69 379,107 576,114 197,-7 390,-45 575,-114 454,-170 815,-506 1016,-947 200,-439 219,-929 52,-1381l-313 -604c-35,-67 -9,-149 58,-184 67,-34 149,-8 184,59l317 611c3,5 5,10 7,15 195,523 175,1090 -56,1597 -232,508 -647,895 -1170,1090 -213,80 -438,124 -666,131 -2,0 -3,0 -4,0z"/>
   <g>
   </g>
   <g>
   </g>
   <g>
   </g>
   <g>
   </g>
   <g>
   </g>
   <g>
   </g>
   <g>
   </g>
   <g>
   </g>
   <g>
   </g>
   <g>
   </g>
   <g>
   </g>
   <g>
   </g>
   <g>
   </g>
   <g>
   </g>
   <g>
   </g>
  </g>
  <g>
   <path class="fil1" d="M-103028 -7768l7620 0c75,0 136,60 136,136l0 544c0,75 -61,136 -136,136l-7620 0c-75,0 -136,-61 -136,-136l0 -544c0,-76 61,-136 136,-136z"/>
   <path id="Shape" class="fil0" d="M-99762 -6952l-437 1637c-63,238 -279,404 -525,404l-1070 0c-246,0 -461,-166 -525,-404l-437 -1637 2994 0z"/>
   <path id="Shape_0" class="fil0" d="M-95680 -6952l-437 1637c-63,238 -279,404 -525,404l-1069 0c-247,0 -462,-166 -526,-404l-437 -1637 2994 0z"/>
   <path id="Shape_1" class="fil4" d="M-95408 -7905l-144 0c192,-379 288,-799 280,-1224 0,-1475 -872,-2722 -1905,-2722 -1032,0 -1905,1247 -1905,2722 -7,425 89,845 281,1224l-834 0c191,-379 287,-799 281,-1224 0,-1475 -872,-2722 -1905,-2722 -1033,0 -1905,1247 -1905,2722 -7,425 89,845 280,1224l-144 0c-150,0 -272,122 -272,273l0 544c0,150 122,272 272,272l168 0 409 1536c80,298 350,505 658,505l1068 0c309,0 578,-207 658,-505l409 -1536 880 0 410 1536c79,298 349,505 657,505l1069 0c308,0 577,-207 657,-505l410 -1536 167 0c151,0 272,-122 272,-272l0 -544c0,-151 -121,-273 -272,-273zm-3402 -1224c0,-1305 763,-2450 1633,-2450 870,0 1633,1145 1633,2450 7,429 -102,852 -314,1224l-2638 0c-211,-372 -320,-795 -314,-1224zm-4082 0c0,-1305 763,-2450 1633,-2450 870,0 1633,1145 1633,2450 7,429 -102,852 -315,1224l-2638 0c-211,-373 -319,-795 -313,-1224zm2562 3779c-48,179 -210,303 -395,303l-1068 0c-185,0 -347,-124 -395,-303l-391 -1466 263 0 227 852c16,59 70,101 131,101 12,0 24,-2 36,-5 72,-19 115,-94 96,-167l-209 -781 2096 0 -391 1466zm4082 0c-47,179 -209,303 -394,303l-1069 0c-185,0 -347,-124 -395,-303l-391 -1466 263 0 227 852c16,59 70,101 132,101 12,0 23,-2 35,-5 73,-19 116,-94 96,-167l-208 -781 2095 0 -391 1466zm-6780 -1738l0 -544 7620 0 0 544 -7620 0z"/>
   <path id="Shape_2" class="fil12" d="M-102470 -9265c-4,0 -9,0 -14,0 -36,-4 -69,-21 -92,-50 -23,-28 -34,-64 -30,-100 88,-909 628,-1891 1347,-1891 75,0 136,61 136,136 0,75 -61,136 -136,136 -497,0 -990,754 -1076,1646 -7,70 -65,122 -135,123z"/>
   <circle id="Oval" class="fil12" cx="-102451" cy="-8857" r="136"/>
   <path id="Shape_3" class="fil13" d="M-98402 -9265c-5,0 -9,0 -14,0 -36,-4 -69,-21 -92,-49 -23,-28 -34,-64 -31,-100 89,-910 629,-1892 1349,-1892 75,0 136,61 136,136 0,75 -61,136 -136,136 -498,0 -990,754 -1077,1646 -7,70 -65,123 -135,123z"/>
   <circle id="Oval_4" class="fil13" cx="-98383" cy="-8857" r="136"/>
  </g>
  <g>
   <path class="fil0" d="M-85677 -7319l656 2018c43,132 166,221 304,221l1071 0c139,0 261,-89 304,-221l656 -2018 -2991 0z"/>
   <path class="fil1" d="M-86545 -9977c-43,-132 -166,-221 -304,-221l-1071 0c-139,0 -261,89 -304,221l-656 2018 2991 0 -656 -2018z"/>
   <path class="fil0" d="M-92079 -7319l656 2018c42,132 165,221 304,221l1071 0c138,0 261,-89 304,-221l656 -2018 -2991 0z"/>
   <path class="fil0" d="M-82586 -7319l-9597 0c-89,0 -160,-72 -160,-160l0 -320c0,-88 71,-160 160,-160l9597 0c88,0 160,72 160,160l0 320c0,88 -72,160 -160,160z"/>
   <path class="fil4" d="M-82586 -8109l-19 0c6,-56 9,-113 9,-170 0,-650 -157,-1274 -443,-1756 -303,-511 -710,-793 -1146,-793 -437,0 -844,282 -1147,793 -286,482 -443,1106 -443,1756 0,57 3,114 9,170l-14 0 -623 -1915c-63,-194 -242,-324 -446,-324l-1071 0c-204,0 -383,130 -447,324l-622 1915 -15 0c6,-56 10,-113 10,-170 0,-650 -158,-1274 -443,-1756 -303,-511 -710,-793 -1147,-793 -436,0 -844,282 -1146,793 -286,482 -443,1106 -443,1756 0,57 3,114 9,170l-19 0c-171,0 -310,139 -310,310l0 320c0,169 136,307 305,309l622 1915c63,194 243,325 447,325l1071 0c204,0 383,-131 446,-325l623 -1915 3189 0 623 1915c63,195 242,325 446,325l1071 0c204,0 383,-130 447,-325l622 -1915c168,-2 305,-140 305,-309l0 -320c0,-171 -139,-310 -310,-310zm-5496 -1822c23,-70 88,-118 162,-118l1071 0c74,0 139,47 162,118l592 1822 -2579 0 592 -1822zm-3792 1652c0,-589 146,-1173 401,-1603 247,-417 563,-647 889,-647 327,0 643,230 889,647 255,430 401,1014 401,1603 0,57 -4,114 -11,170l-2557 0c-8,-56 -12,-113 -12,-170zm-320 480c0,-6 5,-10 11,-10l8157 0c83,0 150,-67 150,-150 0,-83 -67,-150 -150,-150l-1438 0c-7,-56 -11,-113 -11,-170 0,-589 146,-1173 400,-1603 247,-417 563,-647 890,-647 326,0 642,230 889,647 254,430 400,1014 400,1603 0,57 -4,114 -11,170l-479 0c-82,0 -149,67 -149,150 0,83 67,150 149,150l800 0c6,0 10,4 10,10l0 320c0,6 -4,10 -10,10l-9597 0c-6,0 -11,-4 -11,-10l0 -320zm2308 2452c-23,70 -88,118 -162,118l-1071 0c-74,0 -139,-48 -162,-118l-592 -1823 2579 0 -592 1823zm6398 0c-23,70 -88,118 -162,118l-1071 0c-74,0 -139,-48 -162,-118l-592 -1823 2579 0 -592 1823z"/>
   <path class="fil4" d="M-89650 -8613c-29,-310 -100,-594 -209,-846 -33,-76 -121,-110 -197,-77 -76,33 -110,121 -78,197 97,222 160,476 186,754 8,78 73,136 149,136 5,0 10,0 14,-1 83,-8 143,-81 135,-163z"/>
   <path class="fil4" d="M-90584 -10188c-82,0 -149,67 -149,150 0,82 67,149 149,149 15,1 79,23 172,116 29,30 68,45 106,45 38,0 76,-15 106,-44 58,-58 59,-153 1,-211 -93,-94 -235,-205 -385,-205z"/>
   <path class="fil4" d="M-83549 -8585c7,78 72,136 148,136 5,0 10,0 15,-1 82,-8 142,-81 134,-163 -29,-310 -99,-594 -209,-846 -33,-76 -121,-110 -197,-77 -76,33 -110,121 -77,197 97,222 159,476 186,754z"/>
   <path class="fil4" d="M-83801 -9983c-93,-94 -235,-205 -384,-205 -83,0 -150,67 -150,150 0,82 67,149 149,149 16,1 80,23 172,116 30,30 68,45 107,45 38,0 76,-15 105,-44 59,-58 59,-153 1,-211z"/>
   <g>
   </g>
   <g>
   </g>
   <g>
   </g>
   <g>
   </g>
   <g>
   </g>
   <g>
   </g>
   <g>
   </g>
   <g>
   </g>
   <g>
   </g>
   <g>
   </g>
   <g>
   </g>
   <g>
   </g>
   <g>
   </g>
   <g>
   </g>
   <g>
   </g>
  </g>
  <g>
  </g>
  <g>
  </g>
  <g>
  </g>
  <g>
  </g>
  <g>
  </g>
  <g>
  </g>
  <g>
  </g>
  <g>
  </g>
  <g>
  </g>
  <g>
  </g>
  <g>
  </g>
  <g>
  </g>
  <g>
  </g>
  <g>
  </g>
  <g>
  </g>
  <g>
   <path class="fil1" d="M-74730 -8377l464 977c93,195 -69,416 -284,385l0 0c-60,-8 -121,4 -173,34l-193 111c-150,87 -335,82 -480,-11l0 0c-141,-90 -321,-97 -469,-17l-94 50c-137,74 -302,74 -438,0l-95 -50c-147,-80 -327,-73 -468,17l0 0c-145,93 -331,98 -480,11l-193 -111c-52,-30 -114,-42 -174,-34l0 0c-214,31 -376,-190 -283,-385l184 -172 1086 -34 2090 -771z"/>
   <path class="fil0" d="M-72155 -7980l0 0c335,-73 529,-422 418,-747 -184,-538 -439,-1018 -763,-1430 -223,335 -605,556 -1038,556 -688,0 -1246,-558 -1246,-1246 0,-261 81,-503 218,-704 121,37 238,78 352,123 -570,-226 -1226,-346 -1964,-346 -416,0 -806,38 -1169,112 92,134 146,296 146,471 0,462 -374,837 -836,837 -418,0 -764,-306 -827,-707l0 0c-825,529 -1412,1331 -1755,2334 -111,325 83,674 418,747l0 0c2651,578 5395,578 8046,0zm-5192 -3682c-61,12 -122,26 -182,40 60,-14 121,-28 182,-40zm-187 41c-59,15 -117,30 -174,46 57,-16 115,-31 174,-46zm-182 48c-24,7 -48,14 -72,22 24,-8 48,-15 72,-22zm-77 23c-30,9 -59,18 -88,28 29,-10 58,-19 88,-28zm-101 32c-22,7 -45,15 -67,23 22,-8 45,-16 67,-23zm-88 30c-23,8 -46,16 -68,24 22,-8 45,-16 68,-24zm-85 31c-21,7 -41,15 -61,23 20,-8 40,-16 61,-23zm-90 35c-19,7 -38,15 -56,22 18,-7 37,-15 56,-22zm-81 32c-18,8 -36,16 -54,24 18,-8 36,-16 54,-24zm-84 37c-17,8 -34,16 -51,24 17,-8 34,-16 51,-24zm-80 37c-16,8 -32,15 -49,23 17,-8 33,-15 49,-23zm-81 39c-15,8 -31,16 -46,24 15,-8 31,-16 46,-24zm-78 40c-15,8 -29,16 -44,24 15,-8 29,-16 44,-24zm-77 42c-14,8 -29,16 -43,24 14,-8 29,-16 43,-24zm-77 44c-13,7 -27,15 -40,23 13,-8 27,-16 40,-23zm-73 43c-13,8 -27,17 -40,25 13,-8 27,-17 40,-25zm6287 950c-55,-70 -113,-139 -172,-205 59,66 117,135 172,205zm-175 -208c-16,-18 -33,-36 -49,-54 16,18 33,36 49,54zm-54 -59c-16,-18 -33,-35 -50,-52 17,17 34,34 50,52zm-53 -56c-62,-63 -126,-125 -192,-184 66,59 130,121 192,184zm-193 -186c-18,-16 -37,-32 -56,-49 19,17 38,33 56,49zm-60 -52c-18,-16 -37,-32 -56,-48 19,16 38,32 56,48zm-58 -50c-69,-57 -140,-112 -213,-165 73,53 144,108 213,165zm-213 -165c-21,-15 -41,-29 -62,-44 21,15 41,29 62,44zm-66 -46c-20,-15 -41,-29 -62,-43 21,14 42,28 62,43zm-64 -44c-97,-65 -197,-125 -301,-182 104,57 204,117 301,182zm-302 -183c-23,-12 -46,-24 -69,-36 23,12 46,24 69,36zm-70 -37c-130,-67 -264,-129 -403,-184 139,55 273,117 403,184zm-795 2405c0,-334 -270,-605 -604,-605 -334,0 -604,271 -604,605 0,333 270,604 604,604 334,0 604,-271 604,-604zm-3513 -300c-731,0 -1328,578 -1357,1303 893,158 1794,251 2697,280 12,-73 19,-148 19,-224 0,-750 -608,-1359 -1359,-1359z"/>
   <path class="fil4" d="M-71610 -8771c-191,-560 -454,-1050 -782,-1466 -1,-3 -3,-5 -5,-7 -539,-682 -1253,-1165 -2114,-1430 -10,-5 -22,-8 -33,-10 -498,-149 -1044,-225 -1634,-225 -1321,0 -2415,372 -3251,1105 -56,50 -62,135 -13,191 49,56 135,62 191,12 98,-86 200,-167 306,-242 140,371 495,624 908,624 535,0 971,-436 971,-972 0,-129 -25,-255 -74,-373 304,-50 625,-75 962,-75 504,0 974,57 1407,170 -97,192 -148,404 -148,622 0,762 620,1381 1381,1381 401,0 777,-172 1037,-469 263,364 475,782 636,1252 41,119 29,251 -33,360 -61,109 -163,185 -286,211 -1310,286 -2654,431 -3994,431 -149,0 -299,-2 -448,-6 2,-31 3,-62 3,-93 0,-824 -670,-1494 -1494,-1494 -752,0 -1374,550 -1478,1278 -193,-35 -386,-74 -577,-116 -123,-26 -225,-101 -287,-211 -61,-109 -73,-241 -32,-360 171,-501 405,-948 694,-1330 45,-60 34,-145 -26,-190 -59,-45 -144,-33 -189,26 -307,406 -554,879 -735,1406 -65,193 -46,404 53,581 99,174 268,299 464,342 675,147 1359,257 2046,330l-28 60c-64,135 -49,294 40,415 72,99 184,158 304,165l-300 2458c-21,174 34,350 150,481 117,132 284,207 460,207l2759 0c176,0 344,-75 461,-207 116,-131 171,-307 150,-481l-21 -169c-9,-74 -76,-126 -150,-118 -74,10 -127,77 -118,151l21 168c11,98 -19,197 -85,270 -65,74 -159,116 -258,116l-2759 0c-98,0 -192,-42 -258,-116 -65,-73 -96,-172 -84,-270l295 -2421 98 56c194,112 431,107 620,-14 100,-64 227,-69 331,-13l94 51c89,48 187,72 284,72 97,0 195,-24 283,-72l95 -51c104,-56 231,-51 331,13 189,121 426,126 620,14l97 -56 191 1565c9,69 67,119 134,119 5,0 11,0 17,-1 74,-9 126,-76 117,-150l-195 -1602c120,-7 232,-66 304,-165 89,-121 104,-280 40,-415l-28 -60c687,-73 1371,-183 2046,-330 196,-43 365,-168 464,-342 99,-177 118,-388 52,-581zm-6427 -1718c-319,0 -590,-209 -675,-508 388,-236 821,-408 1298,-514 51,99 78,208 78,320 0,387 -315,702 -701,702zm4499 753c-612,0 -1111,-498 -1111,-1111 0,-192 49,-378 143,-544 400,131 765,314 1094,548 276,196 524,427 742,690 -210,263 -528,417 -868,417zm-5791 1788c82,-601 593,-1056 1212,-1056 675,0 1224,549 1224,1224 0,28 -1,56 -3,85 -815,-32 -1629,-116 -2433,-253zm4928 745c-15,20 -57,65 -130,55 -41,-6 -83,-5 -125,2 0,0 0,0 -1,0 -1,0 -2,0 -3,1 -2,0 -4,0 -7,1 -3,0 -6,1 -9,2 -40,9 -79,24 -115,44l-193 111c-106,62 -236,59 -339,-7 -183,-117 -415,-126 -606,-23l-94 51c-97,52 -213,52 -310,0l-95 -51c-190,-103 -422,-94 -605,23 -103,66 -233,69 -340,7l-192 -111c-36,-20 -75,-35 -115,-44 -3,-1 -7,-2 -10,-2 -2,-1 -4,-1 -6,-1 -1,-1 -2,-1 -4,-1 0,0 0,0 -1,0 -41,-7 -83,-8 -124,-2 -74,10 -115,-35 -130,-55 -14,-20 -45,-73 -13,-139l70 -148c572,52 1146,79 1720,79 574,0 1148,-27 1720,-79l70 148c32,66 1,119 -13,139zm-68 -1637c0,-407 -331,-739 -739,-739 -408,0 -739,332 -739,739 0,408 331,740 739,740 408,0 739,-332 739,-740zm-1208 0c0,-258 210,-469 469,-469 259,0 469,211 469,469 0,259 -210,470 -469,470 -259,0 -469,-211 -469,-470z"/>
  </g>
  <g>
   <g>
    <path class="fil9" d="M-64747 -7144l160 511c269,721 -97,1523 -817,1792 -147,54 -296,82 -445,87 -148,-5 -298,-33 -444,-87 -721,-269 -1278,-1230 -1009,-1950l1287 -2757 1141 2127 127 277zm-66 75l0 0 0 0z"/>
   </g>
   <g>
    <path class="fil9" d="M-66608 -6422l136 483c156,920 -364,1956 -1234,2237 -178,66 -360,100 -539,106 -180,-6 -362,-40 -540,-106 -1033,-152 -1551,-1651 -1224,-2525l1753 -3463 1327 2657 321 611zm-381 16l0 0 0 0z"/>
   </g>
   <g>
    <path class="fil4" d="M-68242 -4281c69,0 125,-55 125,-124 0,-69 -56,-124 -125,-124 -549,0 -995,-447 -995,-996 0,-276 110,-603 293,-873 39,-57 24,-134 -33,-173 -57,-38 -134,-24 -173,33 -210,310 -336,689 -336,1013 0,686 558,1244 1244,1244l0 0z"/>
    <circle class="fil4" cx="-69573" cy="-4218" r="124"/>
    <path class="fil4" d="M-68242 -9905c-54,0 -101,36 -117,85 -440,1172 -914,2135 -1408,2863 -296,435 -465,957 -465,1432 0,316 76,631 220,911 31,61 106,85 167,53 61,-31 85,-106 54,-167 -128,-248 -193,-516 -193,-797 0,-426 154,-898 423,-1293 462,-680 905,-1559 1319,-2615 315,801 649,1506 996,2100 106,181 215,355 324,515 268,395 422,867 422,1293 0,977 -800,1742 -1742,1742 -288,0 -573,-72 -825,-208 -61,-32 -136,-10 -169,51 -33,60 -10,136 51,168 288,156 614,238 943,238 797,0 1501,-470 1817,-1176 137,37 279,56 423,56 892,0 1617,-725 1617,-1617 0,-411 -158,-882 -422,-1261 -387,-553 -769,-1364 -1076,-2283 0,-1 0,-2 -1,-3 -16,-51 -62,-85 -115,-87 -55,-1 -104,34 -121,86 -207,621 -547,1492 -1010,2188 -344,-616 -686,-1368 -994,-2189 -16,-49 -63,-85 -118,-85l0 0zm2240 504c227,625 559,1394 991,2012 236,338 378,756 378,1118 0,754 -614,1368 -1369,1368 -114,0 -226,-14 -335,-41 57,-187 86,-382 86,-581 0,-475 -170,-997 -465,-1432 -93,-136 -185,-282 -276,-435 432,-617 763,-1385 990,-2009l0 0z"/>
   </g>
  </g>
  <path class="fil4" d="M-1320 -38381c-135,-134 -692,-123 -1147,-43 -27,5 -56,10 -86,16 -274,48 -518,121 -790,242 -246,108 -491,255 -689,453 -15,15 -30,30 -44,45 -93,86 -191,225 -253,309 -178,258 -282,526 -306,792 -5,75 -4,72 -5,157 9,320 134,620 365,874l-388 388c-31,30 -31,80 0,110 15,16 35,23 55,23 20,0 40,-7 55,-23l388 -388c264,240 576,365 910,365 22,0 44,0 65,-1 409,-20 825,-229 1202,-607 208,-208 382,-491 515,-840 15,-40 -5,-85 -45,-101 -41,-15 -86,5 -101,45 -125,329 -287,593 -480,786 -656,656 -1398,746 -1955,243l492 -492 793 83c3,1 5,1 8,1 40,0 74,-30 78,-70 4,-43 -27,-82 -70,-86l-667 -70 342 -342 641 59c2,0 5,1 7,1 40,0 74,-31 78,-71 4,-43 -28,-81 -71,-85l-512 -48 335 -335 445 39c2,1 4,1 7,1 40,0 74,-31 77,-72 4,-43 -28,-80 -71,-84l-313 -28 347 -348c31,-30 31,-80 0,-110 -30,-31 -80,-31 -110,0l-348 348 -28 -314c-3,-43 -41,-75 -84,-71 -43,4 -75,42 -71,84l39 445 -335 335 -47 -512c-4,-43 -42,-75 -85,-71 -43,4 -75,42 -71,85l59 642 -341 341 -71 -667c-4,-43 -43,-74 -86,-70 -43,5 -74,43 -69,86l83 793 -492 492c-503,-556 -413,-1299 243,-1955 431,-431 1113,-604 1481,-668 243,-42 488,-62 690,-56 223,7 307,43 320,56 18,17 65,140 57,464 -8,296 -59,627 -144,932 -11,41 13,84 55,96 41,11 84,-13 96,-54 88,-318 141,-662 149,-970 4,-174 -3,-480 -102,-579l0 0z"/>
  <path class="fil4" d="M-7129 -37459c74,-74 380,-67 630,-23 15,2 31,5 47,8 151,27 284,67 434,134 135,59 270,139 379,248 8,8 16,17 24,25 50,47 105,124 139,170 97,141 154,288 167,435 3,41 3,39 3,86 -5,176 -73,340 -200,480l213 213c17,17 17,44 0,61 -8,8 -19,12 -30,12 -11,0 -22,-4 -31,-12l-213 -214c-145,132 -316,201 -500,201 -11,0 -23,0 -35,-1 -225,-11 -453,-126 -660,-333 -115,-115 -210,-270 -283,-462 -8,-22 3,-47 25,-55 22,-8 47,3 55,25 69,180 158,325 263,431 361,361 769,410 1074,134l-270 -271 -435 46c-2,0 -3,1 -5,1 -22,0 -40,-17 -42,-39 -3,-23 14,-45 38,-47l366 -39 -187 -187 -353 32c-1,0 -2,0 -4,0 -22,0 -40,-16 -42,-39 -3,-23 15,-44 38,-46l282 -26 -184 -184 -244 21c-2,0 -3,1 -4,1 -22,0 -41,-17 -43,-40 -2,-23 16,-44 39,-46l172 -15 -191 -191c-16,-17 -16,-44 0,-61 17,-17 44,-17 61,0l191 191 15 -172c2,-24 23,-41 47,-39 23,2 41,23 39,46l-22 244 184 184 26 -281c2,-24 23,-41 47,-39 24,2 41,23 39,47l-33 352 188 188 38 -367c3,-23 24,-40 48,-38 23,3 40,24 38,47l-46 436 270 270c276,-306 227,-714 -133,-1074 -237,-237 -611,-331 -813,-367 -134,-23 -268,-34 -379,-31 -123,4 -169,24 -176,31 -10,10 -36,77 -31,255 4,163 32,344 78,512 7,23 -7,46 -29,53 -23,6 -47,-7 -53,-30 -49,-174 -78,-364 -82,-533 -2,-95 2,-263 56,-318l0 0z"/>
  <g>
   <path class="fil14" d="M-60881 -3112c0,0 0,-3461 0,-4093 0,-633 388,-1398 388,-1398l843 -1753 -699 0 -843 1753c0,0 -388,765 -388,1398 0,632 0,4093 0,4093 0,0 -67,943 699,943 244,0 488,0 699,0 -766,0 -699,-943 -699,-943z"/>
   <rect class="fil1" x="-61525" y="-6906" width="4415" height="2075"/>
   <path class="fil0" d="M-57797 -10877c0,288 -233,521 -522,521l-2030 0c-288,0 -521,-233 -521,-521l0 0c0,-289 233,-522 521,-522l2030 0c289,0 522,233 522,522l0 0z"/>
   <g>
    <path class="fil12" d="M-56932 -7205c0,-666 -388,-1442 -399,-1476l-743 -1553c266,-100 443,-355 443,-643 0,-378 -310,-699 -699,-699l-2019 0c-377,0 -699,310 -699,699 0,299 189,543 444,643l-743 1553c-11,34 -399,810 -399,1476l0 310 0 0 0 0 0 2064 0 0 0 0 0 1697c0,22 -34,555 266,877 155,166 355,244 599,244l3084 0c244,0 455,-78 599,-244 299,-322 266,-855 266,-866l0 -4082 0 0zm-3783 -3672c0,-200 156,-355 355,-355l2030 0c200,0 355,155 355,355 0,199 -155,355 -355,355l-2019 0c-199,0 -366,-156 -366,-355zm-699 3672c0,-577 366,-1320 366,-1332l799 -1653 1820 0 798 1653c0,12 366,744 366,1321l0 144 -4149 0 0 -133zm0 488l4138 0 0 1730 -4138 0 0 -1730zm3972 4249c-89,88 -200,133 -355,133l-3084 0c-155,0 -266,-45 -355,-133 -200,-222 -178,-622 -178,-644l0 -1542 4138 0 0 1553c11,11 34,411 -166,633z"/>
    <path class="fil12" d="M-60326 -6395l-123 366c-33,122 -77,266 -110,399l0 0c-23,-133 -56,-266 -89,-399l-111 -366 -333 0 -67 1109 233 0 23 -422c11,-133 11,-310 22,-454l0 0c22,144 66,299 100,432l122 433 199 0 134 -433c44,-133 88,-288 122,-432l0 0c0,166 0,321 11,454l11 422 244 0 -56 -1109 -332 0z"/>
    <rect class="fil12" x="-59739" y="-6395" width="255" height="1109"/>
    <polygon class="fil12" points="-59017,-6395 -59273,-6395 -59273,-5286 -58574,-5286 -58574,-5497 -59017,-5497 "/>
    <path class="fil12" d="M-57542 -6395l-311 0 -255 366c-22,44 -55,77 -77,122l0 0 0 -488 -244 0 0 1109 244 0 0 -366 99 -122 267 477 288 0 -388 -633 377 -465z"/>
   </g>
   <g>
   </g>
   <g>
   </g>
   <g>
   </g>
   <g>
   </g>
   <g>
   </g>
   <g>
   </g>
   <g>
   </g>
   <g>
   </g>
   <g>
   </g>
   <g>
   </g>
   <g>
   </g>
   <g>
   </g>
   <g>
   </g>
   <g>
   </g>
   <g>
   </g>
  </g>
  <g id="_090---Milk-Bottle">
   <path id="Shape_5" class="fil0" d="M-49609 -7864l0 5070c0,330 -1005,747 -2242,747 -1237,0 -2242,-417 -2242,-747l0 -5070c0,-198 79,-388 219,-528l310 -311c140,-140 219,-330 219,-527l0 -251c260,155 830,261 1494,261 664,0 1234,-106 1494,-261l0 251c0,197 79,387 219,527l310 311c140,140 219,330 219,528l0 0z"/>
   <path id="Shape_6" class="fil1" d="M-49609 -6455c-128,0 -241,-81 -283,-201 -42,-121 -2,-254 98,-333l761 -598c83,-69 198,-87 299,-48 101,40 173,131 187,239 15,107 -30,214 -117,279l-761 598c-52,41 -117,64 -184,64l0 0z"/>
   <g>
    <path id="Shape_7" class="fil4" d="M-52289 -7442c-393,-20 -782,-93 -1156,-215 -77,-28 -163,12 -191,90 -28,78 13,163 90,191 400,133 816,211 1237,233l10 0c82,3 151,-62 154,-144 3,-83 -62,-152 -144,-155l0 0z"/>
    <path id="Shape_8" class="fil4" d="M-50805 -7214c9,0 18,-1 26,-2 212,-36 420,-89 623,-160 77,-28 118,-113 90,-191 -28,-78 -114,-118 -191,-90 -187,65 -379,114 -574,146 -76,14 -130,83 -123,161 7,77 72,136 149,136l0 0z"/>
    <path id="Shape_9" class="fil4" d="M-53669 -8809l-311 311c-167,169 -262,396 -262,634l0 5070c0,513 1262,897 2391,897 1129,0 2391,-384 2391,-897l0 -3537c46,-17 89,-40 128,-70l760 -598c137,-106 199,-282 159,-451l152 -119c94,-73 147,-187 145,-306 -2,-118 -61,-229 -157,-299l-1844 -1321c38,-50 59,-110 59,-173l0 -598c0,-472 -1127,-598 -1793,-598 -666,0 -1793,126 -1793,598l0 598c5,106 60,204 149,263l0 175c0,158 -63,309 -174,421l0 0zm1818 6613c-1258,0 -2092,-426 -2092,-598l0 -5070c0,-159 63,-310 174,-422l311 -311c23,-23 44,-47 64,-72l231 190c-26,33 -54,64 -84,93l-106 107c-39,37 -54,93 -41,145 14,52 55,93 107,107 52,13 108,-2 145,-41l107 -106c36,-36 70,-74 102,-114l2488 2054c68,56 153,87 241,86 85,0 167,-28 234,-79l160 -126c17,7 34,14 51,19l0 3540c0,172 -834,598 -2092,598l0 0zm3095 -5038l-761 598c-26,20 -58,31 -91,31l-1 0c-64,0 -120,-40 -141,-100 -20,-60 -1,-127 49,-166l761 -598c31,-25 71,-36 110,-31 60,7 110,50 126,108 16,58 -4,120 -51,158l-1 0zm342 -634c1,25 -11,49 -31,64l-128 100c-162,-128 -391,-128 -553,0l-334 262 0 -422c0,-238 -95,-465 -262,-634l-311 -311c-100,-102 -160,-236 -170,-379l1755 1256c21,14 34,38 34,64l0 0zm-4884 -1753c-20,-12 -36,-28 -47,-47l0 -243c380,184 1043,243 1494,243 451,0 1114,-59 1494,-243l0 236c-13,24 -32,43 -56,55 -347,139 -649,251 -1438,251 -1064,0 -1431,-247 -1447,-252l0 0zm1447 -944c886,0 1432,191 1492,299 -59,108 -606,299 -1492,299 -900,0 -1449,-197 -1494,-292l0 -2c45,-107 594,-304 1494,-304zm0 1494c455,8 908,-53 1345,-181l0 22c0,237 95,464 262,633l311 311c111,112 174,263 174,422l0 657 -127 100c-163,127 -217,349 -131,536l-136 108c-30,23 -72,22 -101,-2l-2515 -2077c31,-58 57,-118 80,-180 27,-77 -13,-161 -90,-188 -76,-28 -161,10 -190,86 -11,30 -24,58 -37,86l-241 -198c33,-95 51,-194 51,-294l0 -22c437,128 890,189 1345,181l0 0z"/>
   </g>
   <path id="Shape_10" class="fil12" d="M-52748 -2580c-9,0 -19,0 -29,-2 -198,-38 -392,-93 -580,-164 -174,-66 -288,-233 -287,-418l0 -975c0,-82 67,-149 149,-149 83,0 150,67 150,149l0 975c-1,62 38,118 96,140 172,65 349,114 530,148 76,15 128,85 121,161 -8,77 -73,136 -150,135l0 0z"/>
   <circle id="Oval_11" class="fil12" cx="-53495" cy="-4737" r="149"/>
   <path id="Shape_12" class="fil12" d="M-53495 -5185c-82,0 -149,-67 -149,-149l0 -1495c0,-82 67,-149 149,-149 83,0 150,67 150,149l0 1495c0,82 -67,149 -150,149z"/>
  </g>
  <g>
   <g>
    <path id="XMLID_964_" class="fil0" d="M-43281 -9994l0 526c0,595 166,1177 479,1683 176,249 261,425 309,796l-482 244 -494 59c-545,-117 -895,-492 -1094,-615l-451 -123c-959,0 -872,309 -867,274 99,-762 399,-217 730,-2100l-88 -660 1958 -84zm0 0l0 0 0 0z"/>
   </g>
   <path id="XMLID_1534_" class="fil1" d="M-44662 -4260c-235,-234 -235,-615 0,-849l425 -425 424 425c235,234 235,615 0,849 -234,235 -615,235 -849,0z"/>
   <path id="XMLID_431_" class="fil4" d="M-42666 -7869c-298,-481 -455,-1034 -455,-1599l0 -394c186,-65 319,-243 319,-451 0,-263 -215,-478 -479,-478l-1913 0c-264,0 -479,215 -479,478 0,208 134,386 319,451l0 394c0,565 -157,1118 -454,1599 -329,531 -503,1142 -503,1767l0 435c0,88 72,160 160,160 88,0 159,-72 159,-160l0 -435c0,-286 41,-569 119,-840 5,-4 10,-8 14,-13 416,-416 1093,-416 1509,0 270,270 625,405 980,405 282,0 564,-86 804,-257 55,230 83,466 83,705l0 2806c0,194 -158,351 -351,351l-2807 0c-193,0 -351,-157 -351,-351l0 -935c0,-88 -71,-160 -159,-160 -88,0 -160,72 -160,160l0 935c0,370 301,670 670,670l2807 0c369,0 670,-300 670,-670l0 -2806c0,-625 -174,-1236 -502,-1767l0 0zm-2528 -2603l1913 0c88,0 160,71 160,159 0,88 -72,160 -160,160l-1913 0c-88,0 -160,-72 -160,-160 0,-88 72,-159 160,-159l0 0zm1069 3292c-261,-262 -609,-406 -979,-406 -198,0 -389,41 -564,119 40,-80 84,-158 131,-234 329,-531 502,-1142 502,-1767l0 -366 1595 0 0 366c0,625 174,1236 502,1767 111,179 203,369 274,566 -419,370 -1060,355 -1461,-45z"/>
   <path id="XMLID_830_" class="fil4" d="M-43700 -4147c296,-296 296,-779 0,-1075l-425 -425c-62,-62 -163,-62 -225,0l-425 425c-296,296 -296,779 0,1075 144,144 335,223 538,223 203,0 394,-79 537,-223l0 0zm-849 -849l312 -312 312 312c172,172 172,452 0,624 -84,83 -195,129 -312,129 -118,0 -229,-46 -312,-129 -172,-172 -172,-452 0,-624z"/>
   <path id="XMLID_831_" class="fil4" d="M-46151 -4790c42,0 83,-16 113,-46 29,-30 46,-71 46,-113 0,-42 -17,-83 -46,-113 -30,-29 -71,-47 -113,-47 -42,0 -83,18 -113,47 -29,30 -47,71 -47,113 0,42 18,83 47,113 30,30 71,46 113,46z"/>
  </g>
  <path class="fil4" d="M2119 6709c0,89 -72,160 -160,160 -89,0 -160,-71 -160,-160 0,-88 71,-160 160,-160 88,0 160,72 160,160zm0 0z"/>
  <path class="fil4" d="M5639 3349c-778,-3 -1554,64 -2319,201 -284,-553 -766,-1600 -951,-2069 -12,-33 -26,-64 -42,-95 -208,-386 -689,-532 -1077,-326 -383,213 -523,695 -314,1080 16,29 34,58 54,84 235,332 729,1121 1050,1674 -786,303 -1201,692 -1201,1131 -1,15 0,29 1,43 17,1876 1223,3354 3039,3933l0 424c0,446 1347,480 1760,480 412,0 1760,-34 1760,-480l0 -424c1816,-578 3021,-2053 3037,-3917 2,-19 3,-39 3,-59 0,-1091 -2473,-1680 -4800,-1680l0 0zm-4421 -1360c-127,-230 -44,-519 185,-648 232,-122 519,-34 642,197 10,19 18,38 26,57 201,511 744,1687 1021,2210l8 16c8,15 16,30 21,37l169 312c-223,0 -441,67 -626,192l-158 -293c-26,-50 -58,-106 -93,-165 -283,-501 -875,-1459 -1165,-1869 -11,-15 -21,-30 -30,-46l0 0zm3200 2376c61,-6 124,-11 187,-16 80,-6 157,-11 232,-16 -105,165 -217,259 -711,67 97,-13 193,-26 292,-36l0 1zm4696 802c-40,-127 -101,-248 -181,-355 153,57 299,129 438,215 -82,53 -168,100 -257,140l0 0zm-1595 -718l-85 36c-160,83 -335,132 -515,144 -187,0 -242,-80 -346,-259 -6,-10 -12,-20 -17,-29 37,1 75,4 115,8 309,24 591,59 848,100l0 0zm-1418 -176l2 3 1 1c3,3 6,5 9,8 75,71 137,154 183,246 109,186 244,418 623,418 223,-11 442,-69 642,-170 231,-100 432,-186 676,-110 282,102 498,332 583,620 -456,167 -1497,460 -3181,460 -1735,0 -2785,-305 -3254,-485 87,-242 236,-456 433,-620l5 -4c176,-127 394,-178 608,-142l6 0c130,22 257,61 376,117 893,396 1120,172 1326,-163 36,-66 81,-126 131,-181 100,-91 234,-136 369,-122 163,-14 327,30 462,124l0 0zm-4010 862c-64,-32 -125,-68 -185,-107 101,-64 207,-119 316,-166 -49,88 -93,179 -131,273zm110 -956c7,13 17,29 24,42l133 245c-400,144 -699,308 -822,459 -48,59 -48,143 0,202 166,164 364,291 582,374 395,171 1529,568 3521,568 1834,0 2929,-331 3418,-528 253,-88 485,-228 682,-410 51,-59 52,-146 3,-206 -222,-271 -1245,-752 -3042,-895 -48,-5 -98,-8 -144,-10l-48 -3c-37,-3 -75,-5 -103,-6 -32,-3 -65,-5 -97,-6l-23 0c-6,0 -12,0 -18,-1 -185,-124 -406,-185 -628,-175 -193,-8 -383,52 -536,170 -168,6 -339,16 -523,31 -65,5 -131,10 -194,16l-1 0c-257,25 -504,60 -744,100l-162 -300c713,-120 1436,-179 2160,-177 2640,0 4480,717 4480,1360 0,10 0,19 -1,29 -7,73 -34,144 -77,204 -421,642 -2314,1127 -4402,1127 -2089,0 -3981,-485 -4404,-1130 -43,-60 -70,-131 -76,-205 -1,-9 -1,-17 0,-25 0,-291 387,-604 1042,-850l0 0zm4878 5213c-112,73 -615,197 -1440,197 -826,0 -1328,-124 -1440,-197l0 -296c946,231 1934,231 2880,0l0 296zm-1440 -443c-2319,0 -4076,-1323 -4418,-3240 728,600 2443,1000 4418,1000 1974,0 3693,-400 4419,-1001 -336,1912 -2096,3241 -4419,3241zm0 0z"/>
  <path class="fil4" d="M3559 4949c0,89 -72,160 -160,160 -89,0 -160,-71 -160,-160 0,-88 71,-160 160,-160 88,0 160,72 160,160zm0 0z"/>
  <path class="fil4" d="M6119 4949c0,89 -72,160 -160,160 -89,0 -160,-71 -160,-160 0,-88 71,-160 160,-160 88,0 160,72 160,160zm0 0z"/>
  <path class="fil4" d="M6919 5269c0,89 -72,160 -160,160 -89,0 -160,-71 -160,-160 0,-88 71,-160 160,-160 88,0 160,72 160,160zm0 0z"/>
  <path class="fil4" d="M5479 5109c0,89 -72,160 -160,160 -89,0 -160,-71 -160,-160 0,-88 71,-160 160,-160 88,0 160,72 160,160zm0 0z"/>
  <path class="fil4" d="M8039 5109c0,89 -72,160 -160,160 -89,0 -160,-71 -160,-160 0,-88 71,-160 160,-160 88,0 160,72 160,160zm0 0z"/>
  <path class="fil4" d="M5021 8311c-1319,-189 -2120,-771 -2560,-1225 -61,-64 -162,-66 -226,-4 -64,61 -66,163 -4,226 474,491 1336,1118 2745,1320 56,8 113,-15 148,-60 36,-45 44,-105 23,-158 -21,-53 -69,-91 -126,-99l0 0zm0 0z"/>
 </g>
</svg>
