<?xml version="1.0" encoding="UTF-8"?>
<!DOCTYPE svg PUBLIC "-//W3C//DTD SVG 1.1//EN" "http://www.w3.org/Graphics/SVG/1.1/DTD/svg11.dtd">
<!-- Creator: CorelDRAW X7 -->
<svg xmlns="http://www.w3.org/2000/svg" xml:space="preserve" width="9.46057in" height="5.47744in" version="1.1" style="shape-rendering:geometricPrecision; text-rendering:geometricPrecision; image-rendering:optimizeQuality; fill-rule:evenodd; clip-rule:evenodd"
viewBox="0 0 9499 5500"
 xmlns:xlink="http://www.w3.org/1999/xlink">
 <defs>
  <style type="text/css">
   <![CDATA[
    .fil0 {fill:black}
   ]]>
  </style>
 </defs>
 <g id="Layer_x0020_1">
  <metadata id="CorelCorpID_0Corel-Layer"/>
  <g id="_936794416">
   <g>
    <path class="fil0" d="M5398 1477c98,65 211,99 329,99 118,0 232,-35 329,-100 22,-14 37,-36 43,-61 7,-28 10,-58 10,-88 0,-211 -171,-382 -382,-382 -211,0 -382,171 -382,382 0,30 3,59 10,88 6,25 21,47 43,62zm329 -328c98,0 178,80 178,178 0,1 0,1 0,2 -55,28 -115,43 -178,43 -62,0 -123,-15 -178,-43 0,-1 0,-1 0,-2 0,-98 80,-178 178,-178z"/>
    <path class="fil0" d="M5978 2332c7,-28 10,-58 10,-87 0,-211 -171,-383 -382,-383 -211,0 -382,172 -382,383 0,29 3,59 10,88 6,25 21,47 43,61 98,65 211,99 329,99 118,0 232,-34 329,-99 22,-15 37,-36 43,-62zm-194 -86c-55,28 -115,43 -178,43 -62,0 -123,-15 -178,-43 0,0 0,-1 0,-1 0,-99 80,-179 178,-179 98,0 178,80 178,179 0,0 0,1 0,1z"/>
    <path class="fil0" d="M6680 2750c7,-29 11,-59 11,-88 0,-211 -172,-383 -383,-383 -210,0 -382,172 -382,383 0,29 4,59 10,88 6,25 22,47 43,61 98,65 212,99 329,99 118,0 232,-34 330,-99 21,-15 36,-36 42,-61zm-193 -87c-55,28 -116,43 -179,43 -62,0 -123,-15 -178,-43 0,0 0,-1 0,-1 0,-99 80,-179 178,-179 99,0 179,80 179,179 0,0 0,1 0,1z"/>
    <path class="fil0" d="M7108 1559c98,65 212,99 330,99 117,0 231,-34 329,-99 21,-14 37,-36 43,-61 7,-29 10,-59 10,-88 0,-211 -172,-383 -382,-383 -211,0 -383,172 -383,383 0,29 4,59 11,88 6,25 21,47 42,61zm330 -328c98,0 178,80 178,179 0,0 0,1 0,1 -55,29 -116,43 -178,43 -63,0 -124,-14 -179,-43 0,0 0,-1 0,-1 0,-99 80,-179 179,-179z"/>
    <path class="fil0" d="M7151 2052c-211,0 -382,171 -382,382 0,30 3,60 10,88 6,25 21,47 43,62 98,65 212,99 329,99 118,0 232,-34 330,-100 21,-14 36,-36 42,-61 7,-28 11,-58 11,-88 0,-211 -172,-382 -383,-382zm179 384c-55,28 -116,43 -179,43 -62,0 -123,-15 -178,-43 0,-1 0,-1 0,-2 0,-98 80,-178 178,-178 99,0 179,80 179,178 0,1 0,1 0,2z"/>
    <path class="fil0" d="M7773 1960c6,25 21,47 42,62 98,65 212,99 330,99 117,0 231,-34 329,-100 21,-14 37,-36 43,-61 6,-28 10,-58 10,-88 0,-211 -172,-382 -382,-382 -211,0 -383,171 -383,382 0,30 4,60 11,88zm372 -266c98,0 178,80 178,178 0,1 0,1 0,2 -55,28 -116,43 -178,43 -63,0 -124,-15 -179,-43 0,-1 0,-1 0,-2 0,-98 80,-178 179,-178z"/>
    <path class="fil0" d="M7959 2211c-211,0 -383,171 -383,382 0,30 4,59 11,88 6,25 21,47 42,62 98,64 212,99 330,99 117,0 231,-35 329,-100 21,-14 37,-36 43,-61 7,-29 10,-58 10,-88 0,-211 -172,-382 -382,-382zm178 384c-55,28 -116,43 -178,43 -63,0 -124,-15 -179,-43 0,-1 0,-1 0,-2 0,-98 80,-178 179,-178 98,0 178,80 178,178 0,1 0,1 0,2z"/>
    <path class="fil0" d="M6056 2046c6,25 21,47 42,61 98,65 212,100 330,100 117,0 231,-35 329,-100 21,-14 37,-36 43,-61 7,-29 10,-58 10,-88 0,-211 -172,-382 -382,-382 -211,0 -383,171 -383,382 0,30 4,59 11,88zm372 -266c98,0 178,80 178,178 0,0 0,1 0,2 -55,28 -116,42 -178,42 -63,0 -124,-14 -179,-42 0,-1 0,-2 0,-2 0,-98 80,-178 179,-178z"/>
    <path class="fil0" d="M6255 1362c98,65 212,99 329,99 118,0 232,-34 330,-99 21,-15 36,-37 42,-62 7,-28 11,-58 11,-88 0,-210 -172,-382 -383,-382 -211,0 -382,172 -382,382 0,30 3,60 10,88 6,26 22,48 43,62zm329 -328c99,0 179,80 179,178 0,1 0,2 0,2 -55,28 -116,43 -179,43 -62,0 -123,-15 -178,-43 0,0 0,-1 0,-2 0,-98 80,-178 178,-178z"/>
    <path class="fil0" d="M5351 1774c7,-29 11,-59 11,-88 0,-211 -172,-383 -383,-383 -211,0 -382,172 -382,383 0,29 3,59 10,88 6,25 21,47 43,61 98,65 212,99 329,99 118,0 232,-34 329,-99 22,-14 37,-36 43,-61zm-194 -87c-54,29 -115,43 -178,43 -62,0 -123,-14 -178,-43 0,0 0,-1 0,-1 0,-99 80,-179 178,-179 98,0 178,80 178,179 0,0 0,1 0,1z"/>
    <path class="fil0" d="M8607 488c-556,-315 -1294,-488 -2077,-488 -783,0 -1521,173 -2077,488 -575,325 -892,763 -892,1235 0,8 5,157 10,222 -147,-19 -299,-29 -457,-29 -273,0 -553,30 -831,88 -691,146 -1306,456 -1731,873 -437,428 -624,919 -527,1383 157,741 1019,1239 2147,1240l0 0c273,0 552,-30 830,-89 691,-146 1306,-455 1732,-872 110,-108 204,-220 282,-334 457,264 978,403 1514,403 789,0 1531,-297 2091,-837 560,-540 871,-1259 877,-2025 1,-8 1,-16 1,-23 0,-472 -317,-910 -892,-1235zm-3371 2575c-50,-167 -137,-321 -255,-457 13,-7 26,-15 39,-23 21,-15 37,-37 42,-62 7,-28 11,-58 11,-87 0,-211 -172,-383 -383,-383 -110,0 -214,49 -286,130 -139,-67 -292,-121 -456,-164 159,-754 1265,-1332 2582,-1332 704,0 1365,163 1860,460 479,287 742,663 742,1058 0,10 0,21 0,32 -386,585 -1410,1006 -2602,1006 -451,0 -897,-62 -1294,-178zm-367 -628c-14,7 -28,13 -42,18 -70,-61 -148,-117 -233,-169 28,-18 62,-29 96,-29 99,0 179,80 179,179 0,0 0,1 0,1zm-316 -1769c527,-298 1229,-462 1977,-462 748,0 1450,164 1977,462 508,287 788,662 788,1057 0,6 0,12 -1,18 0,41 -4,82 -11,122 -109,-339 -379,-648 -788,-893 -527,-315 -1224,-489 -1965,-489 -708,0 -1383,160 -1901,452 -442,249 -736,574 -851,931 -7,-40 -12,-154 -12,-160 8,-387 287,-756 787,-1038zm-1593 4546c-264,55 -529,83 -788,83l0 0c-1029,0 -1811,-433 -1947,-1077 -175,-829 767,-1733 2101,-2014 264,-56 529,-84 788,-84 1028,0 1811,433 1946,1078 175,829 -767,1732 -2100,2014zm5519 -1588c-521,503 -1213,780 -1949,780 -499,0 -984,-129 -1409,-374 128,-244 183,-496 159,-743 389,104 818,158 1250,158 776,0 1510,-170 2065,-480 237,-133 431,-285 578,-451 -132,415 -368,796 -694,1110z"/>
    <path class="fil0" d="M4649 3424c-417,301 -1142,582 -1939,750 -780,164 -1546,203 -2049,102 -55,-11 -109,25 -120,80 -11,56 25,109 80,120 202,41 437,60 695,60 431,0 926,-55 1436,-162 824,-174 1577,-467 2016,-785 46,-33 56,-97 23,-142 -33,-46 -97,-56 -142,-23z"/>
    <path class="fil0" d="M802 3769c16,11 35,16 53,16 34,0 67,-17 87,-48 5,-8 123,-188 377,-157 56,7 107,-32 114,-88 7,-56 -33,-107 -89,-114 -387,-49 -568,240 -576,252 -29,48 -14,110 34,139z"/>
    <path class="fil0" d="M2039 2670c19,0 38,-6 55,-16 2,-2 270,-168 525,-122 56,10 109,-27 119,-82 10,-56 -27,-109 -82,-119 -335,-61 -658,142 -672,151 -47,30 -61,93 -31,140 19,31 52,48 86,48z"/>
    <path class="fil0" d="M2885 2836c11,0 22,-2 33,-6 54,-19 165,-43 230,-28 55,13 110,-21 122,-76 13,-55 -21,-110 -76,-123 -144,-33 -323,27 -343,34 -53,19 -81,77 -63,130 15,42 54,69 97,69z"/>
    <path class="fil0" d="M3563 3445c14,0 29,-3 43,-10 2,0 198,-89 344,-37 53,19 112,-8 131,-61 19,-53 -9,-112 -62,-131 -228,-81 -489,40 -500,45 -51,24 -73,85 -49,136 18,37 55,58 93,58z"/>
   </g>
   <g>
   </g>
   <g>
   </g>
   <g>
   </g>
   <g>
   </g>
   <g>
   </g>
   <g>
   </g>
   <g>
   </g>
   <g>
   </g>
   <g>
   </g>
   <g>
   </g>
   <g>
   </g>
   <g>
   </g>
   <g>
   </g>
   <g>
   </g>
   <g>
   </g>
  </g>
 </g>
</svg>
