<?xml version="1.0" encoding="UTF-8"?>
<!DOCTYPE svg PUBLIC "-//W3C//DTD SVG 1.1//EN" "http://www.w3.org/Graphics/SVG/1.1/DTD/svg11.dtd">
<!-- Creator: CorelDRAW X7 -->
<svg xmlns="http://www.w3.org/2000/svg" xml:space="preserve" width="6.85677in" height="9.81667in" version="1.1" style="shape-rendering:geometricPrecision; text-rendering:geometricPrecision; image-rendering:optimizeQuality; fill-rule:evenodd; clip-rule:evenodd"
viewBox="0 0 7490 10723"
 xmlns:xlink="http://www.w3.org/1999/xlink">
 <defs>
  <style type="text/css">
   <![CDATA[
    .fil0 {fill:black}
    .fil2 {fill:#90C539}
    .fil1 {fill:#F68100}
   ]]>
  </style>
 </defs>
 <g id="Layer_x0020_1">
  <metadata id="CorelCorpID_0Corel-Layer"/>
  <g id="_996013632">
   <path class="fil0" d="M4716 8053c196,-123 733,-396 1034,-348 282,46 626,352 791,594 -100,-28 -251,-115 -382,-166 -585,-227 -914,-149 -1443,-80zm-3746 233c79,-170 539,-571 808,-584 122,-5 459,88 565,129 226,86 373,191 439,217 -108,2 -316,-57 -463,-66 -721,-44 -938,175 -1349,304zm-365 -725c276,-420 933,-652 1639,-446 455,132 1303,720 1343,898l-3 250 -282 -237c-264,-219 -635,-430 -978,-539 -279,-89 -594,-131 -911,-113 -443,27 -520,120 -808,187zm3300 -1123c12,-931 471,-1442 1421,-1416 -8,941 -463,1422 -1421,1416zm-669 -1062c248,242 336,624 350,1064 -977,-28 -1396,-441 -1422,-1418 444,-18 833,121 1072,354zm675 -449c-40,-396 137,-870 341,-1068 230,-222 643,-360 1074,-349 -4,950 -466,1413 -1415,1417zm-674 -1068c212,206 374,666 344,1071 -974,-32 -1389,-445 -1417,-1420 430,-17 846,130 1073,349zm669 -443c-4,-912 478,-1454 1417,-1417 16,447 -127,827 -348,1066 -215,233 -645,341 -1069,351zm-323 1c-929,-4 -1432,-475 -1417,-1418 417,-16 862,134 1070,345 217,218 356,648 347,1073zm-351 -2624c207,117 241,-162 513,-404 191,141 506,598 506,994 0,366 -297,848 -506,994 -191,-138 -458,-556 -497,-860 -21,-161 6,-240 -155,-290 -96,12 -98,31 -162,79 -26,204 27,336 62,512 -155,-25 -803,-214 -1038,-121 -111,44 -107,153 -108,274 -3,253 29,462 95,695 99,346 168,343 248,524 -221,1 -331,-6 -342,229 -14,294 41,667 151,931 44,104 170,297 184,351 -192,4 -315,-8 -333,191 -35,387 81,943 291,1240 282,398 770,625 1444,625l1 787c-87,-52 -136,-107 -219,-172 -1092,-863 -2508,-990 -3228,316 -304,550 -47,639 186,435 156,-136 452,-337 668,-346 -90,44 -329,374 -392,487 -70,125 -279,528 -187,678 140,226 327,-101 475,-209 547,-402 1257,-565 1924,-331 204,72 707,350 759,462 35,74 14,1081 14,1208 0,302 -62,651 159,651 136,0 158,-102 159,-242l-1 -1223c0,-397 -72,-362 236,-579 838,-588 1980,-489 2668,254 95,102 136,103 268,38 129,-371 -416,-1084 -579,-1194 224,6 522,219 681,356 241,209 511,70 102,-576 -132,-208 -272,-366 -451,-500 -174,-131 -388,-243 -652,-301 -135,-30 -292,-44 -441,-40 -191,4 -274,5 -290,195 88,188 187,112 404,119 401,14 872,243 1037,533 -127,-30 -257,-90 -394,-125 -814,-208 -1704,79 -2317,599 -52,44 -86,64 -135,113 -56,56 -70,75 -135,113 -5,-151 -32,-249 63,-344 319,-319 618,-372 521,-631 -227,-152 -414,159 -587,256l12 -787c656,0 1160,-227 1434,-625 140,-202 230,-478 272,-767 94,-637 -3,-657 -312,-664 15,-70 390,-542 334,-1305 -16,-214 -140,-205 -342,-206 43,-93 99,-153 151,-259 110,-226 351,-1163 69,-1240 -267,-73 -820,87 -1022,125 90,-360 105,-579 -21,-916 -76,-204 -279,-512 -393,-626 -359,-357 -324,-343 -585,-87 -107,105 -157,161 -242,279 -87,121 -160,199 -25,327z"/>
   <path class="fil1" d="M3232 793c-51,164 -116,233 -139,434 161,50 134,129 155,290 39,304 306,722 497,860 209,-146 506,-628 506,-994 0,-396 -315,-853 -506,-994 -272,242 -306,521 -513,404z"/>
   <path class="fil1" d="M3911 4927c949,-4 1411,-467 1415,-1417 -431,-11 -844,127 -1074,349 -204,198 -381,672 -341,1068z"/>
   <path class="fil1" d="M3905 6438c958,6 1413,-475 1421,-1416 -950,-26 -1409,485 -1421,1416z"/>
   <path class="fil1" d="M3906 3416c424,-10 854,-118 1069,-351 221,-239 364,-619 348,-1066 -939,-37 -1421,505 -1417,1417z"/>
   <path class="fil1" d="M3583 3417c9,-425 -130,-855 -347,-1073 -208,-211 -653,-361 -1070,-345 -15,943 488,1414 1417,1418z"/>
   <path class="fil1" d="M3581 4930c30,-405 -132,-865 -344,-1071 -227,-219 -643,-366 -1073,-349 28,975 443,1388 1417,1420z"/>
   <path class="fil1" d="M3586 6440c-14,-440 -102,-822 -350,-1064 -239,-233 -628,-372 -1072,-354 26,977 445,1390 1422,1418z"/>
   <path class="fil2" d="M5241 6945c19,202 -94,204 -240,265 -168,70 -205,70 -303,-52 -45,62 -139,111 -209,130 97,259 -202,312 -521,631 -95,95 -68,193 -63,344 65,-38 79,-57 135,-113 49,-49 83,-69 135,-113 613,-520 1503,-807 2317,-599 137,35 267,95 394,125 -165,-290 -636,-519 -1037,-533 -217,-7 -316,69 -404,-119l-204 34z"/>
   <path class="fil2" d="M605 7561c288,-67 365,-160 808,-187 317,-18 632,24 911,113 343,109 714,320 978,539l282 237 3 -250c-40,-178 -888,-766 -1343,-898 -706,-206 -1363,26 -1639,446z"/>
   <path class="fil2" d="M4716 8053c529,-69 858,-147 1443,80 131,51 282,138 382,166 -165,-242 -509,-548 -791,-594 -301,-48 -838,225 -1034,348z"/>
   <path class="fil2" d="M970 8286c411,-129 628,-348 1349,-304 147,9 355,68 463,66 -66,-26 -213,-131 -439,-217 -106,-41 -443,-134 -565,-129 -269,13 -729,414 -808,584z"/>
   <path class="fil0" d="M4698 7158c98,122 135,122 303,52 146,-61 259,-63 240,-265 -83,-142 -171,-107 -306,-51 -151,62 -243,72 -237,264z"/>
  </g>
 </g>
</svg>
