<?xml version="1.0" encoding="UTF-8"?>
<!DOCTYPE svg PUBLIC "-//W3C//DTD SVG 1.1//EN" "http://www.w3.org/Graphics/SVG/1.1/DTD/svg11.dtd">
<!-- Creator: CorelDRAW X7 -->
<svg xmlns="http://www.w3.org/2000/svg" xml:space="preserve" width="1.80139in" height="2.65745in" version="1.1" style="shape-rendering:geometricPrecision; text-rendering:geometricPrecision; image-rendering:optimizeQuality; fill-rule:evenodd; clip-rule:evenodd"
viewBox="0 0 48 72"
 xmlns:xlink="http://www.w3.org/1999/xlink">
 <defs>
  <style type="text/css">
   <![CDATA[
    .fil0 {fill:#FEFEFE}
   ]]>
  </style>
 </defs>
 <g id="Layer_x0020_1">
  <metadata id="CorelCorpID_0Corel-Layer"/>
  <path class="fil0" d="M14 29c0,2 -7,12 -4,22 1,4 3,7 5,9 1,1 2,2 4,3 0,1 1,1 2,2l2 1c0,0 0,0 0,0 -3,0 -6,-1 -9,-3 0,0 -1,-1 -2,-2 0,0 0,0 -1,0l0 -1c-4,-4 -6,-10 -5,-15 1,-3 1,-4 2,-6 1,-2 2,-4 3,-5 1,-1 2,-4 3,-5zm0 0c0,0 0,0 1,0 0,0 0,0 -1,0zm1 -1l0 1 0 -1zm0 0l0 0zm-15 20c0,6 3,12 7,16 2,2 5,4 7,5 9,5 20,3 27,-4 1,-2 2,-2 3,-4 1,-1 2,-2 2,-3 7,-16 -4,-27 -11,-38 -1,-1 -1,-1 -2,-2 -5,-7 -6,-10 -8,-17 -1,-1 0,0 -1,-1 0,4 -6,14 -9,18l-7 10c-1,1 -1,2 -2,3 -1,2 -4,7 -5,9 0,2 -1,5 -1,8z"/>
 </g>
</svg>
