<?xml version="1.0" encoding="UTF-8"?>
<!DOCTYPE svg PUBLIC "-//W3C//DTD SVG 1.1//EN" "http://www.w3.org/Graphics/SVG/1.1/DTD/svg11.dtd">
<!-- Creator: CorelDRAW X7 -->
<svg xmlns="http://www.w3.org/2000/svg" xml:space="preserve" width="3.07778in" height="2.65745in" version="1.1" style="shape-rendering:geometricPrecision; text-rendering:geometricPrecision; image-rendering:optimizeQuality; fill-rule:evenodd; clip-rule:evenodd"
viewBox="0 0 117 101"
 xmlns:xlink="http://www.w3.org/1999/xlink">
 <defs>
  <style type="text/css">
   <![CDATA[
    .fil0 {fill:#FEFEFE}
   ]]>
  </style>
 </defs>
 <g id="Layer_x0020_1">
  <metadata id="CorelCorpID_0Corel-Layer"/>
  <g id="_909905520">
   <path class="fil0" d="M20 41c-1,3 -10,16 -6,31 2,5 4,10 7,13 2,1 3,3 5,4 1,1 2,1 3,2l3 2c0,0 0,0 1,0 -5,0 -9,-2 -13,-4 -1,-1 -2,-2 -3,-2 -1,-1 -1,-1 -1,-2l-1 -1c-5,-6 -8,-13 -6,-21 1,-4 1,-5 2,-8 1,-2 3,-6 4,-8 1,-1 4,-5 5,-6zm0 0c0,-1 0,0 1,-1 -1,1 0,1 -1,1zm1 -1l0 0 0 0zm0 0l0 0zm-21 27c0,9 4,18 10,24 2,2 6,5 10,7 13,6 28,3 38,-7 2,-2 3,-2 4,-4 1,-2 2,-4 3,-5 10,-23 -6,-38 -16,-53 -1,-2 -1,-3 -2,-4 -7,-10 -8,-13 -12,-24 -1,-1 0,0 -1,-1 0,5 -9,20 -12,25l-11 15c-1,1 -1,2 -2,4 -3,3 -6,9 -7,12 -1,4 -2,7 -2,11z"/>
   <path class="fil0" d="M93 71c-1,2 -5,8 -3,16 0,2 2,4 3,6 1,1 2,1 3,2 0,1 1,1 1,1l2 1c0,0 0,0 0,0 -2,0 -4,-1 -6,-2 -1,0 -1,-1 -2,-1 0,-1 0,-1 0,-1l-1 0c-2,-3 -4,-7 -3,-11 0,-2 1,-3 1,-4 1,-1 2,-3 2,-4 1,-1 2,-3 3,-3zm0 0c0,0 0,0 0,0 0,0 0,0 0,0zm0 -1l0 1 0 -1zm0 0l0 0zm-10 14c0,4 2,9 5,12 1,1 3,3 4,3 7,3 15,2 20,-3 1,-1 1,-1 2,-2 0,-1 1,-2 1,-3 5,-11 -3,-19 -8,-26 0,-1 -1,-1 -1,-2 -3,-5 -4,-7 -6,-12 0,-1 0,0 0,-1 -1,3 -5,10 -7,13l-5 7c0,1 -1,2 -1,2 -1,2 -3,5 -3,7 -1,1 -1,3 -1,5z"/>
  </g>
 </g>
</svg>
