<?xml version="1.0" encoding="UTF-8"?>
<!DOCTYPE svg PUBLIC "-//W3C//DTD SVG 1.1//EN" "http://www.w3.org/Graphics/SVG/1.1/DTD/svg11.dtd">
<!-- Creator: CorelDRAW X7 -->
<svg xmlns="http://www.w3.org/2000/svg" xml:space="preserve" width="3.80139in" height="2.65745in" version="1.1" style="shape-rendering:geometricPrecision; text-rendering:geometricPrecision; image-rendering:optimizeQuality; fill-rule:evenodd; clip-rule:evenodd"
viewBox="0 0 147 103"
 xmlns:xlink="http://www.w3.org/1999/xlink">
 <defs>
  <style type="text/css">
   <![CDATA[
    .fil0 {fill:#FEFEFE}
   ]]>
  </style>
 </defs>
 <g id="Layer_x0020_1">
  <metadata id="CorelCorpID_0Corel-Layer"/>
  <g id="_803209408">
   <path class="fil0" d="M20 42c0,3 -10,16 -5,32 1,5 3,9 7,12 1,2 3,4 5,5 1,1 2,1 3,2l3 1c0,1 0,0 0,1 -5,-1 -8,-2 -12,-4 -1,-1 -2,-2 -4,-3 0,0 0,0 -1,-1l-1 -1c-5,-6 -8,-14 -6,-22 1,-4 1,-5 3,-8 1,-3 2,-6 4,-8 1,-1 3,-5 4,-6zm0 0c1,-1 0,-1 1,-1 0,1 0,0 -1,1zm1 -2l0 1 0 -1zm0 0l0 0zm-21 28c0,9 4,18 10,24 3,3 7,6 10,7 13,7 29,4 39,-6 2,-2 3,-3 4,-5 1,-1 2,-3 3,-5 11,-23 -6,-38 -16,-54 -1,-1 -2,-2 -2,-3 -7,-11 -8,-14 -13,-25 0,-1 1,0 0,-1 -1,5 -9,20 -13,26l-11 15c-1,1 -1,2 -2,4 -2,3 -6,9 -7,12 -1,4 -2,8 -2,11z"/>
   <path class="fil0" d="M98 42c-1,3 -11,16 -6,32 1,5 4,9 7,12 2,2 3,4 5,5 1,1 2,1 3,2l3 1c0,1 0,0 1,1 -5,-1 -9,-2 -13,-4 -1,-1 -2,-2 -3,-3 -1,0 -1,0 -2,-1l-1 -1c-5,-6 -7,-14 -6,-22 1,-4 2,-5 3,-8 1,-3 3,-6 4,-8 1,-1 4,-5 5,-6zm0 0c0,-1 0,-1 0,-1 0,1 0,0 0,1zm1 -2l-1 1 1 -1zm0 0l0 0zm-22 28c0,9 4,18 10,24 3,3 7,6 10,7 14,7 29,4 40,-6 1,-2 2,-3 3,-5 2,-1 3,-3 4,-5 10,-23 -6,-38 -17,-54 -1,-1 -1,-2 -2,-3 -7,-11 -8,-14 -12,-25 -1,-1 0,0 -1,-1 0,5 -9,20 -13,26l-10 15c-1,1 -2,2 -3,4 -2,3 -5,9 -7,12 -1,4 -2,8 -2,11z"/>
  </g>
 </g>
</svg>
