<?xml version="1.0" encoding="UTF-8"?>
<!DOCTYPE svg PUBLIC "-//W3C//DTD SVG 1.1//EN" "http://www.w3.org/Graphics/SVG/1.1/DTD/svg11.dtd">
<!-- Creator: CorelDRAW X7 -->
<svg xmlns="http://www.w3.org/2000/svg" xml:space="preserve" width="5.80139in" height="2.65745in" version="1.1" style="shape-rendering:geometricPrecision; text-rendering:geometricPrecision; image-rendering:optimizeQuality; fill-rule:evenodd; clip-rule:evenodd"
viewBox="0 0 293 134"
 xmlns:xlink="http://www.w3.org/1999/xlink">
 <defs>
  <style type="text/css">
   <![CDATA[
    .fil0 {fill:#FEFEFE}
   ]]>
  </style>
 </defs>
 <g id="Layer_x0020_1">
  <metadata id="CorelCorpID_0Corel-Layer"/>
  <g id="_909903568">
   <path class="fil0" d="M27 55c-1,4 -14,21 -8,41 2,7 5,13 9,17 2,2 4,4 7,6 1,1 2,1 4,2l4 2c0,1 0,0 0,1 -6,-1 -11,-3 -16,-6 -1,0 -3,-2 -4,-3 -1,0 -1,-1 -2,-1l-1 -2c-7,-8 -10,-18 -8,-28 1,-5 2,-7 3,-11 1,-3 4,-7 6,-10 1,-2 4,-7 6,-8zm0 0c0,-1 0,-1 1,-1 -1,1 0,0 -1,1zm1 -2l0 1 0 -1zm0 0l0 0zm-28 36c0,12 5,24 13,32 3,3 9,7 13,9 17,8 38,5 51,-9 3,-2 4,-3 6,-6 1,-2 2,-4 4,-6 13,-30 -8,-51 -22,-71 -1,-1 -2,-3 -3,-5 -9,-13 -10,-17 -16,-32 -1,-1 1,0 -1,-1 0,7 -11,26 -16,34l-14 19c-1,2 -2,3 -4,5 -2,4 -7,13 -8,17 -2,5 -3,9 -3,14z"/>
   <path class="fil0" d="M128 55c-1,4 -14,21 -8,41 2,7 5,13 9,17 3,2 4,4 7,6 1,1 3,1 4,2l4 2c0,1 0,0 0,1 -6,-1 -11,-3 -16,-6 -1,0 -3,-2 -4,-3 -1,0 -1,-1 -2,-1l-1 -2c-7,-8 -10,-18 -8,-28 1,-5 2,-7 3,-11 2,-3 4,-7 6,-10 1,-2 4,-7 6,-8zm0 0c0,-1 0,-1 1,-1 -1,1 0,0 -1,1zm1 -2l0 1 0 -1zm0 0l0 0zm-28 36c0,12 5,24 13,32 4,3 9,7 13,9 18,8 38,5 51,-9 3,-2 4,-3 6,-6 1,-2 3,-4 4,-6 13,-30 -8,-51 -22,-71 -1,-1 -2,-3 -3,-5 -9,-13 -10,-17 -16,-32 0,-1 1,0 -1,-1 0,7 -11,26 -16,34l-14 19c-1,2 -2,3 -3,5 -3,4 -8,13 -9,17 -2,5 -3,9 -3,14z"/>
   <path class="fil0" d="M229 55c-1,4 -14,21 -8,41 2,7 5,13 9,17 3,2 4,4 7,6 2,1 3,1 4,2l4 2c0,1 0,0 1,1 -7,-1 -12,-3 -17,-6 -1,0 -2,-2 -4,-3 -1,0 -1,-1 -2,-1l-1 -2c-7,-8 -10,-18 -8,-28 1,-5 2,-7 3,-11 2,-3 4,-7 6,-10 1,-2 4,-7 6,-8zm0 0c0,-1 0,-1 1,-1 -1,1 0,0 -1,1zm1 -2l0 1 0 -1zm0 0l0 0zm-28 36c0,12 5,24 13,32 4,3 9,7 13,9 18,8 38,5 52,-9 2,-2 3,-3 5,-6 1,-2 3,-4 4,-6 14,-30 -8,-51 -21,-71 -2,-1 -3,-3 -4,-5 -9,-13 -10,-17 -16,-32 0,-1 1,0 -1,-1 0,7 -11,26 -16,34l-14 19c-1,2 -2,3 -3,5 -3,4 -8,13 -9,17 -2,5 -3,9 -3,14z"/>
  </g>
 </g>
</svg>
