<?xml version="1.0" encoding="UTF-8"?>
<!DOCTYPE svg PUBLIC "-//W3C//DTD SVG 1.1//EN" "http://www.w3.org/Graphics/SVG/1.1/DTD/svg11.dtd">
<!-- Creator: CorelDRAW X7 -->
<svg xmlns="http://www.w3.org/2000/svg" xml:space="preserve" width="9.81701in" height="2.69912in" version="1.1" style="shape-rendering:geometricPrecision; text-rendering:geometricPrecision; image-rendering:optimizeQuality; fill-rule:evenodd; clip-rule:evenodd"
viewBox="0 0 1163 320"
 xmlns:xlink="http://www.w3.org/1999/xlink">
 <defs>
  <style type="text/css">
   <![CDATA[
    .fil0 {fill:#FEFEFE}
   ]]>
  </style>
 </defs>
 <g id="Layer_x0020_1">
  <metadata id="CorelCorpID_0Corel-Layer"/>
  <g id="_901369680">
   <path class="fil0" d="M63 128c-3,10 -32,51 -18,97 4,16 11,30 21,40 5,5 10,9 16,14 3,2 6,3 9,6l9 4c1,1 1,0 2,1 -15,-1 -27,-6 -38,-12 -4,-3 -7,-5 -10,-8 -3,-2 -3,-2 -5,-4l-3 -3c-15,-18 -24,-42 -19,-67 3,-11 5,-16 9,-26 3,-6 8,-16 12,-22 3,-5 11,-17 15,-20zm0 0c0,-2 0,-1 2,-2 -1,2 0,1 -2,2zm2 -4l0 2 0 -2zm0 0l0 0zm-65 86c0,26 12,54 31,73 8,8 20,17 30,22 41,19 89,10 120,-21 5,-5 8,-8 12,-14 4,-5 7,-10 10,-16 32,-70 -19,-117 -50,-164 -3,-4 -5,-8 -7,-12 -22,-31 -25,-41 -38,-75 -1,-4 1,-1 -2,-3 -1,17 -27,62 -38,79l-33 46c-3,4 -5,7 -8,12 -7,9 -17,29 -21,39 -3,11 -6,22 -6,34z"/>
   <path class="fil0" d="M300 128c-2,10 -32,51 -18,97 4,16 11,30 21,40 6,5 10,9 16,14 4,2 6,3 10,6l8 4c2,1 1,0 2,1 -15,-1 -26,-6 -38,-12 -4,-3 -7,-5 -10,-8 -2,-2 -3,-2 -4,-4l-3 -3c-16,-18 -24,-42 -19,-67 2,-11 4,-16 8,-26 3,-6 9,-16 13,-22 3,-5 10,-17 14,-20zm0 0c1,-2 0,-1 2,-2 -1,2 0,1 -2,2zm3 -4l-1 2 1 -2zm0 0l0 0zm-66 86c0,26 12,54 31,73 8,8 20,17 31,22 40,19 88,10 120,-21 5,-5 8,-8 12,-14 3,-5 7,-10 9,-16 33,-70 -18,-117 -49,-164 -3,-4 -5,-8 -8,-12 -21,-31 -25,-41 -38,-75 -1,-4 2,-1 -2,-3 -1,17 -27,62 -38,79l-33 46c-3,4 -5,7 -8,12 -6,9 -17,29 -20,39 -4,11 -7,22 -7,34z"/>
   <path class="fil0" d="M538 128c-3,10 -32,51 -19,97 5,16 12,30 22,40 5,5 9,9 16,14 3,2 5,3 9,6l9 4c1,1 1,0 1,1 -15,-1 -26,-6 -38,-12 -3,-3 -6,-5 -10,-8 -2,-2 -2,-2 -4,-4l-3 -3c-15,-18 -24,-42 -19,-67 3,-11 5,-16 9,-26 2,-6 8,-16 12,-22 3,-5 11,-17 15,-20zm0 0c0,-2 -1,-1 1,-2 0,2 0,1 -1,2zm2 -4l-1 2 1 -2zm0 0l0 0zm-65 86c0,26 12,54 30,73 8,8 21,17 31,22 41,19 89,10 120,-21 5,-5 8,-8 12,-14 4,-5 7,-10 10,-16 32,-70 -19,-117 -50,-164 -3,-4 -5,-8 -8,-12 -21,-31 -24,-41 -37,-75 -2,-4 1,-1 -2,-3 -2,17 -27,62 -39,79l-32 46c-3,4 -5,7 -8,12 -7,9 -18,29 -21,39 -4,11 -6,22 -6,34z"/>
   <path class="fil0" d="M775 133c-3,10 -32,51 -18,97 4,16 11,30 21,39 5,6 10,10 16,15 3,2 6,3 9,5l9 5c1,0 1,0 2,1 -15,-1 -26,-6 -38,-12 -4,-3 -7,-5 -10,-8 -2,-2 -3,-2 -5,-4l-3 -3c-15,-18 -23,-42 -18,-67 2,-11 4,-16 8,-26 3,-6 8,-16 12,-22 4,-5 11,-17 15,-20zm0 0c0,-2 0,-1 2,-3 -1,3 0,2 -2,3zm3 -4l-1 1 1 -1zm0 0l0 0zm-66 85c0,27 12,55 31,74 8,8 20,17 30,22 41,19 89,10 121,-21 4,-5 8,-8 12,-14 3,-5 6,-10 9,-16 32,-70 -19,-118 -50,-164 -2,-4 -5,-8 -7,-12 -21,-31 -25,-41 -38,-75 -1,-4 1,-1 -2,-3 -1,17 -27,62 -38,79l-33 46c-3,4 -5,7 -8,11 -7,10 -17,30 -21,40 -3,11 -6,22 -6,33z"/>
   <path class="fil0" d="M1012 133c-2,10 -31,51 -18,97 4,16 12,30 22,39 5,6 9,10 15,15 4,2 6,3 10,5l9 5c1,0 0,0 1,1 -15,-1 -26,-6 -38,-12 -4,-3 -6,-5 -10,-8 -2,-2 -2,-2 -4,-4l-3 -3c-15,-18 -24,-42 -19,-67 2,-11 4,-16 8,-26 3,-6 9,-16 13,-22 3,-5 11,-17 14,-20zm0 0c1,-2 0,-1 2,-3 -1,3 0,2 -2,3zm3 -4l-1 1 1 -1zm0 0l0 0zm-66 85c0,27 12,55 31,74 8,8 21,17 31,22 40,19 88,10 120,-21 5,-5 8,-8 12,-14 3,-5 7,-10 10,-16 32,-70 -19,-118 -50,-164 -3,-4 -5,-8 -8,-12 -21,-31 -25,-41 -37,-75 -2,-4 1,-1 -2,-3 -2,17 -27,62 -39,79l-33 46c-3,4 -5,7 -8,11 -6,10 -17,30 -20,40 -4,11 -7,22 -7,33z"/>
  </g>
 </g>
</svg>
