<?xml version="1.0" encoding="UTF-8"?>
<!DOCTYPE svg PUBLIC "-//W3C//DTD SVG 1.1//EN" "http://www.w3.org/Graphics/SVG/1.1/DTD/svg11.dtd">
<!-- Creator: CorelDRAW X7 -->
<svg xmlns="http://www.w3.org/2000/svg" xml:space="preserve" width="6.12628in" height="8.96667in" version="1.1" style="shape-rendering:geometricPrecision; text-rendering:geometricPrecision; image-rendering:optimizeQuality; fill-rule:evenodd; clip-rule:evenodd"
viewBox="0 0 6681 9779"
 xmlns:xlink="http://www.w3.org/1999/xlink">
 <defs>
  <style type="text/css">
   <![CDATA[
    .fil0 {fill:black}
    .fil1 {fill:black}
   ]]>
  </style>
 </defs>
 <g id="Layer_x0020_1">
  <metadata id="CorelCorpID_0Corel-Layer"/>
  <g id="_090---Milk-Bottle">
   <g>
    <path id="Shape" class="fil0" d="M2130 3732c-429,-22 -852,-101 -1260,-235 -85,-31 -178,13 -209,98 -30,85 14,178 99,209 436,145 889,230 1348,254l11 0c90,3 165,-67 168,-157 3,-90 -67,-166 -157,-169l0 0z"/>
    <path id="Shape_0" class="fil0" d="M3749 3980c9,0 19,0 28,-2 231,-39 458,-97 679,-174 84,-30 128,-124 98,-208 -30,-85 -124,-129 -209,-99 -203,71 -412,124 -625,160 -83,14 -141,90 -134,175 7,84 78,148 163,148l0 0z"/>
    <path id="Shape_1" class="fil0" d="M625 2241l-339 339c-183,184 -285,432 -286,691l0 5530c0,559 1377,978 2608,978 1231,0 2607,-419 2607,-978l0 -3858c51,-18 98,-44 139,-76l830 -652c149,-116 217,-308 173,-492l166 -130c102,-80 161,-203 158,-333 -3,-130 -66,-251 -171,-326l-2012 -1441c42,-54 65,-121 65,-189l0 -652c0,-515 -1229,-652 -1955,-652 -727,0 -1956,137 -1956,652l0 652c6,116 66,222 163,287l0 190c-1,173 -69,338 -190,460l0 0zm1983 7212c-1373,0 -2282,-464 -2282,-652l0 -5530c0,-172 69,-338 190,-460l339 -339c25,-25 48,-51 70,-79l251 208c-28,35 -58,69 -90,101l-116 116c-43,41 -60,102 -45,159 15,57 60,101 117,116 57,15 117,-2 158,-44l116 -115c39,-40 77,-82 112,-125l2713 2240c74,61 167,95 263,94 92,0 182,-30 255,-87l175 -137c18,8 36,15 55,21l0 3861c0,188 -909,652 -2281,652l0 0zm3375 -5495l-830 652c-28,23 -64,35 -100,35l-1 0c-69,0 -130,-45 -153,-110 -22,-65 -1,-138 53,-181l830 -652c34,-26 77,-39 120,-34 66,8 120,55 138,118 18,64 -5,132 -56,172l-1 0zm373 -691c1,28 -12,54 -34,70l-139 109c-177,-140 -427,-140 -603,0l-365 286 0 -461c0,-259 -103,-507 -285,-691l-339 -339c-110,-111 -175,-257 -186,-413l1914 1369c23,16 37,42 37,70l0 0zm-5327 -1912c-21,-12 -39,-30 -51,-51l0 -265c415,201 1137,265 1630,265 492,0 1215,-64 1629,-265l0 258c-14,25 -35,46 -61,60 -379,151 -708,273 -1568,273 -1160,0 -1561,-269 -1579,-275l0 0zm1579 -1029c966,0 1561,208 1627,326 -65,118 -661,326 -1627,326 -981,0 -1580,-215 -1630,-318l0 -3c50,-116 649,-331 1630,-331zm0 1630c496,8 990,-59 1466,-198l0 23c1,259 104,507 286,691l339 339c122,122 190,288 190,460l0 717 -139 109c-177,138 -236,380 -142,585l-149 117c-32,25 -78,25 -110,-2l-2743 -2265c34,-63 63,-129 88,-196 29,-84 -15,-175 -98,-206 -84,-30 -176,12 -208,95 -12,32 -26,63 -40,94l-263 -217c36,-103 55,-211 56,-321l0 -23c476,139 971,206 1467,198l0 0z"/>
   </g>
   <path id="Shape_2" class="fil1" d="M1630 9035c-11,0 -21,-2 -32,-4 -216,-41 -427,-100 -633,-178 -189,-72 -314,-254 -313,-456l0 -1063c0,-90 73,-163 163,-163 90,0 163,73 163,163l0 1063c0,68 42,129 105,153 188,70 381,125 578,161 83,16 140,93 132,176 -9,84 -79,148 -163,148l0 0z"/>
   <circle id="Oval" class="fil1" cx="815" cy="6682" r="163"/>
   <path id="Shape_3" class="fil1" d="M815 6193c-90,0 -163,-73 -163,-163l0 -1630c0,-90 73,-163 163,-163 90,0 163,73 163,163l0 1630c0,90 -73,163 -163,163z"/>
  </g>
 </g>
</svg>
