<?xml version="1.0" encoding="UTF-8"?>
<!DOCTYPE svg PUBLIC "-//W3C//DTD SVG 1.1//EN" "http://www.w3.org/Graphics/SVG/1.1/DTD/svg11.dtd">
<!-- Creator: CorelDRAW X7 -->
<svg xmlns="http://www.w3.org/2000/svg" xml:space="preserve" width="6.66667in" height="6.22243in" version="1.1" style="shape-rendering:geometricPrecision; text-rendering:geometricPrecision; image-rendering:optimizeQuality; fill-rule:evenodd; clip-rule:evenodd"
viewBox="0 0 6622 6181"
 xmlns:xlink="http://www.w3.org/1999/xlink">
 <defs>
  <style type="text/css">
   <![CDATA[
    .fil2 {fill:black}
    .fil1 {fill:#90C539}
    .fil0 {fill:#ECAF4A}
   ]]>
  </style>
 </defs>
 <g id="Layer_x0020_1">
  <metadata id="CorelCorpID_0Corel-Layer"/>
  <g id="_936027136">
   <path class="fil0" d="M5408 2980c206,1 385,-142 431,-342 45,-201 -54,-407 -240,-496 62,-155 29,-332 -84,-456 -114,-123 -288,-170 -448,-122 -40,-186 -195,-325 -385,-345 93,-144 92,-329 -2,-473 -94,-143 -264,-217 -434,-188 -104,-192 -335,-276 -539,-197 -72,-153 -227,-250 -396,-250 -169,0 -323,97 -396,250 -204,-79 -435,5 -539,197 -168,-24 -334,51 -427,192 -94,142 -97,324 -9,469 -189,20 -345,159 -385,345 -39,-12 -79,-18 -120,-19 -145,-1 -282,70 -364,190 -83,119 -101,272 -48,407 -186,89 -285,295 -239,496 45,200 224,343 430,342l4194 0zm0 0z"/>
   <g>
    <path class="fil1" d="M6070 3422l-656 1969c-135,406 -515,680 -943,680l-2402 0c-441,0 -830,-292 -953,-716l-564 -1933 5518 0zm0 0z"/>
    <path class="fil1" d="M4089 1476l387 -1155c28,-81 87,-147 165,-183 78,-35 167,-36 246,-4 79,33 141,98 171,178 29,80 24,169 -14,246l-547 1088 -408 -170zm0 0z"/>
    <path class="fil1" d="M441 2980l5740 0c122,0 221,99 221,221 0,122 -99,221 -221,221l-5740 0c-121,0 -220,-99 -220,-221 0,-122 99,-221 220,-221l0 0zm0 0z"/>
   </g>
   <path class="fil2" d="M0 5960l221 0 0 221 -221 0 0 -221zm0 0z"/>
   <path class="fil2" d="M5728 5497c-10,31 -22,61 -34,90l204 85c15,-34 28,-70 40,-105l556 -1668 -210 -70 -556 1668zm0 0z"/>
   <path class="fil2" d="M5519 5426l631 -1894 31 0c183,0 331,-148 331,-331 0,-183 -148,-331 -331,-331l-334 0c90,-118 129,-268 107,-415 -22,-146 -104,-278 -225,-364 7,-34 10,-69 10,-104 1,-155 -63,-302 -177,-407 -114,-104 -266,-156 -420,-143 -55,-124 -153,-223 -276,-280l277 -550c71,-140 57,-308 -35,-434 -92,-127 -247,-192 -402,-168 -155,24 -284,132 -334,281l-52 157c-6,0 -11,-1 -17,-1 -126,-168 -338,-250 -544,-210 -103,-145 -270,-231 -447,-231 -178,0 -345,86 -448,231 -206,-40 -418,41 -544,210l-2 0c-305,0 -552,247 -552,552 0,50 7,101 21,149 -137,53 -248,159 -307,294 -154,-13 -306,39 -420,143 -113,105 -178,252 -177,407 0,35 4,70 11,104 -122,86 -203,217 -225,364 -23,147 16,297 106,415l-334 0c-182,0 -331,148 -331,331 0,183 149,331 331,331l28 0 541 1854c67,230 208,431 400,574l-969 0 0 221 6181 0 0 -221 -1489 0c180,-134 315,-321 386,-534l0 0zm-938 -5070c23,-71 84,-123 158,-135 73,-11 147,20 191,80 44,61 50,141 15,207l-501 996 -218 -90 355 -1058zm-3698 2183c0,-127 73,-243 188,-297 52,-25 76,-86 56,-139 -15,-37 -23,-76 -23,-116 0,-183 148,-331 331,-331 30,0 61,5 90,14 29,9 61,4 87,-11 26,-16 45,-42 51,-72 30,-140 147,-244 289,-259 38,-4 70,-27 87,-60 17,-34 15,-74 -4,-106 -31,-51 -48,-109 -48,-168 0,-183 148,-332 331,-332 10,1 19,2 29,3l17 2c44,5 87,-17 109,-56 78,-143 250,-206 402,-147 54,20 114,-4 139,-55 54,-115 170,-189 297,-189 127,0 243,74 297,189 25,51 85,75 139,55 152,-59 325,4 403,147 19,34 55,55 94,56l-222 661 -196 -82 -84 204 1018 425 85 -204 -196 -81 117 -235c99,41 170,128 193,232 6,30 25,56 51,72 26,16 58,20 88,12 29,-10 59,-15 89,-15 183,0 332,148 332,331 0,40 -8,79 -23,116 -20,53 4,114 56,139 139,66 214,221 180,371 -35,151 -169,258 -324,257l-4194 0c-183,0 -331,-148 -331,-331zm-552 662c0,-61 50,-110 110,-110l5740 0c61,0 110,49 110,110 0,61 -49,110 -110,110l-5740 0c-60,0 -110,-49 -110,-110l0 0zm1738 2759c-391,-1 -736,-260 -847,-635l-523 -1793 5218 0 -608 1825c-120,360 -457,604 -838,603l-2402 0zm0 0z"/>
   <path class="fil2" d="M1545 1987l0 221c183,0 331,148 331,331l221 0c0,-305 -247,-552 -552,-552zm0 0z"/>
   <path class="fil2" d="M2753 1048c36,179 -81,353 -260,389l43 217c299,-60 493,-351 433,-649l-216 43zm0 0z"/>
   <path class="fil2" d="M4746 2097l-221 0c1,305 247,552 552,552l0 -221c-183,0 -331,-148 -331,-331l0 0zm0 0z"/>
   <path class="fil2" d="M2649 2318l221 0 0 221 -221 0 0 -221zm0 0z"/>
   <path class="fil2" d="M3753 2208l220 0 0 220 -220 0 0 -220zm0 0z"/>
   <path class="fil2" d="M3311 662l221 0 0 221 -221 0 0 -221zm0 0z"/>
  </g>
 </g>
</svg>
