<?xml version="1.0" encoding="UTF-8"?>
<!DOCTYPE svg PUBLIC "-//W3C//DTD SVG 1.1//EN" "http://www.w3.org/Graphics/SVG/1.1/DTD/svg11.dtd">
<!-- Creator: CorelDRAW X7 -->
<svg xmlns="http://www.w3.org/2000/svg" xml:space="preserve" width="4.81689in" height="9.56283in" version="1.1" style="shape-rendering:geometricPrecision; text-rendering:geometricPrecision; image-rendering:optimizeQuality; fill-rule:evenodd; clip-rule:evenodd"
viewBox="0 0 5677 11270"
 xmlns:xlink="http://www.w3.org/1999/xlink">
 <defs>
  <style type="text/css">
   <![CDATA[
    .fil3 {fill:black}
    .fil1 {fill:#90C539}
    .fil2 {fill:#F68100}
    .fil0 {fill:white}
   ]]>
  </style>
 </defs>
 <g id="Layer_x0020_1">
  <metadata id="CorelCorpID_0Corel-Layer"/>
  <g id="_942812640">
   <path class="fil0" d="M1021 9976c0,0 0,-4080 0,-4825 0,-745 458,-1647 458,-1647l993 -2066 -823 0 -994 2066c0,0 -458,902 -458,1647 0,745 0,4825 0,4825 0,0 -78,1111 824,1111 288,0 575,0 824,0 -902,0 -824,-1111 -824,-1111z"/>
   <rect class="fil1" x="263" y="5504" width="5203" height="2445"/>
   <path class="fil2" d="M4656 824c0,340 -275,614 -615,614l-2392 0c-340,0 -615,-274 -615,-614l0 0c0,-340 275,-615 615,-615l2392 0c340,0 615,275 615,615l0 0z"/>
   <g>
    <path class="fil3" d="M5675 5151c0,-784 -457,-1699 -470,-1739l-876 -1830c314,-118 523,-418 523,-758 0,-445 -366,-824 -824,-824l-2379 0c-445,0 -824,366 -824,824 0,353 222,640 523,758l-876 1830c-13,40 -471,955 -471,1739l0 366 0 0 0 0 0 2432 0 0 0 0 0 2000c0,27 -39,654 314,1033 183,196 418,288 706,288l3635 0c287,0 536,-92 706,-288 353,-379 313,-1006 313,-1020l0 -4811 0 0zm-4458 -4327c0,-236 183,-419 419,-419l2392 0c235,0 418,183 418,419 0,235 -183,418 -418,418l-2379 0c-236,0 -432,-183 -432,-418zm-823 4327c0,-680 431,-1556 431,-1569l941 -1948 2144 0 942 1948c0,13 431,876 431,1556l0 170 -4889 0 0 -157zm0 575l4876 0 0 2040 -4876 0 0 -2040zm4680 5008c-105,104 -235,157 -418,157l-3635 0c-183,0 -314,-53 -418,-157 -236,-262 -209,-732 -209,-758l0 -1818 4876 0 0 1831c13,13 39,483 -196,745z"/>
    <path class="fil3" d="M1675 6106l-144 431c-39,144 -92,314 -131,471l0 0c-26,-157 -65,-314 -104,-471l-131 -431 -392 0 -79 1307 275 0 26 -497c13,-157 13,-366 26,-536l0 0c26,170 79,353 118,510l144 510 235 0 157 -510c52,-157 104,-340 144,-510l0 0c0,196 0,379 13,536l13 497 287 0 -65 -1307 -392 0z"/>
    <rect class="fil3" x="2368" y="6106" width="301" height="1307"/>
    <polygon class="fil3" points="3218,6106 2917,6106 2917,7413 3740,7413 3740,7165 3218,7165 "/>
    <path class="fil3" d="M4956 6106l-366 0 -300 431c-27,52 -66,92 -92,144l0 0 0 -575 -288 0 0 1307 288 0 0 -431 118 -144 314 562 339 0 -457 -745 444 -549z"/>
   </g>
   <g>
   </g>
   <g>
   </g>
   <g>
   </g>
   <g>
   </g>
   <g>
   </g>
   <g>
   </g>
   <g>
   </g>
   <g>
   </g>
   <g>
   </g>
   <g>
   </g>
   <g>
   </g>
   <g>
   </g>
   <g>
   </g>
   <g>
   </g>
   <g>
   </g>
  </g>
 </g>
</svg>
