<?xml version="1.0" encoding="UTF-8"?>
<!DOCTYPE svg PUBLIC "-//W3C//DTD SVG 1.1//EN" "http://www.w3.org/Graphics/SVG/1.1/DTD/svg11.dtd">
<!-- Creator: CorelDRAW X7 -->
<svg xmlns="http://www.w3.org/2000/svg" xml:space="preserve" width="8.06909in" height="6.80575in" version="1.1" style="shape-rendering:geometricPrecision; text-rendering:geometricPrecision; image-rendering:optimizeQuality; fill-rule:evenodd; clip-rule:evenodd"
viewBox="0 0 8156 6879"
 xmlns:xlink="http://www.w3.org/1999/xlink">
 <defs>
  <style type="text/css">
   <![CDATA[
    .fil0 {fill:black}
   ]]>
  </style>
 </defs>
 <g id="Layer_x0020_1">
  <metadata id="CorelCorpID_0Corel-Layer"/>
  <path class="fil0" d="M7956 4461c118,-24 200,-124 200,-242l0 -2056c0,-48 -28,-89 -68,-108l0 0 -4006 -1898c-260,-122 -553,-175 -845,-152 -1319,106 -2096,663 -2516,1112 -532,568 -721,1194 -721,1556l0 3576c0,348 283,630 630,630l2599 0c104,0 197,-66 232,-164 73,-207 270,-346 489,-346 220,0 417,139 490,346 35,98 128,164 232,164l3237 0c136,0 247,-111 247,-247l0 -1163c0,-117 -82,-217 -200,-242 -180,-38 -311,-199 -311,-383 0,-184 131,-345 311,-383zm-50 1000c6,1 11,5 11,8l0 1163c0,5 -3,8 -8,8l-3237 0c-3,0 -6,-1 -6,-4 -107,-303 -394,-506 -716,-506 -321,0 -608,203 -715,506 -1,3 -3,4 -6,4l-2599 0c-215,0 -391,-175 -391,-391l0 -3576c0,-215 176,-391 391,-391l5619 0c66,0 119,-53 119,-119 0,-66 -53,-120 -119,-120l-5619 0c-94,0 -184,21 -264,59 125,-309 328,-607 529,-822 391,-418 1118,-937 2361,-1036 251,-20 502,24 724,129l3526 1670 -746 0c-66,0 -120,54 -120,120 0,66 54,119 120,119l1157 0 0 1937c0,4 -5,7 -11,9 -289,61 -499,320 -499,616 0,297 210,556 499,617z"/>
 </g>
</svg>
