<?xml version="1.0" encoding="UTF-8"?>
<!DOCTYPE svg PUBLIC "-//W3C//DTD SVG 1.1//EN" "http://www.w3.org/Graphics/SVG/1.1/DTD/svg11.dtd">
<!-- Creator: CorelDRAW X7 -->
<svg xmlns="http://www.w3.org/2000/svg" xml:space="preserve" width="8.06909in" height="6.80575in" version="1.1" style="shape-rendering:geometricPrecision; text-rendering:geometricPrecision; image-rendering:optimizeQuality; fill-rule:evenodd; clip-rule:evenodd"
viewBox="0 0 8156 6879"
 xmlns:xlink="http://www.w3.org/1999/xlink">
 <defs>
  <style type="text/css">
   <![CDATA[
    .fil1 {fill:black}
    .fil0 {fill:#F68100}
   ]]>
  </style>
 </defs>
 <g id="Layer_x0020_1">
  <metadata id="CorelCorpID_0Corel-Layer"/>
  <g id="_862196160">
  </g>
  <g id="_862228384">
  </g>
  <g id="_862190560">
  </g>
  <g id="_862212192">
  </g>
  <g id="_862212896">
  </g>
  <g id="_862212960">
  </g>
  <g id="_862201088">
  </g>
  <g id="_862211136">
  </g>
  <g id="_862224320">
  </g>
  <g id="_862229728">
  </g>
  <g id="_862197248">
  </g>
  <g id="_862227264">
  </g>
  <g id="_862198016">
  </g>
  <g id="_862222272">
  </g>
  <g id="_862229248">
  </g>
  <g id="_862230880">
  </g>
  <g id="_862222752">
  </g>
  <g id="_862215616">
  </g>
  <g id="_862197792">
  </g>
  <g id="_862210240">
  </g>
  <g id="_862221472">
  </g>
  <g id="_862221888">
  </g>
  <g id="_862223968">
  </g>
  <g id="_862220992">
  </g>
  <g id="_862211168">
  </g>
  <g id="_862230752">
  </g>
  <g id="_862224192">
  </g>
  <g id="_862218336">
  </g>
  <g id="_862203648">
  </g>
  <g id="_862220928">
  </g>
  <g id="_862211104">
  </g>
  <g id="_862231648">
  </g>
  <g id="_862193344">
  </g>
  <g id="_862205088">
  </g>
  <g id="_862211360">
  </g>
  <g id="_862213728">
  </g>
  <g id="_862203680">
  </g>
  <g id="_862181984">
  </g>
  <g id="_862214112">
  </g>
  <g id="_862202080">
  </g>
  <g id="_862212832">
  </g>
  <g id="_862229312">
  </g>
  <g id="_862208320">
  </g>
  <g id="_862208256">
  </g>
  <g id="_862179872">
  </g>
  <g id="_862184512">
  </g>
  <g id="_862183136">
  </g>
  <g id="_862207040">
  </g>
  <g id="_862214368">
  </g>
  <g id="_862224512">
  </g>
  <g id="_862194624">
  </g>
  <g id="_862201344">
  </g>
  <g id="_862227968">
  </g>
  <g id="_862206496">
  </g>
  <g id="_862204192">
  </g>
  <g id="_862231424">
  </g>
  <g id="_862186688">
  </g>
  <g id="_862207872">
  </g>
  <g id="_862175168">
  </g>
  <g id="_862200352">
  </g>
  <path class="fil0" d="M8037 2163l-4006 -1898c-244,-115 -515,-162 -784,-140 -2334,186 -3128,1827 -3128,2548l7918 0 0 -510z"/>
  <path class="fil0" d="M7931 4345c61,-13 106,-64 106,-126l0 -2056 -7407 0c-282,0 -511,228 -511,510l0 3576c0,282 229,511 511,511l2599 0c53,0 101,-34 119,-84 88,-249 324,-427 602,-427 279,0 515,178 603,427 18,50 65,84 119,84l3237 0c71,0 128,-57 128,-128l0 -1163c0,-62 -45,-112 -106,-125 -231,-49 -405,-254 -405,-500 0,-245 174,-451 405,-499zm-6151 1265c0,-211 -172,-383 -384,-383 -211,0 -383,172 -383,383 0,212 172,384 383,384 212,0 384,-172 384,-384zm4469 -382c0,-353 -286,-639 -639,-639 -352,0 -638,286 -638,639 0,352 286,638 638,638 353,0 639,-286 639,-638zm638 -1788c0,-141 -114,-256 -255,-256 -141,0 -255,115 -255,256 0,141 114,255 255,255 141,0 255,-114 255,-255zm-3320 1788c0,-142 -114,-256 -255,-256 -141,0 -255,114 -255,256 0,141 114,255 255,255 141,0 255,-114 255,-255zm1533 -2044c0,-211 -172,-383 -383,-383 -212,0 -383,172 -383,383 0,212 171,383 383,383 211,0 383,-171 383,-383zm-2299 511c0,-353 -286,-638 -638,-638 -353,0 -639,285 -639,638 0,353 286,639 639,639 352,0 638,-286 638,-639z"/>
  <path class="fil1" d="M6212 4983c-64,13 -106,76 -93,141 7,33 11,68 11,103 0,287 -233,519 -519,519 -287,0 -519,-232 -519,-519 0,-286 232,-519 519,-519 72,0 142,15 207,44 61,26 131,-2 157,-62 27,-61 -1,-131 -61,-157 -96,-42 -198,-64 -303,-64 -418,0 -758,341 -758,758 0,418 340,758 758,758 417,0 757,-340 757,-758 0,-50 -5,-101 -15,-151 -13,-65 -76,-106 -141,-93z"/>
  <path class="fil1" d="M2765 3450c-65,13 -107,76 -94,141 7,34 11,69 11,104 0,286 -233,519 -519,519 -287,0 -519,-233 -519,-519 0,-286 232,-519 519,-519 72,0 142,15 207,43 61,27 131,-1 158,-61 26,-61 -2,-131 -62,-158 -96,-42 -198,-63 -303,-63 -418,0 -758,340 -758,758 0,418 340,758 758,758 418,0 758,-340 758,-758 0,-51 -5,-102 -16,-151 -13,-65 -76,-107 -140,-94z"/>
  <path class="fil1" d="M5219 3184c0,-66 -53,-119 -119,-119 -66,0 -120,53 -120,119 0,146 -118,264 -263,264 -146,0 -264,-118 -264,-264 0,-145 118,-263 264,-263 66,0 119,-54 119,-120 0,-66 -53,-119 -119,-119 -277,0 -503,225 -503,502 0,277 226,503 503,503 277,0 502,-226 502,-503z"/>
  <path class="fil1" d="M6632 3065c-207,0 -375,168 -375,375 0,206 168,375 375,375 207,0 375,-169 375,-375 0,-207 -168,-375 -375,-375zm0 511c-75,0 -136,-61 -136,-136 0,-75 61,-136 136,-136 75,0 136,61 136,136 0,75 -61,136 -136,136z"/>
  <path class="fil1" d="M1396 5108c-277,0 -502,225 -502,503 0,277 225,502 502,502 278,0 503,-225 503,-502 0,-278 -225,-503 -503,-503zm0 766c-145,0 -263,-118 -263,-263 0,-146 118,-264 263,-264 146,0 264,118 264,264 0,145 -118,263 -264,263z"/>
  <path class="fil1" d="M3312 4853c-207,0 -375,168 -375,374 0,207 168,375 375,375 207,0 375,-168 375,-375 0,-206 -168,-374 -375,-374zm0 510c-75,0 -136,-61 -136,-136 0,-75 61,-135 136,-135 75,0 136,60 136,135 0,75 -61,136 -136,136z"/>
  <path class="fil1" d="M7956 4461c118,-24 200,-124 200,-242l0 -2056c0,-48 -28,-89 -68,-108l0 0 -4006 -1898c-260,-122 -553,-175 -845,-152 -1319,106 -2096,663 -2516,1112 -532,568 -721,1194 -721,1556l0 3576c0,348 283,630 630,630l2599 0c104,0 197,-66 232,-164 73,-207 270,-346 489,-346 220,0 417,139 490,346 35,98 128,164 232,164l3237 0c136,0 247,-111 247,-247l0 -1163c0,-117 -82,-217 -200,-242 -180,-38 -311,-199 -311,-383 0,-184 131,-345 311,-383zm-50 1000c6,1 11,5 11,8l0 1163c0,5 -3,8 -8,8l-3237 0c-3,0 -6,-1 -6,-4 -107,-303 -394,-506 -716,-506 -321,0 -608,203 -715,506 -1,3 -3,4 -6,4l-2599 0c-215,0 -391,-175 -391,-391l0 -3576c0,-215 176,-391 391,-391l5619 0c66,0 119,-53 119,-119 0,-66 -53,-120 -119,-120l-5619 0c-94,0 -184,21 -264,59 125,-309 328,-607 529,-822 391,-418 1118,-937 2361,-1036 251,-20 502,24 724,129l3526 1670 -746 0c-66,0 -120,54 -120,120 0,66 54,119 120,119l1157 0 0 1937c0,4 -5,7 -11,9 -289,61 -499,320 -499,616 0,297 210,556 499,617z"/>
  <g id="_862194848">
  </g>
  <g id="_862196000">
  </g>
  <g id="_862220448">
  </g>
  <g id="_862167808">
  </g>
  <g id="_862213280">
  </g>
  <g id="_862199136">
  </g>
  <g id="_862193728">
  </g>
  <g id="_862194112">
  </g>
  <g id="_862220608">
  </g>
  <g id="_862192320">
  </g>
  <g id="_862174080">
  </g>
  <g id="_862207232">
  </g>
  <g id="_862219392">
  </g>
  <g id="_862189312">
  </g>
  <g id="_862225120">
  </g>
 </g>
</svg>
