<?xml version="1.0" encoding="UTF-8"?>
<!DOCTYPE svg PUBLIC "-//W3C//DTD SVG 1.1//EN" "http://www.w3.org/Graphics/SVG/1.1/DTD/svg11.dtd">
<!-- Creator: CorelDRAW X7 -->
<svg xmlns="http://www.w3.org/2000/svg" xml:space="preserve" width="5.10416in" height="5.33332in" version="1.1" style="shape-rendering:geometricPrecision; text-rendering:geometricPrecision; image-rendering:optimizeQuality; fill-rule:evenodd; clip-rule:evenodd"
viewBox="0 0 116 121"
 xmlns:xlink="http://www.w3.org/1999/xlink"
 enable-background="new 0 0 512 512">
 <defs>
  <style type="text/css">
   <![CDATA[
    .fil2 {fill:black}
    .fil0 {fill:#90C539}
    .fil1 {fill:#F68100}
   ]]>
  </style>
 </defs>
 <g id="Layer_x0020_1">
  <metadata id="CorelCorpID_0Corel-Layer"/>
  <g id="_836880128">
   <g>
    <g>
     <path class="fil0" d="M89 2l-78 0c-5,0 -9,4 -9,9l0 6c0,2 2,3 3,3l5 0 55 0c1,0 3,-1 3,-3l0 -6c0,-5 3,-9 8,-9l13 0z"/>
    </g>
    <g>
     <path class="fil0" d="M35 34l-9 0c-1,0 -2,1 -2,2l0 9c0,1 1,2 2,2l9 0c2,0 3,-1 3,-2l0 -9c0,-1 -1,-2 -3,-2l0 0z"/>
    </g>
    <g>
     <path class="fil1" d="M71 44l0 35c0,7 1,10 -3,5l-6 -6c-6,-7 -14,2 -9,9l16 21c3,3 5,5 7,7 17,11 38,-2 38,-26l0 -15c0,-7 -11,-7 -11,0l0 -4c0,-4 -3,-6 -5,-6 -3,0 -5,2 -5,6l0 -5c0,-7 -11,-7 -11,0l0 -21c0,-7 -11,-7 -11,0l0 0z"/>
    </g>
    <g>
     <path class="fil2" d="M26 50l9 0c3,0 5,-2 5,-5l0 -9c0,-3 -2,-5 -5,-5l-9 0c-2,0 -4,2 -4,5l0 9c0,3 2,5 4,5zm0 -14l9 0 0 9 -9 0 0 -9z"/>
     <path class="fil2" d="M108 66c-1,0 -2,0 -3,1 -1,-3 -3,-4 -5,-5l0 -51c0,-6 -5,-11 -11,-11l-78 0c-6,0 -11,5 -11,11l0 6c0,3 2,6 5,6l3 0 0 89c0,3 2,5 5,5l63 0c4,3 8,4 13,4 3,0 5,0 8,-1 5,-2 10,-6 14,-11 3,-6 5,-13 5,-20l0 -15c0,-5 -4,-8 -8,-8l0 0zm-96 46l0 -89 22 0c1,0 2,-1 2,-3 0,-1 -1,-2 -2,-2l-29 0c0,0 0,0 0,-1l0 -6c0,-3 3,-6 6,-6l69 0c-1,2 -2,4 -2,6l0 6c0,1 0,1 -1,1l-22 0c-1,0 -2,1 -2,2 0,2 1,3 2,3l22 0c3,0 6,-3 6,-6l0 -6c0,-3 2,-6 6,-6 4,0 6,3 6,6l0 51c0,0 0,0 0,0 -2,-3 -5,-5 -8,-5 -1,0 -2,0 -3,1l0 -14c0,-5 -3,-8 -7,-8 -4,0 -8,3 -8,8l0 35c0,1 0,2 0,3 0,0 0,0 0,0l-5 -6c-4,-3 -8,-4 -12,-1 -3,3 -5,9 -1,13l17 22c0,1 1,2 2,2l-57 0c0,0 -1,0 -1,0l0 0zm99 -23c0,12 -6,23 -16,26 -8,3 -17,0 -24,-8l-16 -21c-2,-3 -1,-6 0,-7 1,-1 2,-1 3,-1 0,0 1,0 2,1l6 6c2,2 4,4 6,3 2,0 2,-2 2,-3 0,-1 0,-2 0,-4 0,0 0,-1 0,-2l0 -35c0,-3 2,-3 3,-3 0,0 3,0 3,3l0 34c0,2 1,3 2,3 1,0 2,-1 2,-3l0 -13c0,-3 3,-3 3,-3 1,0 2,0 2,1 1,0 1,1 1,2l0 13c0,2 1,3 3,3 1,0 2,-1 2,-3l0 -8c0,-3 2,-4 3,-4 1,0 1,1 2,1 0,1 1,2 1,3l0 8c0,2 1,3 2,3 1,0 2,-1 2,-3l0 -4c0,-3 3,-3 3,-3 1,0 2,0 2,1 1,0 1,1 1,2l0 15 0 0z"/>
     <path class="fil2" d="M45 34c0,1 1,2 3,2l18 0c2,0 3,-1 3,-2 0,-2 -1,-3 -3,-3l-18 0c-2,0 -3,1 -3,3z"/>
     <path class="fil2" d="M62 45l-14 0c-2,0 -3,1 -3,2 0,2 1,3 3,3l14 0c2,0 3,-1 3,-3 0,-1 -1,-2 -3,-2l0 0z"/>
     <path class="fil2" d="M24 63l36 0c1,0 2,-1 2,-2 0,-1 -1,-3 -2,-3l-36 0c-1,0 -2,2 -2,3 0,1 1,2 2,2z"/>
     <path class="fil2" d="M24 77l19 0c2,0 3,-1 3,-3 0,-1 -1,-2 -3,-2l-19 0c-1,0 -2,1 -2,2 0,2 1,3 2,3l0 0z"/>
     <path class="fil2" d="M24 90l17 0c1,0 2,-1 2,-2 0,-1 -1,-2 -2,-2l-17 0c-1,0 -2,1 -2,2 0,1 1,2 2,2l0 0z"/>
     <path class="fil2" d="M49 99l-25 0c-1,0 -2,1 -2,3 0,1 1,2 2,2l25 0c1,0 3,-1 3,-2 0,-2 -2,-3 -3,-3l0 0z"/>
     <path class="fil2" d="M45 23l0 0c1,0 2,-1 2,-3 0,-1 -1,-2 -2,-2 -2,0 -3,1 -3,2 0,2 1,3 3,3l0 0z"/>
    </g>
   </g>
  </g>
 </g>
</svg>
