<?xml version="1.0" encoding="UTF-8"?>
<!DOCTYPE svg PUBLIC "-//W3C//DTD SVG 1.1//EN" "http://www.w3.org/Graphics/SVG/1.1/DTD/svg11.dtd">
<!-- Creator: CorelDRAW X7 -->
<svg xmlns="http://www.w3.org/2000/svg" xml:space="preserve" width="5.84781in" height="7.09039in" version="1.1" style="shape-rendering:geometricPrecision; text-rendering:geometricPrecision; image-rendering:optimizeQuality; fill-rule:evenodd; clip-rule:evenodd"
viewBox="0 0 154 187"
 xmlns:xlink="http://www.w3.org/1999/xlink">
 <defs>
  <style type="text/css">
   <![CDATA[
    .fil1 {fill:#80B429}
    .fil5 {fill:#84B232}
    .fil6 {fill:#84B431}
    .fil4 {fill:#85B235}
    .fil2 {fill:#D58019}
    .fil3 {fill:#D87F14}
    .fil0 {fill:#DB7F11}
   ]]>
  </style>
 </defs>
 <g id="Layer_x0020_1">
  <metadata id="CorelCorpID_0Corel-Layer"/>
  <g id="_838004592">
   <path class="fil0" d="M104 92c0,-6 7,-5 7,0 0,4 -7,4 -7,0zm-61 0c0,-5 7,-6 7,0 0,4 -7,4 -7,0zm-15 37c1,2 1,1 2,3 3,0 9,-2 12,-2 12,-3 17,-5 18,-14 1,-4 1,-13 1,-15 2,1 5,4 7,5 11,7 18,0 25,-5l1 15c1,5 1,8 6,10 7,3 16,4 24,6 1,0 1,-1 2,-2 0,-28 1,-65 -6,-91 -3,-11 -6,-17 -11,-25 -10,-13 -33,-18 -46,-11 -3,2 -8,5 -7,9 0,2 4,10 5,11 5,5 17,6 24,10 22,10 23,21 20,43 -1,12 -11,23 -21,28 -12,6 -25,-7 -31,-15 -6,-9 -4,-18 -5,-28 -3,-29 20,-22 6,-50 -11,0 -15,9 -20,18 -3,8 -6,19 -7,30 -1,11 -1,23 -1,35l1 27c1,2 1,6 1,8z"/>
   <path class="fil1" d="M126 130c-1,1 -1,2 -2,2 -1,5 -8,14 -12,17 -21,17 -50,17 -70,0 -1,-1 -2,-1 -3,-2 -2,-3 -8,-11 -9,-15 -1,-2 -1,-1 -2,-3 -1,2 -3,2 -8,4 -1,0 -2,0 -3,1 -9,4 -11,10 -14,19 -1,3 -4,11 -3,13 3,5 18,8 24,9 7,1 9,2 15,4 15,7 29,9 46,8 5,0 15,-3 20,-4l12 -4c13,-6 19,-3 30,-9 0,0 1,0 1,0 0,0 0,0 0,0 0,0 1,-1 1,-1 1,0 1,-1 3,-1 3,-3 2,-4 1,-9l-3 -11c-3,-8 -5,-9 -10,-12 -1,-1 0,-1 -2,-2 -4,-2 -6,-2 -9,-3 -2,-1 -1,-1 -3,-1z"/>
   <path class="fil2" d="M65 88l14 2c13,-1 10,-3 9,-5 -1,0 -10,4 -18,1 -3,-1 -1,-1 -4,-1 -1,1 -1,1 -1,3z"/>
   <path class="fil3" d="M57 61c4,1 10,2 14,0 -1,-7 -6,-7 -11,-4 -2,1 -2,1 -3,4z"/>
   <path class="fil3" d="M83 61c4,2 11,1 14,0 -1,-6 -13,-9 -14,0z"/>
   <path class="fil4" d="M72 79c3,1 7,1 11,0 -3,-5 -9,-6 -11,0z"/>
   <path class="fil5" d="M84 54c1,0 1,0 2,-1l1 0c3,-1 4,-1 8,-1 -1,-3 0,-1 -2,-2 -2,-1 -6,-1 -8,1 -2,1 -1,1 -1,3z"/>
   <path class="fil6" d="M59 52c13,0 9,4 12,0 -4,-3 -9,-3 -12,0z"/>
  </g>
 </g>
</svg>
