<?xml version="1.0" encoding="UTF-8"?>
<!DOCTYPE svg PUBLIC "-//W3C//DTD SVG 1.1//EN" "http://www.w3.org/Graphics/SVG/1.1/DTD/svg11.dtd">
<!-- Creator: CorelDRAW X7 -->
<svg xmlns="http://www.w3.org/2000/svg" xml:space="preserve" width="7.45861in" height="7.12911in" version="1.1" style="shape-rendering:geometricPrecision; text-rendering:geometricPrecision; image-rendering:optimizeQuality; fill-rule:evenodd; clip-rule:evenodd"
viewBox="0 0 233 223"
 xmlns:xlink="http://www.w3.org/1999/xlink">
 <defs>
  <style type="text/css">
   <![CDATA[
    .fil0 {fill:#80B429}
    .fil4 {fill:#81B42A}
    .fil3 {fill:#D58019}
    .fil2 {fill:#D97F14}
    .fil1 {fill:#DB7E12}
   ]]>
  </style>
 </defs>
 <g id="Layer_x0020_1">
  <metadata id="CorelCorpID_0Corel-Layer"/>
  <g id="_836881504">
   <path class="fil0" d="M147 143l-4 0c-5,3 -19,4 -27,4 -9,0 -21,-1 -26,-4l-3 -1c-3,0 -5,0 -7,2 0,0 -1,2 -2,2 0,2 0,1 0,4 -13,3 -26,7 -39,9 -5,1 -8,2 -13,4 -7,4 -2,0 -9,5 -10,6 -16,21 -17,33 5,4 6,5 13,4 3,0 4,1 7,1 3,-1 6,-1 10,-1 12,1 31,22 69,18 23,-3 46,5 72,-4 2,-1 3,-2 7,-3 8,-3 16,-9 26,-11 13,-2 18,4 29,-4 0,-9 -5,-20 -8,-26l-3 -3c0,0 0,-1 0,-1l-6 -4c-4,-2 -8,-4 -13,-5 -5,-2 -7,-2 -13,-4l-28 -7c-6,-2 -2,2 -9,-9l-6 1z"/>
   <path class="fil1" d="M145 39l9 8c2,2 3,3 3,6l0 36c0,21 -10,31 -23,43 -9,9 -27,7 -35,0l-11 -13c-13,-17 -11,-26 -11,-50 0,-8 1,-17 2,-25 2,-10 6,-12 10,-17 8,2 19,13 35,13 5,0 1,-1 6,0 11,3 4,0 9,1 3,1 3,1 7,1l-1 -3zm-58 103l3 1c1,-2 0,-9 0,-14 10,7 7,13 26,13 12,0 15,0 24,-10 3,-2 0,-1 3,-2l0 13 4 0c0,-16 -2,-15 4,-23 13,-20 7,-28 11,-43l5 -35c1,-4 1,-7 1,-11 0,-7 -1,-15 -6,-20 -17,-14 -69,-16 -86,0 -6,6 -7,8 -9,18 -1,9 0,18 1,25 2,9 3,15 4,23 5,24 -4,20 13,45 2,3 2,1 2,6 0,5 0,10 0,14z"/>
   <path class="fil2" d="M100 112c12,0 12,4 20,2 4,-1 5,-1 8,-2 6,-1 10,2 4,-7 -5,1 -2,2 -6,3 -5,2 -12,1 -17,0 -6,-1 -1,-2 -6,-3 -3,2 -3,3 -3,7z"/>
   <path class="fil0" d="M108 97c6,0 12,2 18,-1 -1,-3 0,-3 -3,-4 -3,-2 -9,-2 -13,0 -2,1 -2,1 -2,5z"/>
   <path class="fil2" d="M124 73c6,0 14,1 18,-1 0,-3 1,-2 -4,-5 -5,-2 -5,-2 -10,-2 -2,3 -3,4 -4,8z"/>
   <path class="fil3" d="M90 71c5,3 12,2 19,2 0,-13 -17,-5 -19,-2z"/>
   <path class="fil4" d="M95 59c2,2 7,1 9,0 4,0 4,0 4,-4 -4,-1 -6,-2 -10,0 -3,2 -2,0 -3,4z"/>
   <path class="fil4" d="M125 57c2,2 3,2 5,3 2,0 6,0 9,0 0,-1 0,-1 -1,-2 0,-2 0,-2 -3,-3 -3,-2 3,-1 -6,-1 -2,0 -3,1 -4,3z"/>
  </g>
 </g>
</svg>
