<?xml version="1.0" encoding="UTF-8"?>
<!DOCTYPE svg PUBLIC "-//W3C//DTD SVG 1.1//EN" "http://www.w3.org/Graphics/SVG/1.1/DTD/svg11.dtd">
<!-- Creator: CorelDRAW X7 -->
<svg xmlns="http://www.w3.org/2000/svg" xml:space="preserve" width="4.31036in" height="3.55172in" version="1.1" style="shape-rendering:geometricPrecision; text-rendering:geometricPrecision; image-rendering:optimizeQuality; fill-rule:evenodd; clip-rule:evenodd"
viewBox="0 0 93 76"
 xmlns:xlink="http://www.w3.org/1999/xlink">
 <defs>
  <style type="text/css">
   <![CDATA[
    .fil0 {fill:black}
    .fil1 {fill:#D97F13}
   ]]>
  </style>
 </defs>
 <g id="Layer_x0020_1">
  <metadata id="CorelCorpID_0Corel-Layer"/>
  <g id="_838099120">
   <path class="fil0" d="M7 20c0,4 3,6 7,6l23 0c2,0 2,-2 2,5 0,1 -1,1 -1,2 0,7 1,4 -9,12 -1,0 -1,1 -2,1 0,1 -1,1 -1,1l-6 5c-4,2 -17,12 -18,14 -3,3 -2,7 1,9 4,1 6,-1 8,-2l15 -11c3,-2 14,-11 17,-12 3,-2 5,-1 8,0 10,5 10,2 7,11 -1,3 -4,8 -3,12 2,5 9,4 11,0 1,-3 1,-5 2,-7 1,-2 5,-12 5,-14 0,-5 -2,-6 -6,-8 -3,-2 -7,-3 -10,-5 1,-2 4,-12 5,-13 1,0 1,0 2,0 7,0 15,0 22,0 1,0 2,0 4,-1 5,-3 2,-10 -2,-10l-24 0c-2,0 -4,3 2,3l17 0c2,0 6,0 6,2 0,3 -3,2 -4,2l-21 0c-6,0 -5,0 -7,8 -4,13 -6,10 5,15 2,1 5,2 7,4 2,3 -1,6 -2,9l-4 13c-1,3 -5,3 -5,-1 0,0 1,-3 1,-3 1,-4 4,-9 4,-13 0,-3 -4,-4 -6,-5 -12,-5 -12,-5 -22,3 -4,2 -7,4 -11,7 -2,2 -3,3 -5,4 -1,1 -12,9 -13,9 -2,0 -3,-1 -3,-3 0,-1 3,-3 4,-3l30 -23c5,-4 4,-3 5,-10 0,-3 0,-5 0,-7 1,-4 0,-4 -4,-4l-22 0c-2,0 -6,1 -6,-2 0,-3 5,-2 8,-2 3,0 24,1 26,0 1,-1 0,-3 -1,-3l-31 0c-3,0 -5,3 -5,5z"/>
   <path class="fil1" d="M47 10c0,-2 0,-3 2,-5 4,-4 10,0 10,3 0,3 0,4 -2,6 -4,4 -10,0 -10,-4zm-3 -1c0,10 10,13 16,7 6,-6 0,-16 -6,-16 -3,0 -5,0 -8,3 -1,1 -2,3 -2,6z"/>
  </g>
 </g>
</svg>
