<?xml version="1.0" encoding="UTF-8"?>
<!DOCTYPE svg PUBLIC "-//W3C//DTD SVG 1.1//EN" "http://www.w3.org/Graphics/SVG/1.1/DTD/svg11.dtd">
<!-- Creator: CorelDRAW X7 -->
<svg xmlns="http://www.w3.org/2000/svg" xml:space="preserve" width="6.32532in" height="4.62346in" version="1.1" style="shape-rendering:geometricPrecision; text-rendering:geometricPrecision; image-rendering:optimizeQuality; fill-rule:evenodd; clip-rule:evenodd"
viewBox="0 0 194 142"
 xmlns:xlink="http://www.w3.org/1999/xlink">
 <defs>
  <style type="text/css">
   <![CDATA[
    .fil2 {fill:black}
    .fil0 {fill:#7FB02D}
    .fil5 {fill:#CD8229}
    .fil4 {fill:#D18020}
    .fil3 {fill:#D47F19}
    .fil1 {fill:#D87F15}
   ]]>
  </style>
 </defs>
 <g id="Layer_x0020_1">
  <metadata id="CorelCorpID_0Corel-Layer"/>
  <g id="_836883712">
   <path class="fil0" d="M35 75c0,-15 2,-27 10,-39 3,-3 4,-5 7,-8 2,-1 2,-2 4,-3 5,-4 4,-5 13,-9 19,-10 41,-9 59,2 4,2 10,6 13,9 1,2 2,2 3,4 7,8 10,13 13,23 6,21 0,43 -13,59 -2,2 -2,2 -4,4 -6,5 -8,7 -15,10 -22,13 -54,8 -72,-11 -9,-8 -18,-24 -18,-41zm64 67l-4 0c-5,-1 -10,-1 -16,-3 -4,-1 -7,-2 -12,-4 -6,-2 -15,-9 -19,-14 -5,-5 -11,-12 -14,-19 -6,-12 -7,-21 -7,-34 0,-4 1,-5 1,-8 3,-19 15,-36 30,-46 29,-19 65,-15 89,9 6,6 10,13 14,21 9,17 7,38 -1,56 -2,7 -8,15 -13,20 -4,4 -11,9 -15,12 -10,6 -21,9 -33,10z"/>
   <path class="fil1" d="M63 62c-1,-1 -2,-1 -3,0 0,1 0,2 0,2 0,1 -1,1 -1,2 0,1 2,4 5,5 5,1 9,-9 33,-16 10,-3 23,-2 32,2 4,1 7,3 10,5 11,8 14,11 -5,22 -15,9 -34,8 -50,0l-14 -8c-1,-1 -2,-2 -4,-2 -2,0 -5,1 -7,3l2 1c3,1 0,3 1,5 0,0 3,-3 6,0l15 9c-2,1 -4,1 -6,1 -3,-10 -9,-6 -8,-1 0,2 2,10 7,9 2,0 6,-1 7,-1 3,-1 4,-2 6,-3 3,-1 4,-2 6,-1 5,0 10,2 16,2 14,0 27,-6 37,-15 13,-10 8,-18 -3,-25 -1,-2 -3,-3 -5,-4 -6,-4 -16,-8 -26,-8 -4,0 -4,-1 -6,-2 -2,-1 -4,-2 -6,-3 -4,-2 -7,-4 -13,-5 -7,-2 -9,-2 -12,1 -3,4 -4,7 -4,14 2,2 1,1 5,2 4,-5 1,-4 4,-10 3,0 13,1 15,4 -8,0 -23,8 -30,14 0,0 -1,0 -1,1 -1,1 -2,1 -3,0z"/>
   <path class="fil2" d="M182 81l-2 0 0 -73c2,0 2,0 3,1 2,3 3,7 3,10l0 57c0,2 -2,5 -4,5zm-9 -73l0 122c0,6 7,7 7,-2 0,-1 0,-2 0,-3 0,-2 0,-1 0,-4 0,-6 1,-22 0,-27l0 -3c0,0 0,-1 0,-1 0,-3 3,-1 6,-3 5,-2 8,-6 8,-12l0 -57c0,-4 -2,-9 -4,-11 -7,-11 -17,-8 -17,1z"/>
   <path class="fil2" d="M12 39c-6,-1 -5,-7 -5,-13 0,-6 0,-12 0,-18 -3,-3 -1,-3 -6,-2 -2,6 -1,19 -1,26 0,4 1,7 4,10l1 1c4,3 4,2 7,4l0 86c4,2 3,2 7,0l0 -86c4,-2 12,-4 12,-16l0 -21c0,-4 -2,-4 -4,-4 -3,0 -2,4 -2,7 0,10 1,25 -6,26 0,-9 1,-25 -1,-33 -1,0 -2,-1 -3,-1 -1,1 -2,2 -3,3 0,2 0,28 0,31z"/>
   <path class="fil2" d="M53 100c0,4 11,14 16,17 21,13 50,9 66,-9 1,-1 1,0 1,-1 1,-1 7,-7 2,-8 -3,-1 -3,1 -6,5 -6,7 -22,15 -32,15 -11,0 -20,-1 -29,-8 -12,-8 -11,-12 -15,-14 -2,0 -3,1 -3,3z"/>
   <path class="fil2" d="M53 43c0,3 2,6 6,0 13,-20 47,-26 68,-7 2,1 3,1 4,3 2,2 2,3 4,3 12,0 -24,-39 -65,-16 -3,2 -7,5 -10,7 -1,2 -7,8 -7,10z"/>
   <path class="fil3" d="M65 80c-1,-3 0,-2 -3,-3 0,-2 -1,-2 -5,1 -2,2 -3,2 -5,3 0,-3 0,-5 0,-9 0,-4 0,-5 0,-9 4,1 4,2 8,5 1,-1 1,0 3,1 0,-2 0,-1 0,-2 0,-1 1,-1 1,-2 1,-1 0,1 1,-1 -3,0 -2,0 -2,-1 -2,-5 -7,-6 -9,-7 -2,-1 -5,-2 -7,-2 -9,-1 -2,9 -2,17 0,4 0,6 -1,8 -1,3 -2,5 -2,7 1,7 13,1 17,-1 3,-1 4,-1 4,-5l2 0z"/>
   <path class="fil4" d="M112 72c0,11 9,17 9,10 0,-2 -8,-7 -1,-18 1,-1 1,-2 1,-3 0,-7 -9,0 -9,11z"/>
   <path class="fil5" d="M127 66c0,0 2,7 6,3 4,-3 1,-5 -2,-6l-4 3z"/>
  </g>
 </g>
</svg>
