<?xml version="1.0" encoding="UTF-8"?>
<!DOCTYPE svg PUBLIC "-//W3C//DTD SVG 1.1//EN" "http://www.w3.org/Graphics/SVG/1.1/DTD/svg11.dtd">
<!-- Creator: CorelDRAW X7 -->
<svg xmlns="http://www.w3.org/2000/svg" xml:space="preserve" width="5.16094in" height="5.16094in" version="1.1" style="shape-rendering:geometricPrecision; text-rendering:geometricPrecision; image-rendering:optimizeQuality; fill-rule:evenodd; clip-rule:evenodd"
viewBox="0 0 6129 6129"
 xmlns:xlink="http://www.w3.org/1999/xlink">
 <defs>
  <style type="text/css">
   <![CDATA[
    .str0 {stroke:#FEFEFE;stroke-width:116.889}
    .fil0 {fill:#FEFEFE}
    .fil1 {fill:#010000}
   ]]>
  </style>
 </defs>
 <g id="Layer_x0020_1">
  <metadata id="CorelCorpID_0Corel-Layer"/>
  <g id="_907674624">
   <circle class="fil0 str0" cx="3065" cy="3065" r="3006"/>
   <g>
    <path class="fil1" d="M4342 2980l0 0zm22 -22l-22 22 22 -22zm-2467 -176l7 6c0,0 -9,-4 -7,-6zm-22 -66l26 43 -26 -43zm2489 242c16,-63 133,-231 30,-470 -33,-75 -66,-116 -124,-163 -61,-50 -106,-57 -177,-87 -4,-1 -11,-4 -16,-7 224,0 342,89 413,248 75,168 11,442 -126,479zm-1784 -903l0 0zm-705 661c-28,-41 -40,-45 -45,-154 -3,-61 -3,-132 10,-190 55,-262 392,-475 698,-340 54,24 17,6 42,23 -134,-3 -165,-44 -314,-6 -105,26 -166,79 -232,143 -213,209 -159,313 -159,524zm67 -881c-356,-83 -463,161 -463,484 -184,89 -330,142 -330,463 0,258 297,572 638,572 247,0 466,-255 485,-484 67,49 245,572 748,572 447,0 673,-73 874,-448 1,-3 4,-10 7,-14 6,245 166,528 419,528 326,0 660,-198 660,-484 0,-193 -151,-426 -330,-440 16,-190 118,-514 -292,-589 -175,-32 -135,9 -208,-122 -224,-402 -750,-523 -1196,-523 -430,0 -1003,81 -1012,485z"/>
    <path class="fil1" d="M3175 3971c0,-56 35,-4 13,0 -1,0 -13,61 -13,0zm-1035 -683c83,96 151,218 195,333 48,127 97,286 113,438 14,133 3,410 23,527 47,266 647,227 741,61 6,-10 21,-62 22,-66 68,-227 165,-440 310,-615 120,-146 325,-364 511,-413 -37,-142 -171,-189 -176,-419 -128,94 31,148 -388,339 -118,54 -174,253 -250,388l-16 28c-27,41 -9,16 -28,38 2,-114 62,-288 88,-397l-507 -22c0,177 -44,284 -44,485 -68,-79 -33,-94 -66,-287 -78,-465 -53,-214 -246,-458 -52,-66 -88,-156 -150,-202 -27,116 -78,161 -132,242z"/>
   </g>
  </g>
 </g>
</svg>
