<?xml version="1.0" encoding="UTF-8"?>
<!DOCTYPE svg PUBLIC "-//W3C//DTD SVG 1.1//EN" "http://www.w3.org/Graphics/SVG/1.1/DTD/svg11.dtd">
<!-- Creator: CorelDRAW X7 -->
<svg xmlns="http://www.w3.org/2000/svg" xml:space="preserve" width="5.16094in" height="5.16094in" version="1.1" style="shape-rendering:geometricPrecision; text-rendering:geometricPrecision; image-rendering:optimizeQuality; fill-rule:evenodd; clip-rule:evenodd"
viewBox="0 0 1642 1642"
 xmlns:xlink="http://www.w3.org/1999/xlink">
 <defs>
  <style type="text/css">
   <![CDATA[
    .str0 {stroke:#FEFEFE;stroke-width:31.3122}
    .fil0 {fill:none}
    .fil1 {fill:#FEFEFE}
   ]]>
  </style>
 </defs>
 <g id="Layer_x0020_1">
  <metadata id="CorelCorpID_0Corel-Layer"/>
  <g id="_901992208">
   <circle class="fil0 str0" cx="821" cy="821" r="805"/>
   <g>
    <path class="fil1" d="M1163 798l0 0zm6 -6l-6 6 6 -6zm-661 -47l2 2c0,0 -2,-1 -2,-2zm-6 -18l7 12 -7 -12zm667 65c4,-16 36,-62 8,-126 -9,-20 -18,-31 -33,-43 -16,-13 -29,-15 -48,-23 -1,-1 -2,-1 -4,-2 60,0 92,23 111,66 20,45 3,119 -34,128zm-478 -241l0 0zm-189 176c-7,-11 -10,-12 -12,-41 -1,-16 -1,-35 3,-51 15,-70 105,-127 187,-91 14,7 4,2 11,7 -36,-1 -44,-12 -84,-2 -28,7 -44,21 -62,38 -57,56 -43,84 -43,140zm18 -235c-95,-23 -124,43 -124,129 -49,24 -88,38 -88,124 0,69 79,154 171,154 66,0 124,-69 130,-130 18,13 65,153 200,153 120,0 180,-19 234,-120 0,-1 1,-3 2,-4 2,66 45,142 112,142 87,0 177,-53 177,-130 0,-52 -41,-114 -88,-118 4,-51 31,-137 -79,-158 -46,-8 -36,3 -55,-32 -60,-108 -201,-140 -321,-140 -115,0 -268,21 -271,130z"/>
    <path class="fil1" d="M850 1064c0,-15 10,-1 4,0 0,0 -4,16 -4,0zm-277 -183c22,25 41,58 53,89 12,34 26,77 30,117 4,36 1,110 6,142 12,71 173,60 198,16 2,-3 6,-17 6,-18 18,-61 44,-118 83,-165 32,-39 87,-97 137,-110 -10,-38 -45,-51 -47,-112 -34,25 8,39 -104,90 -32,15 -46,68 -67,104l-4 8c-7,11 -2,4 -8,10 1,-31 17,-77 24,-106l-136 -6c0,47 -12,76 -12,130 -18,-21 -8,-25 -17,-77 -21,-125 -14,-57 -66,-123 -14,-18 -24,-42 -40,-54 -8,31 -21,43 -36,65z"/>
   </g>
  </g>
 </g>
</svg>
