<?xml version="1.0" encoding="UTF-8"?>
<!DOCTYPE svg PUBLIC "-//W3C//DTD SVG 1.1//EN" "http://www.w3.org/Graphics/SVG/1.1/DTD/svg11.dtd">
<!-- Creator: CorelDRAW X7 -->
<svg xmlns="http://www.w3.org/2000/svg" xml:space="preserve" width="5.16094in" height="5.16094in" version="1.1" style="shape-rendering:geometricPrecision; text-rendering:geometricPrecision; image-rendering:optimizeQuality; fill-rule:evenodd; clip-rule:evenodd"
viewBox="0 0 5358 5358"
 xmlns:xlink="http://www.w3.org/1999/xlink">
 <defs>
  <style type="text/css">
   <![CDATA[
    .str0 {stroke:#FEFEFE;stroke-width:102.189}
    .fil0 {fill:#FEFEFE}
    .fil1 {fill:#010000}
   ]]>
  </style>
 </defs>
 <g id="Layer_x0020_1">
  <metadata id="CorelCorpID_0Corel-Layer"/>
  <g id="_907673120">
   <circle class="fil0 str0" cx="2679" cy="2679" r="2628"/>
   <path class="fil1" d="M1202 1557c0,54 0,114 14,166l7 30c6,34 19,68 30,101l45 104c14,24 25,49 41,72 6,9 13,12 18,20 -6,8 -12,14 -19,22 -3,5 -5,8 -8,13 -20,32 -34,67 -43,103 -2,7 -4,10 -4,17 -1,10 -1,11 -3,19 -3,14 -4,63 -4,81 0,22 4,35 7,55 7,51 27,98 46,145l59 133c9,22 23,41 32,63 4,8 6,14 10,22l28 51c3,4 4,6 6,11l57 102c15,27 33,52 49,79 5,8 8,11 13,19l24 37c5,7 7,12 13,19l52 75c22,33 72,92 98,126l58 69c4,4 4,5 7,8l196 204c6,5 10,10 16,16 7,6 11,8 17,14l93 80c4,4 5,4 9,8 7,6 11,9 18,14l98 76c24,17 63,45 86,59 8,4 12,8 19,12 4,2 6,4 10,6 3,2 1,1 5,3l25 16c13,8 25,16 39,24 41,25 90,54 133,73l54 27c23,13 63,29 88,40 52,23 108,40 162,61 8,3 15,5 24,8l98 29c9,2 19,4 27,5 16,4 35,12 50,14 30,3 75,16 106,21 19,3 38,3 56,8 16,4 68,11 83,10 9,-1 16,2 26,4l214 8c20,0 76,-12 99,-18 29,-8 58,-19 86,-31l66 -34c45,-24 86,-58 125,-92 0,0 0,-1 1,-1l4 -4c57,-47 135,-149 160,-216 45,-121 36,-164 -25,-291 -12,-24 -24,-48 -39,-71l-28 -40c-2,-4 -4,-6 -6,-9l-31 -39c-19,-23 -42,-43 -63,-62 -18,-17 -54,-40 -76,-51l-30 -14c-4,-1 -5,-2 -9,-4 -14,-4 -28,-10 -43,-12 -26,-2 -25,-6 -57,-6 -69,0 -130,4 -198,4l-23 0c-26,-3 -55,-3 -81,-3l-132 -12c-9,-1 -17,-1 -27,-2 -8,-1 -16,-3 -26,-4 -10,-2 -18,-1 -24,-2 -24,-5 -50,-7 -75,-12 -6,-2 -6,-2 -11,-3 -12,-3 -8,2 -28,-5l-88 -18c-18,-3 -19,-7 -36,-9 -17,-3 -33,-9 -50,-13l-113 -34c-7,-2 -7,-4 -15,-6 -1,0 -1,0 -2,0l-140 -54c-39,-18 -79,-35 -116,-56l-191 -113c-33,-22 -83,-62 -115,-89l-15 -12c-1,-1 -1,-1 -1,-1l-25 -22c-5,-4 -8,-8 -12,-12l-147 -155c-7,-8 -12,-17 -19,-25 -7,-9 -12,-16 -19,-24 -20,-22 -85,-128 -101,-158l-51 -100c-32,-57 -56,-90 -103,-137 -15,-15 -30,-26 -46,-39 -17,-14 -35,-23 -54,-33 -31,-15 -63,-27 -98,-32 -40,-6 -43,-1 -76,-1 -4,-16 -14,-30 -21,-44l-64 -138c-2,-4 -3,-6 -5,-11l-11 -39c-3,-10 -5,-17 -8,-27 -1,-4 -2,-8 -4,-13l-5 -28c-1,-6 -1,-9 -2,-15 -2,-10 -5,-19 -5,-29 -4,-79 -6,-42 0,-117 6,-83 40,-157 91,-222 21,-27 15,-76 -20,-92 -28,-13 -64,-10 -82,18l-34 47c-16,23 -30,48 -41,74 -4,8 -7,13 -10,22 -3,7 -6,14 -9,23 -5,14 -11,34 -15,50 -7,31 -16,86 -16,116z"/>
  </g>
 </g>
</svg>
