<?xml version="1.0" encoding="UTF-8"?>
<!DOCTYPE svg PUBLIC "-//W3C//DTD SVG 1.1//EN" "http://www.w3.org/Graphics/SVG/1.1/DTD/svg11.dtd">
<!-- Creator: CorelDRAW X7 -->
<svg xmlns="http://www.w3.org/2000/svg" xml:space="preserve" width="5.16094in" height="5.16094in" version="1.1" style="shape-rendering:geometricPrecision; text-rendering:geometricPrecision; image-rendering:optimizeQuality; fill-rule:evenodd; clip-rule:evenodd"
viewBox="0 0 1642 1642"
 xmlns:xlink="http://www.w3.org/1999/xlink">
 <defs>
  <style type="text/css">
   <![CDATA[
    .str0 {stroke:#FEFEFE;stroke-width:31.3122}
    .fil0 {fill:none}
    .fil1 {fill:#FEFEFE}
   ]]>
  </style>
 </defs>
 <g id="Layer_x0020_1">
  <metadata id="CorelCorpID_0Corel-Layer"/>
  <g id="_800455584">
   <circle class="fil0 str0" cx="821" cy="821" r="805"/>
   <path class="fil1" d="M368 477c0,17 0,35 5,51l2 9c2,11 6,21 9,31l14 32c4,7 7,15 12,22 2,3 4,4 6,6 -2,2 -4,4 -6,7 -1,1 -1,2 -2,4 -7,10 -11,20 -14,32 0,2 -1,2 -1,5 0,3 0,3 -1,6 -1,4 -1,19 -1,24 0,7 1,11 2,17 2,16 8,30 14,45l18 40c3,7 7,13 10,20 1,2 2,4 3,6l9 16c1,1 1,2 2,3l17 32c5,8 10,16 15,24 2,2 3,3 4,6l8 11c1,2 2,4 3,6l16 23c7,10 22,28 30,38l18 22c1,1 1,1 2,2l60 62c2,2 4,3 5,5 2,2 4,3 6,5l28 24c1,1 1,1 3,3 2,1 3,2 5,4l30 23c7,5 19,14 27,18 2,2 3,3 6,4 1,1 1,1 2,2 1,0 1,0 2,1l8 5c4,2 7,4 12,7 12,8 27,16 40,22l17 9c7,4 19,8 27,12 16,7 33,12 49,19 3,0 5,1 8,2l30 9c3,0 6,1 8,2 5,1 11,3 16,4 9,1 22,5 32,6 6,1 12,1 17,3 5,1 21,3 26,3 2,-1 5,0 8,1l65 2c6,0 23,-3 30,-5 9,-2 18,-6 27,-10l20 -10c14,-8 26,-18 38,-28 0,0 0,0 1,-1l1 -1c17,-14 41,-45 49,-66 14,-37 11,-50 -8,-89 -3,-7 -7,-15 -12,-22l-8 -12c-1,-1 -1,-2 -2,-3l-10 -12c-5,-7 -12,-13 -19,-19 -6,-5 -16,-12 -23,-15l-9 -5c-2,0 -2,0 -3,-1 -4,-1 -9,-3 -13,-4 -8,0 -8,-2 -18,-2 -21,0 -40,2 -61,2l-6 0c-8,-1 -18,-1 -25,-1l-41 -4c-2,0 -5,0 -8,-1 -3,0 -5,0 -8,-1 -3,0 -6,0 -7,0 -8,-2 -16,-3 -23,-4 -2,-1 -2,-1 -4,-1 -4,-1 -2,1 -8,-1l-27 -6c-6,-1 -6,-2 -11,-3 -5,-1 -10,-3 -16,-4l-34 -10c-2,-1 -2,-1 -5,-2 0,0 0,0 -1,0l-42 -16c-12,-6 -25,-11 -36,-18l-58 -34c-11,-7 -26,-19 -36,-27l-4 -4c0,0 -1,-1 -1,-1l-7 -6c-2,-2 -3,-3 -4,-4l-45 -47c-2,-3 -4,-6 -6,-8 -2,-3 -3,-5 -6,-7 -6,-7 -26,-40 -31,-49l-15 -30c-10,-18 -17,-28 -32,-43 -4,-4 -9,-8 -14,-12 -5,-4 -11,-7 -17,-10 -9,-4 -19,-8 -29,-9 -13,-2 -14,-1 -24,-1 -1,-5 -4,-9 -6,-13l-20 -43c0,-1 -1,-1 -1,-3l-4 -12c-1,-3 -1,-5 -2,-8 0,-1 -1,-2 -1,-4l-2 -9c0,-2 0,-2 0,-4 -1,-3 -2,-6 -2,-9 -1,-24 -2,-13 0,-36 2,-25 12,-48 28,-68 6,-8 4,-23 -6,-28 -9,-4 -20,-3 -25,5l-11 15c-5,7 -9,14 -12,22 -2,3 -2,4 -3,7 -1,2 -2,5 -3,7 -2,5 -4,11 -5,16 -2,9 -5,26 -5,35z"/>
  </g>
 </g>
</svg>
