<?xml version="1.0" encoding="UTF-8"?>
<!DOCTYPE svg PUBLIC "-//W3C//DTD SVG 1.1//EN" "http://www.w3.org/Graphics/SVG/1.1/DTD/svg11.dtd">
<!-- Creator: CorelDRAW X7 -->
<svg xmlns="http://www.w3.org/2000/svg" xml:space="preserve" width="5.16094in" height="5.16094in" version="1.1" style="shape-rendering:geometricPrecision; text-rendering:geometricPrecision; image-rendering:optimizeQuality; fill-rule:evenodd; clip-rule:evenodd"
viewBox="0 0 6071 6071"
 xmlns:xlink="http://www.w3.org/1999/xlink">
 <defs>
  <style type="text/css">
   <![CDATA[
    .str0 {stroke:#FEFEFE;stroke-width:115.773}
    .fil0 {fill:#FEFEFE}
    .fil1 {fill:#010000}
   ]]>
  </style>
 </defs>
 <g id="Layer_x0020_1">
  <metadata id="CorelCorpID_0Corel-Layer"/>
  <g id="_801113760">
   <circle class="fil0 str0" cx="3035" cy="3035" r="2977"/>
   <g>
    <path class="fil1" d="M1980 4932l1197 0c57,0 55,-19 110,-31 -109,-162 -244,-111 -535,-111 -802,0 -926,88 -929,-362l-62 -898c-1,-201 249,-50 677,-297 257,-148 344,-242 630,-346 384,-139 335,-42 329,124l-16 268c20,0 138,-12 139,-12 35,-21 17,-112 18,-161 4,-157 68,-576 40,-683 -26,-96 -98,-167 -212,-167l-1622 0c-216,0 -196,274 -177,414l108 1734c16,109 -38,528 305,528z"/>
    <path class="fil1" d="M3696 4901l142 0c343,0 677,-358 677,-709 -7,-213 -38,-347 -110,-456 -94,2 -116,31 -237,31 0,123 -19,244 -107,288 -108,53 -203,-23 -286,-67 -54,14 -105,62 -179,72 -127,17 -174,-91 -190,-192 -9,-56 2,-84 -33,-108 -15,-11 -193,-40 -228,-40 -128,242 -202,470 -53,777 104,213 360,404 604,404z"/>
    <path class="fil1" d="M3665 3421c-67,-2 -121,-32 -158,-32 -153,0 -260,95 -393,126 5,69 21,71 168,100 61,12 171,11 257,11 -23,99 -27,225 16,314 86,-7 184,-67 204,-141 50,13 289,339 284,-16 -2,-227 -60,-97 243,-150 102,-18 160,-29 166,-102 -181,-42 -311,-201 -567,-79l0 -330c-88,0 -169,-30 -252,-32 0,124 51,240 32,331z"/>
    <path class="fil1" d="M1634 1170c5,64 45,173 63,236 23,82 47,154 72,243 27,97 131,414 133,481l141 0c-6,-73 -277,-925 -283,-991 -69,0 -84,6 -126,31z"/>
   </g>
  </g>
 </g>
</svg>
