<?xml version="1.0" encoding="UTF-8"?>
<!DOCTYPE svg PUBLIC "-//W3C//DTD SVG 1.1//EN" "http://www.w3.org/Graphics/SVG/1.1/DTD/svg11.dtd">
<!-- Creator: CorelDRAW X7 -->
<svg xmlns="http://www.w3.org/2000/svg" xml:space="preserve" width="5.16094in" height="5.16094in" version="1.1" style="shape-rendering:geometricPrecision; text-rendering:geometricPrecision; image-rendering:optimizeQuality; fill-rule:evenodd; clip-rule:evenodd"
viewBox="0 0 1642 1642"
 xmlns:xlink="http://www.w3.org/1999/xlink">
 <defs>
  <style type="text/css">
   <![CDATA[
    .str0 {stroke:#FEFEFE;stroke-width:31.3122}
    .fil0 {fill:none}
    .fil1 {fill:#FEFEFE}
   ]]>
  </style>
 </defs>
 <g id="Layer_x0020_1">
  <metadata id="CorelCorpID_0Corel-Layer"/>
  <g id="_902003440">
   <circle class="fil0 str0" cx="821" cy="821" r="805"/>
   <g>
    <path class="fil1" d="M536 1334l323 0c16,0 15,-5 30,-9 -29,-43 -66,-29 -145,-29 -217,0 -250,23 -251,-98l-17 -243c0,-55 68,-14 183,-81 70,-40 93,-65 171,-93 104,-38 90,-12 89,33l-4 73c5,0 37,-3 37,-3 9,-6 5,-31 5,-44 1,-42 18,-156 11,-185 -7,-26 -27,-45 -58,-45l-438 0c-59,0 -53,74 -48,112l29 469c4,30 -10,143 83,143z"/>
    <path class="fil1" d="M1000 1325l38 0c93,0 183,-96 183,-191 -2,-58 -10,-94 -30,-124 -25,1 -31,9 -64,9 0,33 -5,66 -29,78 -29,14 -54,-7 -77,-19 -15,4 -28,17 -48,20 -35,5 -48,-24 -52,-52 -2,-15 1,-23 -9,-29 -4,-3 -52,-11 -61,-11 -35,66 -55,127 -15,210 28,58 98,109 164,109z"/>
    <path class="fil1" d="M991 925c-18,0 -33,-8 -42,-8 -42,0 -71,25 -107,34 2,18 6,19 46,27 16,3 46,3 69,3 -6,26 -7,61 4,85 24,-2 50,-19 56,-39 13,4 78,92 77,-4 -1,-61 -17,-26 65,-40 28,-5 43,-8 45,-28 -49,-11 -84,-54 -153,-21l0 -90c-24,0 -46,-8 -68,-8 0,33 13,65 8,89z"/>
    <path class="fil1" d="M442 316c1,18 12,47 17,64 6,23 13,42 19,66 8,26 36,112 36,130l39 0c-2,-20 -75,-250 -77,-268 -19,0 -23,2 -34,8z"/>
   </g>
  </g>
 </g>
</svg>
