<?xml version="1.0" encoding="UTF-8"?>
<!DOCTYPE svg PUBLIC "-//W3C//DTD SVG 1.1//EN" "http://www.w3.org/Graphics/SVG/1.1/DTD/svg11.dtd">
<!-- Creator: CorelDRAW X7 -->
<svg xmlns="http://www.w3.org/2000/svg" xml:space="preserve" width="5.16094in" height="5.16094in" version="1.1" style="shape-rendering:geometricPrecision; text-rendering:geometricPrecision; image-rendering:optimizeQuality; fill-rule:evenodd; clip-rule:evenodd"
viewBox="0 0 5450 5450"
 xmlns:xlink="http://www.w3.org/1999/xlink">
 <defs>
  <style type="text/css">
   <![CDATA[
    .str0 {stroke:#FEFEFE;stroke-width:103.938}
    .fil0 {fill:#FEFEFE}
    .fil1 {fill:#010000}
   ]]>
  </style>
 </defs>
 <g id="Layer_x0020_1">
  <metadata id="CorelCorpID_0Corel-Layer"/>
  <g id="_907670048">
   <circle class="fil0 str0" cx="2725" cy="2725" r="2673"/>
   <g>
    <path class="fil1" d="M3179 3916c23,-98 69,-90 106,-253 27,-120 5,-129 116,-242 199,-203 527,-355 527,-222 0,187 -158,397 -272,492 -112,94 -293,268 -477,225zm110 -592c-11,-47 -27,-89 -32,-141 222,-148 338,-311 702,-311 382,0 327,551 -105,986 -242,243 -748,484 -908,245 27,-38 84,-66 124,-93 86,45 76,46 172,46 316,0 826,-481 826,-841 0,-315 -403,-219 -651,4 -36,32 -92,80 -128,105zm-1559 -1855c46,197 326,663 141,920 -82,113 -379,308 -480,408l-149 148c-208,242 -327,572 -145,871 234,387 686,418 726,459 1,2 2,4 2,7l3 16c0,2 1,7 1,9 16,58 33,68 93,88 116,38 600,87 556,-120 102,-24 246,-67 327,-110 103,76 144,184 412,243 307,68 482,-15 674,-110 123,-60 8,3 113,5 96,2 336,-226 324,-339l-6 -22c-4,-12 -31,-23 4,-93 107,-216 154,-427 82,-694 -149,-555 -676,-478 -1044,-223 -55,38 -140,126 -200,142 -31,-114 -234,-267 -323,-347 -64,-57 -126,-102 -192,-151 -38,-29 -54,-51 -91,-81 -68,-54 -101,-81 -152,-174 -95,-171 123,-808 197,-961 -61,16 -142,99 -184,144 -28,30 -45,57 -66,89 -61,97 -29,77 -78,94 0,-119 -12,-254 9,-366 11,-58 22,-106 36,-150 19,-59 33,-76 33,-154 -213,143 -321,445 -343,701 -91,-24 -195,-192 -280,-249z"/>
    <path class="fil1" d="M3367 3682c0,161 379,-182 367,-297 -15,-141 -367,161 -367,297z"/>
    <polygon class="fil1" points="1730,1469 1730,1453 1712,1466 "/>
   </g>
  </g>
 </g>
</svg>
