<?xml version="1.0" encoding="UTF-8"?>
<!DOCTYPE svg PUBLIC "-//W3C//DTD SVG 1.1//EN" "http://www.w3.org/Graphics/SVG/1.1/DTD/svg11.dtd">
<!-- Creator: CorelDRAW X7 -->
<svg xmlns="http://www.w3.org/2000/svg" xml:space="preserve" width="5.16094in" height="5.16094in" version="1.1" style="shape-rendering:geometricPrecision; text-rendering:geometricPrecision; image-rendering:optimizeQuality; fill-rule:evenodd; clip-rule:evenodd"
viewBox="0 0 1642 1642"
 xmlns:xlink="http://www.w3.org/1999/xlink">
 <defs>
  <style type="text/css">
   <![CDATA[
    .str0 {stroke:#FEFEFE;stroke-width:31.3122}
    .fil0 {fill:none}
    .fil1 {fill:#FEFEFE}
   ]]>
  </style>
 </defs>
 <g id="Layer_x0020_1">
  <metadata id="CorelCorpID_0Corel-Layer"/>
  <g id="_908388432">
   <circle class="fil0 str0" cx="821" cy="821" r="805"/>
   <g>
    <path class="fil1" d="M805 1216c0,-13 25,-27 38,-36 8,-5 38,-26 48,-26 8,0 16,11 16,20 0,9 -25,25 -35,32 -10,6 -33,22 -42,26 -6,2 -11,3 -16,-1 -3,-3 -9,-9 -9,-15zm-7 -232c7,0 20,4 27,6 8,2 18,5 26,7 9,2 17,4 25,8 34,13 8,36 0,36 -8,0 -69,-18 -82,-22 -7,-3 -9,-4 -11,-11 -4,-14 5,-24 15,-24zm-266 5c0,-21 30,-22 36,-2 2,9 4,18 7,26l11 54c0,11 -24,31 -35,0l-7 -25c-1,-4 -2,-7 -3,-12 -2,-5 -2,-9 -3,-14 -3,-8 -6,-16 -6,-27zm-121 8c0,38 2,54 17,91 8,21 18,38 30,55l41 46c40,41 109,78 163,96 77,26 113,26 195,26 55,0 104,-15 150,-33 4,-2 7,-3 12,-6l37 -19c8,-5 14,-10 22,-16 13,-9 36,-31 47,-44 36,-44 54,-92 54,-151 0,-49 -18,-88 -59,-114 -3,-1 -5,-2 -8,-4 -4,-2 -4,-3 -9,-4 -50,-21 -106,-31 -161,-39 -106,-16 -149,-39 -240,-59 -49,-10 -113,-19 -165,-5 -11,3 -22,7 -32,11 -39,18 -67,53 -80,95 -7,19 -14,50 -14,74z"/>
    <path class="fil1" d="M1171 866c-10,0 -27,-14 -13,-31l47 -43c4,-4 16,-15 22,-15 10,0 19,9 19,19 0,8 -27,32 -34,38l-18 18c-5,4 -16,14 -23,14zm-207 -164c17,0 21,26 24,41 2,9 5,17 7,26 1,9 5,19 5,28 0,13 -28,33 -37,-5l-17 -68c-3,-16 13,-22 18,-22zm-362 68l23 3c54,7 57,6 113,20 33,8 100,29 126,34 35,7 48,11 89,17 31,5 60,11 89,17 22,4 42,10 62,18l35 17c6,4 11,7 17,11 27,20 44,48 53,81 2,7 5,13 5,22 2,-1 4,-3 6,-4l17 -16c7,-7 14,-14 22,-22 44,-44 77,-118 77,-185 0,-37 -12,-75 -27,-106 -15,-29 -39,-53 -72,-63 -18,-5 -40,-5 -59,-5 -34,1 -30,3 -60,8 -19,3 -36,8 -55,12 -24,5 -54,13 -81,19 -113,24 -253,15 -346,89 -7,5 -30,27 -34,33z"/>
    <path class="fil1" d="M378 706c0,-19 13,-25 25,-20 7,4 47,30 53,34 9,6 22,12 22,23 0,10 -8,23 -22,18 -14,-5 -54,-32 -68,-42 -5,-3 -10,-6 -10,-13zm94 -79c-16,0 -24,-16 -19,-25 5,-9 40,-30 52,-38 18,-12 31,-22 43,-9 17,17 -14,32 -32,46 -6,4 -38,26 -44,26zm-166 62c0,64 22,129 52,179 6,11 22,40 30,45 2,-4 4,-9 5,-14 9,-20 23,-47 39,-62 32,-32 55,-46 102,-58 28,-7 14,-1 42,-37 35,-44 95,-76 150,-90 7,-2 24,-8 32,-8 -7,-11 -18,-18 -26,-28 -10,-14 -70,-70 -83,-80 -2,-2 -3,-3 -7,-6 -3,-2 -5,-4 -7,-6 -6,-5 -10,-8 -16,-12 -32,-21 -76,-44 -119,-44 -38,0 -59,5 -90,26l-21 16c-20,16 -38,38 -52,60 -6,10 -12,22 -16,34 -9,24 -15,53 -15,85z"/>
   </g>
  </g>
 </g>
</svg>
