<?xml version="1.0" encoding="UTF-8"?>
<!DOCTYPE svg PUBLIC "-//W3C//DTD SVG 1.1//EN" "http://www.w3.org/Graphics/SVG/1.1/DTD/svg11.dtd">
<!-- Creator: CorelDRAW X7 -->
<svg xmlns="http://www.w3.org/2000/svg" xml:space="preserve" width="5.16094in" height="5.16094in" version="1.1" style="shape-rendering:geometricPrecision; text-rendering:geometricPrecision; image-rendering:optimizeQuality; fill-rule:evenodd; clip-rule:evenodd"
viewBox="0 0 5962 5962"
 xmlns:xlink="http://www.w3.org/1999/xlink">
 <defs>
  <style type="text/css">
   <![CDATA[
    .str0 {stroke:#FEFEFE;stroke-width:113.698}
    .fil0 {fill:#FEFEFE}
    .fil1 {fill:#010000}
   ]]>
  </style>
 </defs>
 <g id="Layer_x0020_1">
  <metadata id="CorelCorpID_0Corel-Layer"/>
  <g id="_907668224">
   <circle class="fil0 str0" cx="2981" cy="2981" r="2924"/>
   <g>
    <path class="fil1" d="M2925 4416c0,-49 89,-99 136,-130 30,-20 137,-95 173,-95 31,0 60,39 60,70 0,35 -93,94 -127,116 -37,25 -120,81 -153,95 -23,10 -39,13 -58,-3 -13,-12 -31,-32 -31,-53zm-28 -842c26,0 72,13 97,19 30,8 66,18 95,26 36,10 62,17 93,29 123,49 29,131 0,131 -29,0 -250,-65 -298,-81 -26,-8 -32,-11 -41,-38 -16,-52 18,-86 54,-86zm-964 18c0,-78 107,-82 129,-7 10,31 17,64 24,92l43 196c0,41 -87,114 -129,3l-25 -91c-4,-17 -7,-28 -12,-45 -5,-18 -7,-33 -11,-50 -8,-30 -19,-60 -19,-98zm-440 28c0,140 7,196 60,329 30,77 68,138 111,202l146 168c148,148 399,283 593,348 282,94 412,95 709,95 201,0 377,-55 543,-121 18,-7 28,-13 45,-20l134 -73c29,-17 53,-35 81,-55 47,-34 132,-113 171,-161 129,-161 195,-336 195,-548 0,-178 -65,-319 -214,-413 -11,-6 -19,-9 -30,-16 -15,-8 -14,-9 -31,-16 -184,-76 -385,-112 -584,-141 -385,-56 -544,-139 -873,-212 -179,-39 -411,-70 -597,-21 -41,11 -82,27 -117,43 -144,63 -243,192 -293,343 -23,68 -49,182 -49,269z"/>
    <path class="fil1" d="M4253 3143c-38,0 -100,-50 -50,-111l171 -157c15,-14 60,-55 80,-55 36,0 71,35 71,71 0,28 -100,115 -123,139l-68 63c-17,15 -57,50 -81,50zm-753 -594c61,0 77,95 89,150 6,32 16,62 22,95 7,32 20,68 20,101 0,45 -100,119 -136,-18l-60 -249c-9,-56 46,-79 65,-79zm-1314 248l85 8c196,26 207,23 409,73 119,30 364,106 456,125 130,26 176,40 325,63 111,17 219,37 324,59 79,16 150,39 223,67l129 63c22,12 39,24 59,39 99,73 161,175 193,294 7,25 19,48 19,79 7,-5 15,-9 22,-15l61 -56c27,-28 52,-52 79,-80 161,-162 282,-430 282,-672 0,-136 -44,-275 -100,-387 -52,-104 -141,-190 -259,-227 -66,-20 -147,-20 -216,-18 -123,4 -108,9 -217,27 -70,12 -132,30 -199,44 -89,18 -196,49 -295,70 -412,85 -919,55 -1258,323 -25,20 -107,98 -122,121z"/>
    <path class="fil1" d="M1372 2563c0,-67 46,-91 90,-71 27,12 171,109 194,124 32,21 81,43 81,83 0,36 -30,83 -83,63 -48,-17 -196,-115 -247,-150 -16,-11 -35,-25 -35,-49zm341 -285c-59,0 -86,-58 -67,-91 19,-34 146,-111 188,-139 64,-44 112,-80 157,-34 61,64 -51,117 -118,167 -23,17 -138,97 -160,97zm-603 224c0,231 82,468 189,649 23,39 80,145 110,165 7,-14 13,-34 19,-51 31,-74 83,-170 139,-226 118,-117 200,-167 371,-209 102,-26 51,-4 155,-135 127,-161 343,-277 542,-328 28,-8 88,-28 117,-28 -27,-40 -66,-66 -94,-103 -38,-50 -254,-253 -300,-290 -10,-8 -14,-12 -25,-21 -11,-9 -18,-14 -29,-23 -20,-16 -35,-27 -57,-41 -115,-77 -277,-163 -431,-163 -138,0 -214,19 -326,94l-78 59c-71,60 -139,139 -187,219 -22,37 -45,81 -60,123 -31,86 -55,192 -55,309z"/>
   </g>
  </g>
 </g>
</svg>
