<?xml version="1.0" encoding="UTF-8"?>
<!DOCTYPE svg PUBLIC "-//W3C//DTD SVG 1.1//EN" "http://www.w3.org/Graphics/SVG/1.1/DTD/svg11.dtd">
<!-- Creator: CorelDRAW X7 -->
<svg xmlns="http://www.w3.org/2000/svg" xml:space="preserve" width="5.16094in" height="5.16094in" version="1.1" style="shape-rendering:geometricPrecision; text-rendering:geometricPrecision; image-rendering:optimizeQuality; fill-rule:evenodd; clip-rule:evenodd"
viewBox="0 0 1642 1642"
 xmlns:xlink="http://www.w3.org/1999/xlink">
 <defs>
  <style type="text/css">
   <![CDATA[
    .str0 {stroke:#FEFEFE;stroke-width:31.3122}
    .fil0 {fill:none}
    .fil1 {fill:#FEFEFE}
   ]]>
  </style>
 </defs>
 <g id="Layer_x0020_1">
  <metadata id="CorelCorpID_0Corel-Layer"/>
  <g id="_901989456">
   <circle class="fil0 str0" cx="821" cy="821" r="805"/>
   <g>
    <path class="fil1" d="M335 850c-58,0 -93,-15 -119,11 -25,24 -23,60 2,79 26,19 86,50 116,62 47,19 91,29 141,37 43,7 127,8 166,0 35,-7 39,-5 79,-16 9,-2 17,-5 25,-7 38,-11 101,-39 130,-63 20,-15 33,-31 47,-50l85 -140c4,-8 7,-15 11,-23 17,-35 34,-79 45,-116 3,-9 5,-14 8,-23 3,-10 4,-18 7,-27 4,-13 12,-36 -1,-46l-2 -2c0,0 -1,-1 -1,-1 -22,11 -41,42 -69,64l-43 39c-4,3 -5,5 -9,8l-19 14c-31,25 -83,59 -120,79 -39,22 -95,49 -137,63 -29,10 -45,16 -76,24 -34,8 -42,11 -81,18 -39,7 -78,14 -119,14 -13,0 -18,2 -30,2 -12,0 -24,0 -36,0z"/>
    <path class="fil1" d="M821 1286c-33,0 -50,-2 -68,-35 -16,-27 -3,-93 58,-93 74,0 81,96 33,120 -4,2 -17,8 -23,8zm106 -229c0,-70 82,-111 140,-62 32,27 34,89 4,119 -8,9 -10,10 -21,16 -33,20 -96,11 -116,-39 -4,-10 -7,-21 -7,-34zm140 -226c0,-25 5,-32 17,-48 20,-26 71,-29 98,-2 37,37 16,114 -48,114 -35,0 -67,-28 -67,-64zm-543 470c0,32 26,53 64,53 12,0 21,2 37,2 61,0 113,-8 167,-23 9,-3 21,-6 30,-9 19,-7 36,-14 54,-22 17,-8 36,-17 51,-26 8,-5 15,-8 24,-14 4,-2 7,-4 11,-7l77 -59c45,-44 79,-82 112,-136l34 -64c4,-10 7,-16 11,-26 12,-30 20,-57 28,-88 3,-9 5,-22 6,-31 5,-25 8,-43 9,-70 1,-44 4,-69 -3,-117 -2,-12 -3,-22 -6,-33 -2,-10 -3,-22 -6,-33l-9 -31c-7,-27 -17,-69 -48,-69 -11,0 -24,8 -30,14 -8,10 -9,20 -11,34 -3,12 -6,26 -8,37 -3,15 -6,24 -10,37l-15 51c-2,7 -4,8 -6,16 -4,14 -7,21 -12,34l-27 62c-2,3 -2,3 -4,6l-11 24c-5,10 -11,19 -17,29 -18,34 -32,53 -53,83 -3,5 -6,10 -9,14 -5,7 -4,6 -10,13l-40 48c-17,22 -68,73 -91,91l-50 41c-44,34 -121,81 -169,103 -30,13 -70,24 -70,66z"/>
    <path class="fil1" d="M1210 302c0,28 5,45 -6,68 -51,0 -73,10 -102,41 -53,54 25,51 59,44 15,-3 39,-15 49,2 11,22 23,37 44,49 4,2 11,7 15,8 22,3 18,-40 18,-53 0,-20 -14,-49 -28,-61 -7,-6 -17,-16 -24,-18 0,-21 21,-21 21,-72 0,-12 -18,-35 -36,-19 -2,1 -10,9 -10,11z"/>
   </g>
  </g>
 </g>
</svg>
