<?xml version="1.0" encoding="UTF-8"?>
<!DOCTYPE svg PUBLIC "-//W3C//DTD SVG 1.1//EN" "http://www.w3.org/Graphics/SVG/1.1/DTD/svg11.dtd">
<!-- Creator: CorelDRAW X7 -->
<svg xmlns="http://www.w3.org/2000/svg" xml:space="preserve" width="5.16094in" height="5.16094in" version="1.1" style="shape-rendering:geometricPrecision; text-rendering:geometricPrecision; image-rendering:optimizeQuality; fill-rule:evenodd; clip-rule:evenodd"
viewBox="0 0 5693 5693"
 xmlns:xlink="http://www.w3.org/1999/xlink">
 <defs>
  <style type="text/css">
   <![CDATA[
    .str0 {stroke:#FEFEFE;stroke-width:108.568}
    .fil0 {fill:#FEFEFE}
    .fil1 {fill:#010000}
   ]]>
  </style>
 </defs>
 <g id="Layer_x0020_1">
  <metadata id="CorelCorpID_0Corel-Layer"/>
  <g id="_803208288">
   <circle class="fil0 str0" cx="2846" cy="2846" r="2792"/>
   <g>
    <path class="fil1" d="M1163 2946c-201,0 -325,-51 -415,38 -85,84 -78,211 9,275 90,67 297,173 401,215 163,66 315,100 489,128 148,23 441,29 575,2 123,-25 137,-20 275,-55 30,-8 59,-20 87,-28 131,-36 349,-132 451,-215 67,-54 113,-109 161,-176l297 -485c13,-28 23,-52 36,-79 60,-121 119,-275 156,-403 9,-32 18,-47 28,-80 9,-35 13,-62 23,-91 15,-46 43,-126 -1,-162l-8 -6c-1,-1 -3,-2 -4,-4 -75,40 -140,145 -237,223l-152 135c-12,10 -16,16 -30,27l-66 49c-108,85 -286,204 -414,274 -137,75 -332,170 -477,218 -100,34 -154,55 -262,83 -119,29 -145,38 -281,63 -137,25 -271,48 -412,47 -48,0 -65,7 -107,7 -41,1 -82,0 -122,0z"/>
    <path class="fil1" d="M2848 4459c-116,0 -173,-8 -239,-120 -55,-95 -10,-324 203,-324 256,0 282,332 115,416 -14,7 -60,28 -79,28zm365 -796c0,-242 285,-381 486,-213 113,95 119,307 15,412 -30,30 -36,34 -73,57 -113,67 -334,37 -403,-137 -14,-34 -25,-74 -25,-119zm488 -781c0,-86 16,-111 57,-165 70,-91 247,-102 340,-10 128,128 55,395 -167,395 -121,0 -230,-96 -230,-220zm-1886 1627c0,113 92,186 223,187 44,0 75,7 129,7 211,0 393,-29 577,-82 35,-10 75,-21 105,-32 67,-24 127,-45 190,-75 57,-26 124,-58 176,-89 29,-18 52,-30 82,-48 15,-9 25,-17 39,-25l267 -206c157,-153 275,-282 389,-471l115 -222c17,-33 26,-56 40,-90 42,-103 68,-196 98,-303 9,-33 15,-78 21,-108 18,-89 27,-149 30,-242 5,-154 13,-242 -10,-406 -6,-43 -11,-78 -20,-116 -8,-35 -13,-76 -22,-115l-30 -106c-27,-96 -61,-240 -169,-240 -37,0 -83,27 -102,49 -28,35 -31,68 -40,117 -9,42 -20,91 -28,130 -11,49 -20,80 -32,126l-52 177c-8,24 -15,29 -22,57 -14,47 -26,72 -42,116l-93 215c-7,12 -6,10 -13,23l-39 83c-19,34 -39,65 -58,100 -63,118 -112,185 -184,289 -13,17 -23,31 -33,46 -16,26 -15,22 -34,45l-139 169c-59,73 -236,251 -316,315l-174 142c-151,117 -417,278 -584,355 -105,48 -245,86 -245,228z"/>
    <path class="fil1" d="M4196 1046c0,97 17,156 -22,237 -176,0 -251,36 -353,141 -183,190 88,177 205,155 52,-10 135,-54 168,7 40,74 81,127 155,168 12,7 38,25 50,27 76,11 62,-139 62,-183 0,-68 -47,-169 -97,-211 -24,-20 -56,-54 -82,-61 0,-73 72,-75 72,-251 0,-43 -60,-121 -124,-67 -7,6 -34,33 -34,38z"/>
   </g>
  </g>
 </g>
</svg>
