<?xml version="1.0" encoding="UTF-8"?>
<!DOCTYPE svg PUBLIC "-//W3C//DTD SVG 1.1//EN" "http://www.w3.org/Graphics/SVG/1.1/DTD/svg11.dtd">
<!-- Creator: CorelDRAW X7 -->
<svg xmlns="http://www.w3.org/2000/svg" xml:space="preserve" width="5.16094in" height="5.16094in" version="1.1" style="shape-rendering:geometricPrecision; text-rendering:geometricPrecision; image-rendering:optimizeQuality; fill-rule:evenodd; clip-rule:evenodd"
viewBox="0 0 320 320"
 xmlns:xlink="http://www.w3.org/1999/xlink">
 <defs>
  <style type="text/css">
   <![CDATA[
    .str0 {stroke:#FEFEFE;stroke-width:6.0937}
    .fil0 {fill:#FEFEFE}
    .fil1 {fill:#010000}
   ]]>
  </style>
 </defs>
 <g id="Layer_x0020_1">
  <metadata id="CorelCorpID_0Corel-Layer"/>
  <g id="_790920576">
   <circle class="fil0 str0" cx="160" cy="160" r="157"/>
   <path class="fil1" d="M160 97c0,6 -16,20 -21,24 -5,6 -19,18 -23,24l132 0c5,1 7,5 8,10l0 9c0,5 -3,9 -8,10 -4,2 -124,1 -132,1 3,4 27,27 34,34 5,5 10,8 10,15 0,5 -10,16 -16,16 -8,0 -15,-10 -23,-18l-50 -50c-4,-4 -7,-7 -8,-10l0 -4c1,-3 3,-6 8,-10l60 -60c4,-5 8,-8 11,-9l3 0c2,1 5,3 9,7 3,2 6,5 6,11z"/>
  </g>
 </g>
</svg>
