<?xml version="1.0" encoding="UTF-8"?>
<!DOCTYPE svg PUBLIC "-//W3C//DTD SVG 1.1//EN" "http://www.w3.org/Graphics/SVG/1.1/DTD/svg11.dtd">
<!-- Creator: CorelDRAW X7 -->
<svg xmlns="http://www.w3.org/2000/svg" xml:space="preserve" width="5.16094in" height="5.16094in" version="1.1" style="shape-rendering:geometricPrecision; text-rendering:geometricPrecision; image-rendering:optimizeQuality; fill-rule:evenodd; clip-rule:evenodd"
viewBox="0 0 420 420"
 xmlns:xlink="http://www.w3.org/1999/xlink">
 <defs>
  <style type="text/css">
   <![CDATA[
    .str0 {stroke:#FEFEFE;stroke-width:8.01724}
    .fil1 {fill:none}
    .fil0 {fill:#FEFEFE}
   ]]>
  </style>
 </defs>
 <g id="Layer_x0020_1">
  <metadata id="CorelCorpID_0Corel-Layer"/>
  <g id="_790923072">
   <path class="fil0" d="M211 127c0,8 -21,26 -28,33 -7,7 -25,23 -30,30l173 1c6,1 10,7 11,13l0 12c-1,6 -4,12 -10,14 -6,1 -164,0 -174,0 4,6 35,36 44,45 7,7 14,10 14,19 0,8 -14,22 -22,22 -9,0 -19,-14 -29,-24l-67 -66c-5,-5 -9,-9 -10,-13l0 -5c1,-4 4,-8 10,-14l79 -79c6,-6 10,-10 15,-11l4 0c3,1 7,4 12,9 3,3 8,7 8,14z"/>
   <circle class="fil1 str0" cx="210" cy="210" r="206"/>
  </g>
 </g>
</svg>
