<?xml version="1.0" encoding="UTF-8"?>
<!DOCTYPE svg PUBLIC "-//W3C//DTD SVG 1.1//EN" "http://www.w3.org/Graphics/SVG/1.1/DTD/svg11.dtd">
<!-- Creator: CorelDRAW X7 -->
<svg xmlns="http://www.w3.org/2000/svg" xml:space="preserve" width="5.16094in" height="5.16094in" version="1.1" style="shape-rendering:geometricPrecision; text-rendering:geometricPrecision; image-rendering:optimizeQuality; fill-rule:evenodd; clip-rule:evenodd"
viewBox="0 0 739 739"
 xmlns:xlink="http://www.w3.org/1999/xlink">
 <defs>
  <style type="text/css">
   <![CDATA[
    .str0 {stroke:#FEFEFE;stroke-width:14.0877}
    .fil0 {fill:#FEFEFE}
    .fil1 {fill:#010000}
   ]]>
  </style>
 </defs>
 <g id="Layer_x0020_1">
  <metadata id="CorelCorpID_0Corel-Layer"/>
  <g id="_790979632">
   <circle class="fil0 str0" cx="369" cy="369" r="362"/>
   <path class="fil1" d="M368 223c0,15 38,46 49,57 12,13 44,42 53,55l-304 0c-11,2 -18,12 -20,24l0 20c2,12 8,22 18,24 10,3 289,1 306,1 -7,10 -62,63 -78,79 -12,12 -24,18 -24,34 0,14 25,38 38,38 17,0 35,-24 52,-41l117 -116c10,-10 16,-17 18,-24l0 -9c-2,-6 -8,-13 -18,-24l-139 -138c-10,-11 -18,-18 -25,-20l-7 0c-6,2 -13,6 -21,15 -7,7 -15,13 -15,25z"/>
  </g>
 </g>
</svg>
