<?xml version="1.0" encoding="UTF-8"?>
<!DOCTYPE svg PUBLIC "-//W3C//DTD SVG 1.1//EN" "http://www.w3.org/Graphics/SVG/1.1/DTD/svg11.dtd">
<!-- Creator: CorelDRAW X7 -->
<svg xmlns="http://www.w3.org/2000/svg" xml:space="preserve" width="5.16094in" height="5.16094in" version="1.1" style="shape-rendering:geometricPrecision; text-rendering:geometricPrecision; image-rendering:optimizeQuality; fill-rule:evenodd; clip-rule:evenodd"
viewBox="0 0 475 475"
 xmlns:xlink="http://www.w3.org/1999/xlink">
 <defs>
  <style type="text/css">
   <![CDATA[
    .str0 {stroke:#FEFEFE;stroke-width:9.06153}
    .fil1 {fill:none}
    .fil0 {fill:#FEFEFE}
   ]]>
  </style>
 </defs>
 <g id="Layer_x0020_1">
  <metadata id="CorelCorpID_0Corel-Layer"/>
  <g id="_791465888">
   <path class="fil0" d="M237 144c0,9 24,29 31,36 8,9 29,27 34,35l-195 0c-7,2 -12,8 -13,16l0 13c1,7 5,14 12,15 6,2 185,1 196,1 -4,6 -40,40 -50,51 -8,8 -15,11 -15,22 0,8 16,24 24,24 11,0 23,-15 34,-26l75 -75c6,-7 10,-11 11,-15l0 -6c-1,-4 -5,-9 -11,-16l-89 -89c-7,-6 -12,-11 -17,-12l-4 0c-4,1 -8,4 -14,9 -4,5 -9,8 -9,17z"/>
   <circle class="fil1 str0" cx="238" cy="238" r="233"/>
  </g>
 </g>
</svg>
