<?xml version="1.0" encoding="UTF-8"?>
<!DOCTYPE svg PUBLIC "-//W3C//DTD SVG 1.1//EN" "http://www.w3.org/Graphics/SVG/1.1/DTD/svg11.dtd">
<!-- Creator: CorelDRAW X7 -->
<svg xmlns="http://www.w3.org/2000/svg" xml:space="preserve" width="5.16094in" height="5.16094in" version="1.1" style="shape-rendering:geometricPrecision; text-rendering:geometricPrecision; image-rendering:optimizeQuality; fill-rule:evenodd; clip-rule:evenodd"
viewBox="0 0 479 479"
 xmlns:xlink="http://www.w3.org/1999/xlink">
 <defs>
  <style type="text/css">
   <![CDATA[
    .str0 {stroke:#FEFEFE;stroke-width:9.13957}
    .fil0 {fill:none}
    .fil1 {fill:#FEFEFE}
   ]]>
  </style>
 </defs>
 <g id="Layer_x0020_1">
  <metadata id="CorelCorpID_0Corel-Layer"/>
  <g id="_199244896">
   <circle class="fil0 str0" cx="240" cy="240" r="235"/>
   <g>
    <path class="fil1" d="M186 290c0,15 0,21 6,35 3,6 9,15 13,20 3,3 5,4 9,7 18,14 42,17 65,12 9,-2 11,-3 18,-6l27 -15c7,-5 11,-8 18,-15 21,-21 40,-61 40,-90 0,-2 0,-3 0,-4l0 -11c-8,-61 -69,-62 -114,-42 -6,3 -25,14 -29,18 -4,2 -6,5 -10,7 -1,1 -2,3 -4,4 -1,2 -2,2 -4,4 -10,12 -11,11 -20,27 -7,11 -15,31 -15,49z"/>
    <path class="fil1" d="M175 337l15 -1c-1,-3 -13,-19 -13,-43 0,-19 1,-28 8,-46 2,-5 5,-9 8,-15l9 -13c4,-5 11,-13 16,-18 12,-10 18,-15 33,-23 -1,-6 -7,-17 -10,-22 -6,-10 -14,-20 -22,-27 -2,-1 -3,-2 -5,-4 -1,-1 -3,-2 -5,-3 -5,-4 -16,-8 -24,-9 -27,-2 -47,14 -61,35 -2,1 -3,3 -4,5 -1,2 -2,3 -3,5 -2,4 -4,7 -6,11 -3,6 -6,16 -8,23 -8,28 -9,57 2,85 5,12 6,14 14,26 3,5 7,9 11,13 4,4 14,12 19,14 8,3 17,7 26,7z"/>
   </g>
  </g>
 </g>
</svg>
