<?xml version="1.0" encoding="UTF-8"?>
<!DOCTYPE svg PUBLIC "-//W3C//DTD SVG 1.1//EN" "http://www.w3.org/Graphics/SVG/1.1/DTD/svg11.dtd">
<!-- Creator: CorelDRAW X7 -->
<svg xmlns="http://www.w3.org/2000/svg" xml:space="preserve" width="5.16094in" height="5.16094in" version="1.1" style="shape-rendering:geometricPrecision; text-rendering:geometricPrecision; image-rendering:optimizeQuality; fill-rule:evenodd; clip-rule:evenodd"
viewBox="0 0 479 479"
 xmlns:xlink="http://www.w3.org/1999/xlink">
 <defs>
  <style type="text/css">
   <![CDATA[
    .str0 {stroke:#FEFEFE;stroke-width:9.13957}
    .fil0 {fill:none}
    .fil1 {fill:#FEFEFE}
   ]]>
  </style>
 </defs>
 <g id="Layer_x0020_1">
  <metadata id="CorelCorpID_0Corel-Layer"/>
  <g id="_199246304">
   <circle class="fil0 str0" cx="240" cy="240" r="235"/>
   <path class="fil1" d="M134 231c-3,0 -5,0 -7,-3 -7,-7 5,-18 12,-11 6,6 1,14 -5,14zm94 -64l3 0c9,1 26,3 34,7 -2,3 -12,8 -14,11 3,2 7,3 10,4 17,7 23,10 38,19 31,19 22,21 49,6 2,-1 3,-1 5,-2l17 -10c8,-5 17,-13 27,-13 2,3 2,3 1,7 -4,11 -21,32 -24,38 -4,10 0,19 6,26 1,1 1,1 2,2l6 7c5,6 5,4 11,14 -4,2 -6,1 -11,0 -7,-1 -25,-8 -30,-10 -8,-3 -22,-9 -28,-13 -10,-5 -9,-4 -14,0 -9,6 -20,13 -30,18 -6,3 -12,5 -19,8 -3,1 -18,5 -20,7 1,2 2,3 3,4 3,1 10,8 12,9 -2,2 -4,2 -8,2 -17,3 -28,6 -45,2 -9,-2 -15,-4 -23,-8 -16,-7 -8,-3 -24,-6 -10,-2 -19,-5 -28,-9 -1,-1 -1,-1 -2,-2 1,-3 0,-1 4,-4 3,-2 7,-4 8,-7 7,-8 -8,0 -11,1 -9,3 -6,3 -16,3 -6,0 -26,-11 -32,-20 -2,-2 -4,-7 -4,-12 0,-15 17,-32 28,-40 11,-9 10,-7 20,-13 3,-2 4,-2 6,-3 36,-17 48,-11 61,-15l12 -5c4,-1 14,-3 20,-3zm-55 27c11,7 24,28 21,44 -1,10 -3,16 -9,24 -3,5 -11,14 -16,17 2,-4 10,-13 14,-41 3,-19 -9,-40 -10,-44zm0 0l0 0z"/>
  </g>
 </g>
</svg>
