<?xml version="1.0" encoding="UTF-8"?>
<!DOCTYPE svg PUBLIC "-//W3C//DTD SVG 1.1//EN" "http://www.w3.org/Graphics/SVG/1.1/DTD/svg11.dtd">
<!-- Creator: CorelDRAW X7 -->
<svg xmlns="http://www.w3.org/2000/svg" xml:space="preserve" width="5.16094in" height="5.16094in" version="1.1" style="shape-rendering:geometricPrecision; text-rendering:geometricPrecision; image-rendering:optimizeQuality; fill-rule:evenodd; clip-rule:evenodd"
viewBox="0 0 745 745"
 xmlns:xlink="http://www.w3.org/1999/xlink">
 <defs>
  <style type="text/css">
   <![CDATA[
    .str0 {stroke:#FEFEFE;stroke-width:14.2136}
    .fil0 {fill:#FEFEFE}
    .fil1 {fill:#010000}
   ]]>
  </style>
 </defs>
 <g id="Layer_x0020_1">
  <metadata id="CorelCorpID_0Corel-Layer"/>
  <g id="_902243248">
   <circle class="fil0 str0" cx="373" cy="373" r="366"/>
   <path class="fil1" d="M208 359c-4,0 -7,1 -11,-4 -11,-12 8,-29 19,-18 9,10 1,22 -8,22zm146 -99l5 0c15,1 41,5 53,10 -3,5 -18,12 -22,18 5,2 11,4 16,6 27,10 36,16 59,30 48,30 33,32 77,9 3,-2 4,-2 7,-4l26 -15c12,-7 27,-20 42,-20 3,4 3,5 1,12 -5,16 -32,49 -36,58 -6,15 -1,29 9,40 2,2 2,2 3,4l9 10c8,9 9,7 17,22 -5,3 -9,2 -17,0 -10,-2 -38,-13 -47,-16 -11,-5 -33,-14 -43,-19 -16,-9 -14,-7 -22,-1 -14,10 -30,20 -46,28 -10,5 -19,8 -30,12 -4,2 -28,9 -31,12 1,3 3,4 5,5 4,3 15,13 18,14 -2,4 -6,3 -12,4 -26,5 -43,10 -70,4 -14,-3 -24,-7 -36,-13 -25,-11 -11,-5 -37,-10 -15,-3 -29,-7 -43,-13 -2,-2 -3,-2 -4,-4 2,-4 1,-2 6,-6 4,-3 11,-6 14,-10 9,-13 -14,-1 -18,0 -14,5 -10,6 -26,6 -9,0 -39,-18 -49,-31 -3,-5 -7,-12 -7,-20 0,-22 28,-49 44,-61 17,-15 16,-11 32,-21 4,-3 5,-3 9,-5 56,-26 74,-16 94,-23l20 -7c6,-2 21,-5 30,-5zm-85 41c17,12 37,45 33,69 -2,16 -5,24 -14,37 -5,8 -17,23 -24,28 1,-8 15,-21 21,-64 5,-31 -14,-63 -16,-70zm0 0l0 0z"/>
  </g>
 </g>
</svg>
