<?xml version="1.0" encoding="UTF-8"?>
<!DOCTYPE svg PUBLIC "-//W3C//DTD SVG 1.1//EN" "http://www.w3.org/Graphics/SVG/1.1/DTD/svg11.dtd">
<!-- Creator: CorelDRAW X7 -->
<svg xmlns="http://www.w3.org/2000/svg" xml:space="preserve" width="5.16094in" height="5.16094in" version="1.1" style="shape-rendering:geometricPrecision; text-rendering:geometricPrecision; image-rendering:optimizeQuality; fill-rule:evenodd; clip-rule:evenodd"
viewBox="0 0 741 741"
 xmlns:xlink="http://www.w3.org/1999/xlink">
 <defs>
  <style type="text/css">
   <![CDATA[
    .str0 {stroke:#FEFEFE;stroke-width:14.1299}
    .fil0 {fill:#FEFEFE}
    .fil1 {fill:#010000}
   ]]>
  </style>
 </defs>
 <g id="Layer_x0020_1">
  <metadata id="CorelCorpID_0Corel-Layer"/>
  <g id="_902241072">
   <circle class="fil0 str0" cx="370" cy="370" r="363"/>
   <g>
    <path class="fil1" d="M421 336c33,0 34,4 34,39 0,22 0,41 6,58 2,4 2,7 4,12 1,4 2,7 4,11 9,25 24,48 24,76 0,10 -9,15 -17,18 -8,4 -18,6 -28,7 -22,3 -62,5 -82,2 -14,-2 -28,-6 -39,-13 -18,-13 -25,-32 -23,-54 2,-31 27,-78 46,-103 8,-11 15,-19 25,-28l15 -11c2,-2 2,-2 5,-4 7,-4 16,-10 26,-10zm-238 55c0,40 40,98 63,127 3,3 6,7 9,10 2,2 2,3 4,5l15 15c23,24 54,42 89,45 26,3 76,2 105,-4 11,-3 19,-6 29,-11 21,-10 30,-28 30,-52 0,-36 -30,-74 -37,-123l-1 -31c0,-24 -2,-37 -13,-51 -5,-8 -11,-8 -17,-15 -15,-16 -92,-67 -112,-79 -24,-14 -46,-8 -67,8 -9,7 -13,9 -21,17 -3,4 -6,7 -9,10 -14,15 -31,40 -41,57l-7 13c-6,13 -19,41 -19,59z"/>
    <path class="fil1" d="M445 267c13,7 20,12 32,20 9,-14 43,-43 59,-54 2,-2 4,-2 6,-4 2,-2 3,-2 6,-3 8,-4 10,-4 10,-12 0,-7 -21,-26 -28,-29 -12,-4 -16,4 -23,10 -11,10 -29,29 -37,40l-25 32z"/>
    <path class="fil1" d="M387 228c5,1 17,8 22,11 2,2 4,4 7,4 12,-17 23,-31 38,-45 2,-2 6,-5 8,-7 5,-3 8,-4 8,-9 0,-8 -27,-23 -30,-23 -12,0 -15,10 -24,23 -5,6 -28,41 -29,46z"/>
    <path class="fil1" d="M427 469c0,29 4,39 -24,44 -11,2 -22,1 -37,4 0,4 1,4 3,5 14,6 62,10 76,5 20,-6 -1,-62 -6,-75 -1,-4 -2,-5 -4,-8 -2,-4 -2,-7 -6,-8 -5,8 -2,25 -2,33z"/>
    <path class="fil1" d="M335 196c6,3 10,3 21,9 3,2 4,3 7,4l17 -22c8,-8 7,-8 16,-15 10,-7 1,-13 -7,-17 -7,-5 -12,-9 -16,-9l-1 0c-5,1 -10,7 -20,22 -6,9 -12,19 -17,28z"/>
    <path class="fil1" d="M357 441c0,5 0,14 7,14 6,0 9,-32 28,-48 5,-4 10,-6 14,-11 -8,-15 -26,-1 -32,7 -8,9 -17,26 -17,38z"/>
   </g>
  </g>
 </g>
</svg>
