<?xml version="1.0" encoding="UTF-8"?>
<!DOCTYPE svg PUBLIC "-//W3C//DTD SVG 1.1//EN" "http://www.w3.org/Graphics/SVG/1.1/DTD/svg11.dtd">
<!-- Creator: CorelDRAW X7 -->
<svg xmlns="http://www.w3.org/2000/svg" xml:space="preserve" width="5.16094in" height="5.16094in" version="1.1" style="shape-rendering:geometricPrecision; text-rendering:geometricPrecision; image-rendering:optimizeQuality; fill-rule:evenodd; clip-rule:evenodd"
viewBox="0 0 479 479"
 xmlns:xlink="http://www.w3.org/1999/xlink">
 <defs>
  <style type="text/css">
   <![CDATA[
    .str0 {stroke:#FEFEFE;stroke-width:9.13957}
    .fil0 {fill:none}
    .fil1 {fill:#FEFEFE}
   ]]>
  </style>
 </defs>
 <g id="Layer_x0020_1">
  <metadata id="CorelCorpID_0Corel-Layer"/>
  <g id="_199251872">
   <circle class="fil0 str0" cx="240" cy="240" r="235"/>
   <g>
    <path class="fil1" d="M273 218c21,0 21,2 21,25 0,14 1,26 4,37 1,3 2,5 3,8 1,3 1,4 2,7 6,16 16,31 16,49 0,7 -6,10 -11,12 -5,2 -12,3 -18,4 -14,2 -40,3 -53,2 -9,-2 -18,-4 -25,-9 -12,-8 -17,-21 -16,-35 2,-20 18,-50 30,-67 6,-7 10,-12 17,-17l9 -8c2,-1 2,-1 3,-2 5,-2 11,-6 18,-6zm-155 35c0,26 26,63 41,82 2,2 4,5 6,7 1,1 1,2 3,3l9 9c15,16 35,27 58,30 17,2 49,1 68,-3 7,-2 12,-4 18,-7 14,-7 20,-18 20,-34 0,-23 -19,-48 -24,-79l-1 -20c0,-16 -1,-24 -8,-34 -3,-4 -7,-5 -11,-9 -10,-10 -60,-43 -73,-51 -15,-9 -29,-5 -43,5 -6,4 -8,6 -13,11 -2,2 -4,4 -7,7 -8,9 -19,25 -26,36l-4 9c-4,8 -13,26 -13,38z"/>
    <path class="fil1" d="M288 173c8,4 13,8 20,13 7,-10 28,-28 39,-35 1,-1 2,-2 4,-3 1,-1 2,-1 4,-2 5,-3 6,-3 6,-8 0,-4 -13,-17 -18,-18 -8,-3 -11,2 -15,6 -7,6 -19,19 -24,26l-16 21z"/>
    <path class="fil1" d="M250 147c4,1 11,6 14,8 2,1 3,2 5,2 8,-11 15,-20 25,-29 1,-1 3,-3 5,-4 3,-3 5,-3 5,-6 0,-5 -18,-15 -20,-15 -7,0 -9,6 -15,15 -3,4 -18,27 -19,29z"/>
    <path class="fil1" d="M276 303c0,19 3,26 -15,29 -8,1 -14,0 -24,2 0,3 0,3 2,4 9,4 40,6 49,3 13,-4 -1,-40 -4,-49 -1,-2 -1,-3 -3,-5 -1,-2 -1,-4 -3,-5 -4,5 -2,16 -2,21z"/>
    <path class="fil1" d="M217 127c4,2 6,2 13,6 2,1 3,1 5,2l11 -14c5,-5 5,-5 10,-9 7,-5 1,-9 -4,-12 -5,-3 -8,-5 -11,-5l0 0c-4,0 -7,4 -13,14 -4,6 -8,12 -11,18z"/>
    <path class="fil1" d="M231 285c0,4 0,9 5,9 3,0 5,-20 18,-31 3,-2 6,-4 9,-7 -5,-10 -17,0 -21,5 -5,5 -11,17 -11,24z"/>
   </g>
  </g>
 </g>
</svg>
