<?xml version="1.0" encoding="UTF-8"?>
<!DOCTYPE svg PUBLIC "-//W3C//DTD SVG 1.1//EN" "http://www.w3.org/Graphics/SVG/1.1/DTD/svg11.dtd">
<!-- Creator: CorelDRAW X7 -->
<svg xmlns="http://www.w3.org/2000/svg" xml:space="preserve" width="5.16094in" height="5.16094in" version="1.1" style="shape-rendering:geometricPrecision; text-rendering:geometricPrecision; image-rendering:optimizeQuality; fill-rule:evenodd; clip-rule:evenodd"
viewBox="0 0 744 744"
 xmlns:xlink="http://www.w3.org/1999/xlink">
 <defs>
  <style type="text/css">
   <![CDATA[
    .str0 {stroke:#FEFEFE;stroke-width:14.1805}
    .fil0 {fill:#FEFEFE}
    .fil1 {fill:#010000}
   ]]>
  </style>
 </defs>
 <g id="Layer_x0020_1">
  <metadata id="CorelCorpID_0Corel-Layer"/>
  <g id="_902239248">
   <circle class="fil0 str0" cx="372" cy="372" r="365"/>
   <g>
    <path class="fil1" d="M289 352c27,0 46,7 62,19 56,41 36,109 -25,109 -54,0 -71,-32 -86,-47 -9,-8 -21,-9 -25,-21 -7,5 -28,40 -30,52 -2,17 26,26 38,31l-92 3c3,29 77,42 100,46 88,15 190,15 277,1 22,-3 102,-16 104,-47l-146 0c0,0 1,-1 1,-1 1,1 2,0 2,0 38,-23 59,-39 59,-92 0,-56 -26,-98 -82,-98 -57,0 -95,11 -144,36l-13 9z"/>
    <path class="fil1" d="M156 339c0,6 1,6 2,11 -16,3 -11,12 -9,22 6,1 18,7 22,-7 19,2 31,17 47,18 0,33 18,20 40,51 33,45 108,38 108,0 0,-21 -5,-35 -26,-49 -7,-5 -11,-8 -20,-11 -37,-14 -33,0 -52,-6 -5,-2 -16,-7 -22,-7 -20,0 -15,14 -33,4 -11,-5 -22,-10 -33,-15 8,-33 -24,-24 -24,-11z"/>
    <path class="fil1" d="M355 208c0,36 9,26 9,46 0,18 -4,29 -4,45 10,-8 22,-34 22,-51 0,-22 -23,-28 -16,-60 -4,3 -11,11 -11,20z"/>
    <path class="fil1" d="M306 239c0,17 5,8 5,35 0,13 -2,13 -2,25 17,-12 19,-33 9,-54 -4,-10 -3,-14 -3,-26 -6,4 -9,9 -9,20z"/>
    <path class="fil1" d="M419 272c0,8 -4,17 -4,27 6,-2 3,0 7,-5 0,0 3,-6 4,-7 14,-33 -4,-31 -4,-68 -7,5 -10,12 -8,23 1,9 5,23 5,30z"/>
   </g>
  </g>
 </g>
</svg>
