<?xml version="1.0" encoding="UTF-8"?>
<!DOCTYPE svg PUBLIC "-//W3C//DTD SVG 1.1//EN" "http://www.w3.org/Graphics/SVG/1.1/DTD/svg11.dtd">
<!-- Creator: CorelDRAW X7 -->
<svg xmlns="http://www.w3.org/2000/svg" xml:space="preserve" width="8.16448in" height="7.07588in" version="1.1" style="shape-rendering:geometricPrecision; text-rendering:geometricPrecision; image-rendering:optimizeQuality; fill-rule:evenodd; clip-rule:evenodd"
viewBox="0 0 8576 7433"
 xmlns:xlink="http://www.w3.org/1999/xlink">
 <defs>
  <style type="text/css">
   <![CDATA[
    .fil2 {fill:#373435}
    .fil0 {fill:black}
    .fil1 {fill:black}
   ]]>
  </style>
 </defs>
 <g id="Layer_x0020_1">
  <metadata id="CorelCorpID_0Corel-Layer"/>
  <g id="_950372608">
   <path id="Shape" class="fil0" d="M8290 4145l-151 0c201,-398 302,-840 294,-1286 0,-1550 -916,-2859 -2001,-2859 -1085,0 -2001,1309 -2001,2859 -8,446 93,888 294,1286l-875 0c200,-399 302,-840 295,-1286 0,-1550 -916,-2859 -2001,-2859 -1085,0 -2001,1309 -2001,2859 -8,446 93,887 294,1286l-151 0c-158,0 -286,128 -286,286l0 572c0,158 128,286 286,286l176 0 430 1613c84,313 367,530 691,531l1122 0c324,-1 607,-218 691,-531l430 -1613 924 0 430 1613c84,313 367,530 691,531l1122 0c324,-1 607,-218 691,-531l430 -1613 176 0c158,0 286,-128 286,-286l0 -572c0,-158 -128,-286 -286,-286zm-3573 -1286c0,-1371 801,-2573 1715,-2573 914,0 1715,1202 1715,2573 7,450 -107,894 -330,1286l-2770 0c-223,-392 -337,-836 -330,-1286zm-4288 0c0,-1371 801,-2573 1715,-2573 914,0 1715,1202 1715,2573 7,450 -107,895 -331,1286l-2770 0c-222,-392 -336,-836 -329,-1286zm2691 3969c-50,188 -220,319 -415,319l-1122 0c-195,0 -365,-131 -415,-319l-410 -1539 275 0 239 894c17,63 73,106 138,106 13,0 25,-1 37,-5 76,-20 122,-98 101,-175l-219 -820 2201 0 -410 1539zm4288 0c-50,188 -220,319 -415,319l-1122 0c-195,0 -365,-131 -415,-319l-410 -1539 275 0 239 894c17,63 74,106 138,106 13,0 25,-1 37,-5 77,-20 122,-98 101,-175l-219 -820 2202 0 -411 1539zm-7122 -1825l0 -572 8004 0 0 572 -8004 0z"/>
   <path id="Shape_0" class="fil1" d="M872 2716c-5,0 -9,0 -14,0 -38,-4 -73,-22 -98,-52 -24,-30 -35,-68 -31,-105 92,-956 660,-1987 1415,-1987 79,0 143,64 143,143 0,79 -64,143 -143,143 -522,0 -1040,791 -1130,1729 -8,73 -69,129 -142,129z"/>
   <circle id="Oval" class="fil1" cx="892" cy="3145" r="143"/>
   <path id="Shape_1" class="fil2" d="M5145 2716c-5,0 -10,0 -15,0 -38,-4 -72,-22 -96,-52 -25,-29 -36,-67 -32,-104 92,-957 660,-1988 1416,-1988 79,0 143,64 143,143 0,79 -64,143 -143,143 -522,0 -1040,791 -1131,1729 -7,73 -69,129 -142,129z"/>
   <circle id="Oval_2" class="fil2" cx="5165" cy="3145" r="143"/>
  </g>
 </g>
</svg>
