<?xml version="1.0" encoding="UTF-8"?>
<!DOCTYPE svg PUBLIC "-//W3C//DTD SVG 1.1//EN" "http://www.w3.org/Graphics/SVG/1.1/DTD/svg11.dtd">
<!-- Creator: CorelDRAW X7 -->
<svg xmlns="http://www.w3.org/2000/svg" xml:space="preserve" width="10.4174in" height="7.31146in" version="1.1" style="shape-rendering:geometricPrecision; text-rendering:geometricPrecision; image-rendering:optimizeQuality; fill-rule:evenodd; clip-rule:evenodd"
viewBox="0 0 10668 7487"
 xmlns:xlink="http://www.w3.org/1999/xlink">
 <defs>
  <style type="text/css">
   <![CDATA[
    .fil0 {fill:black}
   ]]>
  </style>
 </defs>
 <g id="Layer_x0020_1">
  <metadata id="CorelCorpID_0Corel-Layer"/>
  <g id="_965631200">
   <path class="fil0" d="M5357 7153c40,-280 97,-481 109,-789 717,109 661,162 1438,137 -44,66 -90,93 -155,135l-523 287c-252,116 -564,198 -869,230zm2553 -1192c-70,-112 -169,-774 -187,-946 -78,-735 -71,-1460 64,-2184 65,-348 159,-623 236,-944 427,109 1118,643 1353,860l537 567c80,100 158,193 237,304 250,356 302,248 -445,1105 -410,470 -1175,1052 -1795,1238zm-5205 -1038c69,-207 -53,-237 -172,-316 -117,-77 -207,-146 -315,-226 -421,-311 -334,-51 -552,238 -271,358 -722,715 -1340,810 59,-609 397,-1392 404,-1513 5,-71 -346,-975 -403,-1540 489,70 1003,375 1272,731 58,76 93,114 144,194 157,249 76,415 546,69 373,-274 815,-553 1223,-783 1126,-634 2701,-1269 4216,-811 -198,860 -333,1041 -367,2076 -19,579 25,1143 126,1709 27,153 91,351 101,500 -200,99 -804,138 -1054,130 -872,-27 -1591,-289 -2359,-633 -185,-84 -287,-177 -408,-2 -8,193 89,201 247,276 468,221 700,268 1134,443 45,441 -184,914 -167,1125 142,115 131,94 427,63 1307,-139 2006,-1004 2127,-1055 112,-47 270,-72 401,-119 1135,-408 1835,-1094 2396,-1818 132,-170 413,-500 316,-674 -134,-243 -499,-725 -684,-918l-836 -741c-381,-277 -871,-548 -1423,-697 -390,-106 -377,-263 -605,-454 -271,-227 -439,-427 -629,-315 -97,242 125,286 485,627 -156,18 -518,-5 -923,41 -205,23 -697,163 -817,158 -16,-458 -65,-741 -124,-1170 253,32 747,224 888,210l88 -93c-37,-195 -47,-182 -228,-249 -116,-43 -228,-81 -359,-115 -128,-34 -262,-55 -402,-71 -522,-56 -336,103 -225,814 37,239 54,548 41,797 -1145,291 -2757,1490 -2869,1533 -62,-67 -92,-126 -141,-197 -110,-156 -354,-374 -523,-493 -267,-188 -570,-328 -957,-397 -250,-45 -419,-73 -403,229 11,197 51,401 91,579 38,166 308,1006 305,1042l-311 1040c-43,188 -82,387 -87,587 -6,275 179,235 418,191 770,-139 1296,-600 1603,-1092 413,192 384,431 684,280z"/>
   <path class="fil0" d="M6271 2727c-278,-40 -253,202 -280,446 -30,269 -160,1865 84,1952 299,107 197,-370 191,-461 -15,-233 -21,-466 -16,-700 5,-225 21,-445 45,-667 38,-356 105,-398 -24,-570z"/>
   <path class="fil0" d="M8588 2976c92,134 5,263 -125,190 -84,-48 -87,-230 125,-190zm-485 177c34,202 243,388 504,340 201,-37 375,-244 336,-494 -80,-528 -940,-432 -840,154z"/>
   <path class="fil0" d="M6808 3626c11,-121 59,-332 -12,-419 -79,-96 -243,-52 -275,89 -36,157 -89,1196 -13,1326 66,113 261,105 286,-70 7,-47 -9,-664 14,-926z"/>
   <path class="fil0" d="M3593 2812c-117,42 -704,368 -740,491 -36,126 62,222 201,184 62,-17 412,-248 511,-306 78,-45 204,-107 221,-189 28,-134 -82,-220 -193,-180z"/>
   <path class="fil0" d="M2923 5043c-54,229 59,229 208,318 123,74 241,175 362,47 67,-203 -62,-237 -202,-319 -126,-74 -239,-170 -368,-46z"/>
  </g>
 </g>
</svg>
