<?xml version="1.0" encoding="UTF-8"?>
<!DOCTYPE svg PUBLIC "-//W3C//DTD SVG 1.1//EN" "http://www.w3.org/Graphics/SVG/1.1/DTD/svg11.dtd">
<!-- Creator: CorelDRAW X7 -->
<svg xmlns="http://www.w3.org/2000/svg" xml:space="preserve" width="10.4174in" height="7.31146in" version="1.1" style="shape-rendering:geometricPrecision; text-rendering:geometricPrecision; image-rendering:optimizeQuality; fill-rule:evenodd; clip-rule:evenodd"
viewBox="0 0 10668 7487"
 xmlns:xlink="http://www.w3.org/1999/xlink">
 <defs>
  <style type="text/css">
   <![CDATA[
    .fil1 {fill:black}
    .fil2 {fill:#90C539}
    .fil0 {fill:#F68100}
   ]]>
  </style>
 </defs>
 <g id="Layer_x0020_1">
  <metadata id="CorelCorpID_0Corel-Layer"/>
  <g id="_963508512">
   <path class="fil0" d="M6808 3626c-23,262 -7,879 -14,926 -25,175 -220,183 -286,70 -76,-130 -23,-1169 13,-1326 32,-141 196,-185 275,-89 71,87 23,298 12,419zm-3215 -814c111,-40 221,46 193,180 -17,82 -143,144 -221,189 -99,58 -449,289 -511,306 -139,38 -237,-58 -201,-184 36,-123 623,-449 740,-491zm2678 -85c129,172 62,214 24,570 -24,222 -40,442 -45,667 -5,234 1,467 16,700 6,91 108,568 -191,461 -244,-87 -114,-1683 -84,-1952 27,-244 2,-486 280,-446zm-3566 2196c86,22 139,93 218,120 129,-124 242,-28 368,46 140,82 269,116 202,319 75,10 80,19 145,55 20,10 55,29 73,41 53,39 18,7 56,52 121,-175 223,-82 408,2 768,344 1487,606 2359,633 250,8 854,-31 1054,-130 -10,-149 -74,-347 -101,-500 -101,-566 -145,-1130 -126,-1709 34,-1035 169,-1216 367,-2076 -1515,-458 -3090,177 -4216,811 -408,230 -850,509 -1223,783 -470,346 -389,180 -546,-69 -51,-80 -86,-118 -144,-194 -269,-356 -783,-661 -1272,-731 57,565 408,1469 403,1540 -7,121 -345,904 -404,1513 618,-95 1069,-452 1340,-810 218,-289 131,-549 552,-238 108,80 198,149 315,226 119,79 241,109 172,316z"/>
   <path class="fil1" d="M5357 7153c40,-280 97,-481 109,-789 717,109 661,162 1438,137 -44,66 -90,93 -155,135l-523 287c-252,116 -564,198 -869,230zm2553 -1192c-70,-112 -169,-774 -187,-946 -78,-735 -71,-1460 64,-2184 65,-348 159,-623 236,-944 427,109 1118,643 1353,860l537 567c80,100 158,193 237,304 250,356 302,248 -445,1105 -410,470 -1175,1052 -1795,1238zm-5205 -1038c69,-207 -53,-237 -172,-316 -117,-77 -207,-146 -315,-226 -421,-311 -334,-51 -552,238 -271,358 -722,715 -1340,810 59,-609 397,-1392 404,-1513 5,-71 -346,-975 -403,-1540 489,70 1003,375 1272,731 58,76 93,114 144,194 157,249 76,415 546,69 373,-274 815,-553 1223,-783 1126,-634 2701,-1269 4216,-811 -198,860 -333,1041 -367,2076 -19,579 25,1143 126,1709 27,153 91,351 101,500 -200,99 -804,138 -1054,130 -872,-27 -1591,-289 -2359,-633 -185,-84 -287,-177 -408,-2 -8,193 89,201 247,276 468,221 700,268 1134,443 45,441 -184,914 -167,1125 142,115 131,94 427,63 1307,-139 2006,-1004 2127,-1055 112,-47 270,-72 401,-119 1135,-408 1835,-1094 2396,-1818 132,-170 413,-500 316,-674 -134,-243 -499,-725 -684,-918l-836 -741c-381,-277 -871,-548 -1423,-697 -390,-106 -377,-263 -605,-454 -271,-227 -439,-427 -629,-315 -97,242 125,286 485,627 -156,18 -518,-5 -923,41 -205,23 -697,163 -817,158 -16,-458 -65,-741 -124,-1170 253,32 747,224 888,210l88 -93c-37,-195 -47,-182 -228,-249 -116,-43 -228,-81 -359,-115 -128,-34 -262,-55 -402,-71 -522,-56 -336,103 -225,814 37,239 54,548 41,797 -1145,291 -2757,1490 -2869,1533 -62,-67 -92,-126 -141,-197 -110,-156 -354,-374 -523,-493 -267,-188 -570,-328 -957,-397 -250,-45 -419,-73 -403,229 11,197 51,401 91,579 38,166 308,1006 305,1042l-311 1040c-43,188 -82,387 -87,587 -6,275 179,235 418,191 770,-139 1296,-600 1603,-1092 413,192 384,431 684,280z"/>
   <path class="fil2" d="M8103 3153c-100,-586 760,-682 840,-154 39,250 -135,457 -336,494 -261,48 -470,-138 -504,-340zm-193 2808c620,-186 1385,-768 1795,-1238 747,-857 695,-749 445,-1105 -79,-111 -157,-204 -237,-304l-537 -567c-235,-217 -926,-751 -1353,-860 -77,321 -171,596 -236,944 -135,724 -142,1449 -64,2184 18,172 117,834 187,946z"/>
   <path class="fil1" d="M6271 2727c-278,-40 -253,202 -280,446 -30,269 -160,1865 84,1952 299,107 197,-370 191,-461 -15,-233 -21,-466 -16,-700 5,-225 21,-445 45,-667 38,-356 105,-398 -24,-570z"/>
   <path class="fil1" d="M8588 2976c92,134 5,263 -125,190 -84,-48 -87,-230 125,-190zm-485 177c34,202 243,388 504,340 201,-37 375,-244 336,-494 -80,-528 -940,-432 -840,154z"/>
   <path class="fil1" d="M6808 3626c11,-121 59,-332 -12,-419 -79,-96 -243,-52 -275,89 -36,157 -89,1196 -13,1326 66,113 261,105 286,-70 7,-47 -9,-664 14,-926z"/>
   <path class="fil1" d="M3593 2812c-117,42 -704,368 -740,491 -36,126 62,222 201,184 62,-17 412,-248 511,-306 78,-45 204,-107 221,-189 28,-134 -82,-220 -193,-180z"/>
   <path class="fil1" d="M2923 5043c-54,229 59,229 208,318 123,74 241,175 362,47 67,-203 -62,-237 -202,-319 -126,-74 -239,-170 -368,-46z"/>
  </g>
 </g>
</svg>
