<?xml version="1.0" encoding="UTF-8"?>
<!DOCTYPE svg PUBLIC "-//W3C//DTD SVG 1.1//EN" "http://www.w3.org/Graphics/SVG/1.1/DTD/svg11.dtd">
<!-- Creator: CorelDRAW X7 -->
<svg xmlns="http://www.w3.org/2000/svg" xml:space="preserve" width="6.58037in" height="9.38099in" version="1.1" style="shape-rendering:geometricPrecision; text-rendering:geometricPrecision; image-rendering:optimizeQuality; fill-rule:evenodd; clip-rule:evenodd"
viewBox="0 0 5973 8515"
 xmlns:xlink="http://www.w3.org/1999/xlink">
 <defs>
  <style type="text/css">
   <![CDATA[
    .fil0 {fill:black}
    .fil1 {fill:#041825}
   ]]>
  </style>
 </defs>
 <g id="Layer_x0020_1">
  <metadata id="CorelCorpID_0Corel-Layer"/>
  <g id="_985922864">
   <path class="fil0" d="M1171 7831c65,-64 216,-119 296,-167 241,-143 706,-485 841,-526 464,-141 626,752 675,1125 -697,4 -1332,-106 -1812,-432zm-883 -2095c35,-322 181,-607 350,-788 141,-151 451,-407 636,-473 119,102 258,187 371,292 105,97 235,202 348,299 389,335 499,277 893,402 190,60 227,281 57,364 -113,55 -421,-27 -552,-50 -872,-148 -1259,-162 -2103,-46zm5416 -1535c-61,27 -460,75 -593,114 -291,86 -668,338 -1073,73 -120,-78 -274,-222 -242,-435 51,-337 619,-422 871,-513 541,-196 676,-390 869,-493 82,128 178,1046 168,1254zm-2159 -3165c227,-65 34,-388 56,-582l575 -170c63,315 113,668 124,1006 -290,-23 -472,-26 -759,14 -169,57 -274,68 -427,152 -81,45 -127,75 -186,120 -482,360 -762,1137 -956,1704 -135,395 -202,508 -452,717 -385,321 -979,498 -1283,1088 -296,573 -317,1324 -51,1932 491,1124 1609,1617 3208,1474 713,-64 1312,-297 1701,-669 325,-311 513,-669 656,-1124 46,-148 135,-350 -21,-411 -184,-19 -171,184 -218,334 -232,734 -591,1188 -1332,1455 -275,99 -633,158 -946,173 -67,-556 -281,-1416 -859,-1380 -373,23 -928,621 -1442,779 -135,-110 -389,-433 -491,-671 -122,-285 -215,-616 -185,-973 1645,-365 2587,424 2964,-91 70,-95 97,-225 64,-359 -116,-481 -681,-219 -1201,-741 -46,-46 -72,-58 -117,-99l-461 -387c77,-76 199,-156 280,-227 536,-466 511,-1633 1203,-2248 413,-368 1070,-416 1561,-242 463,164 802,616 914,1063 -221,212 -653,469 -1036,583 -324,97 -869,231 -887,730 -15,426 424,746 847,768 504,26 575,-240 1330,-289 1,170 4,339 1,509 -3,176 -61,347 109,395 131,-12 134,-84 138,-214 22,-739 -4,-1565 -175,-2271 -158,-651 -435,-1151 -1000,-1443 -73,-38 -174,-62 -236,-103 -14,-298 -41,-597 -89,-882 -91,-537 -110,-493 -430,-396 -119,36 -678,170 -711,263 -26,74 46,327 59,425 19,144 4,287 161,288z"/>
   <path class="fil0" d="M4442 6574c-107,387 -689,243 -589,-155 33,-130 195,-263 377,-211 131,38 261,188 212,366zm-408 -614c-747,188 -464,1249 245,1082 254,-61 483,-335 410,-663 -58,-257 -326,-501 -655,-419z"/>
   <path class="fil0" d="M2846 2385c-99,43 -121,153 -190,302 -132,282 39,301 121,268 70,-28 130,-221 177,-311 146,-279 -59,-281 -108,-259z"/>
   <path class="fil1" d="M5751 6103c145,-2 150,-112 165,-246 18,-157 50,-253 -99,-287 -143,7 -133,102 -148,234 -17,157 -60,241 82,299z"/>
  </g>
 </g>
</svg>
