<?xml version="1.0" encoding="UTF-8"?>
<!DOCTYPE svg PUBLIC "-//W3C//DTD SVG 1.1//EN" "http://www.w3.org/Graphics/SVG/1.1/DTD/svg11.dtd">
<!-- Creator: CorelDRAW X7 -->
<svg xmlns="http://www.w3.org/2000/svg" xml:space="preserve" width="8.90298in" height="8.85277in" version="1.1" style="shape-rendering:geometricPrecision; text-rendering:geometricPrecision; image-rendering:optimizeQuality; fill-rule:evenodd; clip-rule:evenodd"
viewBox="0 0 9339 9286"
 xmlns:xlink="http://www.w3.org/1999/xlink">
 <defs>
  <style type="text/css">
   <![CDATA[
    .fil1 {fill:black}
    .fil0 {fill:white}
   ]]>
  </style>
 </defs>
 <g id="Layer_x0020_1">
  <metadata id="CorelCorpID_0Corel-Layer"/>
  <g id="_963334592">
   <path class="fil0" d="M2256 1960c2,-144 19,-655 -19,-756 -58,-151 -296,-261 -378,-413 -168,-314 94,-658 479,-582 118,24 178,88 266,123 297,-339 986,3 717,460 -86,146 -307,264 -370,402 -49,107 -26,600 -26,755 36,56 44,36 94,87 54,55 121,220 186,324 59,96 209,307 288,379 26,-15 6,0 30,-23 4,-4 14,-15 17,-19 311,-346 357,-642 533,-725 0,-149 18,-670 -23,-773 -54,-138 -284,-255 -370,-402 -135,-228 -10,-463 149,-549 235,-127 422,-7 577,81 164,-93 352,-210 589,-75 150,85 272,318 139,545 -85,146 -325,266 -375,413 -36,106 -17,608 -19,760 91,41 117,77 167,178 43,85 71,136 118,215 46,78 218,323 294,374 213,-249 264,-310 413,-606 71,-141 102,-102 158,-184 0,-162 26,-657 -31,-769 -71,-139 -293,-245 -372,-400 -115,-226 3,-450 165,-535 271,-141 494,51 585,87 105,-129 402,-183 580,-74 148,91 261,321 137,534 -89,153 -308,253 -372,400 -49,110 -25,599 -25,757 45,71 70,37 127,127 97,154 75,195 275,462 67,90 141,177 219,273 70,86 125,193 192,274 466,0 1027,-111 1183,387 51,162 41,544 -18,692 -68,168 -232,293 -446,325 -43,566 -138,1176 -205,1745 -69,574 -137,1150 -205,1723 -77,647 -17,588 -376,588l-5812 1c-206,-1 -180,-100 -207,-280l-497 -3364c-10,-69 -31,-355 -78,-400 -39,-37 -327,-67 -435,-352 -58,-150 -62,-538 -9,-691 158,-463 658,-374 1178,-374l309 -420c37,-48 77,-86 111,-134 171,-237 191,-338 273,-466 43,-68 64,-50 120,-105zm-2256 7326l9339 0 0 -9286 -9339 0 0 9286z"/>
   <path class="fil1" d="M7391 8299l-5852 0 -564 -3805 6866 0 -450 3805zm-6912 -4349c-27,-491 22,-620 469,-619l6583 0c361,0 777,-85 803,303 31,469 -3,615 -469,614l-6584 0c-341,0 -781,86 -802,-298zm4143 -1764c53,32 193,320 296,462 101,139 264,293 334,440l-1680 0c42,-104 142,-218 213,-303 112,-134 235,-308 318,-472 36,-71 45,-133 127,-135 103,-1 89,80 191,68 90,-10 74,-90 201,-60zm848 766l281 -361c48,-65 205,-371 255,-400 107,-46 107,52 209,57 106,5 122,-101 224,-57 49,24 203,324 301,461 70,99 297,358 330,433l-1521 2 -79 -135zm-2208 133l-1517 0c29,-64 348,-440 476,-654 37,-61 85,-200 151,-240 158,-69 72,139 335,6 169,-86 186,192 421,485 64,80 166,189 211,267 -20,57 -50,92 -77,136zm777 -2641c277,-5 262,318 439,191 74,-53 53,-123 182,-171 91,-35 205,-25 255,46 115,167 -142,287 -256,409 -138,149 -164,270 -164,538 1,486 47,556 -173,488 -33,-604 119,-792 -280,-1125 -47,-39 -149,-102 -165,-190 -23,-121 59,-184 162,-186zm1752 10c265,-89 290,211 440,202 104,-5 111,-107 193,-166 178,-129 429,20 303,198 -107,154 -392,253 -413,593 -14,212 13,446 -5,657 -80,47 -92,46 -171,-1 -15,-218 13,-459 -6,-674 -29,-339 -360,-458 -427,-596 -48,-99 10,-187 86,-213zm-3460 6c120,43 145,145 180,172 189,144 177,-216 469,-187 94,10 170,84 139,198 -20,76 -121,129 -171,181 -114,120 -245,206 -266,439 -12,142 22,593 -14,682 -219,97 -165,-80 -164,-506 0,-349 -68,-450 -355,-691 -218,-183 -19,-360 182,-288zm-75 1500c-56,55 -77,37 -120,105 -82,128 -102,229 -273,466 -34,48 -74,86 -111,134l-309 420c-520,0 -1020,-89 -1178,374 -53,153 -49,541 9,691 108,285 396,315 435,352 47,45 68,331 78,400l497 3364c27,180 1,279 207,280l5812 -1c359,0 299,59 376,-588 68,-573 136,-1149 205,-1723 67,-569 162,-1179 205,-1745 214,-32 378,-157 446,-325 59,-148 69,-530 18,-692 -156,-498 -717,-387 -1183,-387 -67,-81 -122,-188 -192,-274 -78,-96 -152,-183 -219,-273 -200,-267 -178,-308 -275,-462 -57,-90 -82,-56 -127,-127 0,-158 -24,-647 25,-757 64,-147 283,-247 372,-400 124,-213 11,-443 -137,-534 -178,-109 -475,-55 -580,74 -91,-36 -314,-228 -585,-87 -162,85 -280,309 -165,535 79,155 301,261 372,400 57,112 31,607 31,769 -56,82 -87,43 -158,184 -149,296 -200,357 -413,606 -76,-51 -248,-296 -294,-374 -47,-79 -75,-130 -118,-215 -50,-101 -76,-137 -167,-178 2,-152 -17,-654 19,-760 50,-147 290,-267 375,-413 133,-227 11,-460 -139,-545 -237,-135 -425,-18 -589,75 -155,-88 -342,-208 -577,-81 -159,86 -284,321 -149,549 86,147 316,264 370,402 41,103 23,624 23,773 -176,83 -222,379 -533,725 -3,4 -13,15 -17,19 -24,23 -4,8 -30,23 -79,-72 -229,-283 -288,-379 -65,-104 -132,-269 -186,-324 -50,-51 -58,-31 -94,-87 0,-155 -23,-648 26,-755 63,-138 284,-256 370,-402 269,-457 -420,-799 -717,-460 -88,-35 -148,-99 -266,-123 -385,-76 -647,268 -479,582 82,152 320,262 378,413 38,101 21,612 19,756z"/>
   <path class="fil1" d="M3326 6530c-86,-638 400,-1148 953,-1215 620,-74 1146,392 1208,940 74,643 -380,1156 -941,1224 -651,79 -1144,-386 -1220,-949zm2404 53c117,-785 -468,-1411 -1132,-1508 -783,-114 -1408,458 -1512,1117 -124,791 452,1422 1115,1526 801,126 1429,-460 1529,-1135z"/>
   <path class="fil1" d="M7119 6759c15,-137 -46,-268 -178,-188 -82,51 -75,224 -88,337 -29,250 -59,499 -89,748 -31,258 118,242 179,201 78,-52 73,-226 86,-338 29,-253 61,-504 90,-760z"/>
   <path class="fil1" d="M7201 6074c15,-118 50,-260 -66,-290 -134,-34 -159,86 -172,199 -14,120 -54,270 64,301 148,39 158,-91 174,-210z"/>
  </g>
 </g>
</svg>
