<?xml version="1.0" encoding="UTF-8"?>
<!DOCTYPE svg PUBLIC "-//W3C//DTD SVG 1.1//EN" "http://www.w3.org/Graphics/SVG/1.1/DTD/svg11.dtd">
<!-- Creator: CorelDRAW X7 -->
<svg xmlns="http://www.w3.org/2000/svg" xml:space="preserve" width="9.48137in" height="9.48677in" version="1.1" style="shape-rendering:geometricPrecision; text-rendering:geometricPrecision; image-rendering:optimizeQuality; fill-rule:evenodd; clip-rule:evenodd"
viewBox="0 0 9696 9701"
 xmlns:xlink="http://www.w3.org/1999/xlink">
 <defs>
  <style type="text/css">
   <![CDATA[
    .fil0 {fill:black}
   ]]>
  </style>
 </defs>
 <g id="Layer_x0020_1">
  <metadata id="CorelCorpID_0Corel-Layer"/>
  <g id="_862223552">
   <path class="fil0" d="M1533 9361c-302,13 -667,-334 -697,-606 0,-24 3,-27 16,-30l8010 0c-24,258 -253,476 -429,564 -247,124 -607,86 -906,86 -814,0 -5924,18 -5994,-14zm7318 -1280c177,-1 375,-22 503,95 40,98 -14,180 -76,211 -65,31 -206,17 -288,17 -1257,0 -8483,15 -8531,-10 -169,-13 -183,-264 -15,-306 105,-25 8223,-7 8407,-7zm39 -324l137 -403c41,-143 66,-308 82,-462 75,15 155,125 194,198 48,91 76,218 60,341 -14,105 -73,218 -123,278 -45,54 -68,50 -150,49 -66,-1 -133,0 -200,-1zm-8082 -1c-620,29 -527,-453 -352,-580 54,-39 304,-106 110,-340 -264,-318 162,-696 443,-457 46,38 98,101 115,186 53,280 -316,219 -316,1191zm612 -1346c-22,-25 -110,-185 -107,-210 28,-244 512,-314 593,-19 -51,31 -220,74 -370,158 -50,28 -67,49 -116,71zm4698 -464c-532,-2 -758,-355 -931,-748 -163,-369 -310,-1052 -28,-1357 295,-321 913,-229 1403,-244 754,-23 911,-320 1241,-442 84,-70 340,-160 489,60 95,141 120,419 93,615 -55,385 -269,683 -503,959 -279,329 -1049,1142 -1764,1157zm1807 -713c2,-3 5,-11 7,-9 1,2 5,-7 6,-9l114 -128c34,-36 102,-118 124,-158 46,26 78,81 108,126 397,593 610,1262 480,1992 -67,371 -116,406 -229,709l-464 3 -6940 -1c0,-410 42,-629 302,-925 77,-88 209,-196 351,-260 116,-52 369,-133 509,-100 14,142 29,268 50,404 59,383 311,221 333,106l-70 -617c-31,-555 60,-1107 270,-1555 348,-742 1174,-1389 2299,-1383 -40,38 -93,57 -138,93 -139,109 -237,224 -301,408 -86,248 -55,603 -9,863 79,450 322,969 662,1240 414,330 989,280 1470,35 327,-167 571,-365 826,-595 44,-39 75,-84 116,-125 43,-42 83,-71 124,-114zm-1595 -1963c-82,-3 -197,-47 -282,-68 -625,-153 -1291,-125 -1898,85 -94,32 -189,80 -281,104 17,-319 248,-481 466,-601 244,-135 501,-180 769,-282 161,-61 385,-161 520,-262 273,-203 467,-549 651,-668 199,-143 310,-111 457,44 251,263 297,752 205,1113 -30,115 -130,457 -184,526l-423 9zm2261 -171c-63,-150 -142,-175 -194,-241 44,-78 192,-148 201,-270 10,-131 -141,-195 -21,-370 54,-78 198,-170 327,-83 136,93 16,235 142,326 64,46 117,21 191,38 172,40 195,317 -17,418 -174,83 -231,-70 -364,-38 -94,23 -179,178 -265,220zm-1674 -1757c-216,-156 -133,-77 -269,-160 30,-104 144,-229 92,-348 -38,-86 -194,-130 -129,-327 35,-105 142,-206 282,-168 147,39 96,199 218,251 139,58 234,-97 358,40 87,96 67,243 -18,333 -131,140 -240,17 -354,86 -98,60 -107,210 -180,293zm-6917 5982l0 214c67,122 -10,81 168,333 -26,45 -71,75 -104,134 -37,65 -39,122 -64,174l0 134c75,167 122,400 495,414 56,200 76,311 183,469 383,569 936,500 1509,500 1771,0 3541,0 5312,0 433,0 825,50 1163,-165 338,-216 439,-429 534,-801 635,-85 557,-676 329,-838 25,-104 117,-199 150,-371 56,-291 -43,-596 -240,-791 -134,-132 -182,-128 -314,-205 -38,-648 -235,-1167 -588,-1677 -48,-70 -101,-123 -140,-187 36,-94 149,-186 253,-514 88,-276 60,-411 64,-693l223 -221c368,81 627,-86 726,-360 58,-158 47,-313 -33,-452 -28,-49 -93,-122 -133,-151 -40,-30 -180,-81 -193,-92 -1,-1 -163,-550 -701,-364 -138,47 -249,152 -311,256 -104,176 -72,276 -50,475 -309,344 -247,168 -541,297 -185,82 -372,236 -540,297 71,-334 191,-465 141,-949 -50,-497 -219,-434 -119,-632 27,-53 72,-142 87,-195 315,-14 570,-237 583,-552 13,-334 -209,-557 -577,-562 -97,-161 -333,-282 -574,-241 -155,37 -244,78 -366,334 -125,262 -27,425 65,598 -129,410 -232,189 -649,721 -565,723 -1145,514 -1769,971 -374,274 -446,515 -416,939 -363,219 -708,580 -926,1000 -179,344 -286,722 -331,1115 -10,90 -18,403 -34,452 -55,-4 -38,-5 -60,-67 -161,-447 -861,-626 -1177,-50 -345,-78 -510,-22 -709,174 -69,68 -135,197 -155,328 -33,210 27,260 68,414 -226,212 -153,239 -239,387z"/>
   <path class="fil0" d="M3866 4420c46,-123 -123,-362 -333,-89 -319,415 -449,1044 -462,1581 -3,120 19,206 127,226 248,46 193,-292 209,-468 25,-280 90,-574 200,-824 102,-231 243,-384 259,-426z"/>
   <path class="fil0" d="M3072 6806c19,186 379,266 318,-197 -15,-113 -131,-183 -242,-121 -93,52 -88,201 -76,318z"/>
  </g>
 </g>
</svg>
