<?xml version="1.0" encoding="UTF-8"?>
<!DOCTYPE svg PUBLIC "-//W3C//DTD SVG 1.1//EN" "http://www.w3.org/Graphics/SVG/1.1/DTD/svg11.dtd">
<!-- Creator: CorelDRAW X7 -->
<svg xmlns="http://www.w3.org/2000/svg" xml:space="preserve" width="8.11329in" height="8.11336in" version="1.1" style="shape-rendering:geometricPrecision; text-rendering:geometricPrecision; image-rendering:optimizeQuality; fill-rule:evenodd; clip-rule:evenodd"
viewBox="0 0 7674 7674"
 xmlns:xlink="http://www.w3.org/1999/xlink">
 <defs>
  <style type="text/css">
   <![CDATA[
    .fil0 {fill:black}
    .fil1 {fill:#F68100}
   ]]>
  </style>
 </defs>
 <g id="Layer_x0020_1">
  <metadata id="CorelCorpID_0Corel-Layer"/>
  <g id="_861589488">
  </g>
  <g id="_861575280">
  </g>
  <g id="_861577296">
  </g>
  <g id="_861580144">
  </g>
  <g id="_861580176">
  </g>
  <g id="_861579824">
  </g>
  <g id="_861579856">
  </g>
  <g id="_861577680">
  </g>
  <g id="_861578864">
  </g>
  <g id="_861582128">
  </g>
  <g id="_861581712">
  </g>
  <g id="_861583696">
  </g>
  <g id="_861583248">
  </g>
  <g id="_861583728">
  </g>
  <g id="_861581104">
  </g>
  <g id="_861580528">
  </g>
  <g id="_861582352">
  </g>
  <g id="_861585488">
  </g>
  <g id="_861584048">
  </g>
  <g id="_861585232">
  </g>
  <g id="_861582992">
  </g>
  <g id="_861583888">
  </g>
  <g id="_861586000">
  </g>
  <g id="_861586096">
  </g>
  <g id="_861586320">
  </g>
  <g id="_861584688">
  </g>
  <g id="_861584880">
  </g>
  <g id="_861589936">
  </g>
  <g id="_861587920">
  </g>
  <g id="_861586608">
  </g>
  <g id="_861586512">
  </g>
  <g id="_861589136">
  </g>
  <g id="_861587184">
  </g>
  <g id="_861586736">
  </g>
  <g id="_861590384">
  </g>
  <g id="_861589680">
  </g>
  <g id="_861588720">
  </g>
  <g id="_861588592">
  </g>
  <g id="_861590128">
  </g>
  <g id="_861576336">
  </g>
  <g id="_861576560">
  </g>
  <g id="_861575024">
  </g>
  <g id="_861576432">
  </g>
  <g id="_860743472">
  </g>
  <g id="_860743984">
  </g>
  <path class="fil0" d="M3837 4732c-664,1 -1238,-464 -1377,-1114 -105,120 -231,220 -371,298 -251,137 -537,196 -822,170 -773,-77 -1337,-767 -1260,-1540 67,-673 604,-1203 1277,-1262 68,-773 749,-1346 1523,-1279 414,36 791,254 1030,595 445,-636 1322,-791 1958,-346 341,239 558,616 594,1030 774,68 1347,750 1279,1525 -59,673 -588,1209 -1261,1277 -285,27 -572,-32 -823,-170 -139,-78 -265,-178 -371,-298 -138,650 -712,1115 -1376,1114zm-1274 -1625c71,0 128,57 128,128 0,3 0,7 0,11 -3,25 -5,52 -5,79 0,636 515,1152 1151,1152 636,0 1151,-516 1151,-1152 0,-27 -2,-54 -5,-79 -3,-36 9,-71 34,-98 53,-51 139,-49 190,5 8,8 15,17 21,28l0 0c103,216 271,395 481,511 206,112 441,161 674,139 633,-64 1094,-629 1029,-1261 -59,-588 -554,-1035 -1145,-1035 -71,0 -128,-57 -128,-128 0,0 0,0 0,0 0,-636 -515,-1151 -1150,-1151 -442,0 -845,253 -1037,651 -37,63 -119,85 -182,48 -20,-12 -37,-29 -48,-48 -276,-573 -964,-813 -1536,-537 -398,192 -651,595 -651,1037 0,71 -57,128 -128,128 0,0 0,0 0,0 -636,0 -1151,515 -1151,1151 0,591 448,1086 1036,1145 37,4 76,6 115,6 444,-1 848,-256 1040,-656l0 0c21,-45 66,-74 116,-74z"/>
  <path class="fil1" d="M3517 4563c-21,7 -42,12 -64,15l0 -32c21,6 43,12 64,17z"/>
  <path class="fil0" d="M4221 7674l-768 0c-494,-1 -894,-401 -895,-895l0 -512c0,-832 -1356,-2198 -1369,-2212 -24,-24 -38,-56 -38,-90 0,-37 15,-72 42,-98 26,-25 62,-38 98,-36 233,22 468,-27 674,-139 61,-34 138,-13 173,48l19 33 702 1020c80,116 239,146 355,66 70,-47 112,-126 111,-211l0 -102c0,-41 20,-79 53,-103 33,-24 75,-31 114,-19 225,70 466,70 690,0 39,-12 81,-5 114,19 33,24 53,62 53,103l0 102c-1,141 113,256 254,256 85,0 164,-41 212,-111l721 -1053c35,-60 112,-81 173,-48 206,113 441,161 674,139 36,-3 72,9 98,33 27,25 42,59 42,95l0 6c0,34 -14,67 -38,91 -13,13 -1369,1379 -1369,2211l0 512c-1,494 -401,894 -895,895zm-2653 -3590c397,434 1246,1449 1246,2183l0 512c0,353 286,639 639,639l768 0c353,0 639,-286 639,-639l0 -512c0,-734 849,-1749 1246,-2183 -143,-17 -283,-56 -415,-115l-666 969c-159,233 -478,292 -711,132 -121,-84 -201,-215 -218,-362 -171,32 -347,32 -518,0 -33,281 -288,481 -568,448 -147,-17 -278,-97 -362,-218l-666 -969c-131,60 -271,98 -414,115z"/>
  <path class="fil0" d="M2686 2814c-71,0 -128,-57 -128,-128 0,0 0,0 0,0 1,-305 -121,-598 -337,-814 -50,-50 -49,-131 1,-181 50,-49 130,-49 180,0 264,264 412,622 412,995 0,71 -57,128 -128,128l0 0z"/>
  <path class="fil0" d="M4988 2814c-71,0 -128,-57 -128,-128 0,0 0,0 0,0 0,-373 148,-731 412,-995 50,-50 131,-49 181,1 49,50 49,130 0,180 -216,216 -338,509 -337,814 0,71 -57,128 -128,128l0 0z"/>
  <g id="_860755696">
  </g>
  <g id="_860744176">
  </g>
  <g id="_860749744">
  </g>
  <g id="_860756784">
  </g>
  <g id="_860753488">
  </g>
  <g id="_860747344">
  </g>
  <g id="_860746320">
  </g>
  <g id="_860756336">
  </g>
  <g id="_860752400">
  </g>
  <g id="_860752368">
  </g>
  <g id="_860748208">
  </g>
  <g id="_860754448">
  </g>
  <g id="_860747984">
  </g>
  <g id="_860746864">
  </g>
  <g id="_860745008">
  </g>
 </g>
</svg>
