<?xml version="1.0" encoding="UTF-8"?>
<!DOCTYPE svg PUBLIC "-//W3C//DTD SVG 1.1//EN" "http://www.w3.org/Graphics/SVG/1.1/DTD/svg11.dtd">
<!-- Creator: CorelDRAW X7 -->
<svg xmlns="http://www.w3.org/2000/svg" xml:space="preserve" width="8.11329in" height="8.11336in" version="1.1" style="shape-rendering:geometricPrecision; text-rendering:geometricPrecision; image-rendering:optimizeQuality; fill-rule:evenodd; clip-rule:evenodd"
viewBox="0 0 7674 7674"
 xmlns:xlink="http://www.w3.org/1999/xlink">
 <defs>
  <style type="text/css">
   <![CDATA[
    .fil1 {fill:black}
    .fil0 {fill:#90C539}
    .fil2 {fill:#F68100}
   ]]>
  </style>
 </defs>
 <g id="Layer_x0020_1">
  <metadata id="CorelCorpID_0Corel-Layer"/>
  <g id="_860748016">
  </g>
  <g id="_860741904">
  </g>
  <g id="_860742096">
  </g>
  <g id="_860754064">
  </g>
  <g id="_860754032">
  </g>
  <g id="_860752208">
  </g>
  <g id="_860756272">
  </g>
  <g id="_860744080">
  </g>
  <g id="_860755856">
  </g>
  <g id="_860754800">
  </g>
  <g id="_860757648">
  </g>
  <g id="_860751280">
  </g>
  <g id="_860748560">
  </g>
  <g id="_860751120">
  </g>
  <g id="_860745296">
  </g>
  <g id="_860749488">
  </g>
  <g id="_860745776">
  </g>
  <g id="_860750320">
  </g>
  <g id="_860757840">
  </g>
  <g id="_860749904">
  </g>
  <g id="_860751600">
  </g>
  <g id="_860750032">
  </g>
  <g id="_860747280">
  </g>
  <g id="_860753648">
  </g>
  <g id="_860751056">
  </g>
  <g id="_860746000">
  </g>
  <g id="_860746032">
  </g>
  <g id="_860746384">
  </g>
  <g id="_860755376">
  </g>
  <g id="_860752720">
  </g>
  <g id="_860752176">
  </g>
  <g id="_860747248">
  </g>
  <g id="_860755024">
  </g>
  <g id="_860752624">
  </g>
  <g id="_860744272">
  </g>
  <g id="_860748752">
  </g>
  <g id="_860746800">
  </g>
  <g id="_860749328">
  </g>
  <g id="_860748176">
  </g>
  <g id="_860742224">
  </g>
  <g id="_860744368">
  </g>
  <g id="_860751760">
  </g>
  <g id="_860754736">
  </g>
  <g id="_860756048">
  </g>
  <g id="_859002976">
  </g>
  <path class="fil0" d="M6267 1407c1,-706 -571,-1278 -1277,-1279 -468,0 -900,256 -1124,668l-1 0c-15,7 -29,16 -43,25 -324,-627 -1095,-873 -1723,-549 -425,219 -692,657 -692,1135 -148,0 -296,26 -435,77 -664,240 -1008,973 -768,1637 167,463 585,788 1075,838 42,3 85,6 128,6 214,0 424,-54 611,-157 4,-1 7,-2 9,-4 7,-4 14,-8 21,-13 224,-128 403,-322 514,-555 0,-1 0,-1 1,-1l0 0c-2,29 -5,60 -5,90 0,559 363,1053 895,1221 250,78 518,78 768,0 78,-25 155,-58 227,-98 411,-224 667,-654 668,-1123 0,-30 -3,-61 -5,-90 0,0 1,0 1,1l0 0c115,240 302,439 535,568 189,106 403,161 620,161 43,0 86,-3 128,-6 169,-17 333,-67 482,-149 621,-337 851,-1113 514,-1734 -224,-412 -655,-669 -1124,-669z"/>
  <path class="fil1" d="M3837 4732c-664,1 -1238,-464 -1377,-1114 -105,120 -231,220 -371,298 -251,137 -537,196 -822,170 -773,-77 -1337,-767 -1260,-1540 67,-673 604,-1203 1277,-1262 68,-773 749,-1346 1523,-1279 414,36 791,254 1030,595 445,-636 1322,-791 1958,-346 341,239 558,616 594,1030 774,68 1347,750 1279,1525 -59,673 -588,1209 -1261,1277 -285,27 -572,-32 -823,-170 -139,-78 -265,-178 -371,-298 -138,650 -712,1115 -1376,1114zm-1274 -1625c71,0 128,57 128,128 0,3 0,7 0,11 -3,25 -5,52 -5,79 0,636 515,1152 1151,1152 636,0 1151,-516 1151,-1152 0,-27 -2,-54 -5,-79 -3,-36 9,-71 34,-98 53,-51 139,-49 190,5 8,8 15,17 21,28l0 0c103,216 271,395 481,511 206,112 441,161 674,139 633,-64 1094,-629 1029,-1261 -59,-588 -554,-1035 -1145,-1035 -71,0 -128,-57 -128,-128 0,0 0,0 0,0 0,-636 -515,-1151 -1150,-1151 -442,0 -845,253 -1037,651 -37,63 -119,85 -182,48 -20,-12 -37,-29 -48,-48 -276,-573 -964,-813 -1536,-537 -398,192 -651,595 -651,1037 0,71 -57,128 -128,128 0,0 0,0 0,0 -636,0 -1151,515 -1151,1151 0,591 448,1086 1036,1145 37,4 76,6 115,6 444,-1 848,-256 1040,-656l0 0c21,-45 66,-74 116,-74z"/>
  <g id="_859007520">
   <path class="fil2" d="M3517 4563c-21,7 -42,12 -64,15l0 -32c21,6 43,12 64,17z"/>
   <path class="fil2" d="M6267 3965c-217,0 -431,-55 -620,-161l-19 33 -86 125 -622 903c-120,176 -359,220 -534,100 -41,-28 -75,-63 -103,-104 -42,-63 -63,-137 -62,-213l0 -102c-124,39 -254,59 -384,58 -86,1 -172,-8 -256,-26 -22,-3 -43,-8 -64,-15 -21,7 -42,12 -64,15l0 70c1,212 -171,384 -382,384 -127,0 -246,-62 -317,-167l-3 -4 -705 -1024 -19 -33c-164,92 -347,146 -534,158 -28,2 -58,3 -86,3 -43,0 -86,-3 -128,-6l0 6c0,0 1407,1407 1407,2302l0 512c0,423 344,767 767,767l768 0c423,0 767,-344 767,-767l0 -512c0,-895 1407,-2302 1407,-2302l0 -6c-42,3 -84,6 -128,6z"/>
  </g>
  <path class="fil1" d="M4221 7674l-768 0c-494,-1 -894,-401 -895,-895l0 -512c0,-832 -1356,-2198 -1369,-2212 -24,-24 -38,-56 -38,-90 0,-37 15,-72 42,-98 26,-25 62,-38 98,-36 233,22 468,-27 674,-139 61,-34 138,-13 173,48l19 33 702 1020c80,116 239,146 355,66 70,-47 112,-126 111,-211l0 -102c0,-41 20,-79 53,-103 33,-24 75,-31 114,-19 225,70 466,70 690,0 39,-12 81,-5 114,19 33,24 53,62 53,103l0 102c-1,141 113,256 254,256 85,0 164,-41 212,-111l721 -1053c35,-60 112,-81 173,-48 206,113 441,161 674,139 36,-3 72,9 98,33 27,25 42,59 42,95l0 6c0,34 -14,67 -38,91 -13,13 -1369,1379 -1369,2211l0 512c-1,494 -401,894 -895,895zm-2653 -3590c397,434 1246,1449 1246,2183l0 512c0,353 286,639 639,639l768 0c353,0 639,-286 639,-639l0 -512c0,-734 849,-1749 1246,-2183 -143,-17 -283,-56 -415,-115l-666 969c-159,233 -478,292 -711,132 -121,-84 -201,-215 -218,-362 -171,32 -347,32 -518,0 -33,281 -288,481 -568,448 -147,-17 -278,-97 -362,-218l-666 -969c-131,60 -271,98 -414,115z"/>
  <path class="fil1" d="M2686 2814c-71,0 -128,-57 -128,-128 0,0 0,0 0,0 1,-305 -121,-598 -337,-814 -50,-50 -49,-131 1,-181 50,-49 130,-49 180,0 264,264 412,622 412,995 0,71 -57,128 -128,128l0 0z"/>
  <path class="fil1" d="M4988 2814c-71,0 -128,-57 -128,-128 0,0 0,0 0,0 0,-373 148,-731 412,-995 50,-50 131,-49 181,1 49,50 49,130 0,180 -216,216 -338,509 -337,814 0,71 -57,128 -128,128l0 0z"/>
  <g id="_859006432">
  </g>
  <g id="_859005024">
  </g>
  <g id="_859005408">
  </g>
  <g id="_859006048">
  </g>
  <g id="_859007232">
  </g>
  <g id="_859006272">
  </g>
  <g id="_859003584">
  </g>
  <g id="_859002528">
  </g>
  <g id="_859001152">
  </g>
  <g id="_859000320">
  </g>
  <g id="_858997120">
  </g>
  <g id="_858997760">
  </g>
  <g id="_859005088">
  </g>
  <g id="_858994688">
  </g>
  <g id="_858994368">
  </g>
 </g>
</svg>
