<?xml version="1.0" encoding="UTF-8"?>
<!DOCTYPE svg PUBLIC "-//W3C//DTD SVG 1.1//EN" "http://www.w3.org/Graphics/SVG/1.1/DTD/svg11.dtd">
<!-- Creator: CorelDRAW X7 -->
<svg xmlns="http://www.w3.org/2000/svg" xml:space="preserve" width="8.62699in" height="8.66666in" version="1.1" style="shape-rendering:geometricPrecision; text-rendering:geometricPrecision; image-rendering:optimizeQuality; fill-rule:evenodd; clip-rule:evenodd"
viewBox="0 0 8317 8355"
 xmlns:xlink="http://www.w3.org/1999/xlink">
 <defs>
  <style type="text/css">
   <![CDATA[
    .fil1 {fill:black}
    .fil0 {fill:#90C539}
   ]]>
  </style>
 </defs>
 <g id="Layer_x0020_1">
  <metadata id="CorelCorpID_0Corel-Layer"/>
  <g id="_1000003600">
   <path class="fil0" d="M462 8095l-265 -651 105 -956 273 -747 441 -538 129 -442 249 -153 185 -434 289 -249c0,0 285,-413 293,-433 8,-21 249,-350 249,-350l310 -289 265 -89c0,0 401,-224 442,-245 40,-20 514,-321 514,-321l498 -209c0,0 478,-92 518,-112 40,-20 462,-121 462,-121l92 422 4 466 -24 333 36 486 -293 306 -140 566 -113 450 -201 241 -237 365 -289 390 -237 281 -281 209 -161 161 -165 333 -441 269 -257 334 -406 273 -478 309 -1020 229 -346 -84z"/>
   <path class="fil1" d="M5164 2745c0,275 101,151 170,245 168,231 -371,576 -371,786 0,63 41,108 67,147 -64,96 -419,316 -225,506 90,87 78,90 78,190 0,40 -68,121 -147,121 -82,0 -126,-26 -193,8 -57,29 -89,93 -89,166 0,152 182,128 101,234 -49,63 -247,102 -299,144 -94,76 -76,162 -29,251 -74,36 -177,62 -244,104 -209,131 -172,223 -104,351 -25,12 -46,17 -70,24 -133,39 -257,82 -349,187 -196,223 71,312 -117,312 -75,0 -198,-22 -249,-9 -208,56 -89,276 -86,290 -122,28 -376,156 -446,316 -21,48 -36,155 -36,219 -50,5 -108,23 -166,35 -62,12 -122,27 -171,44 -72,24 -225,138 -225,202l0 67c-186,0 -391,88 -545,165 -97,49 -93,64 -220,115 -236,94 -331,44 -520,28 0,-75 -20,-109 -53,-148 -42,-48 -74,-52 -162,-52 -34,-146 -107,-137 -107,-456 0,-187 134,-347 134,-749 0,-47 -10,-52 -13,-94 51,-55 214,-111 214,-335 0,-122 -13,-188 -13,-308 366,0 398,-500 428,-562 78,37 139,35 204,-24 131,-120 10,-199 10,-458 0,-69 49,-14 107,-14 100,0 209,-121 239,-189 51,-116 56,-222 56,-386 264,139 344,-240 348,-415 145,69 236,-22 259,-170 22,-145 3,-185 103,-272 50,34 144,142 288,21 102,-85 -1,-212 35,-327 75,-238 291,-56 359,-56 110,0 160,-39 228,-133 27,-38 108,-169 121,-215 103,9 126,146 331,-43 54,-50 83,-105 134,-161 172,-193 165,-265 391,-265 85,0 22,134 255,134 192,0 37,-196 313,-302l504 -113c0,171 13,374 -13,523 -45,259 -215,159 -215,321zm-3923 5610l-532 0c-189,-13 -368,-49 -440,-140 -2,-2 -4,-5 -6,-7l-215 -467c-58,-185 -60,-322 -24,-536 28,-161 106,-340 106,-510 0,-98 -29,-294 -5,-366 22,-67 75,-126 129,-166 30,-23 31,-15 63,-31 0,-165 -9,-297 40,-415 101,-243 269,-188 317,-258 16,-24 18,-51 28,-80 48,-139 86,-372 258,-412 0,-159 14,-265 90,-351 62,-71 161,-141 285,-144 0,-156 5,-331 82,-440 23,-33 76,-79 114,-100 44,-26 100,-37 152,-49 0,-129 35,-205 97,-278 28,-32 67,-58 108,-79 89,-45 60,-9 88,-99 55,-174 176,-344 376,-361 22,-95 37,-134 86,-208 35,-52 83,-114 137,-145 200,-114 272,-78 460,-62 100,-149 147,-257 341,-302 103,-24 93,-8 181,-6 42,-62 82,-105 130,-165 359,-446 644,-263 754,-263l179 -129c76,-42 150,-58 233,-75 144,-30 361,-75 481,-135 145,-74 237,-159 336,-280l615 -617c219,-195 888,-679 1169,-679 224,0 453,77 629,200 58,41 48,45 85,103 25,41 56,51 78,96 157,325 33,858 -174,1116 -22,27 -35,38 -56,65 -74,96 -177,171 -279,243 -64,45 -286,159 -364,159 -71,0 -187,-69 -187,-148 0,-145 38,-167 164,-210 122,-42 212,-108 310,-185 115,-90 186,-237 234,-370 15,-42 28,-99 36,-150 42,-267 13,-417 -255,-512 -182,-64 -307,-1 -452,86 -368,222 -698,472 -1005,776l-147 160c-159,168 -286,340 -324,573 -37,226 42,366 -31,625l-71 172c-31,68 95,174 95,347 0,203 -171,547 -335,657 11,136 103,372 -201,575 39,168 67,122 67,335 0,159 -171,380 -321,415 0,135 -23,227 -84,304 -131,167 -229,135 -257,213 -26,73 -30,126 -85,195 -50,62 -131,137 -230,145 0,173 -34,277 -134,348 -101,73 -230,110 -362,121 0,272 -148,468 -415,468 -39,75 -21,78 -83,145 -195,210 -387,157 -399,270 -19,170 -24,230 -139,316 -99,74 -176,95 -324,118 -166,25 -27,101 -213,242 -164,123 -302,8 -670,214 -54,30 -99,48 -151,76 -45,24 -100,52 -163,52z"/>
   <path class="fil1" d="M3584 3521c0,249 247,256 321,134 42,-67 47,-135 76,-219 33,-100 101,-262 14,-353 -74,-77 -196,-79 -267,7 -40,49 -144,420 -144,431z"/>
   <path class="fil1" d="M2419 4700c0,174 144,207 230,190 109,-22 266,-245 266,-445 0,-170 -204,-245 -312,-138 -42,42 -41,67 -52,136 -21,127 -132,154 -132,257z"/>
   <path class="fil1" d="M3437 5008c0,207 201,255 319,144 56,-53 40,-76 73,-114 25,-28 70,-33 107,-67 175,-155 -63,-479 -362,-201 -44,40 -137,164 -137,238z"/>
   <path class="fil1" d="M4361 4231c121,0 135,-67 160,-120 195,93 347,-185 183,-303 -173,-125 -407,-34 -499,133 -72,131 32,290 156,290z"/>
   <path class="fil1" d="M2566 6280c0,157 161,263 292,157 50,-40 47,-60 81,-106 55,-75 150,-100 150,-225 0,-128 -188,-307 -400,-39 -31,39 -123,157 -123,213z"/>
   <path class="fil1" d="M1817 5476c0,93 -9,227 43,292 80,99 254,138 313,-29 18,-53 12,-280 7,-303 -34,-133 -188,-203 -307,-91 -38,35 -56,62 -56,131z"/>
   <path class="fil1" d="M1027 6829c0,41 50,147 187,147 79,0 188,-109 188,-188l0 -160c0,-264 -355,-263 -372,-38 -3,46 15,48 9,115 -5,44 -12,59 -12,124z"/>
   <path class="fil1" d="M1589 6949c0,179 180,249 332,131 41,-33 0,-5 51,-30 171,-83 141,-252 80,-310 -180,-174 -463,66 -463,209z"/>
  </g>
 </g>
</svg>
