<?xml version="1.0" encoding="UTF-8"?>
<!DOCTYPE svg PUBLIC "-//W3C//DTD SVG 1.1//EN" "http://www.w3.org/Graphics/SVG/1.1/DTD/svg11.dtd">
<!-- Creator: CorelDRAW X7 -->
<svg xmlns="http://www.w3.org/2000/svg" xml:space="preserve" width="8.62699in" height="8.66666in" version="1.1" style="shape-rendering:geometricPrecision; text-rendering:geometricPrecision; image-rendering:optimizeQuality; fill-rule:evenodd; clip-rule:evenodd"
viewBox="0 0 8121 8158"
 xmlns:xlink="http://www.w3.org/1999/xlink">
 <defs>
  <style type="text/css">
   <![CDATA[
    .fil0 {fill:black}
   ]]>
  </style>
 </defs>
 <g id="Layer_x0020_1">
  <metadata id="CorelCorpID_0Corel-Layer"/>
  <g id="_999766800">
   <path class="fil0" d="M5043 2680c0,269 98,148 165,240 164,225 -362,562 -362,767 0,61 40,106 66,144 -63,94 -409,309 -219,494 87,84 75,88 75,186 0,39 -66,117 -144,117 -79,0 -122,-25 -188,9 -56,28 -86,90 -86,161 0,149 177,126 98,229 -47,61 -241,100 -292,140 -92,75 -75,159 -29,246 -72,35 -173,60 -238,101 -204,129 -168,218 -102,343 -24,12 -44,17 -68,24 -130,38 -250,79 -340,182 -191,218 69,304 -115,304 -73,0 -193,-21 -243,-8 -203,54 -87,269 -83,283 -120,28 -368,152 -436,309 -21,46 -35,151 -35,214 -49,4 -105,22 -163,33 -60,12 -119,27 -166,43 -71,24 -220,135 -220,198l0 66c-181,0 -382,86 -532,161 -95,47 -92,62 -215,112 -230,92 -323,43 -508,27 0,-73 -19,-106 -52,-144 -40,-47 -72,-52 -158,-52 -33,-142 -104,-133 -104,-444 0,-183 131,-339 131,-732 0,-45 -10,-51 -14,-92 51,-53 210,-108 210,-327 0,-119 -13,-184 -13,-300 357,0 389,-489 418,-550 76,37 136,35 199,-23 128,-117 10,-194 10,-447 0,-68 48,-13 105,-13 97,0 204,-119 233,-185 50,-113 54,-217 54,-378 258,137 337,-233 340,-405 142,68 230,-21 253,-166 22,-141 3,-181 100,-265 50,33 141,139 282,20 99,-83 -1,-206 34,-319 73,-232 284,-54 351,-54 107,0 156,-38 223,-131 26,-37 105,-165 117,-209 101,8 123,142 324,-42 53,-49 81,-103 130,-158 168,-188 162,-258 383,-258 82,0 21,131 248,131 188,0 37,-192 306,-296l492 -109c0,167 13,364 -13,510 -44,253 -209,156 -209,313zm-3831 5478l-520 0c-184,-12 -359,-47 -429,-136 -2,-2 -4,-5 -6,-7l-211 -456c-56,-181 -58,-314 -22,-523 26,-158 103,-333 103,-499 0,-95 -28,-287 -5,-357 22,-65 73,-123 126,-162 30,-22 30,-15 62,-30 0,-161 -9,-291 39,-405 98,-238 262,-184 309,-253 16,-23 18,-49 27,-77 47,-137 84,-363 252,-402 0,-156 14,-260 88,-344 61,-69 158,-137 278,-140 0,-152 5,-324 81,-430 22,-32 74,-77 111,-98 43,-24 98,-36 148,-47 0,-127 35,-201 95,-272 27,-31 65,-57 106,-77 87,-44 58,-9 86,-97 54,-170 172,-336 367,-352 22,-93 36,-131 84,-203 34,-51 81,-111 134,-141 194,-112 265,-77 449,-61 97,-146 144,-251 332,-295 101,-24 92,-8 178,-6 40,-60 79,-102 126,-161 351,-436 629,-257 737,-257l175 -126c74,-41 146,-57 227,-74 140,-29 353,-72 469,-131 142,-72 232,-156 328,-274l601 -602c214,-190 867,-663 1141,-663 220,0 443,75 615,196 57,39 47,43 83,100 24,40 55,50 76,94 153,317 32,838 -170,1090 -21,25 -34,36 -55,63 -72,94 -172,167 -272,237 -63,44 -279,155 -355,155 -70,0 -183,-67 -183,-144 0,-141 37,-163 160,-205 119,-42 207,-106 303,-181 112,-88 181,-232 228,-361 15,-41 28,-96 36,-147 41,-260 12,-406 -249,-499 -178,-63 -301,-2 -442,83 -359,217 -681,461 -981,758l-144 156c-155,165 -279,333 -316,560 -36,221 41,357 -30,611l-70 167c-30,67 93,170 93,339 0,199 -167,534 -327,641 11,133 100,364 -196,562 38,164 65,119 65,327 0,155 -167,371 -314,406 0,131 -22,221 -82,297 -128,162 -223,131 -250,207 -26,72 -30,123 -84,191 -48,61 -127,133 -224,141 0,169 -33,271 -131,341 -99,70 -224,106 -353,117 0,266 -144,457 -405,457 -39,73 -21,77 -81,142 -191,205 -378,153 -390,264 -18,165 -24,224 -136,308 -96,73 -172,93 -317,115 -161,24 -25,99 -208,237 -159,120 -294,8 -654,208 -52,30 -96,48 -147,75 -44,24 -97,50 -159,50z"/>
   <path class="fil0" d="M3500 3439c0,242 241,249 314,130 40,-65 45,-132 73,-214 33,-97 99,-256 14,-344 -72,-76 -192,-77 -260,6 -40,48 -141,410 -141,422z"/>
   <path class="fil0" d="M2362 4589c0,170 141,202 225,186 106,-22 259,-239 259,-434 0,-166 -199,-240 -305,-135 -40,41 -39,65 -50,133 -20,124 -129,150 -129,250z"/>
   <path class="fil0" d="M3356 4890c0,202 196,249 311,141 56,-52 39,-75 72,-111 25,-28 68,-33 105,-65 171,-153 -62,-468 -354,-198 -43,40 -134,161 -134,233z"/>
   <path class="fil0" d="M4258 4132c119,0 132,-66 157,-118 190,91 338,-180 178,-296 -169,-122 -397,-33 -487,131 -70,127 32,283 152,283z"/>
   <path class="fil0" d="M2506 6132c0,154 157,257 285,154 49,-40 46,-59 79,-104 54,-73 146,-97 146,-220 0,-125 -183,-300 -391,-38 -29,38 -119,153 -119,208z"/>
   <path class="fil0" d="M1774 5347c0,91 -9,222 42,285 78,97 249,135 306,-28 18,-52 12,-273 6,-296 -33,-130 -183,-198 -299,-89 -37,34 -55,61 -55,128z"/>
   <path class="fil0" d="M1003 6668c0,41 49,144 183,144 77,0 183,-106 183,-183l0 -157c0,-257 -347,-256 -363,-37 -3,45 14,47 8,113 -4,43 -11,57 -11,120z"/>
   <path class="fil0" d="M1552 6786c0,174 175,243 323,127 41,-31 1,-4 50,-28 168,-82 138,-246 79,-303 -176,-170 -452,64 -452,204z"/>
  </g>
 </g>
</svg>
