<?xml version="1.0" encoding="UTF-8"?>
<!DOCTYPE svg PUBLIC "-//W3C//DTD SVG 1.1//EN" "http://www.w3.org/Graphics/SVG/1.1/DTD/svg11.dtd">
<!-- Creator: CorelDRAW X7 -->
<svg xmlns="http://www.w3.org/2000/svg" xml:space="preserve" width="9.21404in" height="8.17772in" version="1.1" style="shape-rendering:geometricPrecision; text-rendering:geometricPrecision; image-rendering:optimizeQuality; fill-rule:evenodd; clip-rule:evenodd"
viewBox="0 0 9496 8428"
 xmlns:xlink="http://www.w3.org/1999/xlink">
 <defs>
  <style type="text/css">
   <![CDATA[
    .fil0 {fill:black}
   ]]>
  </style>
 </defs>
 <g id="Layer_x0020_1">
  <metadata id="CorelCorpID_0Corel-Layer"/>
  <path class="fil0" d="M9456 3235c-197,-577 -468,-1083 -806,-1512 -1,-2 -3,-4 -5,-7 -556,-703 -1291,-1201 -2179,-1473 -11,-5 -22,-9 -34,-11 -513,-153 -1076,-232 -1684,-232 -1361,0 -2489,383 -3351,1140 -58,50 -63,138 -13,196 51,58 139,63 197,13 101,-89 206,-172 315,-250 145,382 511,643 936,643 552,0 1001,-449 1001,-1001 0,-134 -26,-264 -77,-385 314,-52 645,-78 992,-78 520,0 1004,59 1450,176 -100,198 -152,416 -152,641 0,785 638,1423 1423,1423 413,0 800,-178 1069,-483 270,375 489,805 655,1290 42,123 30,258 -34,371 -63,113 -168,190 -294,218 -1350,294 -2735,443 -4117,443 -154,0 -308,-2 -462,-6 2,-32 3,-63 3,-95 0,-849 -690,-1540 -1539,-1540 -775,0 -1416,567 -1523,1317 -199,-37 -398,-76 -596,-119 -126,-28 -231,-105 -294,-218 -64,-113 -76,-248 -34,-371 176,-516 417,-977 716,-1371 46,-61 34,-149 -27,-195 -61,-46 -149,-34 -195,27 -317,417 -571,905 -757,1449 -68,198 -48,416 54,598 102,180 276,309 478,353 696,151 1400,265 2109,340l-29 61c-67,140 -51,304 41,428 74,102 190,163 313,171l-309 2532c-21,180 35,361 155,496 120,136 293,214 474,214l2844 0c181,0 354,-78 474,-214 120,-135 176,-316 154,-496l-21 -174c-9,-76 -78,-130 -155,-121 -76,9 -130,79 -121,155l21 174c13,100 -19,202 -86,278 -68,76 -165,120 -266,120l-2844 0c-101,0 -198,-44 -266,-120 -67,-76 -99,-178 -86,-278l304 -2495 100 57c200,116 445,110 639,-15 103,-66 234,-71 342,-12l97 52c91,49 192,74 292,74 100,0 201,-25 292,-74l97 -52c108,-59 239,-54 342,12 194,125 439,131 639,15l100 -57 197 1613c8,70 68,122 138,122 5,0 11,0 17,-1 76,-9 130,-79 121,-155l-201 -1650c123,-8 238,-69 313,-171 92,-124 107,-288 41,-428l-29 -61c709,-75 1413,-189 2109,-340 202,-44 376,-173 478,-353 102,-182 122,-400 54,-598zm-6624 -1771c-329,0 -608,-216 -695,-524 399,-243 846,-420 1338,-529 52,101 80,214 80,330 0,398 -324,723 -723,723zm4637 776c-631,0 -1145,-514 -1145,-1145 0,-198 51,-390 147,-561 412,135 789,324 1128,565 285,202 540,440 765,711 -217,271 -544,430 -895,430zm-5968 1842c84,-619 611,-1087 1249,-1087 695,0 1261,565 1261,1261 0,29 -1,58 -3,87 -840,-32 -1679,-120 -2507,-261zm5078 769c-15,20 -58,66 -133,56 -43,-6 -87,-5 -129,2 0,0 -1,0 -1,0 -1,0 -2,1 -4,1 -2,0 -4,0 -6,1 -3,0 -7,1 -10,2 -41,9 -81,24 -118,46l-199 114c-109,64 -244,60 -350,-8 -188,-120 -427,-129 -624,-23l-97 52c-100,54 -220,54 -320,0l-97 -52c-197,-106 -436,-97 -624,23 -106,68 -241,72 -350,8l-199 -114c-37,-22 -77,-37 -118,-46 -3,-1 -7,-2 -10,-2 -2,-1 -4,-1 -6,-1 -1,-1 -3,-1 -4,-1 0,0 -1,0 -1,0 -42,-7 -86,-8 -129,-2 -75,10 -118,-36 -133,-56 -15,-21 -46,-76 -14,-144l72 -152c590,53 1182,81 1773,81 591,0 1183,-28 1773,-81l72 152c32,68 1,123 -14,144zm-69 -1687c0,-420 -342,-762 -762,-762 -420,0 -762,342 -762,762 0,420 342,762 762,762 420,0 762,-342 762,-762zm-1246 0c0,-267 217,-484 484,-484 267,0 484,217 484,484 0,266 -217,484 -484,484 -267,0 -484,-218 -484,-484z"/>
 </g>
</svg>
