<?xml version="1.0" encoding="UTF-8"?>
<!DOCTYPE svg PUBLIC "-//W3C//DTD SVG 1.1//EN" "http://www.w3.org/Graphics/SVG/1.1/DTD/svg11.dtd">
<!-- Creator: CorelDRAW X7 -->
<svg xmlns="http://www.w3.org/2000/svg" xml:space="preserve" width="10.2167in" height="5.89781in" version="1.1" style="shape-rendering:geometricPrecision; text-rendering:geometricPrecision; image-rendering:optimizeQuality; fill-rule:evenodd; clip-rule:evenodd"
viewBox="0 0 10470 6044"
 xmlns:xlink="http://www.w3.org/1999/xlink">
 <defs>
  <style type="text/css">
   <![CDATA[
    .fil0 {fill:black}
   ]]>
  </style>
 </defs>
 <g id="Layer_x0020_1">
  <metadata id="CorelCorpID_0Corel-Layer"/>
  <g id="_942150224">
   <path class="fil0" d="M10153 2787l-20 0c6,-58 9,-116 9,-175 0,-666 -161,-1305 -453,-1799 -311,-524 -728,-813 -1175,-813 -448,0 -865,289 -1175,813 -293,494 -454,1133 -454,1799 0,59 3,117 9,175l-15 0 -637 -1963c-65,-199 -249,-332 -458,-332l-1097 0c-210,0 -394,133 -458,332l-638 1963 -15 0c6,-58 9,-116 9,-175 0,-666 -161,-1305 -453,-1799 -311,-524 -728,-813 -1175,-813 -448,0 -865,289 -1176,813 -292,494 -453,1133 -453,1799 0,59 3,117 9,175l-20 0c-175,0 -317,142 -317,317l0 328c0,173 140,314 312,317l638 1963c65,199 249,332 458,332l1097 0c209,0 393,-133 458,-332l638 -1963 3269 0 637 1963c65,199 249,332 458,332l1097 0c210,0 393,-133 458,-332l638 -1963c173,-3 312,-144 312,-317l0 -328c0,-175 -142,-317 -317,-317zm-5632 -1868c23,-72 90,-121 166,-121l1097 0c76,0 142,49 166,121l607 1868 -2643 0 607 -1868zm-3886 1693c0,-603 149,-1202 410,-1643 253,-427 577,-662 912,-662 334,0 658,235 911,662 261,441 411,1040 411,1643 0,59 -5,117 -12,175l-2620 0c-8,-58 -12,-116 -12,-175zm-328 492c0,-6 4,-11 10,-11l8361 0c84,0 153,-68 153,-153 0,-85 -69,-153 -153,-153l-1474 0c-8,-58 -12,-116 -12,-175 0,-603 149,-1202 410,-1643 253,-427 577,-662 912,-662 334,0 658,235 911,662 261,441 411,1040 411,1643 0,59 -5,117 -12,175l-491 0c-84,0 -153,68 -153,153 0,85 69,153 153,153l820 0c6,0 11,5 11,11l0 328c0,6 -5,10 -11,10l-9836 0c-6,0 -10,-4 -10,-10l0 -328zm2364 2513c-23,72 -90,121 -166,121l-1097 0c-76,0 -143,-49 -166,-121l-607 -1868 2643 0 -607 1868zm6557 0c-23,72 -90,121 -166,121l-1097 0c-76,0 -142,-49 -166,-121l-607 -1868 2643 0 -607 1868z"/>
   <path class="fil0" d="M2914 2270c-30,-318 -103,-609 -215,-867 -34,-78 -124,-113 -202,-79 -77,33 -113,124 -79,201 99,228 163,489 190,774 8,79 75,139 153,139 5,0 10,0 15,-1 84,-8 146,-83 138,-167z"/>
   <path class="fil0" d="M1957 656c-85,0 -154,68 -154,153 0,85 69,153 153,153 16,1 82,24 177,119 30,31 69,46 109,46 39,0 78,-15 107,-45 61,-59 61,-156 1,-217 -94,-95 -240,-209 -393,-209z"/>
   <path class="fil0" d="M9165 2299c8,79 75,139 153,139 5,0 10,0 15,-1 84,-8 146,-83 138,-167 -30,-318 -102,-609 -215,-867 -33,-78 -124,-113 -201,-79 -78,33 -114,124 -80,201 99,228 163,489 190,774z"/>
   <path class="fil0" d="M8908 866c-95,-96 -241,-210 -394,-210 -85,0 -154,68 -154,153 0,85 69,153 154,153 15,1 81,24 176,119 30,31 69,46 109,46 39,0 78,-15 108,-45 60,-59 60,-156 1,-216z"/>
   <g>
   </g>
   <g>
   </g>
   <g>
   </g>
   <g>
   </g>
   <g>
   </g>
   <g>
   </g>
   <g>
   </g>
   <g>
   </g>
   <g>
   </g>
   <g>
   </g>
   <g>
   </g>
   <g>
   </g>
   <g>
   </g>
   <g>
   </g>
   <g>
   </g>
  </g>
 </g>
</svg>
