<?xml version="1.0" encoding="UTF-8"?>
<!DOCTYPE svg PUBLIC "-//W3C//DTD SVG 1.1//EN" "http://www.w3.org/Graphics/SVG/1.1/DTD/svg11.dtd">
<!-- Creator: CorelDRAW X7 -->
<svg xmlns="http://www.w3.org/2000/svg" xml:space="preserve" width="4.14633in" height="8.1651in" version="1.1" style="shape-rendering:geometricPrecision; text-rendering:geometricPrecision; image-rendering:optimizeQuality; fill-rule:evenodd; clip-rule:evenodd"
viewBox="0 0 4376 8617"
 xmlns:xlink="http://www.w3.org/1999/xlink"
 enable-background="new 0 0 512 512">
 <defs>
  <style type="text/css">
   <![CDATA[
    .fil2 {fill:black}
    .fil1 {fill:#90C539}
    .fil0 {fill:#F68100}
   ]]>
  </style>
 </defs>
 <g id="Layer_x0020_1">
  <metadata id="CorelCorpID_0Corel-Layer"/>
  <g id="_956206288">
   <g>
    <path id="XMLID_964_" class="fil0" d="M3198 842l0 554c0,628 175,1243 505,1776 185,263 276,449 326,841l-508 257 -522 62c-575,-123 -945,-519 -1155,-649l-476 -129c-1011,0 -920,326 -915,289 105,-804 421,-230 770,-2217l-92 -696 2067 -88zm0 0l0 0 0 0z"/>
   </g>
   <path id="XMLID_1534_" class="fil1" d="M1740 6893c-248,-248 -248,-649 0,-897l448 -448 448 448c248,248 248,649 0,897 -247,247 -649,247 -896,0z"/>
   <path id="XMLID_431_" class="fil2" d="M3846 3084c-314,-507 -480,-1091 -480,-1688l0 -415c196,-70 337,-257 337,-476 0,-278 -227,-505 -505,-505l-2020 0c-278,0 -505,227 -505,505 0,219 141,406 337,476l0 415c0,597 -166,1181 -480,1688 -347,561 -530,1205 -530,1865l0 459c0,93 75,168 168,168 93,0 169,-75 169,-168l0 -459c0,-302 42,-600 125,-887 5,-4 10,-9 15,-14 439,-438 1153,-438 1592,0 285,286 659,428 1034,428 298,0 596,-91 849,-271 58,242 87,492 87,744l0 2961c0,204 -166,370 -370,370l-2962 0c-204,0 -370,-166 -370,-370l0 -987c0,-93 -76,-169 -169,-169 -93,0 -168,76 -168,169l0 987c0,390 317,707 707,707l2962 0c390,0 707,-317 707,-707l0 -2961c0,-660 -183,-1304 -530,-1865l0 0zm-2668 -2747l2020 0c93,0 168,75 168,168 0,93 -75,168 -168,168l-2020 0c-93,0 -168,-75 -168,-168 0,-93 75,-168 168,-168l0 0zm1129 3473c-276,-276 -644,-428 -1034,-428 -209,0 -410,44 -595,126 42,-84 89,-166 138,-247 347,-561 530,-1205 530,-1865l0 -386 1683 0 0 386c0,660 184,1304 530,1865 118,189 214,390 289,597 -441,391 -1119,375 -1541,-48z"/>
   <path id="XMLID_830_" class="fil2" d="M2755 7012c313,-313 313,-822 0,-1135l-448 -448c-66,-65 -172,-65 -238,0l-448 448c-313,313 -313,822 0,1135 151,151 353,235 567,235 214,0 416,-84 567,-235l0 0zm-896 -897l329 -329 329 329c182,182 182,477 0,659 -88,88 -205,136 -329,136 -124,0 -241,-48 -329,-136 -182,-182 -182,-477 0,-659z"/>
   <path id="XMLID_831_" class="fil2" d="M168 6334c45,0 88,-18 119,-50 32,-31 50,-74 50,-119 0,-44 -18,-87 -50,-119 -31,-31 -74,-49 -119,-49 -44,0 -87,18 -119,49 -31,32 -49,75 -49,119 0,45 18,88 49,119 32,32 75,50 119,50z"/>
  </g>
 </g>
</svg>
