<?xml version="1.0" encoding="UTF-8"?>
<!DOCTYPE svg PUBLIC "-//W3C//DTD SVG 1.1//EN" "http://www.w3.org/Graphics/SVG/1.1/DTD/svg11.dtd">
<!-- Creator: CorelDRAW X7 -->
<svg xmlns="http://www.w3.org/2000/svg" xml:space="preserve" width="8.72893in" height="8.72663in" version="1.1" style="shape-rendering:geometricPrecision; text-rendering:geometricPrecision; image-rendering:optimizeQuality; fill-rule:evenodd; clip-rule:evenodd"
viewBox="0 0 8391 8389"
 xmlns:xlink="http://www.w3.org/1999/xlink">
 <defs>
  <style type="text/css">
   <![CDATA[
    .fil0 {fill:black}
    .fil1 {fill:#020201}
   ]]>
  </style>
 </defs>
 <g id="Layer_x0020_1">
  <metadata id="CorelCorpID_0Corel-Layer"/>
  <g id="_989165744">
   <path class="fil0" d="M2616 3372c66,68 184,328 259,445 186,286 449,519 741,711 120,79 395,197 451,290 1,529 117,1103 297,1558 42,106 122,235 33,347l-242 221c-79,79 -142,174 -225,238 -100,78 -182,128 -283,211 -742,613 -1993,869 -2958,647 -275,-64 -317,-79 -381,-542 -145,-1038 122,-2051 755,-2844 141,-177 536,-625 691,-729 202,-135 567,-486 862,-553zm2735 -3372l176 0c237,44 580,238 764,587 106,-39 14,2 95,-59 429,-325 582,-250 1233,-250 272,0 -20,1063 -803,1081 36,135 374,348 608,627 604,720 967,1643 967,2677 0,892 -168,1523 -566,2276 -199,376 -712,927 -1083,1171 -424,280 -462,354 -731,200 -703,-402 -1000,-767 -1419,-1392l-502 455c-168,157 -360,273 -554,404 -832,559 -2013,762 -3015,494 -285,-76 -332,-44 -429,-528 -155,-771 -122,-1439 159,-2171 139,-365 360,-756 573,-1032l433 -494c21,-22 17,-18 46,-47l303 -284c278,-237 626,-456 948,-627 0,-605 130,-961 258,-1440 325,-1223 -83,-1289 395,-1223 264,37 459,74 687,150 465,155 1021,372 1370,730 169,172 184,249 390,96l112 -135c-67,-92 -99,-64 -194,-146 -63,-54 -96,-99 -141,-168 -196,-299 -159,-511 -159,-859 0,-47 30,-78 79,-93zm2739 5219c-107,1170 -749,2340 -1744,2837 -324,162 -991,-574 -1154,-751 -1128,-1227 -1157,-3674 -145,-4965 275,-351 623,-696 1033,-915 185,-99 355,44 476,130 496,354 912,770 1201,1427 311,709 407,1438 333,2237zm-5258 -2347c0,-495 231,-1084 336,-1611 34,-168 29,-416 71,-545 379,-59 1842,537 2034,983 -47,89 -97,134 -160,211l-490 610c-296,-92 -62,-802 -61,-1099 -75,-47 -126,-51 -220,-54l-89 486c-147,-17 -190,-177 -331,-382 -68,-99 -247,-333 -284,-432l-193 121c147,326 639,850 774,1276 -144,-7 -305,-89 -449,-130 -163,-45 -311,-70 -478,-109l-47 212c121,77 472,130 637,185 217,73 370,167 554,240 -5,182 -175,538 -230,764 -78,319 -91,534 -129,858 -179,45 -1245,-547 -1245,-1584zm3576 -1779c-169,-451 835,-673 992,-535 109,96 -294,705 -992,535zm-872 -767c314,-67 641,429 536,745 -325,-43 -575,-360 -536,-745z"/>
   <path class="fil0" d="M6137 7676l118 -199c-204,-178 -266,-174 -540,-446 -567,-563 -827,-1282 -858,-2139l-251 -3c42,1397 724,2294 1531,2787z"/>
   <path class="fil0" d="M6174 1884c572,477 1202,1094 1267,2167l248 8c-31,-621 -215,-1019 -483,-1425 -305,-462 -530,-620 -905,-955 -57,65 -100,122 -127,205z"/>
   <path class="fil0" d="M560 6874l234 16c7,-1388 942,-2116 1063,-2364 -67,-43 -87,-58 -168,-96 -210,184 -173,174 -322,343 -51,58 -69,83 -109,138 -329,450 -793,1379 -698,1963z"/>
   <path class="fil0" d="M4607 4058l233 -4c58,-162 34,-579 400,-997 91,-105 159,-154 218,-247l-148 -185c-313,376 -681,670 -703,1433z"/>
   <path class="fil0" d="M2585 6022l0 187c538,-30 886,-636 913,-1167l-237 -16c-68,928 -606,881 -676,996z"/>
   <path class="fil0" d="M1251 7041l-28 247c907,4 618,-54 1239,-183l-87 -216c-167,32 -315,97 -497,128 -199,34 -411,25 -627,24z"/>
   <path class="fil0" d="M6822 4819c198,381 298,392 350,984l251 -4c-56,-647 -173,-712 -428,-1132l-173 152z"/>
   <path class="fil0" d="M5422 5683l244 -4c44,-480 116,-494 228,-861l-186 -124c-171,202 -285,656 -286,989z"/>
   <path class="fil0" d="M1226 6486l243 0c36,-434 266,-599 454,-834 -44,-104 -54,-70 -93,-172 -358,217 -536,601 -604,1006z"/>
   <path class="fil0" d="M6445 6969c191,-157 403,-505 437,-866l-243 47c-84,211 -88,391 -363,656l169 163z"/>
   <path class="fil0" d="M5931 2965c199,152 287,241 294,556l244 -4c21,-376 -206,-661 -456,-767 -51,65 -65,115 -82,215z"/>
   <path class="fil0" d="M2102 4762l152 162c44,-43 75,-77 131,-120l152 -128c112,-104 221,-135 343,-242l-126 -194c-249,136 -458,391 -652,522z"/>
   <path class="fil1" d="M2938 7227l86 195c80,-39 133,-57 196,-133 -30,-69 -67,-127 -110,-172 -56,37 -117,57 -172,110z"/>
   <path class="fil1" d="M3368 6940l161 177 149 -153c-55,-45 -64,-90 -136,-155l-174 131z"/>
   <polygon class="fil1" points="3776,6588 3921,6748 4083,6588 3918,6438 "/>
  </g>
 </g>
</svg>
