<?xml version="1.0" encoding="UTF-8"?>
<!DOCTYPE svg PUBLIC "-//W3C//DTD SVG 1.1//EN" "http://www.w3.org/Graphics/SVG/1.1/DTD/svg11.dtd">
<!-- Creator: CorelDRAW X7 -->
<svg xmlns="http://www.w3.org/2000/svg" xml:space="preserve" width="8.72893in" height="8.72663in" version="1.1" style="shape-rendering:geometricPrecision; text-rendering:geometricPrecision; image-rendering:optimizeQuality; fill-rule:evenodd; clip-rule:evenodd"
viewBox="0 0 8391 8389"
 xmlns:xlink="http://www.w3.org/1999/xlink">
 <defs>
  <style type="text/css">
   <![CDATA[
    .fil1 {fill:black}
    .fil3 {fill:#020201}
    .fil2 {fill:#73C620}
    .fil0 {fill:#FF8100}
   ]]>
  </style>
 </defs>
 <g id="Layer_x0020_1">
  <metadata id="CorelCorpID_0Corel-Layer"/>
  <g id="_993523920">
   <path class="fil0" d="M6445 6969l-169 -163c275,-265 279,-445 363,-656l243 -47c-34,361 -246,709 -437,866zm-1588 -2077c31,857 291,1576 858,2139 274,272 336,268 540,446l-118 199c-807,-493 -1489,-1390 -1531,-2787l251 3zm565 791c1,-333 115,-787 286,-989l186 124c-112,367 -184,381 -228,861l-244 4zm1400 -864l173 -152c255,420 372,485 428,1132l-251 4c-52,-592 -152,-603 -350,-984zm-891 -1854c17,-100 31,-150 82,-215 250,106 477,391 456,767l-244 4c-7,-315 -95,-404 -294,-556zm-1324 1093c22,-763 390,-1057 703,-1433l148 185c-59,93 -127,142 -218,247 -366,418 -342,835 -400,997l-233 4zm1694 -2379c375,335 600,493 905,955 268,406 452,804 483,1425l-248 -8c-65,-1073 -695,-1690 -1267,-2167 27,-83 70,-140 127,-205zm1789 3540c74,-799 -22,-1528 -333,-2237 -289,-657 -705,-1073 -1201,-1427 -121,-86 -291,-229 -476,-130 -410,219 -758,564 -1033,915 -1012,1291 -983,3738 145,4965 163,177 830,913 1154,751 995,-497 1637,-1667 1744,-2837z"/>
   <path class="fil0" d="M2938 7227c55,-53 116,-73 172,-110 43,45 80,103 110,172 -63,76 -116,94 -196,133l-86 -195zm-1687 -186c216,1 428,10 627,-24 182,-31 330,-96 497,-128l87 216c-621,129 -332,187 -1239,183l28 -247zm2291 -232c72,65 81,110 136,155l-149 153 -161 -177 174 -131zm376 -371l165 150 -162 160 -145 -160 142 -150zm-2692 48c68,-405 246,-789 604,-1006 39,102 49,68 93,172 -188,235 -418,400 -454,834l-243 0zm1359 -464c70,-115 608,-68 676,-996l237 16c-27,531 -375,1137 -913,1167l0 -187zm-2025 852c-95,-584 369,-1513 698,-1963 40,-55 58,-80 109,-138 149,-169 112,-159 322,-343 81,38 101,53 168,96 -121,248 -1056,976 -1063,2364l-234 -16zm1542 -2112c194,-131 403,-386 652,-522l126 194c-122,107 -231,138 -343,242l-152 128c-56,43 -87,77 -131,120l-152 -162zm514 -1390c-295,67 -660,418 -862,553 -155,104 -550,552 -691,729 -633,793 -900,1806 -755,2844 64,463 106,478 381,542 965,222 2216,-34 2958,-647 101,-83 183,-133 283,-211 83,-64 146,-159 225,-238l242 -221c89,-112 9,-241 -33,-347 -180,-455 -296,-1029 -297,-1558 -56,-93 -331,-211 -451,-290 -292,-192 -555,-425 -741,-711 -75,-117 -193,-377 -259,-445z"/>
   <path class="fil1" d="M2616 3372c66,68 184,328 259,445 186,286 449,519 741,711 120,79 395,197 451,290 1,529 117,1103 297,1558 42,106 122,235 33,347l-242 221c-79,79 -142,174 -225,238 -100,78 -182,128 -283,211 -742,613 -1993,869 -2958,647 -275,-64 -317,-79 -381,-542 -145,-1038 122,-2051 755,-2844 141,-177 536,-625 691,-729 202,-135 567,-486 862,-553zm2735 -3372l176 0c237,44 580,238 764,587 106,-39 14,2 95,-59 429,-325 582,-250 1233,-250 272,0 -20,1063 -803,1081 36,135 374,348 608,627 604,720 967,1643 967,2677 0,892 -168,1523 -566,2276 -199,376 -712,927 -1083,1171 -424,280 -462,354 -731,200 -703,-402 -1000,-767 -1419,-1392l-502 455c-168,157 -360,273 -554,404 -832,559 -2013,762 -3015,494 -285,-76 -332,-44 -429,-528 -155,-771 -122,-1439 159,-2171 139,-365 360,-756 573,-1032l433 -494c21,-22 17,-18 46,-47l303 -284c278,-237 626,-456 948,-627 0,-605 130,-961 258,-1440 325,-1223 -83,-1289 395,-1223 264,37 459,74 687,150 465,155 1021,372 1370,730 169,172 184,249 390,96l112 -135c-67,-92 -99,-64 -194,-146 -63,-54 -96,-99 -141,-168 -196,-299 -159,-511 -159,-859 0,-47 30,-78 79,-93zm2739 5219c-107,1170 -749,2340 -1744,2837 -324,162 -991,-574 -1154,-751 -1128,-1227 -1157,-3674 -145,-4965 275,-351 623,-696 1033,-915 185,-99 355,44 476,130 496,354 912,770 1201,1427 311,709 407,1438 333,2237zm-5258 -2347c0,-495 231,-1084 336,-1611 34,-168 29,-416 71,-545 379,-59 1842,537 2034,983 -47,89 -97,134 -160,211l-490 610c-296,-92 -62,-802 -61,-1099 -75,-47 -126,-51 -220,-54l-89 486c-147,-17 -190,-177 -331,-382 -68,-99 -247,-333 -284,-432l-193 121c147,326 639,850 774,1276 -144,-7 -305,-89 -449,-130 -163,-45 -311,-70 -478,-109l-47 212c121,77 472,130 637,185 217,73 370,167 554,240 -5,182 -175,538 -230,764 -78,319 -91,534 -129,858 -179,45 -1245,-547 -1245,-1584zm3576 -1779c-169,-451 835,-673 992,-535 109,96 -294,705 -992,535zm-872 -767c314,-67 641,429 536,745 -325,-43 -575,-360 -536,-745z"/>
   <path class="fil2" d="M2832 2872c0,1037 1066,1629 1245,1584 38,-324 51,-539 129,-858 55,-226 225,-582 230,-764 -184,-73 -337,-167 -554,-240 -165,-55 -516,-108 -637,-185l47 -212c167,39 315,64 478,109 144,41 305,123 449,130 -135,-426 -627,-950 -774,-1276l193 -121c37,99 216,333 284,432 141,205 184,365 331,382l89 -486c94,3 145,7 220,54 -1,297 -235,1007 61,1099l490 -610c63,-77 113,-122 160,-211 -192,-446 -1655,-1042 -2034,-983 -42,129 -37,377 -71,545 -105,527 -336,1116 -336,1611z"/>
   <path class="fil1" d="M6137 7676l118 -199c-204,-178 -266,-174 -540,-446 -567,-563 -827,-1282 -858,-2139l-251 -3c42,1397 724,2294 1531,2787z"/>
   <path class="fil1" d="M6174 1884c572,477 1202,1094 1267,2167l248 8c-31,-621 -215,-1019 -483,-1425 -305,-462 -530,-620 -905,-955 -57,65 -100,122 -127,205z"/>
   <path class="fil1" d="M560 6874l234 16c7,-1388 942,-2116 1063,-2364 -67,-43 -87,-58 -168,-96 -210,184 -173,174 -322,343 -51,58 -69,83 -109,138 -329,450 -793,1379 -698,1963z"/>
   <path class="fil2" d="M6408 1093c698,170 1101,-439 992,-535 -157,-138 -1161,84 -992,535z"/>
   <path class="fil1" d="M4607 4058l233 -4c58,-162 34,-579 400,-997 91,-105 159,-154 218,-247l-148 -185c-313,376 -681,670 -703,1433z"/>
   <path class="fil1" d="M2585 6022l0 187c538,-30 886,-636 913,-1167l-237 -16c-68,928 -606,881 -676,996z"/>
   <path class="fil1" d="M1251 7041l-28 247c907,4 618,-54 1239,-183l-87 -216c-167,32 -315,97 -497,128 -199,34 -411,25 -627,24z"/>
   <path class="fil1" d="M6822 4819c198,381 298,392 350,984l251 -4c-56,-647 -173,-712 -428,-1132l-173 152z"/>
   <path class="fil2" d="M5536 326c-39,385 211,702 536,745 105,-316 -222,-812 -536,-745z"/>
   <path class="fil1" d="M5422 5683l244 -4c44,-480 116,-494 228,-861l-186 -124c-171,202 -285,656 -286,989z"/>
   <path class="fil1" d="M1226 6486l243 0c36,-434 266,-599 454,-834 -44,-104 -54,-70 -93,-172 -358,217 -536,601 -604,1006z"/>
   <path class="fil1" d="M6445 6969c191,-157 403,-505 437,-866l-243 47c-84,211 -88,391 -363,656l169 163z"/>
   <path class="fil1" d="M5931 2965c199,152 287,241 294,556l244 -4c21,-376 -206,-661 -456,-767 -51,65 -65,115 -82,215z"/>
   <path class="fil1" d="M2102 4762l152 162c44,-43 75,-77 131,-120l152 -128c112,-104 221,-135 343,-242l-126 -194c-249,136 -458,391 -652,522z"/>
   <path class="fil3" d="M2938 7227l86 195c80,-39 133,-57 196,-133 -30,-69 -67,-127 -110,-172 -56,37 -117,57 -172,110z"/>
   <path class="fil3" d="M3368 6940l161 177 149 -153c-55,-45 -64,-90 -136,-155l-174 131z"/>
   <polygon class="fil3" points="3776,6588 3921,6748 4083,6588 3918,6438 "/>
  </g>
 </g>
</svg>
