<?xml version="1.0" encoding="UTF-8"?>
<!DOCTYPE svg PUBLIC "-//W3C//DTD SVG 1.1//EN" "http://www.w3.org/Graphics/SVG/1.1/DTD/svg11.dtd">
<!-- Creator: CorelDRAW X7 -->
<svg xmlns="http://www.w3.org/2000/svg" xml:space="preserve" width="8.30869in" height="8.28294in" version="1.1" style="shape-rendering:geometricPrecision; text-rendering:geometricPrecision; image-rendering:optimizeQuality; fill-rule:evenodd; clip-rule:evenodd"
viewBox="0 0 7895 7870"
 xmlns:xlink="http://www.w3.org/1999/xlink">
 <defs>
  <style type="text/css">
   <![CDATA[
    .fil0 {fill:black}
   ]]>
  </style>
 </defs>
 <g id="Layer_x0020_1">
  <metadata id="CorelCorpID_0Corel-Layer"/>
  <g id="_971772272">
   <path class="fil0" d="M4018 3276c-270,205 -425,517 -425,856 0,64 52,116 116,116 64,0 116,-52 116,-116 0,-266 121,-511 333,-672 51,-39 61,-112 22,-163 -39,-50 -112,-60 -162,-21l0 0zm0 0z"/>
   <path class="fil0" d="M6953 2065c-81,-62 -163,-127 -242,-195 -48,-42 -122,-37 -164,11 -42,48 -37,121 12,163 83,73 169,140 251,204 458,357 853,666 853,1867 0,522 -159,1073 -435,1513 -212,336 -590,766 -1192,909 -413,98 -693,338 -963,570 -319,273 -621,532 -1126,532 -806,0 -1315,-418 -1876,-1091 -41,-49 -114,-56 -163,-15 -49,41 -56,114 -15,163 473,568 1061,1174 2054,1174 591,0 939,-299 1277,-588 261,-224 507,-435 866,-520 1172,-278 1805,-1571 1805,-2647 0,-1314 -479,-1688 -942,-2050l0 0zm0 0z"/>
   <path class="fil0" d="M1549 5905c-179,-214 -385,-335 -585,-452 -393,-232 -732,-432 -732,-1338 0,-461 127,-833 389,-1137 234,-272 538,-455 832,-632 208,-126 404,-244 560,-386 241,-220 356,-496 466,-764 214,-517 399,-964 1468,-964 1152,0 1524,487 1995,1104 72,96 148,195 228,294 40,49 113,57 163,17 50,-41 57,-113 17,-163 -78,-97 -152,-194 -224,-288 -469,-615 -912,-1196 -2179,-1196 -544,0 -940,115 -1212,350 -244,212 -359,489 -470,758 -105,255 -205,496 -408,681 -139,126 -326,239 -524,358 -594,358 -1333,804 -1333,1968 0,1039 430,1292 847,1537 191,112 371,219 524,402 52,63 108,131 180,221 23,28 57,43 91,43 25,0 51,-9 72,-26 50,-40 58,-113 18,-163 -73,-91 -130,-160 -183,-224l0 0zm0 0z"/>
   <path class="fil0" d="M4669 2533c-881,0 -1598,718 -1598,1599 0,881 717,1598 1598,1598 882,0 1599,-717 1599,-1598 0,-881 -717,-1599 -1599,-1599zm0 2965c-753,0 -1366,-613 -1366,-1366 0,-754 613,-1367 1366,-1367 754,0 1367,613 1367,1367 0,753 -613,1366 -1367,1366zm0 0z"/>
  </g>
 </g>
</svg>
