<?xml version="1.0" encoding="UTF-8"?>
<!DOCTYPE svg PUBLIC "-//W3C//DTD SVG 1.1//EN" "http://www.w3.org/Graphics/SVG/1.1/DTD/svg11.dtd">
<!-- Creator: CorelDRAW X7 -->
<svg xmlns="http://www.w3.org/2000/svg" xml:space="preserve" width="7.96795in" height="7.96357in" version="1.1" style="shape-rendering:geometricPrecision; text-rendering:geometricPrecision; image-rendering:optimizeQuality; fill-rule:evenodd; clip-rule:evenodd"
viewBox="0 0 995 994"
 xmlns:xlink="http://www.w3.org/1999/xlink">
 <defs>
  <style type="text/css">
   <![CDATA[
    .fil0 {fill:black}
   ]]>
  </style>
 </defs>
 <g id="Layer_x0020_1">
  <metadata id="CorelCorpID_0Corel-Layer"/>
  <g id="_804486144">
   <path class="fil0" d="M852 965l-696 0 -67 -453 817 0 -54 453zm-822 -518c-3,-58 2,-74 56,-74l783 0c43,0 93,-10 96,36 3,56 -1,74 -56,74l-784 0c-40,0 -93,10 -95,-36zm493 -210c6,4 23,38 35,55 12,17 31,35 40,52l-200 0c5,-12 17,-25 25,-36 14,-15 28,-36 38,-56 4,-8 6,-16 15,-16 12,0 11,10 23,8 11,-1 9,-10 24,-7zm101 91l33 -43c6,-7 25,-44 31,-47 12,-6 12,6 25,7 12,0 14,-12 26,-7 6,3 24,38 36,55 8,11 35,42 39,51l-181 0 -9 -16zm-263 16l-180 0c3,-7 41,-52 56,-78 5,-7 10,-23 18,-28 19,-8 9,16 40,0 20,-10 22,23 50,58 8,10 20,23 25,32 -2,7 -6,11 -9,16zm93 -314c32,-1 31,38 52,23 9,-7 6,-15 21,-21 11,-4 25,-3 31,6 13,20 -17,34 -31,48 -16,18 -19,33 -19,64 0,58 5,67 -21,59 -4,-72 14,-95 -33,-134 -6,-5 -18,-13 -20,-23 -3,-14 7,-22 20,-22zm208 1c32,-11 35,25 52,24 13,-1 14,-13 23,-20 21,-15 51,3 36,24 -12,18 -46,30 -49,70 -1,26 2,54 0,79 -10,5 -11,5 -21,0 -1,-26 2,-55 0,-81 -4,-40 -43,-54 -51,-71 -6,-11 1,-22 10,-25zm-412 1c15,5 18,17 22,20 22,17 21,-25 56,-22 11,1 20,10 16,24 -2,9 -14,15 -20,21 -14,14 -29,25 -32,52 -1,17 3,71 -2,82 -26,11 -19,-10 -19,-61 0,-41 -8,-53 -42,-82 -26,-22 -3,-43 21,-34zm-9 178c-6,7 -9,5 -14,13 -10,15 -12,27 -32,55 -5,6 -9,11 -14,16l-36 50c-62,0 -122,-10 -141,45 -6,18 -5,64 1,82 13,34 48,37 52,42 6,5 8,39 10,47l59 401c3,21 0,33 24,33l692 0c43,0 36,7 45,-70 8,-68 16,-137 24,-205 8,-68 19,-140 24,-208 26,-4 45,-18 54,-38 7,-18 8,-63 2,-83 -19,-59 -86,-46 -141,-46 -8,-9 -15,-22 -23,-32 -9,-12 -18,-22 -26,-33 -24,-32 -21,-37 -33,-55 -7,-11 -9,-7 -15,-15 0,-19 -3,-77 3,-90 8,-18 34,-30 44,-48 15,-25 2,-52 -16,-63 -21,-13 -56,-7 -69,9 -11,-5 -37,-28 -70,-11 -19,10 -33,37 -19,64 9,18 36,31 44,47 7,14 4,73 4,92 -7,10 -11,5 -19,22 -18,35 -24,42 -49,72 -9,-6 -30,-35 -35,-44 -6,-10 -9,-16 -14,-26 -6,-12 -9,-16 -20,-21 0,-18 -2,-78 2,-91 6,-17 35,-31 45,-49 16,-27 1,-55 -17,-65 -28,-16 -50,-2 -70,9 -18,-10 -41,-24 -68,-9 -19,10 -34,38 -18,65 10,17 37,31 44,48 5,12 3,74 3,92 -21,10 -27,45 -64,86 0,1 -1,2 -2,2 -3,3 0,1 -3,3 -10,-9 -28,-34 -35,-45 -7,-12 -15,-32 -22,-39 -6,-6 -7,-3 -11,-10 0,-18 -3,-77 3,-90 8,-16 34,-30 44,-48 32,-54 -50,-95 -85,-54 -11,-5 -18,-12 -32,-15 -46,-9 -77,32 -57,69 10,18 38,31 45,49 5,12 3,73 2,90z"/>
   <path class="fil0" d="M369 754c-11,-76 47,-136 113,-144 74,-9 136,46 144,111 9,77 -45,138 -112,146 -78,9 -136,-46 -145,-113zm286 6c14,-93 -56,-167 -135,-179 -93,-14 -168,54 -180,133 -15,94 54,169 133,182 95,15 170,-55 182,-136z"/>
   <path class="fil0" d="M820 781c2,-16 -5,-31 -21,-22 -10,6 -9,27 -11,40 -3,30 -7,60 -10,89 -4,31 14,29 21,24 9,-6 9,-27 10,-40 4,-30 8,-60 11,-91z"/>
   <path class="fil0" d="M830 700c2,-14 6,-31 -8,-35 -16,-4 -19,11 -21,24 -1,14 -6,32 8,36 18,4 19,-11 21,-25z"/>
  </g>
 </g>
</svg>
