<?xml version="1.0" encoding="UTF-8"?>
<!DOCTYPE svg PUBLIC "-//W3C//DTD SVG 1.1//EN" "http://www.w3.org/Graphics/SVG/1.1/DTD/svg11.dtd">
<!-- Creator: CorelDRAW X7 -->
<svg xmlns="http://www.w3.org/2000/svg" xml:space="preserve" width="4.5004in" height="8.72311in" version="1.1" style="shape-rendering:geometricPrecision; text-rendering:geometricPrecision; image-rendering:optimizeQuality; fill-rule:evenodd; clip-rule:evenodd"
viewBox="0 0 4852 9404"
 xmlns:xlink="http://www.w3.org/1999/xlink">
 <defs>
  <style type="text/css">
   <![CDATA[
    .str0 {stroke:black;stroke-width:3.23407}
    .fil1 {fill:black}
    .fil2 {fill:#653225}
    .fil0 {fill:#B9E443}
   ]]>
  </style>
 </defs>
 <g id="Layer_x0020_1">
  <metadata id="CorelCorpID_0Corel-Layer"/>
  <g id="_965620320">
   <path class="fil0" d="M2608 6301c155,-76 282,118 109,255 -61,49 -266,229 -325,253 -163,68 -299,-101 -115,-256 54,-46 114,-86 167,-132 54,-47 94,-86 164,-120zm-2429 -1113l35 268c121,10 150,46 176,162 26,117 48,173 30,294 -56,39 -83,71 -171,54 88,54 52,-29 99,73 14,30 24,98 29,131 222,-7 183,182 374,615 49,111 109,221 169,327 39,71 132,229 192,288l25 22c38,-316 247,-1082 345,-1448 90,-337 -1,-218 -313,-798 -62,-115 -214,-333 -68,-417 230,-133 260,320 530,638l43 -104c12,-38 20,-70 31,-107l204 -649c77,-223 45,-158 -101,-396 -74,-118 -136,-228 -211,-364 -48,-86 -162,-294 -191,-386 -59,-187 161,-273 254,-114 117,199 206,489 407,742 3,-3 7,-14 8,-11l169 -444c30,-82 170,-428 173,-479 6,-96 -373,-738 -300,-976 34,-72 212,-172 270,82 35,150 99,391 176,506l18 -24c160,-258 294,-1017 546,-824 159,122 -232,687 -326,1051 207,-31 757,-192 810,-184 84,12 145,100 102,192 -81,173 -967,250 -1028,302 -56,64 -337,855 -364,985 471,-45 740,-164 941,-193 126,-18 219,61 170,190 -63,170 -1164,265 -1208,302 -60,89 -312,935 -344,1095 224,-32 749,-267 898,-233 239,206 -150,304 -322,364 -212,74 -432,136 -666,165 -82,370 -374,1359 -393,1662 647,-160 1454,-793 1884,-1241 86,-90 416,-456 469,-579 -278,-212 -127,-167 207,-590 96,-121 372,-517 422,-660 -217,-141 -136,-103 6,-599 66,-233 140,-491 164,-742 -546,80 -151,-318 -254,-1208l-26 -99c-501,77 -287,-8 -410,-672 -43,-236 -173,-703 -304,-842 -238,64 -647,429 -770,555 -295,302 -340,528 -516,430 -68,-38 -76,-115 -182,-156 -109,94 -368,484 -445,607 -72,116 -120,240 -186,349 -124,202 -259,-1 -343,-44l-265 646c-161,444 -93,575 -363,545 -49,608 -45,665 25,1220 20,157 -86,196 -221,156 -12,116 -2,225 6,340 10,146 4,187 -116,225z"/>
   <path class="fil1 str0" d="M179 5188c120,-38 126,-79 116,-225 -8,-115 -18,-224 -6,-340 135,40 241,1 221,-156 -70,-555 -74,-612 -25,-1220 270,30 202,-101 363,-545l265 -646c84,43 219,246 343,44 66,-109 114,-233 186,-349 77,-123 336,-513 445,-607 106,41 114,118 182,156 176,98 221,-128 516,-430 123,-126 532,-491 770,-555 131,139 261,606 304,842 123,664 -91,749 410,672l26 99c103,890 -292,1288 254,1208 -24,251 -98,509 -164,742 -142,496 -223,458 -6,599 -50,143 -326,539 -422,660 -334,423 -485,378 -207,590 -53,123 -383,489 -469,579 -430,448 -1237,1081 -1884,1241 19,-303 311,-1292 393,-1662 234,-29 454,-91 666,-165 172,-60 561,-158 322,-364 -149,-34 -674,201 -898,233 32,-160 284,-1006 344,-1095 44,-37 1145,-132 1208,-302 49,-129 -44,-208 -170,-190 -201,29 -470,148 -941,193 27,-130 308,-921 364,-985 61,-52 947,-129 1028,-302 43,-92 -18,-180 -102,-192 -53,-8 -603,153 -810,184 94,-364 485,-929 326,-1051 -252,-193 -386,566 -546,824l-18 24c-77,-115 -141,-356 -176,-506 -58,-254 -236,-154 -270,-82 -73,238 306,880 300,976 -3,51 -143,397 -173,479l-169 444c-1,-3 -5,8 -8,11 -201,-253 -290,-543 -407,-742 -93,-159 -313,-73 -254,114 29,92 143,300 191,386 75,136 137,246 211,364 146,238 178,173 101,396l-204 649c-11,37 -19,69 -31,107l-43 104c-270,-318 -300,-771 -530,-638 -146,84 6,302 68,417 312,580 403,461 313,798 -98,366 -307,1132 -345,1448l-25 -22c-60,-59 -153,-217 -192,-288 -60,-106 -120,-216 -169,-327 -191,-433 -152,-622 -374,-615 -164,102 -67,267 45,547 351,874 500,583 375,1093 -92,370 -208,974 -231,1350 -9,148 12,224 151,237 108,10 286,3 399,1 147,-2 197,-38 211,-180l78 -718c19,-142 40,-248 -92,-272 -204,-25 -177,185 -201,375 -21,169 -43,346 -55,517l-208 0c47,-480 151,-862 231,-1309 142,77 95,57 277,37 524,-156 901,-335 1312,-646l366 -289c64,-48 119,-110 178,-159 65,-53 106,-93 166,-151 106,-102 211,-217 315,-340 88,-105 201,-243 285,-370 216,-329 125,-303 56,-422 159,-177 326,-407 468,-641 134,-221 435,-647 82,-640 60,-266 154,-509 208,-798 105,-563 86,-650 -235,-564 8,-203 76,-1036 -43,-1234 -64,-108 -200,-54 -327,-36 -43,-360 -63,-601 -180,-928 -59,-167 -224,-677 -440,-625 -215,52 -556,299 -699,413l-425 408c-48,56 -59,82 -119,136 -75,-61 -182,-249 -327,-126 -344,293 -507,677 -704,959 -18,-18 -139,-285 -304,-62 -172,233 -435,888 -491,1160 -137,-63 -234,-79 -265,113 -71,437 -45,825 -39,1253 -121,67 -183,-42 -191,456 -5,268 -17,462 175,473z"/>
   <path class="fil2" d="M1313 8228l44 -380c-182,20 -135,40 -277,-37 -80,447 -184,829 -231,1309l208 0c12,-171 34,-348 55,-517 24,-190 -3,-400 201,-375z"/>
   <path class="fil1" d="M2608 6301c-70,34 -110,73 -164,120 -53,46 -113,86 -167,132 -184,155 -48,324 115,256 59,-24 264,-204 325,-253 173,-137 46,-331 -109,-255z"/>
   <path class="fil1" d="M249 5966c88,17 115,-15 171,-54 18,-121 -4,-177 -30,-294 -26,-116 -55,-152 -176,-162 -112,59 -126,93 -92,250 29,133 22,221 127,260z"/>
  </g>
 </g>
</svg>
