<?xml version="1.0" encoding="UTF-8"?>
<!DOCTYPE svg PUBLIC "-//W3C//DTD SVG 1.1//EN" "http://www.w3.org/Graphics/SVG/1.1/DTD/svg11.dtd">
<!-- Creator: CorelDRAW X7 -->
<svg xmlns="http://www.w3.org/2000/svg" xml:space="preserve" width="4.49741in" height="8.72041in" version="1.1" style="shape-rendering:geometricPrecision; text-rendering:geometricPrecision; image-rendering:optimizeQuality; fill-rule:evenodd; clip-rule:evenodd"
viewBox="0 0 4849 9401"
 xmlns:xlink="http://www.w3.org/1999/xlink">
 <defs>
  <style type="text/css">
   <![CDATA[
    .fil0 {fill:black}
   ]]>
  </style>
 </defs>
 <g id="Layer_x0020_1">
  <metadata id="CorelCorpID_0Corel-Layer"/>
  <g id="_963374368">
   <path class="fil0" d="M178 5186c119,-37 125,-78 115,-224 -7,-115 -17,-224 -6,-340 135,40 241,1 222,-156 -70,-555 -75,-612 -26,-1220 271,30 202,-101 364,-545l264 -647c85,44 219,247 343,45 67,-109 114,-234 187,-350 76,-122 336,-512 444,-606 107,40 115,118 182,156 176,98 221,-128 516,-430 123,-126 533,-492 771,-556 131,140 260,607 304,843 122,664 -91,749 410,672l26 99c103,890 -293,1287 254,1208 -25,251 -98,509 -165,742 -141,495 -223,458 -5,599 -51,143 -327,539 -422,660 -334,423 -486,378 -207,590 -54,123 -383,489 -470,579 -430,449 -1237,1081 -1884,1241 20,-303 312,-1292 394,-1662 234,-29 453,-91 666,-165 171,-60 560,-158 322,-364 -150,-34 -674,201 -899,233 32,-160 285,-1007 345,-1095 43,-37 1145,-132 1208,-302 48,-129 -45,-208 -171,-190 -200,29 -469,148 -940,193 27,-130 307,-921 364,-985 61,-52 947,-129 1028,-303 42,-91 -19,-179 -103,-191 -52,-8 -603,153 -809,183 93,-363 484,-928 325,-1050 -252,-194 -385,566 -545,824l-18 24c-77,-115 -142,-356 -176,-506 -59,-255 -237,-154 -270,-82 -73,237 305,880 300,976 -3,51 -143,397 -174,478l-168 445c-1,-3 -5,8 -9,11 -201,-253 -289,-543 -406,-742 -94,-159 -314,-73 -255,114 29,92 143,300 191,386 76,136 138,246 211,364 147,238 179,172 102,396l-204 649c-11,37 -20,69 -31,107l-44 104c-270,-318 -299,-771 -530,-638 -146,84 6,302 69,417 311,580 402,461 312,798 -97,366 -307,1132 -345,1448l-24 -22c-60,-59 -154,-217 -193,-288 -59,-106 -120,-216 -169,-327 -191,-433 -152,-622 -374,-615 -164,102 -67,267 45,547 351,874 501,583 375,1093 -91,370 -207,974 -230,1350 -9,148 11,225 151,237 107,10 285,3 398,2 147,-2 198,-39 211,-181l78 -718c20,-142 40,-248 -92,-272 -204,-25 -176,185 -201,375 -21,169 -43,346 -54,517l-209 0c47,-480 151,-862 231,-1309 142,77 95,57 277,37 525,-155 902,-335 1313,-646l366 -288c64,-49 119,-111 178,-160 64,-53 106,-93 166,-151 105,-102 211,-216 314,-340 88,-105 201,-243 285,-370 216,-329 125,-303 56,-422 159,-177 326,-407 468,-641 135,-221 436,-647 82,-640 61,-266 155,-509 208,-798 105,-564 87,-650 -234,-564 8,-203 76,-1036 -43,-1235 -65,-108 -201,-53 -328,-35 -43,-360 -63,-601 -179,-928 -60,-168 -225,-678 -441,-625 -215,52 -556,299 -698,413l-426 408c-47,56 -59,82 -119,136 -75,-61 -181,-250 -326,-126 -345,293 -508,677 -705,959 -18,-19 -139,-286 -304,-62 -172,233 -434,888 -490,1160 -137,-64 -234,-79 -265,112 -71,437 -45,826 -39,1254 -121,67 -183,-42 -192,456 -5,268 -16,462 176,472z"/>
   <path class="fil0" d="M2607 6300c-70,34 -110,73 -164,120 -53,46 -113,86 -167,132 -185,155 -48,324 115,256 59,-24 263,-203 325,-253 172,-137 45,-331 -109,-255z"/>
   <path class="fil0" d="M248 5965c88,17 114,-15 170,-54 19,-121 -4,-177 -30,-294 -25,-116 -54,-152 -175,-162 -113,59 -126,93 -93,250 29,133 22,221 128,260z"/>
  </g>
 </g>
</svg>
