<?xml version="1.0" encoding="UTF-8"?>
<!DOCTYPE svg PUBLIC "-//W3C//DTD SVG 1.1//EN" "http://www.w3.org/Graphics/SVG/1.1/DTD/svg11.dtd">
<!-- Creator: CorelDRAW X7 -->
<svg xmlns="http://www.w3.org/2000/svg" xml:space="preserve" width="9.23998in" height="7.69999in" version="1.1" style="shape-rendering:geometricPrecision; text-rendering:geometricPrecision; image-rendering:optimizeQuality; fill-rule:evenodd; clip-rule:evenodd"
viewBox="0 0 9060 7550"
 xmlns:xlink="http://www.w3.org/1999/xlink">
 <defs>
  <style type="text/css">
   <![CDATA[
    .fil0 {fill:black}
   ]]>
  </style>
 </defs>
 <g id="Layer_x0020_1">
  <metadata id="CorelCorpID_0Corel-Layer"/>
  <path class="fil0" d="M8871 2643l-411 0c-53,-68 -110,-132 -178,-185 0,-7 1,-14 1,-20 0,-390 -210,-748 -539,-926 -121,-447 -506,-757 -949,-757 -72,0 -141,11 -208,26 -33,-194 -116,-372 -253,-509 -323,-323 -844,-362 -1277,-98 -373,-101 -801,24 -1101,324 -8,8 -16,16 -24,25 -332,-31 -679,97 -932,351 -67,67 -124,142 -174,222 -273,-180 -602,-247 -899,-167 -433,-264 -954,-225 -1278,98 -323,324 -362,845 -98,1278 -29,108 -34,222 -26,338l-336 0c-105,0 -189,84 -189,188l0 189c0,1869 1138,3476 2757,4168 -67,28 -115,95 -115,173 0,104 85,189 189,189l3397 0c105,0 189,-85 189,-189 0,-78 -47,-145 -114,-173 1619,-692 2757,-2299 2757,-4168l0 -189c0,-104 -85,-188 -189,-188zm-1486 -1008c21,87 78,159 157,197 220,107 363,345 361,635 -6,63 14,122 44,175l-964 0 0 -87 483 -322c86,-58 110,-175 52,-262 -58,-86 -175,-110 -262,-52l-273 182 0 -402c0,-105 -84,-189 -188,-189 -105,0 -189,84 -189,189l0 402 -273 -182c-87,-58 -204,-34 -262,52 -57,87 -34,204 53,262l482 322 0 87 -961 0c30,-55 46,-123 39,-205 0,-260 143,-498 363,-605 79,-38 137,-110 157,-198 68,-295 311,-502 591,-502 279,0 522,207 590,503zm-3464 -734c101,14 210,-28 303,-138 211,-211 508,-297 757,-218 84,26 177,13 253,-37 288,-185 630,-172 833,31 106,105 158,249 158,409 -179,134 -316,329 -379,563 -329,178 -539,536 -539,926 0,7 0,14 0,21 -67,52 -125,116 -177,184l-411 0c104,0 188,-84 188,-188 0,-105 -84,-189 -188,-189l-300 0 378 -378 488 0c104,0 188,-84 188,-188 0,-105 -84,-189 -188,-189l-111 0 433 -433c74,-74 74,-193 0,-267 -74,-73 -193,-73 -267,0l-433 433 0 -111c0,-104 -84,-188 -188,-188 -105,0 -189,84 -189,188l0 489 -324 323c-18,-36 -32,-72 -54,-106l0 -517c0,-104 -84,-189 -188,-189 -105,0 -189,85 -189,189l0 139c-189,-121 -405,-180 -620,-180 32,-51 69,-98 111,-140 181,-180 425,-269 655,-239zm-2999 1479c27,-84 13,-177 -37,-254 -185,-287 -172,-629 31,-832 204,-204 546,-216 833,-31 77,50 169,63 254,37 249,-78 546,7 781,245 1,1 3,2 4,3 32,37 72,65 116,84 13,5 26,5 39,8 26,8 52,19 80,19 13,0 25,-1 38,-3 0,0 1,0 1,0 231,-31 475,59 655,239 189,189 280,452 236,687 -4,20 -1,40 -1,60l-932 0 0 -566c0,-104 -85,-189 -189,-189 -104,0 -189,85 -189,189l0 566 -110 0 -267 -266 0 -677c0,-105 -85,-189 -189,-189 -104,0 -189,84 -189,189l0 299 -432 -433c-74,-73 -194,-73 -267,0 -74,74 -74,193 0,267l754 755 1 0 55 55 -1094 0c-9,-90 -8,-179 18,-262zm3608 4792c-2290,0 -4153,-1863 -4153,-4152l8305 0c0,2289 -1863,4152 -4152,4152z"/>
 </g>
</svg>
