<?xml version="1.0" encoding="UTF-8"?>
<!DOCTYPE svg PUBLIC "-//W3C//DTD SVG 1.1//EN" "http://www.w3.org/Graphics/SVG/1.1/DTD/svg11.dtd">
<!-- Creator: CorelDRAW X7 -->
<svg xmlns="http://www.w3.org/2000/svg" xml:space="preserve" width="3.125in" height="2.59722in" version="1.1" style="shape-rendering:geometricPrecision; text-rendering:geometricPrecision; image-rendering:optimizeQuality; fill-rule:evenodd; clip-rule:evenodd"
viewBox="0 0 1055 877"
 xmlns:xlink="http://www.w3.org/1999/xlink">
 <defs>
  <style type="text/css">
   <![CDATA[
    .fil0 {fill:black}
   ]]>
  </style>
 </defs>
 <g id="Layer_x0020_1">
  <metadata id="CorelCorpID_0Corel-Layer"/>
  <path class="fil0" d="M530 94c0,34 -88,109 -114,135 -30,30 -106,98 -125,128l717 1c26,5 42,29 47,57l0 47c-5,27 -20,51 -44,57 -23,6 -680,2 -720,2 15,23 146,148 184,186 29,29 55,42 55,81 0,31 -58,89 -89,89 -40,0 -82,-56 -123,-97l-275 -275c-23,-23 -38,-39 -43,-54l0 -22c5,-15 19,-32 43,-57l326 -326c26,-25 43,-42 61,-46l16 0c14,3 30,14 50,34 16,16 34,30 34,60z"/>
 </g>
</svg>
