<?xml version="1.0" encoding="UTF-8"?>
<!DOCTYPE svg PUBLIC "-//W3C//DTD SVG 1.1//EN" "http://www.w3.org/Graphics/SVG/1.1/DTD/svg11.dtd">
<!-- Creator: CorelDRAW X7 -->
<svg xmlns="http://www.w3.org/2000/svg" xml:space="preserve" width="3.125in" height="2.59722in" version="1.1" style="shape-rendering:geometricPrecision; text-rendering:geometricPrecision; image-rendering:optimizeQuality; fill-rule:evenodd; clip-rule:evenodd"
viewBox="0 0 14705 12222"
 xmlns:xlink="http://www.w3.org/1999/xlink">
 <defs>
  <style type="text/css">
   <![CDATA[
    .fil0 {fill:black}
   ]]>
  </style>
 </defs>
 <g id="Layer_x0020_1">
  <metadata id="CorelCorpID_0Corel-Layer"/>
  <path class="fil0" d="M7320 1307c0,478 1225,1519 1585,1879 420,420 1475,1374 1748,1781l-9985 14c-368,71 -590,405 -668,796l0 663c75,377 281,701 615,788 319,83 9478,27 10038,27 -218,325 -2037,2069 -2565,2597 -398,399 -768,581 -768,1128 0,430 812,1242 1242,1242 560,0 1139,-781 1715,-1357l3824 -3823c327,-327 536,-550 604,-765l0 -302c-64,-210 -259,-450 -604,-796l-4543 -4542c-350,-350 -594,-582 -844,-637l-227 0c-195,42 -411,191 -694,474 -218,218 -473,416 -473,833z"/>
 </g>
</svg>
