<?xml version="1.0" encoding="UTF-8"?>
<!DOCTYPE svg PUBLIC "-//W3C//DTD SVG 1.1//EN" "http://www.w3.org/Graphics/SVG/1.1/DTD/svg11.dtd">
<!-- Creator: CorelDRAW X7 -->
<svg xmlns="http://www.w3.org/2000/svg" xml:space="preserve" width="5.16094in" height="5.16094in" version="1.1" style="shape-rendering:geometricPrecision; text-rendering:geometricPrecision; image-rendering:optimizeQuality; fill-rule:evenodd; clip-rule:evenodd"
viewBox="0 0 732 732"
 xmlns:xlink="http://www.w3.org/1999/xlink">
 <defs>
  <style type="text/css">
   <![CDATA[
    .str0 {stroke:#FEFEFE;stroke-width:13.9533}
    .fil0 {fill:#FEFEFE}
    .fil1 {fill:#010000}
   ]]>
  </style>
 </defs>
 <g id="Layer_x0020_1">
  <metadata id="CorelCorpID_0Corel-Layer"/>
  <g id="_898855200">
   <circle class="fil0 str0" cx="366" cy="366" r="359"/>
   <path class="fil1" d="M282 425c15,-4 19,-15 23,-24 29,20 28,26 67,26 14,0 20,-4 29,-9 7,-3 7,-3 12,-7 4,-4 7,-6 12,-8 10,7 0,9 24,22 -5,9 -4,10 -13,17 -37,29 -78,35 -122,13 -15,-8 -25,-15 -32,-30zm87 189l-8 0c0,0 0,0 0,0 -62,-5 -112,-2 -173,-23 -60,-21 -56,-52 -35,-100 10,-24 29,-46 55,-55 6,-3 16,-4 21,-7 3,-2 8,-12 10,-17 12,-41 -1,-108 -1,-152 0,-36 13,-78 34,-105 8,-11 25,-24 38,-30 8,-3 18,-6 27,-7l51 0c8,1 13,1 20,3 33,9 58,36 70,68 15,39 10,42 15,78 2,24 -7,55 -7,83 0,22 1,64 14,77 4,5 6,4 12,6 7,1 9,2 14,4 9,3 14,6 21,12 22,19 46,66 46,90 0,46 -67,59 -103,65l-76 8c-10,0 -19,0 -28,0 -7,0 -12,2 -17,2zm-95 -339c0,-11 7,-30 12,-37 20,-31 42,-19 67,-4 11,6 22,11 34,17l49 26c6,3 11,5 17,8 7,-6 9,-10 12,-8 8,5 3,28 -1,35 -3,7 -4,8 -13,9 -3,33 -81,152 -156,34l-14 -31c-6,-7 -14,1 -18,-30 -2,-12 1,-18 11,-19z"/>
  </g>
 </g>
</svg>
