<?xml version="1.0" encoding="UTF-8"?>
<!DOCTYPE svg PUBLIC "-//W3C//DTD SVG 1.1//EN" "http://www.w3.org/Graphics/SVG/1.1/DTD/svg11.dtd">
<!-- Creator: CorelDRAW X7 -->
<svg xmlns="http://www.w3.org/2000/svg" xml:space="preserve" width="5.16094in" height="5.16094in" version="1.1" style="shape-rendering:geometricPrecision; text-rendering:geometricPrecision; image-rendering:optimizeQuality; fill-rule:evenodd; clip-rule:evenodd"
viewBox="0 0 480 480"
 xmlns:xlink="http://www.w3.org/1999/xlink">
 <defs>
  <style type="text/css">
   <![CDATA[
    .str0 {stroke:#FEFEFE;stroke-width:9.15111}
    .fil0 {fill:none}
    .fil1 {fill:#FEFEFE}
   ]]>
  </style>
 </defs>
 <g id="Layer_x0020_1">
  <metadata id="CorelCorpID_0Corel-Layer"/>
  <g id="_803207680">
   <circle class="fil0 str0" cx="240" cy="240" r="235"/>
   <g>
    <path class="fil1" d="M89 354c0,28 35,36 57,40 13,3 30,6 44,6l48 3 69 -4c5,-1 6,-1 11,-2 21,-4 49,-7 65,-22 18,-17 2,-50 -9,-65 -27,-37 -58,-23 -73,-30 -6,9 -12,14 -23,18 -25,8 -71,8 -91,-9l-6 -9c-16,8 -56,-9 -82,43 -3,5 -10,23 -10,31z"/>
    <path class="fil1" d="M292 151c4,7 10,14 10,24 1,0 9,-2 9,9 0,22 -11,22 -12,24 -1,1 -5,11 -6,13 -5,11 -14,25 -24,32 -24,17 -45,14 -63,-6l-10 -10c-5,-7 -8,-15 -12,-24 -5,-12 -2,-2 -9,-9 -5,-5 -5,-16 -5,-23 0,-4 1,-3 3,-5 5,-3 2,2 5,-4 3,-5 8,-28 26,-28 11,0 17,6 32,6 28,0 26,-10 52,3 2,0 1,-1 1,-1 1,0 1,0 1,0l2 -1zm-136 27c0,30 9,24 16,43l12 23c3,4 2,1 6,5 6,6 21,30 49,30 17,0 28,-6 38,-16 3,-3 4,-3 7,-5 3,-3 8,-9 10,-13 8,-11 11,-20 16,-29 6,-11 14,-7 14,-41 0,-7 -5,-6 -5,-15 -1,-8 0,-14 -1,-21 -2,-12 -6,-22 -12,-31 -19,-30 -47,-31 -76,-31 -36,0 -63,30 -68,63 -1,8 0,13 -1,21 0,10 -5,6 -5,17z"/>
   </g>
  </g>
 </g>
</svg>
