<?xml version="1.0" encoding="UTF-8"?>
<!DOCTYPE svg PUBLIC "-//W3C//DTD SVG 1.1//EN" "http://www.w3.org/Graphics/SVG/1.1/DTD/svg11.dtd">
<!-- Creator: CorelDRAW X7 -->
<svg xmlns="http://www.w3.org/2000/svg" xml:space="preserve" width="5.16094in" height="5.16094in" version="1.1" style="shape-rendering:geometricPrecision; text-rendering:geometricPrecision; image-rendering:optimizeQuality; fill-rule:evenodd; clip-rule:evenodd"
viewBox="0 0 724 724"
 xmlns:xlink="http://www.w3.org/1999/xlink">
 <defs>
  <style type="text/css">
   <![CDATA[
    .str0 {stroke:#FEFEFE;stroke-width:13.8111}
    .fil0 {fill:#FEFEFE}
    .fil1 {fill:#010000}
   ]]>
  </style>
 </defs>
 <g id="Layer_x0020_1">
  <metadata id="CorelCorpID_0Corel-Layer"/>
  <g id="_801970512">
   <circle class="fil0 str0" cx="362" cy="362" r="355"/>
   <g>
    <path class="fil1" d="M134 534c0,42 53,54 87,61 19,4 44,9 65,9l73 4 104 -6c8,-1 10,-1 17,-3 31,-6 74,-11 98,-33 27,-26 2,-76 -14,-98 -40,-56 -88,-35 -110,-45 -9,13 -17,20 -34,26 -38,13 -108,13 -137,-13l-10 -13c-24,11 -85,-15 -123,64 -4,8 -16,36 -16,47z"/>
    <path class="fil1" d="M440 228c7,10 15,20 16,37 2,0 13,-4 13,13 0,32 -16,33 -18,36 -2,2 -8,17 -9,19 -8,17 -21,38 -37,49 -35,26 -67,21 -95,-9l-14 -15c-8,-11 -13,-23 -18,-36 -8,-19 -4,-4 -14,-14 -8,-8 -7,-24 -7,-35 0,-5 2,-5 5,-7 6,-5 2,3 7,-7 4,-8 12,-41 39,-41 17,0 25,8 48,8 43,0 40,-15 78,6 4,-2 3,-2 3,-2 0,0 0,-1 1,-1l2 -1zm-205 41c0,45 13,36 25,65l18 34c5,6 3,2 9,7 9,10 31,46 73,46 26,0 43,-10 58,-24 5,-4 5,-4 10,-8 5,-4 12,-14 16,-19 12,-17 16,-30 24,-44 9,-17 21,-11 21,-61 0,-12 -7,-10 -8,-24 -1,-12 0,-20 -2,-31 -3,-18 -9,-34 -17,-47 -28,-45 -71,-46 -115,-46 -55,0 -95,44 -102,95 -2,11 -1,19 -2,31 0,14 -8,8 -8,26z"/>
   </g>
  </g>
 </g>
</svg>
